G04*
G04 #@! TF.GenerationSoftware,Altium Limited,Altium Designer,21.0.8 (223)*
G04*
G04 Layer_Physical_Order=2*
G04 Layer_Color=37055*
%FSTAX24Y24*%
%MOIN*%
G70*
G04*
G04 #@! TF.SameCoordinates,736B94AB-3AD6-4132-BD99-26C8E2632B86*
G04*
G04*
G04 #@! TF.FilePolarity,Positive*
G04*
G01*
G75*
%ADD11C,0.0100*%
%ADD12C,0.0118*%
%ADD14C,0.0079*%
%ADD133C,0.0197*%
%ADD135C,0.0157*%
%ADD137C,0.0394*%
%ADD139C,0.1100*%
%ADD140C,0.1102*%
%ADD141C,0.0827*%
%ADD142C,0.1969*%
%ADD143C,0.1260*%
%ADD144O,0.0815X0.1630*%
%ADD145C,0.1200*%
%ADD146C,0.0591*%
%ADD147R,0.0591X0.0591*%
%ADD148C,0.0984*%
%ADD149R,0.0650X0.0650*%
%ADD150C,0.0650*%
%ADD151C,0.0750*%
%ADD152C,0.0236*%
%ADD153C,0.0276*%
%ADD154C,0.0118*%
%ADD155C,0.0197*%
G36*
X049134Y042756D02*
Y03937D01*
Y037717D01*
X045709D01*
Y036575D01*
X044016D01*
X043937Y036496D01*
Y035945D01*
X043858Y035866D01*
X04252D01*
X042402Y035748D01*
Y035551D01*
X04122Y035551D01*
Y036575D01*
Y042087D01*
X040551Y042756D01*
X037717D01*
Y04439D01*
X038091Y044016D01*
X039843D01*
X040079Y044252D01*
Y045551D01*
X039843Y045787D01*
X037992D01*
X037717Y045512D01*
X037717Y042756D01*
X030354D01*
X029449Y042047D01*
Y042126D01*
X029449Y042205D01*
X029449Y041732D01*
X028898Y042283D01*
X028898D01*
X029449Y041732D01*
X029449Y031614D01*
X029685Y031378D01*
X031102D01*
X031378Y031654D01*
X031378Y040118D01*
X031969Y040709D01*
X039252D01*
X039488Y040472D01*
Y039764D01*
Y039252D01*
X039488Y032953D01*
X039764Y032677D01*
X042559D01*
X042756Y032874D01*
Y034252D01*
Y034291D01*
X042638Y034409D01*
X04126D01*
X041142Y034528D01*
Y034961D01*
X04122Y035039D01*
X045748D01*
Y034488D01*
X045827Y034409D01*
X045827Y034409D01*
X048819D01*
X048819Y034409D01*
X049134D01*
Y031417D01*
X048819D01*
X048819Y028504D01*
X049055D01*
X049055Y028268D01*
X049055Y026811D01*
X048898Y026654D01*
X048819Y026654D01*
X048819Y027704D01*
Y026654D01*
X047323D01*
X047169Y026654D01*
Y024291D01*
X047874D01*
X047953Y024213D01*
Y023701D01*
X047835Y023583D01*
X047169D01*
Y020673D01*
X047169Y020599D01*
X047169Y020476D01*
X047047Y020354D01*
X042205D01*
X042169Y02039D01*
Y020559D01*
X042169Y020582D01*
X042165Y021378D01*
X042323Y021535D01*
X043465D01*
X043661Y021732D01*
Y022402D01*
X043543Y02252D01*
X042165D01*
X041928Y022282D01*
X041935D01*
X041457Y021804D01*
Y019803D01*
X042087Y019173D01*
X048898D01*
X048898Y017756D01*
Y016654D01*
X046693D01*
Y017559D01*
X046496Y017756D01*
X044646D01*
X044449Y017559D01*
X044449Y017362D01*
X044055Y017362D01*
Y017362D01*
X041142D01*
Y019173D01*
Y020118D01*
X041142Y020118D01*
X041142Y021496D01*
X041024Y021614D01*
X039606D01*
X039488Y021496D01*
Y020354D01*
X039488Y020354D01*
X039488Y020354D01*
X039488Y019724D01*
X039488Y018701D01*
X038375Y018701D01*
X039488D01*
X039488Y017913D01*
X038228Y016654D01*
X030512Y016654D01*
X030315Y01685D01*
Y021417D01*
X030197Y021535D01*
X029724Y022008D01*
X027874D01*
Y020945D01*
X029094D01*
X029331Y020709D01*
X029331Y017008D01*
X027598Y017008D01*
X023799D01*
X029331Y017008D01*
X029331Y015945D01*
X029606Y015669D01*
X03126Y015669D01*
X03126Y010118D01*
X025827Y010118D01*
Y010118D01*
X023268Y010118D01*
X022244D01*
X019488Y010118D01*
Y010118D01*
X010354D01*
Y031417D01*
Y040394D01*
Y042362D01*
Y049094D01*
X010433Y049173D01*
X041929D01*
X04185Y049094D01*
X041929Y049173D01*
X049134D01*
Y042756D01*
D02*
G37*
G36*
X040866Y04189D02*
X040866Y034488D01*
X041181Y034173D01*
X04248D01*
X042559Y034094D01*
Y03311D01*
X04248Y033031D01*
X039724Y033031D01*
X039724Y040512D01*
X039291Y040945D01*
X031732Y040945D01*
X031102Y040315D01*
Y031693D01*
X030945Y031535D01*
X029803Y031535D01*
X029685Y031654D01*
X029685Y041758D01*
X030575Y042441D01*
X040315Y042441D01*
X040866Y04189D01*
D02*
G37*
G36*
X03Y021496D02*
X030157Y021339D01*
X030157Y016772D01*
X030472Y016457D01*
X038425Y016457D01*
X039724Y017756D01*
Y01818D01*
X039724Y021362D01*
X039819Y021457D01*
X040827D01*
X040945Y021339D01*
X040945Y017402D01*
X040551Y017008D01*
X040551D01*
Y017008D01*
X039331Y015787D01*
X029764Y015787D01*
X029505Y016046D01*
X029505Y016457D01*
D01*
X029505Y02081D01*
X029213Y021102D01*
X027992D01*
X027992Y02185D01*
X029646Y02185D01*
X03Y021496D01*
D02*
G37*
G36*
X040873Y013891D02*
X040873Y010975D01*
X040656Y010758D01*
X039357Y010758D01*
X039081Y011034D01*
X039081Y012611D01*
X038661Y013031D01*
X034921D01*
X034554Y012664D01*
Y010955D01*
X034357Y010758D01*
X032704Y010758D01*
X032546Y010916D01*
Y01253D01*
X032546Y013648D01*
X033465Y014567D01*
X040197Y014567D01*
X040873Y013891D01*
D02*
G37*
G36*
X045991Y01751D02*
X046109Y017392D01*
X046109Y011841D01*
X046493Y011457D01*
X047795Y011457D01*
X047913Y011339D01*
X047913Y010394D01*
X047747Y010227D01*
X04544Y010227D01*
X04481Y010857D01*
X04481Y017353D01*
X044967Y01751D01*
X045991Y01751D01*
D02*
G37*
%LPC*%
G36*
X017913Y045906D02*
X015984D01*
X015669Y045591D01*
Y04378D01*
X015945Y043504D01*
X017795D01*
X018228Y043937D01*
Y045591D01*
X017913Y045906D01*
D02*
G37*
G36*
X014409D02*
X012795D01*
X012441Y045551D01*
Y043898D01*
X012835Y043504D01*
X01437D01*
X014685Y043819D01*
X014685Y04563D01*
X014409Y045906D01*
D02*
G37*
G36*
X048307Y042913D02*
X043465Y042913D01*
X043307Y042756D01*
X043307Y039449D01*
X043386Y03937D01*
X048307D01*
X048465Y039528D01*
X048504D01*
Y042717D01*
X048307Y042913D01*
D02*
G37*
G36*
X017438Y040318D02*
X017051D01*
X016929Y040197D01*
Y038328D01*
X01697Y038287D01*
X017461D01*
X01752Y038346D01*
Y040236D01*
X017438Y040318D01*
D02*
G37*
G36*
X026142Y033071D02*
X024134D01*
X023976Y032913D01*
Y032638D01*
X024134Y03248D01*
X026074D01*
X02626Y032666D01*
Y032953D01*
X026142Y033071D01*
D02*
G37*
G36*
X018305Y033661D02*
X01811D01*
X017953Y033504D01*
Y031772D01*
X018071Y031654D01*
X018324D01*
X018448Y031778D01*
Y033519D01*
X018305Y033661D01*
D02*
G37*
G36*
X019173D02*
X018986D01*
X018852Y033527D01*
Y031756D01*
X018958Y03165D01*
X019229D01*
X019331Y031752D01*
Y033504D01*
X019173Y033661D01*
D02*
G37*
G36*
X039055Y039685D02*
X036181D01*
X036102Y039606D01*
Y030354D01*
X035866D01*
Y038661D01*
X034882Y039646D01*
X033425D01*
X032244Y038465D01*
Y029685D01*
X032441Y029488D01*
X032835D01*
X032835Y038465D01*
X033346Y038976D01*
X034882Y038976D01*
X035315Y038543D01*
X035315Y030591D01*
X035197Y030472D01*
X034094Y030472D01*
Y028583D01*
Y028228D01*
X03437Y027953D01*
X036575D01*
X037402Y027126D01*
Y023346D01*
X037913Y022835D01*
X038465D01*
Y022717D01*
Y022205D01*
X038543Y022126D01*
X038583Y022087D01*
X038987D01*
X039094Y022194D01*
Y022717D01*
X045945D01*
X04622Y022992D01*
X04622Y027598D01*
X046192Y027626D01*
X045911D01*
X045827Y027542D01*
X045827Y023189D01*
X045669Y023031D01*
X043307D01*
X043701Y023425D01*
X043701D01*
Y025748D01*
X043701D01*
X04378Y025827D01*
Y02622D01*
X043701Y026299D01*
X043504D01*
Y026811D01*
X043425Y02689D01*
X043122D01*
X043032Y026799D01*
Y02378D01*
X042795Y023543D01*
X042717Y023465D01*
X040276Y023465D01*
D01*
X03944Y023465D01*
Y023465D01*
X039016D01*
X039016Y023819D01*
X039331D01*
X03944Y023928D01*
Y024103D01*
X039252Y024291D01*
X039094D01*
X038976Y024409D01*
Y024567D01*
X038976Y024567D01*
X038976Y028425D01*
X039094Y028425D01*
Y027362D01*
X039331Y027126D01*
X039488D01*
Y027126D01*
X040315Y027126D01*
X040433Y027008D01*
Y023898D01*
X04063Y023701D01*
X041553D01*
X041693Y02384D01*
X041693Y026929D01*
X041811Y027047D01*
X042874Y027047D01*
X042874Y027047D01*
X044409D01*
X044488Y026969D01*
Y023465D01*
X044567Y023386D01*
X045551D01*
X04563Y023465D01*
X04563Y027657D01*
X045492Y027795D01*
X039961D01*
X039685Y028071D01*
X039685Y028504D01*
X039685D01*
X039685Y029606D01*
X039213Y030079D01*
X037362Y030079D01*
X037264D01*
Y029469D01*
X037283Y029449D01*
X039016D01*
X039094Y02937D01*
Y028425D01*
X038976D01*
Y029134D01*
D01*
X038976Y028425D01*
X038189Y029213D01*
X037402D01*
X037325Y029136D01*
X037323Y0285D01*
Y028071D01*
X037028Y028268D01*
X034528D01*
X034488Y028307D01*
X034488Y030079D01*
X035Y030079D01*
X035Y029134D01*
X035157Y028976D01*
X036693Y028976D01*
X037087Y02937D01*
Y030157D01*
Y03374D01*
Y03622D01*
Y039016D01*
X039016D01*
Y036339D01*
X038898Y03622D01*
X038386D01*
X038386Y036299D01*
X038307Y036378D01*
X037992Y036378D01*
X037913Y036299D01*
Y036181D01*
Y03598D01*
X037988Y035906D01*
X038661D01*
X038858Y035709D01*
Y034961D01*
X03878Y034882D01*
X03748D01*
X037283Y034685D01*
Y033898D01*
X037362Y033819D01*
X037835D01*
X037953Y033937D01*
Y034213D01*
X038071Y034331D01*
X038504D01*
Y03378D01*
X038504Y032047D01*
X039882Y030669D01*
Y030669D01*
X040945Y029606D01*
X046377Y029606D01*
Y028385D01*
X046496Y028504D01*
Y029606D01*
X046929Y029606D01*
X047008Y029685D01*
X047008Y029016D01*
X047008Y029016D01*
Y030709D01*
X046929Y030787D01*
X041535D01*
X041527Y030796D01*
X041252Y030796D01*
X039291Y032756D01*
X039291Y033031D01*
X039291Y039252D01*
X039291Y039449D01*
X039055Y039685D01*
D02*
G37*
G36*
X027087Y040512D02*
X024921D01*
X024764Y040354D01*
Y039488D01*
X024921Y039331D01*
X02626D01*
X026614Y038976D01*
X026614Y033346D01*
Y031181D01*
X026614D01*
Y028796D01*
X026749Y028661D01*
X027441D01*
X027559Y02878D01*
X027559Y040039D01*
X027087Y040512D01*
D02*
G37*
G36*
X040197Y030197D02*
X039958D01*
X039882Y030121D01*
Y029803D01*
Y02874D01*
X040059Y028563D01*
X043602Y028563D01*
X043701Y028661D01*
X043701Y028898D01*
X043583Y029016D01*
X041012Y029016D01*
X040433Y029016D01*
X040335Y029114D01*
X040335Y030059D01*
X040197Y030197D01*
D02*
G37*
G36*
X043898Y029016D02*
X043601D01*
X043898Y029016D01*
Y028504D01*
X043898Y029016D01*
D02*
G37*
G36*
X043547Y028504D02*
X04171D01*
X043898Y028504D01*
X043547Y028504D01*
D02*
G37*
G36*
X044966Y028321D02*
X04493Y028307D01*
X04498D01*
X044966Y028321D01*
D02*
G37*
G36*
X033504Y027835D02*
X031102D01*
D01*
X033504Y027835D01*
Y027835D01*
D02*
G37*
G36*
X027992Y026929D02*
Y026929D01*
X032087D01*
X027992Y026929D01*
D02*
G37*
G36*
X039094Y02189D02*
X038937Y021732D01*
Y021732D01*
X039094Y02189D01*
D02*
G37*
G36*
X012384Y031417D02*
X012165Y031198D01*
Y021417D01*
X012441Y021142D01*
X014252D01*
X014449Y021339D01*
Y022205D01*
X014252Y022402D01*
X013504D01*
Y03122D01*
X013307Y031417D01*
X012384D01*
D02*
G37*
G36*
X048307Y033976D02*
X047402D01*
X047402Y028898D01*
X046378Y027874D01*
X046378Y022402D01*
X046378Y022402D01*
Y021496D01*
X04626Y021378D01*
X04252D01*
X042452Y02131D01*
Y020825D01*
X042529Y020748D01*
X046654D01*
X046968Y021063D01*
Y027283D01*
X047205Y02752D01*
X048425Y02874D01*
Y033858D01*
X048307Y033976D01*
D02*
G37*
G36*
X039189Y020594D02*
X038862D01*
X037795Y019528D01*
X037598D01*
X037441Y01937D01*
Y018937D01*
X037598Y01878D01*
X03815D01*
X039173Y019803D01*
X039409Y019803D01*
X039173Y019803D01*
X03937Y02D01*
Y020413D01*
X039189Y020594D01*
D02*
G37*
G36*
X037376Y018701D02*
X03689D01*
X037376D01*
D01*
D02*
G37*
G36*
X038071D02*
X037677D01*
D01*
X038071D01*
D01*
D02*
G37*
G36*
X018144Y017008D02*
X016108D01*
X015945Y016845D01*
Y014606D01*
X01622Y014331D01*
X017479Y014331D01*
X017479Y014331D01*
Y014331D01*
X019528D01*
X019921Y013937D01*
X019921Y011772D01*
Y011732D01*
X020236Y011417D01*
X021102D01*
X021496Y011811D01*
Y013819D01*
X021654Y013976D01*
X02248D01*
X025593Y013976D01*
X025787Y014171D01*
Y015039D01*
X025551Y015276D01*
X0171D01*
X016968Y015407D01*
X016968Y015866D01*
X017205Y016102D01*
X018183Y016102D01*
X018268Y016187D01*
X018268Y016884D01*
X018144Y017008D01*
D02*
G37*
G36*
X017283Y014094D02*
X015118D01*
X014921Y013898D01*
Y012913D01*
X015197Y012638D01*
X016299D01*
X016306Y012631D01*
X017198D01*
X017479Y012912D01*
X017479Y013896D01*
X017283Y014094D01*
D02*
G37*
G36*
X016299Y012441D02*
X014803D01*
X016299Y012441D01*
Y012441D01*
D02*
G37*
G36*
X018425Y012362D02*
X01679D01*
X016614Y012186D01*
X016614Y010675D01*
X016738Y010551D01*
X018543D01*
X018661Y010669D01*
Y012126D01*
X018425Y012362D01*
D02*
G37*
G36*
X014522Y012441D02*
X012913D01*
X012717Y012244D01*
Y010789D01*
X012955Y010551D01*
X01464D01*
X014803Y010714D01*
X014803Y01216D01*
X014522Y012441D01*
D02*
G37*
G36*
X021732Y011575D02*
X021535Y011575D01*
X02122Y01126D01*
Y01063D01*
X021378Y010472D01*
X022239D01*
X022441Y010675D01*
Y011299D01*
X022165Y011575D01*
X021732Y011575D01*
D02*
G37*
%LPD*%
G36*
X04622Y042677D02*
X04622Y042441D01*
X046142Y042362D01*
X044094D01*
X044016Y042283D01*
X044016Y039606D01*
X043465Y039606D01*
Y039882D01*
Y042638D01*
X043583Y042756D01*
X046142D01*
X04622Y042677D01*
D02*
G37*
G36*
X039134Y029921D02*
X039567Y029488D01*
X039567Y027953D01*
X039843Y027677D01*
X045276Y027677D01*
X045512Y027441D01*
Y023661D01*
X045472Y023622D01*
Y023622D01*
X045394Y023543D01*
X045394Y023543D01*
X044724Y023543D01*
X044724D01*
X044677Y023591D01*
X044606Y023661D01*
X044606Y027008D01*
X044449Y027165D01*
X041654Y027165D01*
X041535Y027047D01*
X041535D01*
D01*
X041535Y024016D01*
X041378Y023858D01*
X040709D01*
X040551Y024016D01*
X040551Y027047D01*
X040366Y027232D01*
X040354Y027244D01*
X039449Y027244D01*
X039213Y02748D01*
Y02937D01*
X039016Y029567D01*
X037402Y029567D01*
Y029921D01*
X039134Y029921D01*
D02*
G37*
G36*
X027008Y040276D02*
X027402Y039882D01*
X027402Y028898D01*
X027323Y028819D01*
X02685D01*
X026772Y028898D01*
X026772Y039213D01*
X026457Y039528D01*
X025079Y039528D01*
X024961Y039646D01*
Y040197D01*
X025039Y040276D01*
X027008Y040276D01*
D02*
G37*
G36*
X048268Y033465D02*
Y032992D01*
X048268Y032992D01*
X048268Y028858D01*
X04685Y027441D01*
Y021176D01*
X046541Y020866D01*
X042559Y020866D01*
X042559Y02126D01*
X046333Y02126D01*
X046496Y021423D01*
Y027756D01*
X047559Y028819D01*
X047559Y033268D01*
Y033465D01*
X047677Y033583D01*
X04815Y033583D01*
X048268Y033465D01*
D02*
G37*
G36*
X018071Y01626D02*
X017126D01*
X016732Y015866D01*
Y015354D01*
X017008Y015079D01*
X025472D01*
X025591Y014961D01*
X025591Y014291D01*
X025512Y014213D01*
X021614D01*
X021339Y013937D01*
X021339Y01185D01*
X021102Y011614D01*
X020472Y011614D01*
X020236Y01185D01*
X020236Y013976D01*
X019685Y014528D01*
X016339Y014528D01*
X016102Y014764D01*
X016102Y016693D01*
X01626Y01685D01*
X018071D01*
Y01626D01*
D02*
G37*
%LPC*%
G36*
X016654Y015906D02*
X016654Y015079D01*
X016968Y014764D01*
X020846D01*
X016968Y014764D01*
X016654Y015079D01*
Y015906D01*
D02*
G37*
%LPD*%
D11*
X033637Y011566D02*
Y012338D01*
X033695Y013268D02*
X038738D01*
X033637Y013209D02*
X033695Y013268D01*
X038738D02*
X039798Y012207D01*
X033637Y012338D02*
Y013209D01*
X046558Y021024D02*
X046693Y021158D01*
Y027441D01*
X044888Y021024D02*
X046558D01*
X046693Y027441D02*
X047717Y028465D01*
X04298Y021051D02*
X044861D01*
X044888Y021024D01*
X040807Y033189D02*
X041978D01*
X030442Y032126D02*
Y035948D01*
X030147Y032123D02*
X030442D01*
X030415Y031804D02*
X030429Y031817D01*
X030412Y031807D02*
X030415Y031804D01*
X030442Y032123D02*
Y032126D01*
X047717Y028465D02*
Y033031D01*
X040611Y041417D02*
X040669Y041359D01*
Y033326D02*
Y041359D01*
X030315Y039863D02*
X03187Y041417D01*
X040611D01*
X041978Y033188D02*
X042321D01*
X041978Y033189D02*
X041978Y033188D01*
X042321D02*
X042321Y033187D01*
X040669Y033326D02*
X040807Y033189D01*
X029843Y031811D02*
X030118D01*
X030122Y031807D02*
X030412D01*
X030118Y031811D02*
X030122Y031807D01*
X030315Y036075D02*
X030442Y035948D01*
X030429Y03211D02*
X030442Y032123D01*
X030429Y031817D02*
Y03211D01*
X030315Y036075D02*
Y039863D01*
X039798Y012002D02*
Y012207D01*
Y012002D02*
X040117Y011684D01*
D12*
X025425Y015472D02*
X02559D01*
X024425D02*
X025425D01*
X023425D02*
X024425D01*
X023383D02*
X023425D01*
X02559D02*
X025683Y015566D01*
X023289D02*
X023383Y015472D01*
X020371Y015566D02*
X023289D01*
X025683D02*
X027805D01*
X046071Y017984D02*
X047795D01*
X047842Y018032D02*
X047874D01*
X047795Y017984D02*
X047842Y018032D01*
X027806Y013429D02*
Y013461D01*
X02579Y040091D02*
X025849Y04015D01*
X025513Y040091D02*
X02579D01*
X025494Y040072D02*
X025513Y040091D01*
X025849Y04015D02*
X026307D01*
X027Y034662D02*
Y039457D01*
X026307Y04015D02*
X027Y039457D01*
X026929Y029259D02*
Y034591D01*
X027Y029153D02*
Y029189D01*
X026929Y029259D02*
X027Y029189D01*
X026929Y034591D02*
X027Y034662D01*
X026946Y029014D02*
X027223Y029291D01*
X027244D01*
X026925Y029014D02*
X026946D01*
X027244Y029016D02*
Y029291D01*
X027805Y015566D02*
X027874Y015496D01*
Y014843D02*
Y015496D01*
Y013528D02*
Y014843D01*
X027806Y013461D02*
X027874Y013528D01*
D14*
X038386Y027343D02*
G03*
X038307Y027421I-000079J0D01*
G01*
X038071Y02749D02*
G03*
X03814Y027421I000069J0D01*
G01*
Y027559D02*
G03*
X038071Y02749I0J-000069D01*
G01*
X038318Y027559D02*
G03*
X038387Y027628I0J000069D01*
G01*
Y027628D02*
G03*
X038318Y027697I-000069J0D01*
G01*
X038071Y027766D02*
G03*
X03814Y027697I000069J0D01*
G01*
Y027835D02*
G03*
X038071Y027766I0J-000069D01*
G01*
X038307Y027835D02*
G03*
X038386Y027913I0J000079D01*
G01*
X036378Y035492D02*
G03*
X036457Y035413I000079J0D01*
G01*
X036516Y035295D02*
G03*
X036516Y035413I0J000059D01*
G01*
X036427Y035295D02*
G03*
X036427Y035177I0J-000059D01*
G01*
X036516Y035059D02*
G03*
X036516Y035177I0J000059D01*
G01*
X036427Y035059D02*
G03*
X036427Y034941I0J-000059D01*
G01*
X036516Y034823D02*
G03*
X036516Y034941I0J000059D01*
G01*
X036427Y034823D02*
G03*
X036427Y034705I0J-000059D01*
G01*
X036516Y034587D02*
G03*
X036516Y034705I0J000059D01*
G01*
X036427Y034587D02*
G03*
X036427Y034469I0J-000059D01*
G01*
X036516Y03435D02*
G03*
X036516Y034469I0J000059D01*
G01*
X036427Y03435D02*
G03*
X036427Y034232I0J-000059D01*
G01*
X036516Y034114D02*
G03*
X036516Y034232I0J000059D01*
G01*
X036427Y034114D02*
G03*
X036427Y033996I0J-000059D01*
G01*
X036516Y033878D02*
G03*
X036516Y033996I0J000059D01*
G01*
X036427Y033878D02*
G03*
X036427Y03376I0J-000059D01*
G01*
X036516Y033642D02*
G03*
X036516Y03376I0J000059D01*
G01*
X036457Y033642D02*
G03*
X036378Y033563I0J-000079D01*
G01*
X036732Y036181D02*
G03*
X036653Y03626I-000079J0D01*
G01*
X036594Y036378D02*
G03*
X036594Y03626I0J-000059D01*
G01*
X036752Y036378D02*
G03*
X036752Y036496I0J000059D01*
G01*
X036594Y036614D02*
G03*
X036594Y036496I0J-000059D01*
G01*
X036752Y036614D02*
G03*
X036752Y036732I0J000059D01*
G01*
X036594Y03685D02*
G03*
X036594Y036732I0J-000059D01*
G01*
X036752Y03685D02*
G03*
X036752Y036969I0J000059D01*
G01*
X036594Y037087D02*
G03*
X036594Y036969I0J-000059D01*
G01*
X036752Y037087D02*
G03*
X036752Y037205I0J000059D01*
G01*
X036594Y037323D02*
G03*
X036594Y037205I0J-000059D01*
G01*
X036752Y037323D02*
G03*
X036752Y037441I0J000059D01*
G01*
X036594Y037559D02*
G03*
X036594Y037441I0J-000059D01*
G01*
X036752Y037559D02*
G03*
X036752Y037677I0J000059D01*
G01*
X036594Y037795D02*
G03*
X036594Y037677I0J-000059D01*
G01*
X036752Y037795D02*
G03*
X036752Y037913I0J000059D01*
G01*
X036594Y038031D02*
G03*
X036594Y037913I0J-000059D01*
G01*
X036653Y038031D02*
G03*
X036732Y03811I0J000079D01*
G01*
X038819Y024923D02*
G03*
X03874Y025002I-000079J0D01*
G01*
X038543Y025071D02*
G03*
X038612Y025002I000069J0D01*
G01*
Y02514D02*
G03*
X038543Y025071I0J-000069D01*
G01*
X038789Y02514D02*
G03*
X038858Y025209I0J000069D01*
G01*
Y025209D02*
G03*
X038789Y025278I-000069J0D01*
G01*
X038543Y025346D02*
G03*
X038612Y025278I000069J0D01*
G01*
Y025415D02*
G03*
X038543Y025346I0J-000069D01*
G01*
X038789Y025415D02*
G03*
X038858Y025484I0J000069D01*
G01*
Y025484D02*
G03*
X038789Y025553I-000069J0D01*
G01*
X038543Y025622D02*
G03*
X038612Y025553I000069J0D01*
G01*
Y025691D02*
G03*
X038543Y025622I0J-000069D01*
G01*
X038789Y025691D02*
G03*
X038858Y02576I0J000069D01*
G01*
Y02576D02*
G03*
X038789Y025829I-000069J0D01*
G01*
X038543Y025898D02*
G03*
X038612Y025829I000069J0D01*
G01*
Y025967D02*
G03*
X038543Y025898I0J-000069D01*
G01*
X038789Y025967D02*
G03*
X038858Y026035I0J000069D01*
G01*
Y026035D02*
G03*
X038789Y026104I-000069J0D01*
G01*
X038543Y026173D02*
G03*
X038612Y026104I000069J0D01*
G01*
Y026242D02*
G03*
X038543Y026173I0J-000069D01*
G01*
X038789Y026242D02*
G03*
X038858Y026311I0J000069D01*
G01*
Y026311D02*
G03*
X038789Y02638I-000069J0D01*
G01*
X038578Y026449D02*
G03*
X038647Y02638I000069J0D01*
G01*
Y026518D02*
G03*
X038578Y026449I0J-000069D01*
G01*
X038789Y026518D02*
G03*
X038858Y026587I0J000069D01*
G01*
Y026587D02*
G03*
X038789Y026656I-000069J0D01*
G01*
X038543Y026724D02*
G03*
X038612Y026656I000069J0D01*
G01*
Y026793D02*
G03*
X038543Y026724I0J-000069D01*
G01*
X038789Y026793D02*
G03*
X038858Y026862I0J000069D01*
G01*
Y026862D02*
G03*
X038789Y026931I-000069J0D01*
G01*
X038543Y027D02*
G03*
X038612Y026931I000069J0D01*
G01*
Y027069D02*
G03*
X038543Y027I0J-000069D01*
G01*
X03874Y027069D02*
G03*
X038819Y027148I0J000079D01*
G01*
X043845Y030157D02*
G03*
X043924Y030079I000079J0D01*
G01*
X043845Y030177D02*
G03*
X043727Y030177I-000059J0D01*
G01*
X043609Y030138D02*
G03*
X043727Y030138I000059J0D01*
G01*
X043609Y030177D02*
G03*
X04349Y030177I-000059J0D01*
G01*
X043412Y030079D02*
G03*
X04349Y030157I0J000079D01*
G01*
X041983Y036769D02*
X041994Y036758D01*
X041983Y036769D02*
Y038189D01*
X041732Y041732D02*
Y042441D01*
Y04169D02*
Y041732D01*
X044298Y042559D02*
X046063D01*
X046083Y04254D01*
X043701Y041962D02*
X044298Y042559D01*
X040932Y030777D02*
X040974D01*
X040872Y030836D02*
X040932Y030777D01*
X040029Y031664D02*
X040029D01*
X040857Y030836D02*
X040872D01*
X040029Y031664D02*
X040857Y030836D01*
X039173Y03252D02*
X040029Y031664D01*
X039016Y032402D02*
X041024Y030394D01*
X046676D01*
X039016Y032402D02*
Y035827D01*
X03874Y036102D02*
X039016Y035827D01*
X038661Y032179D02*
X040919Y029921D01*
X038819Y032244D02*
Y034586D01*
X038661Y032179D02*
Y034521D01*
X038576Y034606D02*
X038661Y034521D01*
X040919Y029921D02*
X041654D01*
X038641Y034764D02*
X038819Y034586D01*
Y032244D02*
X040984Y030079D01*
X037706Y034764D02*
X038641D01*
X039001Y03934D02*
X039173Y039168D01*
Y03252D02*
Y039168D01*
X037047Y039409D02*
X038031D01*
X036969Y039331D02*
X037047Y039409D01*
X047527Y020204D02*
Y020834D01*
X04185Y020138D02*
X042225Y019764D01*
X042008Y020204D02*
Y021521D01*
X041693Y020042D02*
Y021652D01*
Y020042D02*
X042168Y019567D01*
X042008Y020204D02*
X042054Y020157D01*
X047481D02*
X047527Y020204D01*
X042054Y020157D02*
X047481D01*
X04185Y020138D02*
Y021586D01*
X042168Y019567D02*
X048425D01*
X042225Y019764D02*
X047874D01*
X041693Y021652D02*
X042325Y022283D01*
X04185Y021586D02*
X042272Y022008D01*
X047047Y023898D02*
X047591D01*
X047622Y023929D01*
X048425Y019567D02*
X048622Y019764D01*
X04815Y020039D02*
Y021883D01*
X047874Y019764D02*
X04815Y020039D01*
X048622Y019764D02*
Y020929D01*
X042008Y021521D02*
X042219Y021732D01*
X042325Y022283D02*
X043307D01*
X042272Y022008D02*
X04315D01*
X042219Y021732D02*
X042953D01*
X038386Y024219D02*
Y026949D01*
Y027343D01*
X03814Y027421D02*
X038307D01*
X038071Y02749D02*
Y02749D01*
X03814Y027559D02*
X038318D01*
X038387Y027628D02*
Y027628D01*
X03814Y027697D02*
X038318D01*
X038071Y027766D02*
Y027766D01*
X03814Y027835D02*
X038307D01*
X038386Y027913D02*
Y028061D01*
Y028091D01*
Y028386D01*
X037913Y024094D02*
Y028164D01*
X037849Y028228D02*
X037913Y028164D01*
Y024094D02*
X038465Y023543D01*
X037559Y028228D02*
X037849D01*
X037828Y034606D02*
X038576D01*
X043229Y029921D02*
X043372D01*
X043445D01*
X043789Y039912D02*
Y040088D01*
X043776Y040101D02*
X043789Y040088D01*
X043776Y040157D02*
X043816Y040198D01*
X043789Y039912D02*
X043819Y039882D01*
X043776Y040101D02*
Y040157D01*
X043816Y040198D02*
Y041291D01*
X041874Y038298D02*
X041983Y038189D01*
X041874Y038298D02*
Y041548D01*
X041732Y04169D02*
X041874Y041548D01*
X041732Y042441D02*
X043465Y044173D01*
X043701Y04171D02*
Y041962D01*
X043816Y041299D02*
Y041594D01*
X043701Y04171D02*
X043816Y041594D01*
X036378Y029764D02*
Y033406D01*
Y035492D02*
Y036267D01*
X036457Y035413D02*
X036516D01*
X036427Y035295D02*
X036516D01*
X036427Y035177D02*
X036516D01*
X036427Y035059D02*
X036516D01*
X036427Y034941D02*
X036516D01*
X036427Y034823D02*
X036516D01*
X036427Y034705D02*
X036516D01*
X036427Y034587D02*
X036516D01*
X036427Y034469D02*
X036516D01*
X036427Y03435D02*
X036516D01*
X036427Y034232D02*
X036516D01*
X036427Y034114D02*
X036516D01*
X036427Y033996D02*
X036516D01*
X036427Y033878D02*
X036516D01*
X036427Y03376D02*
X036516D01*
X036457Y033642D02*
X036516D01*
X036378Y033406D02*
Y033563D01*
Y036267D02*
Y039409D01*
X036142Y029528D02*
X036378Y029764D01*
X036732Y03004D02*
Y035879D01*
Y036181D01*
X036594Y03626D02*
X036653D01*
X036594Y036378D02*
X036752D01*
X036594Y036496D02*
X036752D01*
X036594Y036614D02*
X036752D01*
X036594Y036732D02*
X036752D01*
X036594Y03685D02*
X036752D01*
X036594Y036969D02*
X036752D01*
X036594Y037087D02*
X036752D01*
X036594Y037205D02*
X036752D01*
X036594Y037323D02*
X036752D01*
X036594Y037441D02*
X036752D01*
X036594Y037559D02*
X036752D01*
X036594Y037677D02*
X036752D01*
X036594Y037795D02*
X036752D01*
X036594Y037913D02*
X036752D01*
X036594Y038031D02*
X036653D01*
X036732Y03811D02*
Y038268D01*
Y039423D01*
X038819Y024606D02*
Y024923D01*
X038612Y025002D02*
X03874D01*
X038543Y025071D02*
Y025071D01*
X038612Y02514D02*
X038789D01*
X038858Y025209D02*
Y025209D01*
X038612Y025278D02*
X038789D01*
X038543Y025346D02*
Y025346D01*
X038612Y025415D02*
X038789D01*
X038858Y025484D02*
Y025484D01*
X038612Y025553D02*
X038789D01*
X038543Y025622D02*
Y025622D01*
X038612Y025691D02*
X038789D01*
X038858Y02576D02*
Y02576D01*
X038612Y025829D02*
X038789D01*
X038543Y025898D02*
Y025898D01*
X038612Y025967D02*
X038789D01*
X038858Y026035D02*
Y026035D01*
X038612Y026104D02*
X038789D01*
X038543Y026173D02*
Y026173D01*
X038612Y026242D02*
X038789D01*
X038858Y026311D02*
Y026311D01*
X038647Y02638D02*
X038789D01*
X038578Y026449D02*
Y026449D01*
X038647Y026518D02*
X038789D01*
X038858Y026587D02*
Y026587D01*
X038612Y026656D02*
X038789D01*
X038543Y026724D02*
Y026724D01*
X038612Y026793D02*
X038789D01*
X038858Y026862D02*
Y026862D01*
X038612Y026931D02*
X038789D01*
X038543Y027D02*
Y027D01*
X038612Y027069D02*
X03874D01*
X038819Y027148D02*
Y027325D01*
Y028307D01*
X037598Y028622D02*
X03815D01*
X038386Y028386D01*
X038819Y024373D02*
Y024606D01*
X038386Y024219D02*
X03878Y023826D01*
X044528Y044173D02*
X045387D01*
X043465D02*
X044528D01*
Y04302D02*
Y044173D01*
X0445Y042992D02*
X044528Y04302D01*
X045508Y041085D02*
X047395D01*
X045486Y041063D02*
X045508Y041085D01*
X047395D02*
X047417Y041106D01*
X04575Y04075D02*
X0482D01*
X045748Y040748D02*
X04575Y04075D01*
X045748Y040748D02*
X04767D01*
X0482Y04075D02*
X048202Y040752D01*
X045396Y044182D02*
X045482D01*
X045387Y044173D02*
X045396Y044182D01*
X045482D02*
X045512Y044213D01*
X038819Y024373D02*
X039141Y024051D01*
X03815Y028976D02*
X038819Y028307D01*
X03878Y023819D02*
Y023826D01*
X037638Y028976D02*
X03815D01*
X035704Y029267D02*
X03659D01*
X035607Y029213D02*
X03565D01*
X035704Y029267D01*
X03659D02*
X036969Y029646D01*
X035607Y029528D02*
X036142D01*
X036969Y029646D02*
Y039331D01*
X038223Y023071D02*
X043098D01*
X043583Y023556D01*
X037808Y023694D02*
X038195Y023307D01*
X042913D01*
X037808Y023694D02*
X037808D01*
X037612Y023989D02*
Y027217D01*
X036679Y02815D02*
X037612Y027217D01*
X038819Y022828D02*
X038865Y022874D01*
X045743D02*
X046024Y023155D01*
X038819Y022323D02*
Y022828D01*
X038865Y022874D02*
X045743D01*
X036732Y039423D02*
X036732Y039423D01*
Y03004D02*
X036732Y030039D01*
X03252Y029843D02*
Y038465D01*
X033485Y03943D02*
X034035D01*
X03252Y038465D02*
X033485Y03943D01*
X034449Y039409D02*
X034724D01*
X035591Y038543D01*
Y034028D02*
Y038543D01*
X040984Y030079D02*
X043372D01*
X043924D02*
X044413D01*
X043845Y030157D02*
Y030177D01*
X043727Y030138D02*
Y030177D01*
X043609Y030138D02*
Y030177D01*
X04349Y030157D02*
Y030177D01*
X043372Y030079D02*
X043412D01*
X037835Y019331D02*
X037877D01*
X03794Y019393D01*
X037949D02*
X038949Y020394D01*
Y020394D01*
X03794Y019393D02*
X037949D01*
X038061Y019045D02*
X039134Y020118D01*
X037913Y019016D02*
X037943Y019045D01*
X039134Y020118D02*
X039146D01*
X037943Y019045D02*
X038061D01*
X040092Y029137D02*
Y029969D01*
X040092Y028927D02*
Y029137D01*
Y028927D02*
X04024Y028778D01*
X04024Y028778D02*
X043348D01*
X034435Y02815D02*
X036679D01*
X035588Y034025D02*
X035591Y034028D01*
X042638Y029921D02*
X043229D01*
X039418Y027574D02*
Y029167D01*
X039175Y029752D02*
X039418Y02951D01*
X038794Y029752D02*
X039175D01*
X039418Y029167D02*
Y02951D01*
Y027574D02*
X039472Y02752D01*
X040636D01*
X046623Y029213D02*
X046784Y029052D01*
X047147D01*
X042677Y029213D02*
X046623D01*
X047147Y029052D02*
Y034252D01*
X046024Y023155D02*
Y027298D01*
X043307Y023701D02*
Y026654D01*
X042913Y023307D02*
X043307Y023701D01*
X043583Y023556D02*
Y026024D01*
X035394Y022165D02*
X035591Y021969D01*
X037402D01*
X047147Y034252D02*
X048615D01*
X045715D02*
X047147D01*
X035588Y029862D02*
Y034025D01*
Y029862D02*
X035598Y029852D01*
X034291Y028294D02*
Y029961D01*
Y028294D02*
X034435Y02815D01*
X041968Y023858D02*
Y025827D01*
X045627Y014988D02*
Y016281D01*
Y014988D02*
X045676Y01494D01*
X04559Y011047D02*
Y013604D01*
X045781Y010857D02*
X04729D01*
X04559Y013604D02*
X045676Y01369D01*
Y01494D01*
X04559Y011047D02*
X045781Y010857D01*
X041983Y038189D02*
X042023Y03815D01*
X04374D01*
X046676Y030394D02*
X04668Y03039D01*
X0448Y030154D02*
X044843D01*
X044413Y030079D02*
X044725D01*
X0448Y030154D01*
X044741Y029921D02*
X044823Y029839D01*
X044843D01*
X043445Y029921D02*
X044741D01*
X041654D02*
X041772D01*
X042165D02*
X042638D01*
X041772D02*
X042165D01*
X045706Y034261D02*
X045715Y034252D01*
X048615D02*
X048661Y034206D01*
X045591Y034291D02*
X045621Y034261D01*
X048661Y027165D02*
Y034206D01*
X045621Y034261D02*
X045706D01*
X048622Y027126D02*
X048661Y027165D01*
X048122Y027126D02*
X048622D01*
X047622D02*
X048122D01*
X04815Y027098D01*
X045343Y024062D02*
X045354Y024073D01*
X04495Y024054D02*
X044957Y024062D01*
X045343D01*
X045354Y024073D02*
Y027277D01*
X045111Y02752D02*
X045354Y027277D01*
X03815Y036102D02*
X03874D01*
X03749Y034134D02*
Y034548D01*
Y034134D02*
X03749Y034134D01*
X037782Y034384D02*
Y03456D01*
X03749Y034548D02*
X037706Y034764D01*
X037782Y034384D02*
X037795Y03437D01*
X037782Y03456D02*
X037828Y034606D01*
X041184Y02752D02*
X045111D01*
X047527Y020834D02*
X047622Y020929D01*
X04815Y021883D02*
X048196Y021929D01*
X048622D01*
X028504Y021339D02*
X029605D01*
X029651Y021292D01*
Y016815D02*
Y021292D01*
Y016713D02*
X029654Y016715D01*
Y016813D01*
X029651Y016815D02*
X029654Y016813D01*
X029651Y016298D02*
Y016713D01*
X040712Y024035D02*
Y025429D01*
X040711Y025433D02*
Y025706D01*
X040709Y025709D02*
X040711Y025706D01*
X040712Y025429D02*
X040714Y025431D01*
X040709Y025709D02*
Y0261D01*
X040711Y025433D02*
X040714Y025431D01*
X040711Y024034D02*
X040712Y024035D01*
X040709Y0261D02*
X040787Y026179D01*
Y026528D01*
X040644Y027512D02*
X040669Y027487D01*
Y026646D02*
X040787Y026528D01*
X040902Y027516D02*
X040906Y02752D01*
X040636D02*
X040644Y027512D01*
X040648Y027516D02*
X040902D01*
X040644Y027512D02*
X040648Y027516D01*
X040669Y026646D02*
Y027487D01*
X040906Y02752D02*
X040908Y027518D01*
X041178D02*
X04118Y027516D01*
X041184Y02752D01*
X040908Y027518D02*
X041178D01*
X037524Y029775D02*
X037848D01*
X037518Y029781D02*
X037524Y029775D01*
X037848D02*
X03786Y029764D01*
X038775Y02977D02*
X038794Y029752D01*
X03786Y029764D02*
X038769D01*
X038775Y02977D01*
X020944Y011118D02*
X020954D01*
X021575Y011739D02*
Y012047D01*
X020654Y010827D02*
X020944Y011118D01*
X020954D02*
X021575Y011739D01*
X02073Y012104D02*
Y012969D01*
X016811Y014646D02*
X020591D01*
X020827Y014409D01*
X016393Y015064D02*
X016811Y014646D01*
X016393Y015064D02*
Y016418D01*
X02073Y012104D02*
X020827Y012008D01*
X0207Y012999D02*
X02073Y012969D01*
X020827Y012756D02*
Y014409D01*
Y012008D02*
Y012559D01*
X022885Y014409D02*
X022923Y014371D01*
X020827Y014409D02*
X022885D01*
X022923Y014371D02*
X025024D01*
X033071Y024252D02*
X035D01*
X026936D02*
X033071D01*
Y022992D02*
Y024252D01*
X035D02*
X035394Y023858D01*
Y02248D02*
Y023858D01*
X026788Y0244D02*
X026936Y024252D01*
X02675Y0244D02*
X026788D01*
D133*
X02595Y032815D02*
G03*
X025951Y032815I0J000197D01*
G01*
X024732Y032815D02*
X02595D01*
X02422Y032814D02*
X024732Y032815D01*
X025951Y032815D02*
X025962D01*
X017245Y038563D02*
Y040077D01*
X017229Y038536D02*
Y038547D01*
X017245Y038563D01*
X019704Y0352D02*
Y038381D01*
Y035054D02*
Y0352D01*
X020325Y031125D02*
X02045Y031D01*
X0197Y03175D02*
X020325Y031125D01*
X02045Y02905D02*
Y031D01*
Y0273D02*
Y02905D01*
X0211D01*
X018465Y03975D02*
X0218D01*
X02045Y0273D02*
X0212Y02655D01*
Y0245D02*
Y02655D01*
Y0245D02*
X0213Y0244D01*
X02185D01*
X02675D01*
X019709Y03855D02*
Y039689D01*
X0182Y039485D02*
X018465Y03975D01*
X019709Y038385D02*
Y03855D01*
X019723Y038535D02*
X020359D01*
X019709Y03855D02*
X019723Y038535D01*
X01768Y037892D02*
X017691Y037882D01*
X018085D01*
X0182Y037997D01*
Y039485D01*
X017655Y037892D02*
X01768D01*
X01885Y03935D02*
Y0396D01*
X0197Y03175D02*
Y03505D01*
X019704Y035054D01*
Y038381D02*
X019709Y038385D01*
D135*
X018222Y031898D02*
Y03342D01*
Y031898D02*
X018223Y031897D01*
X019094Y031867D02*
Y033383D01*
D137*
X019704Y0352D02*
X02035D01*
X020325Y031125D02*
X02035Y03115D01*
X0211D01*
X02185Y0244D02*
Y0267D01*
D139*
X035952Y011526D02*
D03*
X033952D02*
D03*
X038078D02*
D03*
X040078D02*
D03*
D140*
X017591Y011372D02*
D03*
X013591D02*
D03*
D141*
X016591Y013372D02*
D03*
X015591D02*
D03*
D142*
X030197Y011378D02*
D03*
X011417Y011339D02*
D03*
X011457Y047795D02*
D03*
D143*
X039098Y044882D02*
D03*
X017203D02*
D03*
D144*
X042559D02*
D03*
X013858D02*
D03*
D145*
X04729Y015657D02*
D03*
X04249Y010857D02*
D03*
X04829Y013257D02*
D03*
X04249Y015657D02*
D03*
X04729Y010857D02*
D03*
D146*
X047622Y027126D02*
D03*
Y026126D02*
D03*
Y025126D02*
D03*
X048622Y027126D02*
D03*
Y026126D02*
D03*
Y021929D02*
D03*
Y022929D02*
D03*
Y023929D02*
D03*
X047622Y020929D02*
D03*
Y021929D02*
D03*
Y022929D02*
D03*
Y023929D02*
D03*
D147*
X048622Y025126D02*
D03*
Y020929D02*
D03*
D148*
X046425Y037079D02*
D03*
Y035079D02*
D03*
X048425D02*
D03*
Y037079D02*
D03*
X047425Y036079D02*
D03*
D149*
X01385Y02185D02*
D03*
D150*
X01285D02*
D03*
X01385Y02285D02*
D03*
X01285D02*
D03*
X01385Y02385D02*
D03*
X01285D02*
D03*
X01385Y02485D02*
D03*
X01285D02*
D03*
X01385Y02585D02*
D03*
X01285D02*
D03*
X01385Y02685D02*
D03*
X01285D02*
D03*
X01385Y02785D02*
D03*
X01285D02*
D03*
X01385Y02885D02*
D03*
X01285D02*
D03*
X01385Y02985D02*
D03*
X01285D02*
D03*
X01385Y03085D02*
D03*
X01285D02*
D03*
D151*
X020827Y012008D02*
D03*
X022827D02*
D03*
X021827Y011008D02*
D03*
D152*
X041994Y036758D02*
D03*
X030472Y017165D02*
D03*
X031102Y016772D02*
D03*
X031024Y015463D02*
D03*
X030391Y01425D02*
D03*
X030394Y015472D02*
D03*
X031048Y013775D02*
D03*
X029717Y012748D02*
D03*
X027876Y012761D02*
D03*
X025204Y012766D02*
D03*
X046083Y04254D02*
D03*
X028228Y021654D02*
D03*
X040974Y030777D02*
D03*
X039001Y03934D02*
D03*
X038031Y039409D02*
D03*
X043307Y022283D02*
D03*
X04315Y022008D02*
D03*
X042953Y021732D02*
D03*
X04298Y021051D02*
D03*
X043819Y039882D02*
D03*
X041732Y041732D02*
D03*
X043816Y041299D02*
D03*
X036378Y039409D02*
D03*
X0445Y042992D02*
D03*
X045748Y040748D02*
D03*
X047452Y041112D02*
D03*
X045486Y041063D02*
D03*
X048202Y040752D02*
D03*
X045661Y044209D02*
D03*
X04374Y03815D02*
D03*
X03878Y023819D02*
D03*
X039141Y024051D02*
D03*
X038465Y023543D02*
D03*
X035607Y029528D02*
D03*
X037808Y023694D02*
D03*
X037612Y023989D02*
D03*
X038223Y023071D02*
D03*
X041968Y023858D02*
D03*
X038819Y022323D02*
D03*
X038949Y020394D02*
D03*
X040711Y024034D02*
D03*
X040065Y021016D02*
D03*
X041378Y024034D02*
D03*
X041178Y024252D02*
D03*
X041024Y024034D02*
D03*
X040869Y024252D02*
D03*
X039146Y020118D02*
D03*
X036732Y030039D02*
D03*
X036732Y039423D02*
D03*
X044843Y030154D02*
D03*
Y029839D02*
D03*
X037835Y019331D02*
D03*
X038937Y018543D02*
D03*
X037598Y028622D02*
D03*
X037559Y028228D02*
D03*
X037638Y028976D02*
D03*
X042677Y029213D02*
D03*
X043348Y028778D02*
D03*
X043307Y026654D02*
D03*
X043583Y026024D02*
D03*
X046024Y027298D02*
D03*
X045669Y021535D02*
D03*
X037402Y021969D02*
D03*
X018223Y031897D02*
D03*
X035598Y029852D02*
D03*
X035607Y029213D02*
D03*
X0357Y028499D02*
D03*
Y027441D02*
D03*
X040092Y029969D02*
D03*
X047147Y029052D02*
D03*
X03252Y029843D02*
D03*
X045315Y016614D02*
D03*
Y016339D02*
D03*
X045669D02*
D03*
X045983Y016341D02*
D03*
X045669Y016614D02*
D03*
X045984D02*
D03*
X047874Y018032D02*
D03*
X034291Y029961D02*
D03*
X034449Y039409D02*
D03*
X034035Y03943D02*
D03*
X041776Y033641D02*
D03*
X04213D02*
D03*
X042135Y033332D02*
D03*
X041781Y033334D02*
D03*
X041772Y033937D02*
D03*
X042126D02*
D03*
X047717Y033031D02*
D03*
X023898Y013425D02*
D03*
X04668Y03039D02*
D03*
X045591Y034291D02*
D03*
X041968Y025827D02*
D03*
X04535Y024069D02*
D03*
X04495Y024054D02*
D03*
X045354Y02378D02*
D03*
X044961D02*
D03*
X03815Y036102D02*
D03*
X037795Y03437D02*
D03*
X03749Y034134D02*
D03*
X046071Y017984D02*
D03*
X028819Y021654D02*
D03*
X028504D02*
D03*
X040392Y021009D02*
D03*
X040696Y021005D02*
D03*
X040066Y020716D02*
D03*
X040394Y020709D02*
D03*
X040698Y020705D02*
D03*
X037913Y019016D02*
D03*
X028228Y021339D02*
D03*
X028504D02*
D03*
X028819D02*
D03*
X040714Y025431D02*
D03*
X040709Y025709D02*
D03*
X040644Y027512D02*
D03*
X04118Y027516D02*
D03*
X040906Y02752D02*
D03*
X030714Y03241D02*
D03*
X030447D02*
D03*
X030144D02*
D03*
X029862Y032414D02*
D03*
X02422Y032814D02*
D03*
X025962Y032815D02*
D03*
X029857Y03213D02*
D03*
X03014Y032126D02*
D03*
X029843Y031811D02*
D03*
X030118D02*
D03*
X030442Y032126D02*
D03*
X030415Y031811D02*
D03*
X030709Y032126D02*
D03*
Y031811D02*
D03*
X033071Y022638D02*
D03*
X035079Y022165D02*
D03*
X035394D02*
D03*
X035079Y02248D02*
D03*
X025521Y040072D02*
D03*
X02523D02*
D03*
Y039685D02*
D03*
X025521D02*
D03*
X026929Y029291D02*
D03*
X027244D02*
D03*
X026925Y029014D02*
D03*
X027244Y029016D02*
D03*
X03274Y017047D02*
D03*
X029944Y016296D02*
D03*
X029651Y016298D02*
D03*
X029944Y015939D02*
D03*
X034843Y017047D02*
D03*
X020354Y012677D02*
D03*
X02036Y012362D02*
D03*
X02103Y012677D02*
D03*
X020703Y01268D02*
D03*
X025039Y014685D02*
D03*
X025369Y014681D02*
D03*
X025024Y014371D02*
D03*
X025353D02*
D03*
X017441Y016694D02*
D03*
Y016418D02*
D03*
X016393D02*
D03*
X042402Y01748D02*
D03*
X044961Y016339D02*
D03*
Y016614D02*
D03*
X03895Y018108D02*
D03*
X037815Y017638D02*
D03*
X034902D02*
D03*
X032776D02*
D03*
X038012Y017047D02*
D03*
X027874Y014843D02*
D03*
X025197Y013425D02*
D03*
X029691Y013423D02*
D03*
X027835D02*
D03*
X020371Y015566D02*
D03*
X016393Y016694D02*
D03*
X035394Y02248D02*
D03*
X017229Y038536D02*
D03*
X017245Y040077D02*
D03*
X033071Y022992D02*
D03*
X018222Y03342D02*
D03*
X0211Y02905D02*
D03*
X02675Y0244D02*
D03*
X02185Y0267D02*
D03*
Y0244D02*
D03*
X01885Y03935D02*
D03*
X017645Y0379D02*
D03*
X0218Y03975D02*
D03*
X02035Y0352D02*
D03*
X019087Y03342D02*
D03*
X0211Y03115D02*
D03*
X019088Y031903D02*
D03*
X020359Y038535D02*
D03*
D153*
X042559Y036772D02*
D03*
X043071D02*
D03*
X043661D02*
D03*
X04534Y03488D02*
D03*
X041995Y035755D02*
D03*
X045433Y036772D02*
D03*
X044724D02*
D03*
X044213D02*
D03*
X042047Y034882D02*
D03*
X044685D02*
D03*
X044094D02*
D03*
X043504D02*
D03*
X023769Y011448D02*
D03*
X016614Y027968D02*
D03*
X01566Y02874D02*
D03*
X01752Y030354D02*
D03*
X016575Y029496D02*
D03*
X01562D02*
D03*
X01752D02*
D03*
X017559Y027205D02*
D03*
Y027968D02*
D03*
X01562Y030354D02*
D03*
X016614Y027205D02*
D03*
X01566Y027968D02*
D03*
Y027205D02*
D03*
X017559Y02874D02*
D03*
X016575Y030354D02*
D03*
X016614Y02874D02*
D03*
X030552Y021677D02*
D03*
X030512Y021024D02*
D03*
X035472Y020276D02*
D03*
Y019606D02*
D03*
X034512Y020276D02*
D03*
X033512D02*
D03*
X032512D02*
D03*
X031512D02*
D03*
X030512D02*
D03*
X034512Y019606D02*
D03*
X033512D02*
D03*
X032512D02*
D03*
X031512D02*
D03*
X030512D02*
D03*
X029134Y020276D02*
D03*
X028228D02*
D03*
X027228D02*
D03*
X026228D02*
D03*
X025228D02*
D03*
X024228D02*
D03*
X023228D02*
D03*
X022228D02*
D03*
X021228D02*
D03*
X020228D02*
D03*
X019228D02*
D03*
X018228D02*
D03*
X018224Y019615D02*
D03*
X029134Y019606D02*
D03*
X028224Y019615D02*
D03*
X027224D02*
D03*
X026224D02*
D03*
X025224D02*
D03*
X024224D02*
D03*
X023224D02*
D03*
X022224D02*
D03*
X021224D02*
D03*
X020224D02*
D03*
X019224D02*
D03*
X031011Y013092D02*
D03*
Y01248D02*
D03*
X025425Y017472D02*
D03*
Y016472D02*
D03*
Y015472D02*
D03*
X024425Y017472D02*
D03*
Y016472D02*
D03*
Y015472D02*
D03*
X023425D02*
D03*
Y017472D02*
D03*
Y016472D02*
D03*
X020945Y010787D02*
D03*
X020276D02*
D03*
X019606Y013787D02*
D03*
Y012787D02*
D03*
Y011787D02*
D03*
Y010787D02*
D03*
X018937Y015787D02*
D03*
Y013787D02*
D03*
Y012787D02*
D03*
Y011787D02*
D03*
Y010787D02*
D03*
X028661Y01248D02*
D03*
X027661D02*
D03*
X026661D02*
D03*
X025661D02*
D03*
X024661D02*
D03*
X023661D02*
D03*
X028673Y011927D02*
D03*
X027673D02*
D03*
X026673D02*
D03*
X025673D02*
D03*
X024673D02*
D03*
X029724Y011929D02*
D03*
X023673Y011917D02*
D03*
X028677Y011378D02*
D03*
X027677D02*
D03*
X026677D02*
D03*
X025677D02*
D03*
X024677D02*
D03*
X022677D02*
D03*
X030677Y010866D02*
D03*
X028677D02*
D03*
X027677D02*
D03*
X026677D02*
D03*
X025677D02*
D03*
X024677D02*
D03*
X023677D02*
D03*
X022677D02*
D03*
X011929Y048346D02*
D03*
X010984D02*
D03*
X011457Y048504D02*
D03*
X0122Y048032D02*
D03*
X010709D02*
D03*
X012205Y047559D02*
D03*
X010713D02*
D03*
X011457Y047087D02*
D03*
X011929Y047244D02*
D03*
X010984D02*
D03*
X030669Y011929D02*
D03*
X030197Y012087D02*
D03*
X03094Y011614D02*
D03*
X029449D02*
D03*
X030945Y011142D02*
D03*
X029453D02*
D03*
X030197Y010669D02*
D03*
X030669Y010827D02*
D03*
X029724D02*
D03*
X010945Y010787D02*
D03*
X01189D02*
D03*
X011417Y01063D02*
D03*
X010674Y011102D02*
D03*
X012165D02*
D03*
X031102Y010354D02*
D03*
X029283D02*
D03*
X028283D02*
D03*
X027283D02*
D03*
X026283D02*
D03*
X025283D02*
D03*
X024283D02*
D03*
X023283D02*
D03*
X022283D02*
D03*
X021283D02*
D03*
X020283D02*
D03*
X019283D02*
D03*
X018283D02*
D03*
X017283D02*
D03*
X016283D02*
D03*
X015283D02*
D03*
X014283D02*
D03*
X013283D02*
D03*
X010669Y011575D02*
D03*
X012283Y010354D02*
D03*
X01063D02*
D03*
X013665Y012598D02*
D03*
Y013528D02*
D03*
Y014528D02*
D03*
Y015528D02*
D03*
Y016528D02*
D03*
Y017528D02*
D03*
X012669Y012598D02*
D03*
Y013527D02*
D03*
Y014528D02*
D03*
Y015528D02*
D03*
Y016528D02*
D03*
X011666Y012598D02*
D03*
X012161Y011575D02*
D03*
X011666Y013527D02*
D03*
Y014528D02*
D03*
Y015528D02*
D03*
Y016528D02*
D03*
Y017502D02*
D03*
X013669D02*
D03*
X012669D02*
D03*
X011669D02*
D03*
X010669D02*
D03*
X011417Y012047D02*
D03*
X010945Y01189D02*
D03*
X01189D02*
D03*
X010669Y012598D02*
D03*
Y013527D02*
D03*
Y014528D02*
D03*
Y015528D02*
D03*
Y016528D02*
D03*
Y018575D02*
D03*
Y019575D02*
D03*
Y020575D02*
D03*
Y021575D02*
D03*
Y022575D02*
D03*
Y023575D02*
D03*
Y024575D02*
D03*
Y025575D02*
D03*
Y026575D02*
D03*
Y027575D02*
D03*
Y028575D02*
D03*
Y029575D02*
D03*
Y030575D02*
D03*
Y031575D02*
D03*
Y032575D02*
D03*
Y033575D02*
D03*
Y034575D02*
D03*
Y035575D02*
D03*
Y036575D02*
D03*
Y037575D02*
D03*
Y038575D02*
D03*
Y039575D02*
D03*
Y040575D02*
D03*
Y041575D02*
D03*
Y042575D02*
D03*
Y043575D02*
D03*
Y044575D02*
D03*
Y045575D02*
D03*
Y046575D02*
D03*
D154*
X037518Y029781D02*
D03*
X038775D02*
D03*
X037854D02*
D03*
D155*
X024732Y032815D02*
D03*
M02*
