G04*
G04 #@! TF.GenerationSoftware,Altium Limited,Altium Designer,21.0.8 (223)*
G04*
G04 Layer_Color=16711935*
%FSTAX24Y24*%
%MOIN*%
G70*
G04*
G04 #@! TF.SameCoordinates,736B94AB-3AD6-4132-BD99-26C8E2632B86*
G04*
G04*
G04 #@! TF.FilePolarity,Positive*
G04*
G01*
G75*
%ADD23C,0.0020*%
D23*
X027803Y030683D02*
X028374D01*
X027803Y029396D02*
Y030683D01*
Y029396D02*
X028374D01*
Y030683D01*
X030484Y029396D02*
X031056D01*
Y030683D01*
X030484D02*
X031056D01*
X030484Y029396D02*
Y030683D01*
X024291Y022205D02*
X024921D01*
X024291Y02122D02*
Y022205D01*
Y02122D02*
X024921D01*
Y022205D01*
X024291Y022598D02*
X024921D01*
Y023583D01*
X024291D02*
X024921D01*
X024291Y022598D02*
Y023583D01*
X028092Y022906D02*
Y023457D01*
X028766D01*
Y022354D02*
Y023457D01*
X028092Y022354D02*
X028766D01*
X028092D02*
Y023043D01*
X030206Y021931D02*
Y022138D01*
Y023734D02*
Y023941D01*
X030894D01*
Y023665D02*
Y023941D01*
X030206Y023665D02*
X030894D01*
X030206D02*
Y023803D01*
Y022833D02*
Y023039D01*
X030894D01*
Y022764D02*
Y023039D01*
X030206Y022764D02*
X030894D01*
X030206D02*
Y022902D01*
Y022138D02*
X030894D01*
Y021862D02*
Y022138D01*
X030206Y021862D02*
X030894D01*
X030206D02*
Y022D01*
X036594Y024012D02*
X037067D01*
X036594Y023894D02*
Y024012D01*
Y023894D02*
X037067D01*
Y024012D01*
X036594Y023815D02*
X037067D01*
X036594Y023697D02*
Y023815D01*
Y023697D02*
X037067D01*
Y023815D01*
X036594Y023618D02*
X037067D01*
X036594Y0235D02*
Y023618D01*
Y0235D02*
X037067D01*
Y023618D01*
X036594Y023421D02*
X037067D01*
X036594Y023303D02*
Y023421D01*
Y023303D02*
X037067D01*
Y023421D01*
X036594Y023224D02*
X037067D01*
X036594Y023106D02*
Y023224D01*
Y023106D02*
X037067D01*
Y023224D01*
X036594Y023028D02*
X037067D01*
X036594Y022909D02*
Y023028D01*
Y022909D02*
X037067D01*
Y023028D01*
X036594Y022831D02*
X037067D01*
X036594Y022713D02*
Y022831D01*
Y022713D02*
X037067D01*
Y022831D01*
X036594Y022634D02*
X037067D01*
X036594Y022516D02*
Y022634D01*
Y022516D02*
X037067D01*
Y022634D01*
X036594Y022437D02*
X037067D01*
X036594Y022319D02*
Y022437D01*
Y022319D02*
X037067D01*
Y022437D01*
X036594Y02224D02*
X037067D01*
X036594Y022122D02*
Y02224D01*
Y022122D02*
X037067D01*
Y02224D01*
X036594Y022043D02*
X037067D01*
X036594Y021925D02*
Y022043D01*
Y021925D02*
X037067D01*
Y022043D01*
X036594Y021846D02*
X037067D01*
X036594Y021728D02*
Y021846D01*
Y021728D02*
X037067D01*
Y021846D01*
X037366Y020965D02*
Y021437D01*
Y020965D02*
X037484D01*
Y021437D01*
X037366D02*
X037484D01*
X037563Y020965D02*
Y021437D01*
Y020965D02*
X037681D01*
Y021437D01*
X037563D02*
X037681D01*
X03776Y020965D02*
Y021437D01*
Y020965D02*
X037878D01*
Y021437D01*
X03776D02*
X037878D01*
X037957Y020965D02*
Y021437D01*
Y020965D02*
X038075D01*
Y021437D01*
X037957D02*
X038075D01*
X038154Y020965D02*
Y021437D01*
Y020965D02*
X038272D01*
Y021437D01*
X038154D02*
X038272D01*
X03835Y020965D02*
Y021437D01*
Y020965D02*
X038469D01*
Y021437D01*
X03835D02*
X038469D01*
X038547Y020965D02*
Y021437D01*
Y020965D02*
X038665D01*
Y021437D01*
X038547D02*
X038665D01*
X038744Y020965D02*
Y021437D01*
Y020965D02*
X038862D01*
Y021437D01*
X038744D02*
X038862D01*
X038941Y020965D02*
Y021437D01*
Y020965D02*
X039059D01*
Y021437D01*
X038941D02*
X039059D01*
X039138Y020965D02*
Y021437D01*
Y020965D02*
X039256D01*
Y021437D01*
X039138D02*
X039256D01*
X039335Y020965D02*
Y021437D01*
Y020965D02*
X039453D01*
Y021437D01*
X039335D02*
X039453D01*
X039532Y020965D02*
Y021437D01*
Y020965D02*
X03965D01*
Y021437D01*
X039532D02*
X03965D01*
X039941Y021736D02*
X040413D01*
Y021854D01*
X039941D02*
X040413D01*
X039941Y021736D02*
Y021854D01*
Y021933D02*
X040413D01*
Y022051D01*
X039941D02*
X040413D01*
X039941Y021933D02*
Y022051D01*
Y02213D02*
X040413D01*
Y022248D01*
X039941D02*
X040413D01*
X039941Y02213D02*
Y022248D01*
Y022327D02*
X040413D01*
Y022445D01*
X039941D02*
X040413D01*
X039941Y022327D02*
Y022445D01*
Y022524D02*
X040413D01*
Y022642D01*
X039941D02*
X040413D01*
X039941Y022524D02*
Y022642D01*
Y02272D02*
X040413D01*
Y022839D01*
X039941D02*
X040413D01*
X039941Y02272D02*
Y022839D01*
Y022917D02*
X040413D01*
Y023035D01*
X039941D02*
X040413D01*
X039941Y022917D02*
Y023035D01*
Y023114D02*
X040413D01*
Y023232D01*
X039941D02*
X040413D01*
X039941Y023114D02*
Y023232D01*
Y023311D02*
X040413D01*
Y023429D01*
X039941D02*
X040413D01*
X039941Y023311D02*
Y023429D01*
Y023508D02*
X040413D01*
Y023626D01*
X039941D02*
X040413D01*
X039941Y023508D02*
Y023626D01*
Y023705D02*
X040413D01*
Y023823D01*
X039941D02*
X040413D01*
X039941Y023705D02*
Y023823D01*
Y023902D02*
X040413D01*
Y02402D01*
X039941D02*
X040413D01*
X039941Y023902D02*
Y02402D01*
X039642Y024311D02*
Y024783D01*
X039524D02*
X039642D01*
X039524Y024311D02*
Y024783D01*
Y024311D02*
X039642D01*
X039445D02*
Y024783D01*
X039327D02*
X039445D01*
X039327Y024311D02*
Y024783D01*
Y024311D02*
X039445D01*
X039248D02*
Y024783D01*
X03913D02*
X039248D01*
X03913Y024311D02*
Y024783D01*
Y024311D02*
X039248D01*
X039051D02*
Y024783D01*
X038933D02*
X039051D01*
X038933Y024311D02*
Y024783D01*
Y024311D02*
X039051D01*
X038854D02*
Y024783D01*
X038736D02*
X038854D01*
X038736Y024311D02*
Y024783D01*
Y024311D02*
X038854D01*
X038657D02*
Y024783D01*
X038539D02*
X038657D01*
X038539Y024311D02*
Y024783D01*
Y024311D02*
X038657D01*
X038461D02*
Y024783D01*
X038343D02*
X038461D01*
X038343Y024311D02*
Y024783D01*
Y024311D02*
X038461D01*
X038264D02*
Y024783D01*
X038146D02*
X038264D01*
X038146Y024311D02*
Y024783D01*
Y024311D02*
X038264D01*
X038067D02*
Y024783D01*
X037949D02*
X038067D01*
X037949Y024311D02*
Y024783D01*
Y024311D02*
X038067D01*
X03787D02*
Y024783D01*
X037752D02*
X03787D01*
X037752Y024311D02*
Y024783D01*
Y024311D02*
X03787D01*
X037673D02*
Y024783D01*
X037555D02*
X037673D01*
X037555Y024311D02*
Y024783D01*
Y024311D02*
X037673D01*
X037476D02*
Y024783D01*
X037358D02*
X037476D01*
X037358Y024311D02*
Y024783D01*
Y024311D02*
X037476D01*
X04559Y02456D02*
X045592Y024562D01*
X04559Y024542D02*
Y02456D01*
X04559Y02456D02*
X04559Y024561D01*
X045592Y024562D02*
X046141D01*
X046142Y024561D01*
Y024289D02*
Y024561D01*
X04614Y024286D02*
X046142Y024289D01*
X045591Y024286D02*
X04614D01*
X04559Y024287D02*
X045591Y024286D01*
X04559Y024287D02*
Y024542D01*
X046139Y024993D02*
X046141Y024995D01*
Y025014D01*
X046141Y024995D02*
X046141Y024995D01*
X04559Y024993D02*
X046139D01*
X045589Y024994D02*
X04559Y024993D01*
X045589Y024994D02*
Y025267D01*
X045591Y025269D01*
X046141D01*
X046141Y025269D01*
Y025014D02*
Y025269D01*
X043622Y034213D02*
Y034606D01*
X04252D02*
X043622D01*
X04252Y034213D02*
Y034606D01*
Y034213D02*
X043622D01*
X04252Y033268D02*
Y033661D01*
Y033268D02*
X043622D01*
Y033661D01*
X04252D02*
X043622D01*
X04252Y031654D02*
Y032047D01*
Y031654D02*
X043622D01*
Y032047D01*
X04252D02*
X043622D01*
Y032598D02*
Y032992D01*
X04252D02*
X043622D01*
X04252Y032598D02*
Y032992D01*
Y032598D02*
X043622D01*
X039587Y019312D02*
Y019567D01*
Y019312D02*
X039587Y019312D01*
X040137D01*
X040139Y019314D01*
Y019587D01*
X040138Y019588D02*
X040139Y019587D01*
X039589Y019588D02*
X040138D01*
X039587Y019586D02*
X039587Y019586D01*
X039587Y019567D02*
Y019586D01*
X039589Y019588D01*
X040138Y020039D02*
Y020294D01*
X040137Y020295D02*
X040138Y020294D01*
X039588Y020295D02*
X040137D01*
X039586Y020292D02*
X039588Y020295D01*
X039586Y02002D02*
Y020292D01*
Y02002D02*
X039587Y020019D01*
X040136D01*
X040138Y02002D02*
X040138Y02002D01*
X040138Y02002D02*
Y020039D01*
X040136Y020019D02*
X040138Y02002D01*
X037199Y026315D02*
Y026569D01*
X037199Y02657D02*
X037199Y026569D01*
X036649Y02657D02*
X037199D01*
X036647Y026568D02*
X036649Y02657D01*
X036647Y026295D02*
Y026568D01*
Y026295D02*
X036648Y026294D01*
X037197D01*
X037199Y026296D02*
X037199Y026296D01*
X037199Y026296D02*
Y026315D01*
X037197Y026294D02*
X037199Y026296D01*
X036648Y025588D02*
Y025842D01*
Y025588D02*
X036649Y025587D01*
X037198D01*
X0372Y025589D01*
Y025862D01*
X037199Y025863D02*
X0372Y025862D01*
X03665Y025863D02*
X037199D01*
X036648Y025861D02*
X036648Y025861D01*
X036648Y025842D02*
Y025861D01*
X03665Y025863D01*
X039154Y025925D02*
X039429D01*
Y025787D02*
Y025925D01*
Y02565D02*
Y025787D01*
X039154Y02565D02*
X039429D01*
X039154D02*
Y025925D01*
Y026201D02*
X039429D01*
X039154D02*
Y026339D01*
Y026476D01*
X039429D01*
Y026201D02*
Y026476D01*
X041457Y026299D02*
Y026554D01*
X041456Y026554D02*
X041457Y026554D01*
X040907Y026554D02*
X041456D01*
X040905Y026552D02*
X040907Y026554D01*
X040905Y02628D02*
Y026552D01*
Y02628D02*
X040906Y026278D01*
X041455D01*
X041456Y02628D02*
X041457Y02628D01*
X041457Y02628D02*
Y026299D01*
X041455Y026278D02*
X041457Y02628D01*
X040906Y025572D02*
Y025827D01*
Y025572D02*
X040906Y025572D01*
X041455D01*
X041458Y025574D01*
Y025846D01*
X041456Y025848D02*
X041458Y025846D01*
X040907Y025848D02*
X041456D01*
X040906Y025846D02*
X040906Y025846D01*
X040906Y025827D02*
Y025846D01*
X040907Y025848D01*
X035593Y021984D02*
Y022239D01*
X035592Y02224D02*
X035593Y022239D01*
X035043Y02224D02*
X035592D01*
X035041Y022237D02*
X035043Y02224D01*
X035041Y021965D02*
Y022237D01*
Y021965D02*
X035042Y021964D01*
X035591D01*
X035593Y021965D02*
X035593Y021966D01*
X035593Y021966D02*
Y021984D01*
X035591Y021964D02*
X035593Y021966D01*
X035042Y021257D02*
Y021512D01*
Y021257D02*
X035043Y021257D01*
X035592D01*
X035594Y021259D01*
Y021532D01*
X035593Y021533D02*
X035594Y021532D01*
X035044Y021533D02*
X035593D01*
X035042Y021531D02*
X035042Y021531D01*
X035042Y021512D02*
Y021531D01*
X035044Y021533D01*
X034665Y023661D02*
Y024685D01*
X033878Y023661D02*
X034665D01*
X033878D02*
Y024685D01*
X034665D01*
X035335Y023661D02*
Y024685D01*
X036122D01*
Y023661D02*
Y024685D01*
X035335Y023661D02*
X036122D01*
X026237Y030282D02*
X026513D01*
Y030557D01*
X026375D02*
X026513D01*
X026237D02*
X026375D01*
X026237Y030282D02*
Y030557D01*
X025686D02*
X025962D01*
X025686Y030282D02*
Y030557D01*
Y030282D02*
X025824D01*
X025962D01*
Y030557D01*
X024788Y033038D02*
Y033313D01*
X024512D02*
X024788D01*
X024512Y033176D02*
Y033313D01*
Y033038D02*
Y033176D01*
Y033038D02*
X024788D01*
X024512Y032487D02*
Y032762D01*
Y032487D02*
X024788D01*
Y032624D01*
Y032762D01*
X024512D02*
X024788D01*
X023942Y033035D02*
Y03331D01*
X023667D02*
X023942D01*
X023667Y033173D02*
Y03331D01*
Y033035D02*
Y033173D01*
Y033035D02*
X023942D01*
X023667Y032484D02*
Y032759D01*
Y032484D02*
X023942D01*
Y032621D01*
Y032759D01*
X023667D02*
X023942D01*
X026662Y022537D02*
Y022812D01*
Y022537D02*
X026938D01*
Y022674D01*
Y022812D01*
X026662D02*
X026938D01*
Y023088D02*
Y023363D01*
X026662D02*
X026938D01*
X026662Y023226D02*
Y023363D01*
Y023088D02*
Y023226D01*
Y023088D02*
X026938D01*
X021885Y03303D02*
X022515D01*
X021885Y032046D02*
Y03303D01*
Y032046D02*
X022515D01*
Y03303D01*
X021885Y033424D02*
X022515D01*
Y034408D01*
X021885D02*
X022515D01*
X021885Y033424D02*
Y034408D01*
X015406Y039298D02*
Y040085D01*
X013594D02*
X015406D01*
X013594Y039298D02*
Y040085D01*
Y039298D02*
X015406D01*
X013594Y037015D02*
Y037802D01*
Y037015D02*
X015406D01*
Y037802D01*
X013594D02*
X015406D01*
X016326Y032636D02*
Y032891D01*
X016325Y032891D02*
X016326Y032891D01*
X015776Y032891D02*
X016325D01*
X015773Y032889D02*
X015776Y032891D01*
X015773Y032617D02*
Y032889D01*
Y032617D02*
X015775Y032615D01*
X016324D01*
X016325Y032617D02*
X016326Y032617D01*
X016326Y032617D02*
Y032636D01*
X016324Y032615D02*
X016326Y032617D01*
X015774Y031909D02*
Y032164D01*
Y031909D02*
X015775Y031909D01*
X016324D01*
X016327Y031911D01*
Y032183D01*
X016325Y032185D02*
X016327Y032183D01*
X015776Y032185D02*
X016325D01*
X015774Y032183D02*
X015775Y032183D01*
X015774Y032164D02*
Y032183D01*
X015776Y032185D01*
X018966Y032368D02*
X01929D01*
Y032211D02*
Y032368D01*
X018966Y032211D02*
Y032368D01*
X018975Y032959D02*
Y033116D01*
Y032959D02*
X019289D01*
X018975Y033116D02*
X019289D01*
X018424Y032933D02*
Y033146D01*
X018102Y032191D02*
X018429D01*
X018102D02*
Y032396D01*
X018429D01*
Y032191D02*
Y032396D01*
X018105Y032564D02*
X018424D01*
X018105D02*
Y03277D01*
X018424D01*
Y032564D02*
Y03277D01*
X018109Y032933D02*
X018424D01*
X018109D02*
Y033146D01*
X018424D01*
X019289Y032959D02*
Y033116D01*
X01897Y032742D02*
X019293D01*
Y032585D02*
Y032742D01*
X01897Y032585D02*
X019293D01*
X01897D02*
Y032742D01*
X018966Y032211D02*
X01929D01*
X018424Y034456D02*
Y034692D01*
X018109D02*
X018424D01*
X018109Y034456D02*
Y034692D01*
Y034456D02*
X018424D01*
Y034082D02*
Y034318D01*
X018109D02*
X018424D01*
X018109Y034082D02*
Y034318D01*
Y034082D02*
X018424D01*
Y033708D02*
Y033944D01*
X018109D02*
X018424D01*
X018109Y033708D02*
Y033944D01*
Y033708D02*
X018424D01*
X019291D02*
Y033944D01*
X018976Y033708D02*
Y033944D01*
Y033708D02*
X019291D01*
X018976Y033944D02*
X019291D01*
X018976Y034082D02*
Y034318D01*
Y034082D02*
X019291D01*
Y034318D01*
X018976D02*
X019291D01*
X018976Y034456D02*
Y034692D01*
Y034456D02*
X019291D01*
Y034692D01*
X018976D02*
X019291D01*
X022385Y039097D02*
Y040081D01*
X023015D01*
Y039097D02*
Y040081D01*
X022385Y039097D02*
X023015D01*
Y037719D02*
Y038703D01*
X022385Y037719D02*
X023015D01*
X022385D02*
Y038703D01*
X023015D01*
X018405Y024256D02*
X018976D01*
Y025544D01*
X018405D02*
X018976D01*
X018405Y024256D02*
Y025544D01*
X015724D02*
X016295D01*
X015724Y024256D02*
Y025544D01*
Y024256D02*
X016295D01*
Y025544D01*
X020287Y024538D02*
X020562D01*
X020287Y024262D02*
Y024538D01*
Y024262D02*
X020424D01*
X020562D01*
Y024538D01*
X020838Y024262D02*
X021113D01*
Y024538D01*
X020976D02*
X021113D01*
X020838D02*
X020976D01*
X020838Y024262D02*
Y024538D01*
X016227Y019916D02*
Y020488D01*
Y019916D02*
X017515D01*
Y020488D01*
X016227D02*
X017515D01*
Y022597D02*
Y023169D01*
X016227D02*
X017515D01*
X016227Y022597D02*
Y023169D01*
Y022597D02*
X017515D01*
M02*
