G04*
G04 #@! TF.GenerationSoftware,Altium Limited,Altium Designer,21.0.8 (223)*
G04*
G04 Layer_Color=255*
%FSTAX24Y24*%
%MOIN*%
G70*
G04*
G04 #@! TF.SameCoordinates,6FDD5C99-857A-4E56-A0FC-F6C85F5CD364*
G04*
G04*
G04 #@! TF.FilePolarity,Positive*
G04*
G01*
G75*
%ADD140C,0.1100*%
%ADD141C,0.1102*%
%ADD142C,0.0827*%
%ADD143C,0.1969*%
%ADD144C,0.1260*%
%ADD145O,0.0815X0.1630*%
%ADD146C,0.1200*%
%ADD147C,0.0591*%
%ADD148R,0.0591X0.0591*%
%ADD149C,0.0984*%
%ADD150R,0.0650X0.0650*%
%ADD151C,0.0650*%
%ADD152C,0.0750*%
D140*
X035952Y011526D02*
D03*
X033952D02*
D03*
X038078D02*
D03*
X040078D02*
D03*
D141*
X017591Y011372D02*
D03*
X013591D02*
D03*
D142*
X016591Y013372D02*
D03*
X015591D02*
D03*
D143*
X030197Y011378D02*
D03*
X011449Y011307D02*
D03*
X011457Y047795D02*
D03*
D144*
X039098Y044882D02*
D03*
X017203D02*
D03*
D145*
X042559D02*
D03*
X013858D02*
D03*
D146*
X04729Y015657D02*
D03*
X04249Y010857D02*
D03*
X04829Y013257D02*
D03*
X04249Y015657D02*
D03*
X04729Y010857D02*
D03*
D147*
X047622Y027126D02*
D03*
Y026126D02*
D03*
Y025126D02*
D03*
X048622Y027126D02*
D03*
Y026126D02*
D03*
Y021929D02*
D03*
Y022929D02*
D03*
Y023929D02*
D03*
X047622Y020929D02*
D03*
Y021929D02*
D03*
Y022929D02*
D03*
Y023929D02*
D03*
D148*
X048622Y025126D02*
D03*
Y020929D02*
D03*
D149*
X046425Y037079D02*
D03*
Y035079D02*
D03*
X048425D02*
D03*
Y037079D02*
D03*
X047425Y036079D02*
D03*
D150*
X01385Y02185D02*
D03*
D151*
X01285D02*
D03*
X01385Y02285D02*
D03*
X01285D02*
D03*
X01385Y02385D02*
D03*
X01285D02*
D03*
X01385Y02485D02*
D03*
X01285D02*
D03*
X01385Y02585D02*
D03*
X01285D02*
D03*
X01385Y02685D02*
D03*
X01285D02*
D03*
X01385Y02785D02*
D03*
X01285D02*
D03*
X01385Y02885D02*
D03*
X01285D02*
D03*
X01385Y02985D02*
D03*
X01285D02*
D03*
X01385Y03085D02*
D03*
X01285D02*
D03*
D152*
X020827Y012008D02*
D03*
X022827D02*
D03*
X021827Y011008D02*
D03*
M02*
