M48
;Layer_Color=9474304
;FILE_FORMAT=2:4
INCH,LZ
;TYPE=PLATED
T1F00S00C0.0079
T2F00S00C0.0118
T3F00S00C0.0350
T4F00S00C0.0354
T5F00S00C0.0394
T6F00S00C0.0450
T7F00S00C0.0500
T9F00S00C0.0591
T10F00S00C0.0787
T11F00S00C0.0827
;TYPE=NON_PLATED
T12F00S00C0.1260
%
T01
X012756Y015157
X01315
X013447Y015286
X020371Y015566
X023898Y013425
X025197
X025204Y012766
X027876Y012761
X027835Y013423
X027874Y014843
X030391Y01425
X031048Y013775
X029691Y013423
X029717Y012748
X030394Y015472
X031024Y015463
X047874Y018032
X047147Y029052
X046693Y02937
X046701Y030416
X044843Y030154
Y029839
X043348Y028778
X042677Y029213
X043307Y026654
X043583Y026024
X041968Y025827
Y023858
X043307Y022283
X04315Y022008
X042953Y021732
X04298Y021051
X040696Y021005
X040698Y020705
X040394Y020709
X040392Y021009
X040065Y021016
X040066Y020716
X038949Y020394
X039146Y020118
X037835Y019331
X037913Y019016
X037402Y021969
X038819Y022323
X038223Y023071
X038465Y023543
X03878Y023819
X039141Y024051
X037612Y023989
X037808Y023694
X035394Y02248
Y022165
X035079
Y02248
X033071Y022638
Y022992
X0357Y027441
Y028499
X035607Y029213
Y029528
X035598Y029852
X036732Y030039
X037638Y028976
X037598Y028622
X037559Y028228
X040092Y029969
X040974Y030777
X034291Y029961
X03252Y029843
X046024Y027298
X04535Y024069
X045354Y02378
X044961
X04495Y024054
X045669Y021535
X045945Y018425
X042441Y017638
X028819Y021339
Y021654
X028504
X028228
Y021339
X028504
X02675Y0244
X026925Y029014
X026929Y029291
X027244
Y029016
X0211Y02905
Y03115
X02185Y0267
Y0244
X011825Y018622
X011378Y018532
X011981Y01717
X012618Y017183
X018223Y031897
X019088Y031903
X019087Y03342
X018222
X02035Y0352
X020359Y038535
X01885Y03935
X017245Y040077
X017229Y038536
X017645Y0379
X0218Y03975
X02523Y039685
X025521
Y040072
X02523
X025962Y032815
X02422Y032814
X029862Y032414
X030144Y03241
X03014Y032126
X029857Y03213
X029843Y031811
X030118
X030415
X030709
Y032126
X030442
X030447Y03241
X030714
X03749Y034134
X037795Y03437
X03815Y036102
X038031Y039409
X039001Y03934
X036732Y039423
X036378Y039409
X034449
X034035Y03943
X041732Y041732
X043816Y041299
X043819Y039882
X04374Y03815
X041994Y036758
X042126Y033937
X04213Y033641
X042135Y033332
X041781Y033334
X041776Y033641
X041772Y033937
X045591Y034291
X045748Y040748
X045486Y041063
X046083Y04254
X044509Y043125
X045669Y044291
X047452Y041112
X048202Y040752
X047717Y033031
T02
X01063Y010354
X010977Y010756
X010706Y011071
X010701Y011543
X010977Y011858
X011449Y012016
X011921Y011858
X012192Y011543
X012197Y011071
X011921Y010756
X011449Y010598
X012283Y010354
X013283
X014283
X015283
X013665Y012598
Y013528
X012669Y013527
Y012598
X011666
Y013527
X010669
Y012598
Y014528
X011666
X012669
X013665
X010669Y015528
X018937Y013787
X019606
Y012787
X018937
Y011787
X019606
Y010787
X018937
X019283Y010354
X020283
X020276Y010787
X020945
X021283Y010354
X022283
X022677Y010866
Y011378
X023769Y011448
X023673Y011917
X023661Y01248
X024661
X024673Y011927
X024677Y011378
Y010866
X024283Y010354
X025283
X025677Y010866
Y011378
X025673Y011927
X025661Y01248
X026661
X026673Y011927
X026677Y011378
Y010866
X026283Y010354
X027283
X027677Y010866
Y011378
X027673Y011927
X027661Y01248
X028661
X028673Y011927
X028677Y011378
Y010866
X028283Y010354
X029283
X029724Y010827
X029453Y011142
X029449Y011614
X029724Y011929
X030197Y012087
X030669Y011929
X03094Y011614
X030945Y011142
X030677Y010866
X030669Y010827
X030197Y010669
X031102Y010354
X031011Y01248
Y013092
X025353Y014371
X025369Y014681
X025039Y014685
X025024Y014371
X025425Y015472
X024425
X023425
X023677Y010866
X023283Y010354
X02103Y012677
X020703Y01268
X020354Y012677
X02036Y012362
X018283Y010354
X017283
X016283
X048934Y017074
Y018074
Y019074
X048941Y019067
X048901Y02739
X048897Y027724
X04863Y02773
Y028045
X048897Y028039
X048898Y028386
X048631Y028392
X048346Y028386
X048346Y028039
X048629Y028723
Y029038
X048629Y029385
X048625Y02972
Y030035
X048626Y030382
X048622Y030716
Y031031
X047323Y030906
X04689
X046339
X045841Y030908
X045408
X044857
X044803Y029488
X044797Y029297
X044482
X044488Y029488
X044141Y029489
X043878Y029492
X043923Y029286
X044238
X043576Y029286
X043622Y029488
X043307
X043313Y02929
X04296Y029489
X042696Y029492
X042365Y029495
X042362Y029291
X042047
X042101Y029499
X041754Y029499
X0417Y029292
X041437Y029295
X041439Y029499
X04118Y027516
X040906Y02752
X040644Y027512
X042087Y027874
X042402
X042672Y027881
X042987
X043721Y027905
X044036
X044306Y027911
X044621
X044968Y027911
X045283
X045553Y027918
X045868
X046215Y027917
X04437Y02685
X04437Y026503
X043818
X043819Y02685
X042835
X042834Y026503
X042835Y026102
X042834Y025755
X042835Y025394
X042834Y025047
X042401
X042402Y025394
X042401Y025755
X042402Y026102
X042401Y026503
X042402Y02685
X04185
X04185Y026503
X04185Y026102
Y025394
X04185Y025047
X041819Y024415
X041818Y024068
X041378Y024034
X041024
X040711
X040869Y024252
X041178
X04237Y024415
X04237Y024068
X042803
X042717Y024409
X043858Y024574
X043858Y024921
X043858Y025322
X043858Y025669
X044409
X044409Y025322
X044409Y024921
X044409Y024574
X044793Y022513
Y022245
X045108
Y022513
X045378Y02252
Y022251
X045693
Y02252
X04604Y022519
Y022251
X045927Y020643
Y020446
X045612
Y020643
X045342Y020636
Y020439
X045027
Y020636
X04468Y020637
Y02044
X044365
Y020637
X044094Y02063
Y020433
X04378
Y02063
X042711Y020942
X042705Y021166
X046274Y020643
Y020446
X045984Y016614
X045983Y016341
X045669Y016339
Y016614
X045315
Y016339
X044961
Y016614
X035472Y019606
Y020276
X034512
Y019606
X033512
Y020276
X032512
Y019606
X031512
Y020276
X031794Y024781
X031794Y025128
Y025443
X03179Y025778
X03179Y026125
Y02644
X031786Y026774
X031779Y027141
X031779Y027488
Y027803
X031775Y028138
X031776Y028485
Y0288
X031772Y029134
X031779Y029504
X031775Y029838
Y030153
X031775Y0305
X031771Y030834
Y031149
X033088Y031023
X033472Y03101
X033954Y031023
X034338Y03101
X034781Y031023
X035165Y03101
X037182Y030984
X037566Y030971
X038048Y030984
X038432Y030971
X038875Y030984
X039259Y030971
X038775Y029781
X037854
X037518
X03613Y026768
X036154Y0265
X035807Y0265
X035783Y026768
X035468
X035492Y0265
X035157Y026496
X035133Y026764
X034803Y026772
X034827Y026503
X03448Y026504
X034456Y026772
X034141
X034165Y026504
X033831Y0265
X033807Y026768
X03346Y026768
X033484Y0265
X033169
X033145Y026768
X032811Y026764
X032835Y026496
X040709Y025709
X040714Y025431
X028535Y025276
Y02626
X028677Y027087
X028717Y027638
Y028189
X027717
Y027638
X027677Y027087
X027535Y02626
Y025276
X026535
Y02626
X026677Y027087
X026717Y027638
Y028189
X024213Y028244
X023701Y028228
Y027228
X024213Y027244
Y026244
X023701Y026228
Y025228
X024213Y025244
X024877Y02527
X025535Y025276
Y02626
X024843
Y024213
X025496
X026496
X027496
X028496
X026457Y023228
X025457
X024803
X024213Y023244
X023701Y023228
Y024228
X024213Y024244
X023701Y021299
Y020827
X022953
Y021299
X022441
X021969
Y020827
X022441
X022228Y020276
X022224Y019615
X023224
X023228Y020276
X024228
X024224Y019615
X025224
X025228Y020276
X024843Y020787
X026228Y020276
X026224Y019615
X027224
X027228Y020276
X028228
X028224Y019615
X029134Y019606
Y020276
X030552Y021677
X029764Y016575
X029651Y016298
X029944Y016296
X025425Y016472
Y017472
X024425
Y016472
X023425
Y017472
X021811Y017598
X020591
X01937
X018346
X017087
X015984
X016393Y016694
Y016418
X017441
Y016694
X018937Y015787
X019224Y019615
X019228Y020276
X019252Y020827
Y021299
X01874
Y020827
X018228
X018228Y021299
X01748
X016968
X0166
X016181
X016102Y019567
X017047
X018224Y019615
X018228Y020276
X020228
X020224Y019615
X021224
X021228Y020276
X021457Y020827
Y021299
X020933Y02129
X020945Y020827
X020419
Y021299
X019899Y021314
X019921Y020827
X019707Y023701
Y024213
X019715Y024789
X019707Y025472
X019715Y026084
X019736Y026675
X018736
Y026084
X018728Y025472
X018736Y024789
X018728Y024213
Y023701
X017835
Y024213
X017843Y024789
X017835Y025472
X017843Y026084
Y026693
X017559Y027205
Y027968
Y02874
X01752Y029496
Y030354
X017528Y030906
X016528
X016575Y030354
Y029496
X016614Y02874
Y027968
Y027205
X016843Y026693
Y026084
X015843
Y026693
X01566Y027205
Y027968
Y02874
X018482Y028889
X018495Y028569
Y028057
Y027309
Y029356
X019071Y029252
Y028898
X020071
Y029252
X021071
X022071
Y028898
X023071
Y029252
X024071
X024213Y028898
X024488Y030906
X024496Y03122
X025496
X025488Y030906
X02652
X026496Y03122
X028228
X02852Y030906
X028882Y030709
X029291
X029134Y03122
X029291Y029961
X028882
Y029174
X029291
X023488Y030906
X023496Y03122
X022496
X022488Y030906
X021488
X021496Y03122
X020496
X020488Y030906
X019488
X018495Y030984
Y030616
Y030104
X01562Y030354
X015528Y030906
X014528
X01562Y029496
X014843Y026693
Y026084
Y025591
Y025079
Y024331
Y023911
Y023543
Y023031
Y022283
X014921Y021299
X015433
X015118Y019567
X014055
X012992Y019606
X013169Y019805
X012913Y020315
Y021024
X010453Y020575
Y021575
Y022575
Y023575
Y024575
Y025575
Y026575
X010492Y027575
Y028575
X010669Y029575
Y030575
X011378Y030614
X012008Y030945
X010453Y019575
Y018572
X010669Y017502
Y016528
X013649Y017579
X014843Y017598
X01452Y031654
Y032638
X01552
Y031654
X01352
Y032638
X01252
X012008Y032614
X011378
X010669Y032575
Y031575
X011378Y031614
X012008
X01252Y031654
X01248Y033622
X012008Y033614
X011378
X010669Y033575
Y034575
X011378Y034614
X012008
X012441Y034882
X01245Y03525
X012008Y035614
X011378
X010669Y035575
Y036575
X011378Y036614
X012008
Y037614
X011378
X010669Y037575
Y038575
X011378Y038614
X012008
Y039614
X011378
X010669Y039575
Y040575
X011378Y040614
X012008
Y041614
X011378
X010669Y041575
Y042575
X011378Y042614
X012008
Y043614
X011378
X010669Y043575
Y044575
X011378Y044614
X012008
Y045614
X011378
X010669Y045575
Y046575
X011378Y046614
X012008
X015512Y04622
Y045669
X01553Y045079
Y044528
X015551Y043976
Y043268
Y042677
Y042047
Y041417
X01545Y03525
X015441Y034882
X01548Y03437
Y033622
X01448
Y03437
X014441Y034882
X01445Y03525
X01345
X013441Y034882
X01348Y03437
Y033622
X01248Y03437
X01648
X016441Y034882
X01645Y03525
X01745
X017441Y034882
X01748Y03437
Y033622
X01648
X01652Y031496
X01752
X01852
X01952
X02048Y033622
Y03437
X020441Y034882
X021441
X02145Y03525
X02148Y03437
Y033622
X02248
Y03437
X022441Y034882
X02245Y03525
X01945
X019441Y034882
X018441
X01845Y03525
X018559Y040906
X018551Y041417
Y042047
Y042677
Y043268
X019551
Y042677
Y042047
Y041417
X019559Y040906
X020559
X020551Y041417
Y042047
Y042677
Y043268
X021551
Y042677
Y042047
Y041417
X021559Y040906
X022559
X022551Y041417
Y042047
Y042677
Y043268
X023551
Y042677
Y042047
Y041417
X023559Y040906
X024559
X024551Y041417
Y042047
Y042677
Y043268
X025551
Y042677
Y042047
Y041417
X025559Y040906
X026559
X026551Y041417
Y042047
Y042677
Y043268
X027551
Y042677
Y042047
Y041417
X027559Y040906
X028559
X028551Y041417
Y042047
Y042677
Y043268
X029551
Y042677
X02937Y042047
Y041417
X029378Y040906
X029386Y040197
X029394Y039685
X029378Y039173
X029386Y038661
Y037913
X029394Y037402
X029378Y03689
X029386Y036378
X029378Y035669
X029386Y035157
X029378Y034488
X029386Y033976
X028386
X028378Y034488
X028386Y035157
X028378Y035669
X028386Y036378
X028378Y03689
X028394Y037402
X028386Y037913
Y038661
X028378Y039173
X028394Y039685
X028386Y040197
X027976Y043976
Y044528
Y045079
Y045669
Y04622
X027992Y046693
X028992
X028976Y04622
Y045669
Y045079
Y044528
Y043976
X029976
Y044528
Y045079
Y045669
Y04622
X029992Y046693
X030992
X030976Y04622
Y045669
Y045079
Y044528
Y043976
X030551Y043268
X026976Y043976
Y044528
Y045079
Y045669
Y04622
X026992Y046693
X025992
X025976Y04622
Y045669
Y045079
Y044528
Y043976
X024976
Y044528
Y045079
Y045669
Y04622
X024992Y046693
X023992
X023976Y04622
Y045669
Y045079
Y044528
Y043976
X022976
Y044528
Y045079
Y045669
Y04622
X022992Y046693
X021992
X021976Y04622
Y045669
Y045079
Y044528
Y043976
X020976
Y044528
Y045079
Y045669
Y04622
X020992Y046693
X019992
X019976Y04622
Y045669
Y045079
Y044528
Y043976
X018976
Y044528
Y045079
Y045669
Y04622
X018992Y046693
X017992
X016992
X015992
X016551Y043268
Y042677
Y042047
Y041417
X017551
X017559Y040906
X017551Y042047
Y042677
Y043268
X031551
X032551
X033551
X034551
X035551
X036551
X037551
X038551
X039551
X040551
X041551
X041535Y042795
Y042244
Y041811
X042535
Y042244
Y042795
X042551Y043268
X043551
X043189Y042795
Y042244
Y041811
X042976Y043976
X043976
Y044528
Y045079
Y045669
Y04622
X043992Y046693
X044992
X045992
X044976Y045669
Y045079
Y044528
X041976
Y045079
Y045669
Y04622
X041992Y046693
X042992
X042976Y04622
Y045669
X040976Y04622
X040992Y046693
X039992
X039976Y04622
X038976
X038992Y046693
X037992
X037976Y04622
X036976
X036992Y046693
X035992
X035976Y04622
Y045669
Y045079
Y044528
Y043976
X036976
Y044528
Y045079
Y045669
X034976
Y04622
X034992Y046693
X033992
X033976Y04622
Y045669
Y045079
Y044528
Y043976
X034976
Y044528
Y045079
X032976
Y044528
Y043976
X031976
Y044528
Y045079
Y045669
Y04622
X031992Y046693
X032992
X032976Y04622
Y045669
X032874Y040591
X032572Y040585
Y04027
X032874Y040276
X032874Y039929
X032572Y039923
X032568Y03966
X032201Y039665
X032204Y039929
X032205Y040276
Y040591
X03189Y040433
Y040118
X031889Y039771
X031886Y039507
X031614Y039377
X03161Y039114
X031886Y039074
X032201Y039232
X032568Y039227
X03312Y03966
X033425Y039929
X033425Y040276
X033465Y040591
X034465
X035465
X036465
X037465
X038465
X038552Y038777
X038552Y038429
X038543Y038071
X038543Y037724
X038159Y037737
X038159Y038084
X038149Y038432
X03815Y03878
X037717
X037716Y038432
X037723Y038084
X037722Y037737
X037742Y037338
X037742Y036991
Y036669
X038178
Y036991
X038179Y037338
X038563Y037325
X038563Y036978
Y036656
X038602Y035711
Y035356
X038605Y03504
X038221Y035053
X038218Y035369
Y035724
X037781
Y035369
X037784Y035053
X037208Y035038
X037205Y035354
Y035709
X037165Y036654
Y036976
Y037323
X037146Y037722
Y038069
X037165Y038432
X037165Y03878
X038938Y03877
X038938Y038423
X042126Y038386
Y038117
X042126Y037874
X042126Y037441
Y037094
X042677
Y037441
X04311
Y037094
X043071Y036772
X042559
X043661
X044213
X044724
X045433
X045417Y037441
X045118Y037874
X04511Y038386
X045118Y03874
X04511Y039252
X044535
X044543Y03874
X044535Y038386
X044543Y037874
X044528Y037441
X043528
X043543Y037874
X04311
X04311Y038117
Y038386
X043119Y038738
X043543Y03874
X043535Y038386
X042677
Y038117
X042677Y037874
X042686Y038738
X042677Y039252
X04311
X043535Y039252
X042126Y039252
X042135Y038738
X042047Y034882
X04185Y034567
X042402
X042835
Y034291
X043386
Y034567
X043819
Y034291
X043815Y034291
X044366
X04437Y034567
X044803
X044799Y034291
X044685Y034882
X044094
X043504
X04534Y03488
X046165Y034252
X046339Y03204
X046339Y031693
Y031299
X045841Y031302
Y031696
X045841Y032043
X045408
X045408Y031696
Y031302
X044857
Y031696
X044857Y032043
X043839Y032004
X043575Y032007
Y031732
X043839Y031728
X043228Y031732
Y032008
X042913
Y031732
X041595Y031728
X041595Y031472
X041331Y031476
X041331Y031732
X040984Y031732
X040965Y031964
X040701Y031968
X040669Y031732
X040669Y031476
X040984
X040965Y03224
X040701Y032244
Y032519
X040965Y032516
X040354Y03252
Y032244
Y031969
X040039Y032244
Y03252
X038337Y032219
X037953
X037586
X037202
Y031786
X037586
X037953
X038337
X038327Y031346
X038661Y031339
X039046
X037942Y031346
X037576
X037192
X035179Y031349
X034795Y031362
X034352Y031349
X033968Y031362
X033976Y031811
X03436Y031798
Y032231
X033976Y032244
X033494Y032231
X03311Y032244
Y031811
X033494Y031798
X033486Y031349
X033102Y031362
X031772Y031496
X031571Y033681
Y034114
X031574Y034377
X031575Y034724
Y035039
X031571Y035255
Y035689
X031574Y035952
X031575Y036299
Y036614
X031571Y036948
Y037381
X031574Y037645
X031575Y037992
Y038307
X03161Y038681
X031614Y039724
Y040039
X032953Y038425
X032952Y038078
X032953Y037638
X032952Y037291
X032953Y036929
X032952Y036582
X033504
X033504Y036929
X033504Y037291
X033504Y037638
X033937
X034213
X034212Y037291
X033937
X033937Y036929
X034213
X034212Y036582
X033937
X034763
X034764Y036929
X034763Y037291
X034764Y037638
X035197
X035196Y037291
X035197Y036929
X035196Y036582
X035109Y035735
X034724Y035748
X03435Y03575
X033966Y035763
Y03533
Y035015
X03435Y035002
Y035317
X034724Y035315
Y035
X035109Y034987
Y035302
X033529Y03533
Y035015
X032953Y035
Y035315
Y035748
X033529Y035763
X033504Y038078
X033504Y038425
X033937
X034213
X034212Y038078
X033937
X034763
X034764Y038425
X035197
X035196Y038078
X035187Y032231
X034803Y032244
Y031811
X035187Y031798
X037976Y043976
X039016Y043898
X04
X041102
X042008
X04611Y039252
X046118Y03874
X04611Y038386
X046118Y037874
X047008
X047Y038386
X047008Y03874
X047Y039252
X047795
X047803Y03874
X047795Y038386
X047803Y037874
X048526
X048984
X048976Y038386
X048984Y03874
X048526
X048518Y038386
Y039252
X048976
Y039827
Y040827
Y041717
Y042512
Y043235
Y043693
X048971Y044495
X048976Y045039
Y04563
Y046181
X048992Y046693
X047992
X046992
X046976Y044528
X047976
X048055Y034252
X048535Y034274
X04885Y034252
X048862Y033918
X048857Y033657
X048856Y03331
Y032995
X04886Y032661
X048862Y032311
Y031996
X048866Y031662
X048622Y031378
X048542Y032282
X048538Y032616
Y032931
X048539Y033278
X048535Y033612
Y033927
X047872Y03348
X047691Y033481
X047707Y033277
X047884Y033277
X047902Y032783
X04771Y032789
X047323Y03204
X047323Y031693
Y031299
X04689
Y031693
X04689Y03204
X047165Y034252
X048992Y047244
X049008Y047797
Y048346
X049001Y04897
X048001
X047001
X046001
X045001
X045008Y048346
Y047797
X044992Y047244
X043992
X044008Y047797
Y048346
X044001Y04897
X043001
X043008Y048346
Y047797
X042992Y047244
X041992
X042008Y047797
Y048346
X042001Y04897
X041001
X041008Y048346
Y047797
X040992Y047244
X039992
X040008Y047797
Y048346
X040001Y04897
X040008Y048976
X039008
Y048346
Y047797
X038992Y047244
X037992
X038008Y047797
Y048346
Y048976
X037008
Y048346
Y047797
X036992Y047244
X035992
X036008Y047797
Y048346
Y048976
X035008
Y048346
Y047797
X034992Y047244
X033992
X034008Y047797
Y048346
Y048976
X033008
Y048346
Y047797
X032992Y047244
X031992
X032008Y047797
Y048346
Y048976
X031008
Y048346
Y047797
X030992Y047244
X029992
X030008Y047797
Y048346
Y048976
X029008
Y048346
Y047797
X028992Y047244
X027992
X028008Y047797
Y048346
Y048976
X027008
Y048346
Y047797
X026992Y047244
X025992
X026008Y047797
Y048346
Y048976
X025008
Y048346
Y047797
X024992Y047244
X023992
X024008Y047797
Y048346
Y048976
X023008
Y048346
Y047797
X022992Y047244
X021992
X022008Y047797
Y048346
Y048976
X021008
Y048346
Y047797
X020992Y047244
X019992
X020008Y047797
Y048346
Y048976
X019008
Y048346
Y047797
X018992Y047244
X017992
X018008Y047797
Y048346
Y048976
X017008
Y048346
Y047797
X016992Y047244
X015992
X016Y047205
X016008Y047797
Y048346
Y048976
X015008
Y048346
Y047797
X014992Y047244
X013992
X014008Y047797
Y048346
Y048976
X013008
Y048346
Y047797
X012992Y047244
X011929Y047244
X012205Y047559
X0122Y048032
X011929Y048346
X011457Y048504
X010984Y048346
X010709Y048032
X010713Y047559
X010984Y047244
X011457Y047087
X012008Y048976
X010709
T03
X020827Y012008
X022827
X021827Y011008
T04
X047622Y020929
X048622
Y021929
Y022929
Y023929
X047622
Y022929
Y021929
Y025126
Y026126
Y027126
X048622
Y026126
Y025126
T05
X015591Y013372
X016591
X01385Y02185
X01285
Y02285
X01385
Y02385
X01285
Y02485
X01385
Y02585
X01285
Y02685
X01385
Y02785
X01285
Y02885
X01385
Y02985
X01285
Y03085
X01385
T06
X04249Y010857
X04729
X04829Y013257
X04729Y015657
X04249
T07
X033952Y011526
X035952
X038078
X040078
T09
X046425Y035079
Y037079
X048425
Y035079
X047425Y036079
T10
X011449Y011307
X030197Y011378
X011457Y047795
T11
X013591Y011372
X017591
T12
X017203Y044882
X039098
M30
