G04*
G04 #@! TF.GenerationSoftware,Altium Limited,Altium Designer,21.0.8 (223)*
G04*
G04 Layer_Color=32896*
%FSTAX24Y24*%
%MOIN*%
G70*
G04*
G04 #@! TF.SameCoordinates,736B94AB-3AD6-4132-BD99-26C8E2632B86*
G04*
G04*
G04 #@! TF.FilePolarity,Positive*
G04*
G01*
G75*
%ADD11C,0.0100*%
D11*
X029576Y012265D02*
G03*
X02931Y011999I000621J-000887D01*
G01*
X029131Y011566D02*
G03*
X029131Y01119I001066J-000188D01*
G01*
X030009Y010312D02*
G03*
X030385Y010312I000188J001066D01*
G01*
X031263Y01119D02*
G03*
X031263Y011566I-001066J000188D01*
G01*
X030385Y012444D02*
G03*
X030009Y012444I-000188J-001066D01*
G01*
X02931Y010757D02*
G03*
X029576Y010491I000887J000621D01*
G01*
X030818D02*
G03*
X031084Y010757I-000621J000887D01*
G01*
Y011999D02*
G03*
X030818Y012265I-000887J-000621D01*
G01*
X010796Y012225D02*
G03*
X01053Y01196I000621J-000887D01*
G01*
X010351Y011527D02*
G03*
X010351Y011151I001066J-000188D01*
G01*
X011229Y010272D02*
G03*
X011605Y010272I000188J001066D01*
G01*
X012484Y011151D02*
G03*
X012484Y011527I-001066J000188D01*
G01*
X011605Y012405D02*
G03*
X011229Y012405I-000188J-001066D01*
G01*
X01053Y010718D02*
G03*
X010796Y010452I000887J000621D01*
G01*
X012038D02*
G03*
X012304Y010718I-000621J000887D01*
G01*
Y01196D02*
G03*
X012038Y012225I-000887J-000621D01*
G01*
X010836Y048682D02*
G03*
X01057Y048416I000621J-000887D01*
G01*
X01039Y047983D02*
G03*
X01039Y047607I001066J-000188D01*
G01*
X011269Y046729D02*
G03*
X011645Y046729I000188J001066D01*
G01*
X012523Y047607D02*
G03*
X012523Y047983I-001066J000188D01*
G01*
X011645Y048861D02*
G03*
X011269Y048861I-000188J-001066D01*
G01*
X01057Y047174D02*
G03*
X010836Y046908I000887J000621D01*
G01*
X012078D02*
G03*
X012344Y047174I-000621J000887D01*
G01*
Y048416D02*
G03*
X012078Y048682I-000887J-000621D01*
G01*
M02*
