G04*
G04 #@! TF.GenerationSoftware,Altium Limited,Altium Designer,21.0.8 (223)*
G04*
G04 Layer_Color=16711935*
%FSTAX24Y24*%
%MOIN*%
G70*
G04*
G04 #@! TF.SameCoordinates,736B94AB-3AD6-4132-BD99-26C8E2632B86*
G04*
G04*
G04 #@! TF.FilePolarity,Negative*
G04*
G01*
G75*
%ADD119C,0.1180*%
%ADD120C,0.1182*%
%ADD121C,0.0907*%
%ADD122C,0.2049*%
%ADD123C,0.1340*%
%ADD124O,0.0895X0.1710*%
%ADD125C,0.1280*%
%ADD126C,0.0671*%
%ADD127R,0.0671X0.0671*%
%ADD128C,0.1064*%
%ADD129R,0.0730X0.0730*%
%ADD130C,0.0730*%
%ADD131C,0.0830*%
%ADD132C,0.0356*%
D119*
X035952Y011526D02*
D03*
X033952D02*
D03*
X038078D02*
D03*
X040078D02*
D03*
D120*
X017591Y011372D02*
D03*
X013591D02*
D03*
D121*
X016591Y013372D02*
D03*
X015591D02*
D03*
D122*
X030197Y011378D02*
D03*
X011417Y011339D02*
D03*
X011457Y047795D02*
D03*
D123*
X039098Y044882D02*
D03*
X017203D02*
D03*
D124*
X042559D02*
D03*
X013858D02*
D03*
D125*
X04729Y015657D02*
D03*
X04249Y010857D02*
D03*
X04829Y013257D02*
D03*
X04249Y015657D02*
D03*
X04729Y010857D02*
D03*
D126*
X047622Y027126D02*
D03*
Y026126D02*
D03*
Y025126D02*
D03*
X048622Y027126D02*
D03*
Y026126D02*
D03*
Y021929D02*
D03*
Y022929D02*
D03*
Y023929D02*
D03*
X047622Y020929D02*
D03*
Y021929D02*
D03*
Y022929D02*
D03*
Y023929D02*
D03*
D127*
X048622Y025126D02*
D03*
Y020929D02*
D03*
D128*
X046425Y037079D02*
D03*
Y035079D02*
D03*
X048425D02*
D03*
Y037079D02*
D03*
X047425Y036079D02*
D03*
D129*
X01385Y02185D02*
D03*
D130*
X01285D02*
D03*
X01385Y02285D02*
D03*
X01285D02*
D03*
X01385Y02385D02*
D03*
X01285D02*
D03*
X01385Y02485D02*
D03*
X01285D02*
D03*
X01385Y02585D02*
D03*
X01285D02*
D03*
X01385Y02685D02*
D03*
X01285D02*
D03*
X01385Y02785D02*
D03*
X01285D02*
D03*
X01385Y02885D02*
D03*
X01285D02*
D03*
X01385Y02985D02*
D03*
X01285D02*
D03*
X01385Y03085D02*
D03*
X01285D02*
D03*
D131*
X020827Y012008D02*
D03*
X022827D02*
D03*
X021827Y011008D02*
D03*
D132*
X016614Y027968D02*
D03*
X01566Y02874D02*
D03*
X01752Y030354D02*
D03*
X016575Y029496D02*
D03*
X01562D02*
D03*
X01752D02*
D03*
X017559Y027205D02*
D03*
Y027968D02*
D03*
X01562Y030354D02*
D03*
X016614Y027205D02*
D03*
X01566Y027968D02*
D03*
Y027205D02*
D03*
X017559Y02874D02*
D03*
X016575Y030354D02*
D03*
X016614Y02874D02*
D03*
M02*
