G04*
G04 #@! TF.GenerationSoftware,Altium Limited,Altium Designer,21.0.8 (223)*
G04*
G04 Layer_Physical_Order=1*
G04 Layer_Color=255*
%FSTAX24Y24*%
%MOIN*%
G70*
G04*
G04 #@! TF.SameCoordinates,6FDD5C99-857A-4E56-A0FC-F6C85F5CD364*
G04*
G04*
G04 #@! TF.FilePolarity,Positive*
G04*
G01*
G75*
%ADD11C,0.0100*%
%ADD12C,0.0118*%
%ADD14C,0.0079*%
%ADD29R,0.0531X0.0157*%
%ADD30R,0.0600X0.0600*%
%ADD31R,0.0394X0.0433*%
G04:AMPARAMS|DCode=32|XSize=60mil|YSize=128.7mil|CornerRadius=15mil|HoleSize=0mil|Usage=FLASHONLY|Rotation=0.000|XOffset=0mil|YOffset=0mil|HoleType=Round|Shape=RoundedRectangle|*
%AMROUNDEDRECTD32*
21,1,0.0600,0.0987,0,0,0.0*
21,1,0.0300,0.1287,0,0,0.0*
1,1,0.0300,0.0150,-0.0494*
1,1,0.0300,-0.0150,-0.0494*
1,1,0.0300,-0.0150,0.0494*
1,1,0.0300,0.0150,0.0494*
%
%ADD32ROUNDEDRECTD32*%
%ADD33R,0.0433X0.0394*%
%ADD34R,0.0354X0.1181*%
G04:AMPARAMS|DCode=35|XSize=63mil|YSize=98.4mil|CornerRadius=15.7mil|HoleSize=0mil|Usage=FLASHONLY|Rotation=0.000|XOffset=0mil|YOffset=0mil|HoleType=Round|Shape=RoundedRectangle|*
%AMROUNDEDRECTD35*
21,1,0.0630,0.0669,0,0,0.0*
21,1,0.0315,0.0984,0,0,0.0*
1,1,0.0315,0.0157,-0.0335*
1,1,0.0315,-0.0157,-0.0335*
1,1,0.0315,-0.0157,0.0335*
1,1,0.0315,0.0157,0.0335*
%
%ADD35ROUNDEDRECTD35*%
%ADD36R,0.0748X0.1280*%
G04:AMPARAMS|DCode=37|XSize=31.5mil|YSize=74.8mil|CornerRadius=7.9mil|HoleSize=0mil|Usage=FLASHONLY|Rotation=90.000|XOffset=0mil|YOffset=0mil|HoleType=Round|Shape=RoundedRectangle|*
%AMROUNDEDRECTD37*
21,1,0.0315,0.0591,0,0,90.0*
21,1,0.0157,0.0748,0,0,90.0*
1,1,0.0157,0.0295,0.0079*
1,1,0.0157,0.0295,-0.0079*
1,1,0.0157,-0.0295,-0.0079*
1,1,0.0157,-0.0295,0.0079*
%
%ADD37ROUNDEDRECTD37*%
%ADD38R,0.0276X0.0449*%
%ADD39R,0.0315X0.0827*%
%ADD40R,0.0236X0.0449*%
%ADD41R,0.0453X0.0157*%
%ADD42R,0.0118X0.0472*%
%ADD43R,0.0472X0.0118*%
%ADD44R,0.0472X0.0157*%
%ADD45R,0.0236X0.0354*%
%ADD46R,0.0354X0.0236*%
%ADD47O,0.1181X0.0591*%
%ADD48R,0.1181X0.0591*%
%ADD49O,0.0610X0.0236*%
%ADD50R,0.0433X0.0276*%
G04:AMPARAMS|DCode=51|XSize=86.6mil|YSize=59.1mil|CornerRadius=7.4mil|HoleSize=0mil|Usage=FLASHONLY|Rotation=180.000|XOffset=0mil|YOffset=0mil|HoleType=Round|Shape=RoundedRectangle|*
%AMROUNDEDRECTD51*
21,1,0.0866,0.0443,0,0,180.0*
21,1,0.0719,0.0591,0,0,180.0*
1,1,0.0148,-0.0359,0.0221*
1,1,0.0148,0.0359,0.0221*
1,1,0.0148,0.0359,-0.0221*
1,1,0.0148,-0.0359,-0.0221*
%
%ADD51ROUNDEDRECTD51*%
%ADD52R,0.0551X0.0276*%
G04:AMPARAMS|DCode=53|XSize=39.4mil|YSize=35.4mil|CornerRadius=4.4mil|HoleSize=0mil|Usage=FLASHONLY|Rotation=0.000|XOffset=0mil|YOffset=0mil|HoleType=Round|Shape=RoundedRectangle|*
%AMROUNDEDRECTD53*
21,1,0.0394,0.0266,0,0,0.0*
21,1,0.0305,0.0354,0,0,0.0*
1,1,0.0089,0.0153,-0.0133*
1,1,0.0089,-0.0153,-0.0133*
1,1,0.0089,-0.0153,0.0133*
1,1,0.0089,0.0153,0.0133*
%
%ADD53ROUNDEDRECTD53*%
%ADD54O,0.0669X0.0236*%
G04:AMPARAMS|DCode=55|XSize=23.6mil|YSize=27.6mil|CornerRadius=3mil|HoleSize=0mil|Usage=FLASHONLY|Rotation=180.000|XOffset=0mil|YOffset=0mil|HoleType=Round|Shape=RoundedRectangle|*
%AMROUNDEDRECTD55*
21,1,0.0236,0.0217,0,0,180.0*
21,1,0.0177,0.0276,0,0,180.0*
1,1,0.0059,-0.0089,0.0108*
1,1,0.0059,0.0089,0.0108*
1,1,0.0059,0.0089,-0.0108*
1,1,0.0059,-0.0089,-0.0108*
%
%ADD55ROUNDEDRECTD55*%
%ADD56R,0.1102X0.0374*%
%ADD57R,0.0551X0.0787*%
G04:AMPARAMS|DCode=58|XSize=27.6mil|YSize=27.6mil|CornerRadius=6.9mil|HoleSize=0mil|Usage=FLASHONLY|Rotation=270.000|XOffset=0mil|YOffset=0mil|HoleType=Round|Shape=RoundedRectangle|*
%AMROUNDEDRECTD58*
21,1,0.0276,0.0138,0,0,270.0*
21,1,0.0138,0.0276,0,0,270.0*
1,1,0.0138,-0.0069,-0.0069*
1,1,0.0138,-0.0069,0.0069*
1,1,0.0138,0.0069,0.0069*
1,1,0.0138,0.0069,-0.0069*
%
%ADD58ROUNDEDRECTD58*%
%ADD59R,0.0787X0.1024*%
G04:AMPARAMS|DCode=60|XSize=27.6mil|YSize=27.6mil|CornerRadius=6.9mil|HoleSize=0mil|Usage=FLASHONLY|Rotation=180.000|XOffset=0mil|YOffset=0mil|HoleType=Round|Shape=RoundedRectangle|*
%AMROUNDEDRECTD60*
21,1,0.0276,0.0138,0,0,180.0*
21,1,0.0138,0.0276,0,0,180.0*
1,1,0.0138,-0.0069,0.0069*
1,1,0.0138,0.0069,0.0069*
1,1,0.0138,0.0069,-0.0069*
1,1,0.0138,-0.0069,-0.0069*
%
%ADD60ROUNDEDRECTD60*%
%ADD61R,0.0551X0.1457*%
%ADD62R,0.1181X0.0354*%
G04:AMPARAMS|DCode=63|XSize=23.6mil|YSize=47.2mil|CornerRadius=5.9mil|HoleSize=0mil|Usage=FLASHONLY|Rotation=180.000|XOffset=0mil|YOffset=0mil|HoleType=Round|Shape=RoundedRectangle|*
%AMROUNDEDRECTD63*
21,1,0.0236,0.0354,0,0,180.0*
21,1,0.0118,0.0472,0,0,180.0*
1,1,0.0118,-0.0059,0.0177*
1,1,0.0118,0.0059,0.0177*
1,1,0.0118,0.0059,-0.0177*
1,1,0.0118,-0.0059,-0.0177*
%
%ADD63ROUNDEDRECTD63*%
%ADD64R,0.3032X0.3937*%
G04:AMPARAMS|DCode=65|XSize=250mil|YSize=40.2mil|CornerRadius=10mil|HoleSize=0mil|Usage=FLASHONLY|Rotation=0.000|XOffset=0mil|YOffset=0mil|HoleType=Round|Shape=RoundedRectangle|*
%AMROUNDEDRECTD65*
21,1,0.2500,0.0201,0,0,0.0*
21,1,0.2299,0.0402,0,0,0.0*
1,1,0.0201,0.1150,-0.0100*
1,1,0.0201,-0.1150,-0.0100*
1,1,0.0201,-0.1150,0.0100*
1,1,0.0201,0.1150,0.0100*
%
%ADD65ROUNDEDRECTD65*%
G04:AMPARAMS|DCode=66|XSize=19.7mil|YSize=55.1mil|CornerRadius=4.9mil|HoleSize=0mil|Usage=FLASHONLY|Rotation=90.000|XOffset=0mil|YOffset=0mil|HoleType=Round|Shape=RoundedRectangle|*
%AMROUNDEDRECTD66*
21,1,0.0197,0.0453,0,0,90.0*
21,1,0.0098,0.0551,0,0,90.0*
1,1,0.0098,0.0226,0.0049*
1,1,0.0098,0.0226,-0.0049*
1,1,0.0098,-0.0226,-0.0049*
1,1,0.0098,-0.0226,0.0049*
%
%ADD66ROUNDEDRECTD66*%
%ADD67R,0.1811X0.0787*%
%ADD68R,0.0315X0.0157*%
%ADD69R,0.0315X0.0197*%
%ADD70R,0.0315X0.0236*%
%ADD71R,0.0984X0.0669*%
G04:AMPARAMS|DCode=72|XSize=60mil|YSize=128.7mil|CornerRadius=15mil|HoleSize=0mil|Usage=FLASHONLY|Rotation=90.000|XOffset=0mil|YOffset=0mil|HoleType=Round|Shape=RoundedRectangle|*
%AMROUNDEDRECTD72*
21,1,0.0600,0.0987,0,0,90.0*
21,1,0.0300,0.1287,0,0,90.0*
1,1,0.0300,0.0494,0.0150*
1,1,0.0300,0.0494,-0.0150*
1,1,0.0300,-0.0494,-0.0150*
1,1,0.0300,-0.0494,0.0150*
%
%ADD72ROUNDEDRECTD72*%
%ADD73R,0.0276X0.0433*%
%ADD134C,0.0079*%
%ADD135C,0.0197*%
%ADD136C,0.0157*%
%ADD137C,0.0217*%
%ADD138C,0.0394*%
%ADD139C,0.0236*%
%ADD140C,0.1100*%
%ADD141C,0.1102*%
%ADD142C,0.0827*%
%ADD143C,0.1969*%
%ADD144C,0.1260*%
%ADD145O,0.0815X0.1630*%
%ADD146C,0.1200*%
%ADD147C,0.0591*%
%ADD148R,0.0591X0.0591*%
%ADD149C,0.0984*%
%ADD150R,0.0650X0.0650*%
%ADD151C,0.0650*%
%ADD152C,0.0750*%
%ADD153C,0.0118*%
%ADD154C,0.0236*%
%ADD155C,0.0276*%
G36*
X025606Y0403D02*
X0257Y040206D01*
X0257Y039558D01*
X025642Y0395D01*
X02515Y0395D01*
X024713Y0395D01*
X02465Y039563D01*
X02465Y040241D01*
X024709Y0403D01*
X025606Y0403D01*
D02*
G37*
G36*
X0217Y0392D02*
Y0382D01*
X0218Y0381D01*
X02215D01*
X02225Y0382D01*
Y0387D01*
X0223Y03875D01*
X023D01*
X02305Y0387D01*
Y03825D01*
X0232Y0381D01*
X0262D01*
X026386Y038286D01*
Y0391D01*
X02675Y0391D01*
X02675Y037353D01*
D01*
Y0371D01*
X02635Y0367D01*
X0196Y0367D01*
X0194Y0369D01*
X0194Y03745D01*
Y0393D01*
X01975D01*
X0198Y03925D01*
X0198Y0384D01*
X02Y0382D01*
X0207Y0382D01*
X0209Y0384D01*
Y0392D01*
X021Y0393D01*
X0216D01*
X0217Y0392D01*
D02*
G37*
G36*
X01905Y0391D02*
X0192Y03895D01*
X0192Y0382D01*
X0192D01*
X0192Y0369D01*
X019Y0367D01*
X01375Y0367D01*
X01355Y0369D01*
X01355Y0378D01*
X0154D01*
Y03765D01*
X0156Y03745D01*
X01775Y03745D01*
X017928Y037628D01*
X017928Y0381D01*
X017927D01*
Y0391D01*
X01905Y0391D01*
D02*
G37*
G36*
X0275Y0403D02*
X02785Y03995D01*
X02785Y0361D01*
X0276Y03585D01*
X0259Y03585D01*
X025554Y035504D01*
X025554Y034715D01*
X02555Y03471D01*
X02555Y03382D01*
X025709Y033661D01*
X026929Y033661D01*
X027283Y033307D01*
X027283Y032791D01*
X027397Y032677D01*
X028959D01*
X02905Y032767D01*
X02905Y03311D01*
X03109Y03311D01*
X0313Y0329D01*
X0313Y030677D01*
X0313D01*
X0313Y0266D01*
D01*
X0313D01*
Y023741D01*
X031209Y02365D01*
X029885Y02365D01*
X029701Y023834D01*
X029701Y026441D01*
X0297Y026442D01*
Y0271D01*
X0297Y030677D01*
X0297D01*
Y031127D01*
X0293Y031527D01*
X026823D01*
X0267Y03165D01*
X0267Y03223D01*
X0267D01*
X0267Y032326D01*
Y032327D01*
D01*
X0267Y032946D01*
X026496Y03315D01*
X0253Y03315D01*
X02505Y0334D01*
Y034242D01*
X024892Y0344D01*
X024526Y0344D01*
X0235Y0344D01*
X0235Y0362D01*
X0238Y0365D01*
X02655Y0365D01*
X027Y03695D01*
X027Y03945D01*
X026922Y039528D01*
X026072D01*
X02595Y03965D01*
Y0402D01*
X02605Y0403D01*
X0275Y0403D01*
D02*
G37*
G36*
X031339Y049173D02*
X049134D01*
Y039055D01*
Y037835D01*
X049016Y037717D01*
X045748D01*
Y036732D01*
X04563Y036614D01*
X044055D01*
X043937Y036496D01*
Y036476D01*
Y035906D01*
X043858Y035827D01*
X04252D01*
X042441Y035748D01*
Y03563D01*
X042402Y035591D01*
X04122D01*
Y035118D01*
X041299Y035039D01*
X045709Y035039D01*
Y034606D01*
X045984Y034331D01*
X049134D01*
Y032441D01*
Y03126D01*
X048858Y03126D01*
X048858Y028504D01*
X049134Y028504D01*
X049134Y02689D01*
X049016Y026772D01*
X048425D01*
X048346Y02685D01*
Y027638D01*
X048228Y027756D01*
X045669D01*
X045512Y027598D01*
Y02626D01*
X045039D01*
X043386Y02626D01*
X043307Y026181D01*
Y025941D01*
X043421Y025827D01*
X045551D01*
X045551Y025708D01*
X045629Y02563D01*
X046848D01*
X04689Y025588D01*
Y025472D01*
X04689Y025039D01*
X046891D01*
X046773Y024921D01*
X044887Y024921D01*
X044528Y024562D01*
X044528Y023524D01*
X044587Y023465D01*
X046332D01*
X046457Y02359D01*
X046457Y023819D01*
Y024016D01*
X046496Y024055D01*
X047638D01*
Y023839D01*
X047598Y023799D01*
Y02374D01*
X047218Y02336D01*
X046483Y02336D01*
X046194Y023071D01*
X044606Y023071D01*
X042913Y024764D01*
X041417Y024764D01*
X039921D01*
X039823Y024764D01*
X039528Y025059D01*
X039528Y025472D01*
X039488Y025512D01*
X039094D01*
X039055Y025551D01*
Y025945D01*
X039134Y026024D01*
X039606D01*
X039606Y026654D01*
X03811D01*
Y026103D01*
X033898Y026063D01*
X033346D01*
Y025236D01*
X033583D01*
Y022598D01*
X033346D01*
Y021969D01*
X033346Y021969D01*
X032717D01*
Y022402D01*
X032756Y022441D01*
X032914D01*
X032934Y02431D01*
X032795Y024449D01*
X032008D01*
X032008Y024449D01*
X031614D01*
Y031732D01*
Y033031D01*
X031296Y03335D01*
X031D01*
X028704Y03335D01*
X028583Y033228D01*
X028583Y032835D01*
X027497Y032835D01*
X027497Y034D01*
X02695Y034D01*
Y0342D01*
X02805Y0342D01*
X02815Y0343D01*
Y03495D01*
X028Y0351D01*
X0262D01*
X026Y0349D01*
Y034D01*
X02595Y03395D01*
X02579D01*
X025729Y034011D01*
X025729Y035379D01*
X026Y03565D01*
X0277D01*
X02805Y036D01*
X02805Y0401D01*
X02765Y0405D01*
X02455Y0405D01*
X02425Y0402D01*
X02425Y0395D01*
X021Y0395D01*
X0209Y0396D01*
X0208Y0397D01*
Y04025D01*
X0206Y04045D01*
X017615D01*
X017595Y04043D01*
X017575Y04045D01*
X0171D01*
X016968Y040581D01*
Y041056D01*
X016844Y041181D01*
X015472Y041181D01*
X015354Y041299D01*
X015354Y043465D01*
Y046142D01*
Y046614D01*
X014882Y047087D01*
X012887Y047087D01*
X01235Y04655D01*
Y03595D01*
X01275Y03555D01*
X02245Y03555D01*
X02265Y03535D01*
X02265Y0335D01*
X0225Y03335D01*
X0217D01*
X02165Y0333D01*
Y03278D01*
X02157Y0327D01*
X02045D01*
X02045Y03445D01*
Y0327D01*
X02035Y0328D01*
X0203Y03285D01*
Y0333D01*
X0202Y0334D01*
X0198D01*
X01975Y03345D01*
X01975Y03455D01*
X0195Y0348D01*
X018816D01*
X01875Y034734D01*
X01875Y03455D01*
X01865Y03445D01*
X01805Y03445D01*
X01795Y03435D01*
Y0334D01*
X0178Y03325D01*
X01645Y03325D01*
X01635Y03315D01*
Y03265D01*
X01581D01*
X015675Y032575D01*
X0156Y0325D01*
Y03165D01*
X01565Y0316D01*
X0195Y0316D01*
X0197Y0318D01*
Y0325D01*
X0201D01*
Y03165D01*
X020432Y031318D01*
X024968D01*
X024972Y031322D01*
X029178D01*
X0294Y0311D01*
Y02835D01*
X0294Y026309D01*
Y023849D01*
X029201Y02365D01*
X02775Y02365D01*
X027121D01*
X027118Y023647D01*
X027Y023529D01*
X027Y02305D01*
X0269Y02295D01*
X02527Y02295D01*
X02527Y022565D01*
X025154Y02245D01*
X02495Y02245D01*
X02395D01*
Y021061D01*
X024111Y0209D01*
X02935Y0209D01*
X02965Y0212D01*
X02965Y02215D01*
X029902Y022402D01*
X031148D01*
X0312Y02235D01*
X0312Y020808D01*
X031417Y020591D01*
X035866D01*
Y019685D01*
X03563Y019449D01*
X012835D01*
X012717Y019567D01*
Y02126D01*
X01315D01*
Y020039D01*
X013504Y019685D01*
X017758D01*
X017764Y019691D01*
X018Y019927D01*
X018Y0208D01*
X01775Y02105D01*
X01565D01*
X01565Y02105D01*
X01455Y02105D01*
X0144Y0212D01*
Y02215D01*
X0142Y02235D01*
X01355D01*
X013465Y022435D01*
Y023065D01*
Y025827D01*
X013465Y031299D01*
X012638D01*
X010866Y029528D01*
X01063Y029291D01*
Y018189D01*
X011102Y017717D01*
X024685D01*
X025354Y017717D01*
X025385Y017717D01*
X025446Y017704D01*
X025504Y017681D01*
X025555Y017646D01*
X025599Y017602D01*
X025633Y017551D01*
X025657Y017493D01*
X025669Y017433D01*
X025669Y017402D01*
X025669Y017402D01*
X025669Y015591D01*
X025669Y014921D01*
X024685Y014921D01*
X024685Y014449D01*
X024685D01*
Y014048D01*
X024796Y013937D01*
X025489D01*
X025669D01*
D01*
X029803Y013937D01*
X030197Y014331D01*
Y016811D01*
X030079Y016929D01*
X028976D01*
X028976Y01752D01*
Y017677D01*
X028976Y017677D01*
X029055Y017756D01*
X030945Y017756D01*
D01*
X037835D01*
X038346Y018268D01*
Y019606D01*
Y020866D01*
X038467D01*
Y018073D01*
X037913Y01752D01*
X031063D01*
X030562Y017018D01*
X030562Y013987D01*
X029803Y013228D01*
X024606Y013228D01*
Y013307D01*
X02315D01*
Y014252D01*
X022953Y014449D01*
X022362D01*
X022362Y014449D01*
X021575D01*
X021417Y014606D01*
Y015079D01*
X021496Y015157D01*
X022283D01*
X022362Y015236D01*
X022362Y01563D01*
X022559Y015827D01*
X02311Y015827D01*
X023268Y015984D01*
Y017165D01*
X022953Y01748D01*
X014409D01*
X014134Y017205D01*
Y015394D01*
X014418Y015109D01*
X014843D01*
Y015118D01*
X015394D01*
Y014094D01*
X015315Y014016D01*
X015118Y014016D01*
X015Y013898D01*
Y012874D01*
X015157Y012717D01*
X016299D01*
X016299Y011614D01*
X014646Y011614D01*
Y012008D01*
X014409Y012244D01*
X012717D01*
D01*
X01248Y012008D01*
Y010906D01*
X012795Y010591D01*
D01*
X018031Y010591D01*
X018386Y010945D01*
Y01189D01*
X01815Y012126D01*
X017205Y012126D01*
X017205Y013071D01*
Y013622D01*
X016857Y01397D01*
X016611D01*
X016615Y014488D01*
X018622D01*
X018622Y010118D01*
X012402Y010118D01*
Y010118D01*
X010276D01*
Y032441D01*
X010276Y032442D01*
X010276Y034776D01*
X01105Y03555D01*
X010276Y034776D01*
Y049D01*
X010394D01*
Y049173D01*
X031339Y049173D01*
X031339Y049173D01*
D02*
G37*
G36*
X019847Y032638D02*
X019335D01*
X019384Y032644D01*
X019479Y032669D01*
X019568Y03271D01*
X019649Y032766D01*
X019718Y032836D01*
X019775Y032917D01*
X019816Y033006D01*
X01984Y033101D01*
X019847Y03315D01*
X019847Y03315D01*
Y032638D01*
D02*
G37*
G36*
X0147Y0461D02*
X0147Y0413D01*
X01505Y04095D01*
X0165Y04095D01*
X01675Y0407D01*
Y04D01*
X01675D01*
Y039488D01*
X01748D01*
Y039213D01*
X017468Y0392D01*
X01675D01*
X01345Y0392D01*
X0133Y03905D01*
X0133Y03675D01*
X01355Y0365D01*
X0231Y0365D01*
X02335Y03625D01*
X02335Y03255D01*
X023516Y032384D01*
X025486Y032384D01*
X025487Y031688D01*
X02535Y03155D01*
X02045Y03155D01*
X02035Y03165D01*
Y0325D01*
X0204Y03255D01*
X02165D01*
X02175Y03265D01*
Y0331D01*
X02185Y0332D01*
X0226Y0332D01*
X0226Y03245D01*
Y0332D01*
X0228Y0334D01*
X0228Y03545D01*
X02255Y0357D01*
X0133Y0357D01*
Y0357D01*
X0128Y0357D01*
X01255Y03595D01*
X01255Y03965D01*
Y04595D01*
X0129Y0463D01*
X0145D01*
X0147Y0461D01*
D02*
G37*
G36*
X038289Y025078D02*
X037856D01*
X038053Y025275D01*
X038093D01*
X038289Y025078D01*
D02*
G37*
G36*
X049134Y025354D02*
Y024606D01*
X048937Y024409D01*
X047126D01*
X046968Y024252D01*
X046339D01*
X046142Y024055D01*
Y024213D01*
Y024764D01*
X047165D01*
X047283Y024882D01*
Y025354D01*
X047402Y025472D01*
X049016D01*
X049134Y025354D01*
D02*
G37*
G36*
X037953Y025394D02*
X037638Y025394D01*
X03748Y025236D01*
X03748Y024803D01*
Y024291D01*
X03748D01*
X037323Y024134D01*
Y022838D01*
X037444Y022717D01*
X039409D01*
X039488Y022795D01*
X039488Y024016D01*
X039587Y024114D01*
X040394D01*
Y024331D01*
X040433Y02437D01*
X041496D01*
X041535Y024331D01*
X041535Y023976D01*
X041457Y023898D01*
X040394D01*
Y023981D01*
X039951D01*
Y023898D01*
X039803D01*
X039685Y02378D01*
X039685Y022559D01*
Y021614D01*
X039843Y021457D01*
X040748D01*
X040866Y021339D01*
X040866Y020302D01*
X040866Y020076D01*
X04079Y02D01*
X040723D01*
D01*
X039528Y02D01*
Y020433D01*
Y021457D01*
X039596Y021526D01*
Y022559D01*
X039587D01*
Y022382D01*
X039409Y022559D01*
X03748D01*
X037244Y022323D01*
X036102D01*
X035906Y022126D01*
Y021024D01*
X035669Y020787D01*
X031772Y020787D01*
X031575Y020984D01*
Y02248D01*
X031505Y02255D01*
X029765D01*
X0294Y022276D01*
X0294Y0213D01*
X0292Y0211D01*
X02425D01*
X0242Y02115D01*
Y0221D01*
X0243Y0222D01*
X0255D01*
X025624Y022324D01*
X025624Y022674D01*
X0257Y02275D01*
X02625Y02275D01*
X02635Y02265D01*
Y0222D01*
X02665Y0219D01*
X027716Y0219D01*
X02805Y022234D01*
Y0223D01*
X0287D01*
X0287Y023313D01*
X028734D01*
X028795Y023374D01*
Y023547D01*
X02903Y023313D01*
X02972Y023313D01*
X029728Y023322D01*
X029734Y023316D01*
X031763D01*
X032087Y022992D01*
X032087Y021339D01*
X032283Y021142D01*
X035669Y021142D01*
X035709Y021181D01*
Y021181D01*
X035669Y021142D01*
X034213Y021142D01*
X034291Y02122D01*
Y021772D01*
X035709Y021772D01*
X035709Y022165D01*
X035984Y022441D01*
X037244D01*
X037244Y022717D01*
X037212D01*
X037205Y022715D01*
Y024213D01*
X037126Y024291D01*
X036811D01*
X036654Y024449D01*
Y025866D01*
X037953D01*
Y025394D01*
D02*
G37*
G36*
X042992Y024291D02*
X044528Y022756D01*
X046142Y022756D01*
X04626Y022638D01*
Y022244D01*
X046142Y022126D01*
X044567Y022126D01*
X042992Y023701D01*
X040512Y023701D01*
X039921D01*
Y023819D01*
X041549Y023819D01*
X041626Y023896D01*
X041626Y024409D01*
X041556Y024479D01*
X041626D01*
Y024528D01*
X042756Y024528D01*
X042992Y024291D01*
D02*
G37*
G36*
X046142Y023622D02*
X046063Y023543D01*
X044685D01*
X044606Y023622D01*
X044606Y024488D01*
X044882Y024764D01*
X046142Y024764D01*
X046142Y023622D01*
D02*
G37*
G36*
X028145Y022756D02*
X027929Y02297D01*
X027305D01*
X0273Y0234D01*
X027302Y023453D01*
X027397Y023546D01*
X028145Y023546D01*
Y022756D01*
D02*
G37*
G36*
X037087Y02252D02*
X035748Y02252D01*
X035591Y022362D01*
X035591Y021929D01*
X034488Y021929D01*
X034331D01*
Y02248D01*
X034488Y022638D01*
X037087D01*
Y02252D01*
D02*
G37*
G36*
X03943Y022421D02*
Y021674D01*
X03937Y021614D01*
X039055D01*
Y022441D01*
X039094Y02248D01*
X03937D01*
X03943Y022421D01*
D02*
G37*
G36*
X044409Y021811D02*
X046142D01*
Y021496D01*
X046968D01*
X047008Y021457D01*
Y02063D01*
X047205Y020433D01*
X04881D01*
X049048Y020195D01*
Y018707D01*
X048976Y01878D01*
X048976D01*
X049055Y018701D01*
X049055Y017992D01*
X049055Y016614D01*
X047992Y016614D01*
Y017657D01*
X047775Y017874D01*
X04748D01*
X047346Y018008D01*
X047346Y018606D01*
X04752Y01878D01*
X048386Y01878D01*
X048701Y019094D01*
Y019882D01*
X048543Y020039D01*
X047008D01*
X046654Y020039D01*
X046299Y019685D01*
X046299Y01937D01*
Y01811D01*
Y017953D01*
X046142Y017795D01*
X044252Y017795D01*
X044094Y017638D01*
X044094Y016968D01*
X038268Y016968D01*
Y017283D01*
X038819Y017835D01*
X038819Y019803D01*
X038976D01*
X038976Y019803D01*
X040885D01*
X041024Y019942D01*
Y019961D01*
X041024Y021457D01*
X040866Y021614D01*
X041024Y021617D01*
Y021644D01*
X041348D01*
X041457Y021535D01*
X041457Y019961D01*
X041024D01*
X041457Y019961D01*
X041299Y019803D01*
X041299D01*
X041299Y018504D01*
X041417Y018386D01*
X043071D01*
X043071Y018142D01*
X043182Y018032D01*
X045334D01*
X045512Y018209D01*
Y019331D01*
Y019685D01*
X045276Y019921D01*
X042953D01*
X042913Y019961D01*
Y02063D01*
X043032Y020748D01*
X043622D01*
X043661Y020787D01*
Y021299D01*
X043543Y021417D01*
X042362D01*
X042126Y021181D01*
Y019843D01*
X04185D01*
Y02126D01*
Y021772D01*
X042362D01*
X042598Y021535D01*
X043346D01*
X043543Y021732D01*
Y022126D01*
Y022362D01*
X043307Y022598D01*
X04063D01*
X040551Y022677D01*
Y022756D01*
Y023425D01*
X042795D01*
X044409Y021811D01*
D02*
G37*
G36*
X038583Y022402D02*
Y022205D01*
X038583Y022205D01*
X038583Y021654D01*
X038465Y021535D01*
X037362D01*
X037244Y021654D01*
X037244Y022205D01*
X03752Y02248D01*
X038504D01*
X038583Y022402D01*
D02*
G37*
G36*
X014174Y021026D02*
X01435Y02085D01*
X01765D01*
X0178Y0207D01*
Y01995D01*
X0177Y01985D01*
X0138Y01985D01*
X013524Y020126D01*
Y021521D01*
Y021549D01*
X014174D01*
Y021026D01*
D02*
G37*
G36*
X043465Y020866D02*
X042913D01*
X042717Y020669D01*
X042717Y019685D01*
X042283D01*
X042283Y021063D01*
X04248Y02126D01*
X043465D01*
Y020866D01*
D02*
G37*
G36*
X028001Y017094D02*
X027985D01*
X027846Y017252D01*
X028159D01*
X028001Y017094D01*
D02*
G37*
G36*
X021102Y016929D02*
X020945Y017087D01*
X02126Y017087D01*
X021102Y016929D01*
D02*
G37*
G36*
X01811Y016299D02*
X016239D01*
X016181Y016357D01*
X016181Y016772D01*
X01626Y01685D01*
X01811D01*
X01811Y016299D01*
D02*
G37*
G36*
X046102Y016083D02*
X046024Y016004D01*
X044921D01*
X044843Y016083D01*
Y017461D01*
X046102D01*
Y016083D01*
D02*
G37*
G36*
X048307Y019187D02*
X047179Y019187D01*
X047126Y019134D01*
X047126Y017677D01*
X047382Y017421D01*
X047598D01*
Y017205D01*
Y017205D01*
Y015413D01*
X047559Y015374D01*
X047047D01*
Y015591D01*
X046693D01*
X046693Y019646D01*
X046811Y019764D01*
X048307D01*
X048307Y019187D01*
D02*
G37*
G36*
X016614Y015512D02*
X016457Y015354D01*
X016457Y015669D01*
X016614Y015512D01*
D02*
G37*
G36*
X042992Y01626D02*
X04311Y016142D01*
X04311Y014961D01*
X043022Y014873D01*
X037251Y014873D01*
X036621Y014243D01*
X036621Y011109D01*
X036457Y010945D01*
X035472Y010945D01*
X035315Y011102D01*
Y015378D01*
X036197Y01626D01*
X042992Y01626D01*
D02*
G37*
G36*
X020551Y01685D02*
Y016575D01*
D01*
Y015394D01*
Y014843D01*
X020433D01*
X020433Y014843D01*
X020039Y014843D01*
X019921D01*
Y014961D01*
Y015276D01*
X019844Y015353D01*
X018543Y015354D01*
Y015827D01*
Y015984D01*
X019685D01*
X019724Y016024D01*
Y01689D01*
X020512D01*
X020551Y01685D01*
D02*
G37*
G36*
X028189Y014921D02*
X028189Y014606D01*
X02811Y014528D01*
X026575Y014528D01*
X026535Y014567D01*
Y015039D01*
X028071D01*
X028189Y014921D01*
D02*
G37*
G36*
X03Y016693D02*
X030079Y016614D01*
X030079Y01437D01*
X029764Y014055D01*
X024882Y014055D01*
X024803Y014134D01*
X024803Y014764D01*
X024863Y014824D01*
X026003Y014824D01*
X02622D01*
X02622Y014567D01*
X02636Y014427D01*
X029466D01*
X029624Y014585D01*
X029624Y016085D01*
X029567Y016142D01*
X02878D01*
X028701Y01622D01*
X028701Y016575D01*
X028819Y016693D01*
X03Y016693D01*
D02*
G37*
G36*
X016102Y01622D02*
X016142Y016181D01*
X016299D01*
Y014016D01*
X015709D01*
X015669Y014055D01*
Y015945D01*
Y016811D01*
X016102D01*
Y01622D01*
D02*
G37*
G36*
X038268Y017274D02*
X038268Y016969D01*
X031772Y016968D01*
X031299Y016496D01*
Y012913D01*
X029961D01*
X030906Y013858D01*
X030906Y015906D01*
Y016535D01*
Y01685D01*
X031329Y017274D01*
X038268Y017274D01*
D02*
G37*
G36*
X048789Y013888D02*
X048898Y01378D01*
X048898Y012795D01*
X048762Y012659D01*
X039116Y012659D01*
X038707Y012251D01*
X038707Y01107D01*
X038589Y010952D01*
X037592Y010952D01*
X037466Y011077D01*
Y013198D01*
X038156Y013888D01*
X048789Y013888D01*
D02*
G37*
G36*
X022244Y01378D02*
X02185D01*
X021693Y013622D01*
Y01189D01*
X021457Y01189D01*
X021457Y013307D01*
X021063D01*
X021063Y013898D01*
X022244D01*
Y01378D01*
D02*
G37*
G36*
X02122Y01185D02*
X020984Y011614D01*
X020433D01*
X020197Y01185D01*
Y013189D01*
X02122D01*
Y01185D01*
D02*
G37*
G36*
X02Y014488D02*
Y012638D01*
X02D01*
Y01185D01*
X020394Y011457D01*
X020906D01*
X021024Y011457D01*
X021457Y01189D01*
X021693Y01189D01*
Y01185D01*
Y011732D01*
X021181Y01122D01*
Y010728D01*
X021358Y010551D01*
X022244D01*
X022441Y010748D01*
Y010787D01*
Y010827D01*
Y012441D01*
Y012559D01*
X022441Y012835D01*
X023976Y012835D01*
X023976Y012559D01*
X024562D01*
X024573Y012913D01*
X031299Y012913D01*
X031299Y010118D01*
X02448Y010118D01*
X02D01*
Y010118D01*
X018622D01*
X018622Y014488D01*
X02Y014488D01*
D02*
G37*
%LPC*%
G36*
X041772Y045787D02*
X037953D01*
X037717Y045551D01*
Y04437D01*
X038071Y044016D01*
X04185D01*
Y045709D01*
X041772Y045787D01*
D02*
G37*
G36*
X017874Y046299D02*
X016024D01*
X015709Y045984D01*
Y043819D01*
X015709Y043819D01*
X016102Y043425D01*
X017874Y043425D01*
X0183Y043851D01*
Y045873D01*
X017874Y046299D01*
D02*
G37*
G36*
X043189Y043189D02*
X043189Y043189D01*
X043898D01*
X043189Y043189D01*
D02*
G37*
G36*
X03075Y0418D02*
X027248Y0418D01*
X03075D01*
X03075Y0418D01*
D02*
G37*
G36*
X02155Y0418D02*
X02155D01*
X0209Y04115D01*
X02155Y0418D01*
D02*
G37*
G36*
X044331Y043976D02*
X043898Y043543D01*
X043898Y043189D01*
Y041693D01*
X04378Y041575D01*
X042283D01*
X041575Y040866D01*
X038819Y03811D01*
X038819Y036417D01*
X038819Y036417D01*
Y034764D01*
X038661Y034606D01*
X037677D01*
X037362Y034921D01*
X032559D01*
X03248Y035D01*
Y035866D01*
X038425D01*
Y036378D01*
X032559Y036378D01*
X032441Y036496D01*
X032441Y038346D01*
X03135D01*
Y038346D01*
X031732Y038346D01*
X031732Y034252D01*
X032244D01*
Y034016D01*
X031732D01*
Y033533D01*
X031732Y033533D01*
Y031772D01*
X032283D01*
X032441Y031929D01*
Y032344D01*
X037737Y032304D01*
X038425Y032992D01*
X038465Y033031D01*
X039646Y034213D01*
Y037283D01*
Y037677D01*
X041496Y039528D01*
X042205Y040236D01*
X043583Y040236D01*
X044409Y040236D01*
X044409Y040118D01*
X043681Y040118D01*
X043583Y04002D01*
X043583Y039803D01*
Y03969D01*
X043712Y039561D01*
X048498D01*
X048543Y039606D01*
Y043701D01*
X048268Y043976D01*
X048189D01*
X044331Y043976D01*
D02*
G37*
G36*
X039961Y040866D02*
X039646Y040551D01*
Y039921D01*
X039449Y040039D01*
Y040197D01*
X039291Y040354D01*
X03378D01*
Y039173D01*
X033819Y039134D01*
X039567D01*
X040315Y039882D01*
Y040512D01*
X040197Y04063D01*
X039724D01*
X039961Y040866D01*
D02*
G37*
G36*
X041929Y039449D02*
X041929Y039449D01*
Y03878D01*
X04122D01*
X041102Y038661D01*
Y037559D01*
X04126Y037402D01*
X041929D01*
X041929Y039331D01*
Y039449D01*
D02*
G37*
G36*
X040669Y03252D02*
X040669D01*
X040669Y031516D01*
Y031929D01*
Y03252D01*
D02*
G37*
G36*
X041654Y032835D02*
X04122D01*
X041142Y032756D01*
Y031969D01*
X041181Y031929D01*
X04185D01*
X041968Y031811D01*
X041968Y030571D01*
Y030551D01*
D01*
Y030699D01*
X042116Y030551D01*
X044213D01*
X044567Y030906D01*
Y031457D01*
X044528Y031496D01*
X04248D01*
X042441Y031535D01*
Y031535D01*
X042283Y031693D01*
X042283Y032152D01*
X042126Y032362D01*
X041964Y032524D01*
X041658Y03283D01*
X041658Y03283D01*
X041654Y032835D01*
D02*
G37*
G36*
X042283Y034409D02*
X041339D01*
X041149Y034409D01*
X041024Y034284D01*
X041024Y033162D01*
X041115Y033071D01*
X041339D01*
Y033071D01*
X041614Y033071D01*
X041732D01*
X042598Y032205D01*
X047559D01*
X047717Y032047D01*
X047717Y030748D01*
X045118D01*
X045118Y030512D01*
X044764Y030512D01*
X044567Y030315D01*
Y029724D01*
X044173Y030118D01*
X044173Y030118D01*
X044528Y029764D01*
Y029764D01*
X044724Y029567D01*
X044567D01*
D01*
X045118Y029567D01*
X045118Y028543D01*
X045157Y028504D01*
X047559D01*
X047638Y028425D01*
Y028425D01*
X047559Y028504D01*
X047953Y028898D01*
Y030512D01*
X047717Y030748D01*
X047717Y032047D01*
X047559Y032205D01*
X047756D01*
X04811Y032559D01*
X04811Y033858D01*
X047893Y034075D01*
X047107D01*
X045171Y034075D01*
Y034075D01*
X042618D01*
X042283Y034409D01*
D02*
G37*
G36*
X035118Y030906D02*
X033465Y030906D01*
X033346Y030787D01*
Y030269D01*
X032641Y030236D01*
X035079D01*
Y030276D01*
X035098Y030256D01*
X035079Y030236D01*
X035118D01*
X035098Y030256D01*
X035118Y030276D01*
Y030906D01*
D02*
G37*
G36*
X031984Y030205D02*
X031969Y030205D01*
Y03019D01*
X031984Y030205D01*
D02*
G37*
G36*
X040669Y031024D02*
Y030276D01*
X040394D01*
X040421Y030248D01*
X040709Y03028D01*
X040709Y029606D01*
X040472D01*
Y030079D01*
X040429Y030122D01*
X040354Y030197D01*
X039567Y030197D01*
X039488Y030118D01*
Y029291D01*
X039094D01*
X039094Y030236D01*
X039173Y030315D01*
X040354D01*
Y030866D01*
X03811D01*
X038071Y030827D01*
Y030394D01*
X037441D01*
Y030827D01*
X037402Y030866D01*
X035315D01*
X035276Y030827D01*
Y030315D01*
X035827D01*
Y030079D01*
X035394D01*
X035276Y029961D01*
Y029173D01*
X034724D01*
Y030039D01*
X034574Y03019D01*
X034048D01*
X033898Y030039D01*
Y029173D01*
X033228D01*
Y028465D01*
X033307Y028386D01*
X034488D01*
X034566Y028308D01*
X034566Y028385D01*
X035393D01*
X035512Y028504D01*
Y029016D01*
X035866D01*
Y028268D01*
X035827Y028228D01*
X034567D01*
Y027795D01*
Y027657D01*
X034705Y02752D01*
X035315D01*
Y027795D01*
X035354Y027835D01*
X035827D01*
X035866Y027795D01*
Y02752D01*
X035866Y027244D01*
X03464D01*
X03464Y027244D01*
X033307Y027244D01*
X03311Y027441D01*
Y027835D01*
Y029961D01*
X032835Y030236D01*
X032641Y030236D01*
X032472Y030228D01*
X032205Y029961D01*
Y027205D01*
X03248Y026929D01*
X036398D01*
X036555Y027087D01*
Y028031D01*
X037244Y028031D01*
X037244Y028031D01*
X036555D01*
Y029075D01*
Y029705D01*
X036614Y029764D01*
X03685Y029764D01*
X036929Y029685D01*
X036929Y028701D01*
X037323Y028307D01*
Y02815D01*
X037441Y028031D01*
X037933D01*
Y027244D01*
X038248Y026929D01*
X04185D01*
X04185Y026929D01*
X041968Y027047D01*
Y028189D01*
Y028366D01*
X040588D01*
X040236Y028015D01*
X040236Y027795D01*
Y027244D01*
X040157Y027165D01*
X038661D01*
X038622Y027205D01*
Y027598D01*
X039606D01*
X039803Y027795D01*
Y028307D01*
X039882Y028386D01*
X040315D01*
X040551Y028622D01*
X042165D01*
X042205Y028661D01*
X042205Y029051D01*
X042083Y029173D01*
X041378Y029173D01*
X04126Y029291D01*
X04126Y030197D01*
X04126D01*
X04126Y030866D01*
X041142Y030984D01*
X040709D01*
X040669Y031024D01*
D02*
G37*
G36*
X045315Y028307D02*
X045315D01*
X045404Y028218D01*
X045404Y028218D01*
X045315Y028307D01*
D02*
G37*
G36*
X034567Y02752D02*
D01*
D01*
D01*
D02*
G37*
G36*
X043532Y029016D02*
X043189Y029016D01*
X043092Y028919D01*
X043092Y028346D01*
X042913D01*
Y028346D01*
X043093Y028346D01*
X043093Y026811D01*
X04309D01*
X043092D01*
X043092Y026554D01*
X043189Y026457D01*
X043504Y026457D01*
X043602Y026555D01*
X043602Y028209D01*
X043602Y028946D01*
X043532Y029016D01*
D02*
G37*
G36*
X02487Y030825D02*
X019356Y030825D01*
X01925Y030719D01*
Y0294D01*
X019325Y029325D01*
X024175D01*
X02445Y02905D01*
Y027D01*
X02475Y0267D01*
X02615D01*
X0265Y02705D01*
Y02835D01*
X0268Y02865D01*
X0287D01*
X02875Y0287D01*
X02875Y03075D01*
X028683Y030817D01*
X02534Y030817D01*
X025261Y030738D01*
X025261Y030598D01*
X02487D01*
Y030816D01*
Y030825D01*
D02*
G37*
G36*
X039606Y026024D02*
D01*
X039567D01*
X039528Y025984D01*
X039606Y026024D01*
D01*
D01*
D02*
G37*
G36*
X042913Y026811D02*
X042913Y025906D01*
Y025827D01*
X042913Y026811D01*
X042913D01*
D02*
G37*
G36*
X039761Y025945D02*
X039724Y025908D01*
X039724Y025199D01*
X039765Y025157D01*
X041417Y025157D01*
X041535D01*
X041614Y025236D01*
X041614Y025472D01*
X041614Y025866D01*
X041535Y025945D01*
X039761Y025945D01*
D02*
G37*
G36*
X023011Y0288D02*
X0194Y0288D01*
X01925Y02865D01*
Y02735D01*
X01935Y02725D01*
X01995Y02725D01*
X02015Y02705D01*
Y02415D01*
X020251Y024049D01*
X020578Y024049D01*
X020585Y024056D01*
X020585Y02405D01*
X0208Y024265D01*
X0208Y0247D01*
X0209Y0248D01*
X02205D01*
X02215Y0247D01*
X02215Y0241D01*
X02205Y024D01*
X02085Y024D01*
X02075Y0239D01*
Y02355D01*
X02065Y02345D01*
X01705Y02345D01*
X01695Y02355D01*
Y02355D01*
X01695D01*
Y023617D01*
X01695Y02375D01*
X01695Y02375D01*
Y02565D01*
X0168Y0258D01*
X01565Y0258D01*
X015367D01*
X015247Y02568D01*
Y022853D01*
X01525Y02285D01*
Y0222D01*
X0159Y02155D01*
X0186D01*
Y02155D01*
X0228Y02155D01*
X0234Y02215D01*
Y02265D01*
Y0239D01*
Y0267D01*
X0234Y0286D01*
X0232Y0288D01*
X023011Y0288D01*
D02*
G37*
G36*
X013701Y017244D02*
Y017244D01*
X013701D01*
X013701Y017244D01*
D02*
G37*
G36*
X013071Y017402D02*
X01185D01*
X011693Y017244D01*
Y017087D01*
X012008Y016772D01*
X011654D01*
X012008Y016772D01*
X012165Y016614D01*
X012165Y014882D01*
D01*
Y015079D01*
X012362Y014882D01*
X013701D01*
X013819Y015D01*
Y016647D01*
X013554Y016911D01*
Y016914D01*
X013254Y017215D01*
Y017218D01*
X013071Y017402D01*
D02*
G37*
G36*
X013976Y014134D02*
X013937Y014094D01*
X013976Y014055D01*
Y014134D01*
D02*
G37*
%LPD*%
G36*
X042205Y032874D02*
Y032598D01*
X041732Y033071D01*
X042008D01*
X042205Y032874D01*
D02*
G37*
G36*
X042126Y034252D02*
X042402Y033976D01*
X04252Y033858D01*
X042523D01*
X042607Y033858D01*
X043583D01*
Y033858D01*
X045315Y033858D01*
X047756D01*
X047992Y033622D01*
Y032559D01*
X047835Y032402D01*
X045236D01*
X042638Y032402D01*
X042402Y032638D01*
Y032913D01*
X042126Y033189D01*
X041339D01*
X041299Y033228D01*
X041299Y034252D01*
X042126Y034252D01*
D02*
G37*
G36*
X038898Y029703D02*
X037362D01*
Y029891D01*
X038898D01*
Y029703D01*
D02*
G37*
G36*
X041181Y027677D02*
X041457D01*
Y027441D01*
Y027362D01*
X040512D01*
Y027677D01*
X040748D01*
Y027835D01*
X041181D01*
Y027677D01*
D02*
G37*
G36*
X0285Y03065D02*
X0285Y029D01*
X02835Y02885D01*
X02645Y02885D01*
X02625Y02865D01*
X02625Y02725D01*
X026Y027D01*
X02485Y027D01*
X02465Y0272D01*
X02465Y0291D01*
X024272Y029478D01*
X019622D01*
X01955Y02955D01*
Y02985D01*
X019629Y029929D01*
X027623Y029929D01*
X0277Y030006D01*
X0277Y03065D01*
X027755Y030705D01*
X028445D01*
X0285Y03065D01*
D02*
G37*
G36*
X041535Y02582D02*
Y025304D01*
X041484Y025253D01*
X039843D01*
X039843Y025866D01*
X041489Y025866D01*
X041535Y02582D01*
D02*
G37*
G36*
X02065Y0274D02*
Y02755D01*
X0208D01*
X02065Y0274D01*
D02*
G37*
G36*
X0203D02*
X02015Y02755D01*
X0203D01*
Y0274D01*
D02*
G37*
G36*
X0221Y0273D02*
Y0264D01*
X022Y0263D01*
X02095D01*
X02085Y0264D01*
Y0273D01*
X02095Y0274D01*
X022D01*
X0221Y0273D01*
D02*
G37*
G36*
X02305Y0286D02*
X02325Y0284D01*
Y0223D01*
X02267Y02172D01*
X016115D01*
X0155Y022335D01*
Y0227D01*
X0155Y0255D01*
X01565Y02565D01*
X01655Y02565D01*
X0167Y0255D01*
X0167Y0239D01*
X0167D01*
Y0235D01*
X0168Y0234D01*
X01685Y02335D01*
X017002D01*
X017608Y02335D01*
X017608Y02335D01*
X020821D01*
X020968Y023497D01*
X020968Y02384D01*
X02214Y02384D01*
X0223Y024D01*
Y024843D01*
X022174Y024969D01*
X0223D01*
Y025304D01*
X02217D01*
X0223Y025434D01*
Y025589D01*
X022089Y0258D01*
X0223D01*
Y02595D01*
X022033D01*
X0223Y026217D01*
Y02685D01*
Y02805D01*
X022155Y028195D01*
X019654D01*
X01965Y0286D01*
X02305Y0286D01*
D02*
G37*
G36*
X013622Y015315D02*
Y015276D01*
Y015236D01*
Y015079D01*
X013543Y015D01*
X012559D01*
X012441Y015118D01*
Y015984D01*
X013622D01*
Y015315D01*
D02*
G37*
%LPC*%
G36*
X039661Y023868D02*
X039646Y023853D01*
Y022835D01*
X039661Y022849D01*
X039661Y023519D01*
Y023868D01*
D02*
G37*
G36*
X042992Y023749D02*
Y02374D01*
D01*
Y023749D01*
D02*
G37*
G36*
X043228Y022756D02*
X043701Y022283D01*
D01*
X043228Y022756D01*
D02*
G37*
G36*
X042153Y021562D02*
X042126Y021535D01*
X042126D01*
X042153Y021562D01*
Y021562D01*
D02*
G37*
G36*
X045551Y017953D02*
X04326D01*
X04326Y017953D01*
X045551Y017953D01*
D02*
G37*
%LPD*%
D11*
X042673Y021059D02*
G03*
X042672Y021053I000096J-000029D01*
G01*
X042642Y02092D02*
G03*
X04264Y020911I000098J-000022D01*
G01*
X042639Y020895D02*
G03*
X042638Y020883I000099J-000012D01*
G01*
X016588Y01337D02*
G03*
X016559Y013299I000071J-000071D01*
G01*
Y012076D02*
G03*
X017071Y011564I000512J0D01*
G01*
X017171Y011464D02*
G03*
X017071Y011564I-0001J0D01*
G01*
X021142Y014843D02*
G03*
X021899Y014086I000757J0D01*
G01*
X016667Y015998D02*
G03*
X016457Y015787I0J-000211D01*
G01*
X021969Y016654D02*
G03*
X021556Y017065I-000413J-000002D01*
G01*
X015191Y017065D02*
G03*
X014921Y016795I000001J-000271D01*
G01*
X02227Y01353D02*
G03*
X02185Y01311I0J-000419D01*
G01*
X022675Y01353D02*
G03*
X022677Y01353I-000001J0001D01*
G01*
X014409Y015813D02*
G03*
X014726Y015498I000316J000001D01*
G01*
X014947Y017323D02*
G03*
X014409Y016786I0J-000537D01*
G01*
X022874Y01685D02*
G03*
X022402Y017323I-000472J0D01*
G01*
X042673Y021059D02*
X042705Y021166D01*
X042639Y020895D02*
X04264Y020911D01*
X042705Y021166D02*
X04298Y021051D01*
X042642Y02092D02*
X042672Y021053D01*
X042638Y019665D02*
Y020883D01*
X030679Y03184D02*
X030709Y03187D01*
X030429Y031937D02*
Y03211D01*
X030447Y0324D02*
X030591D01*
X016457Y013506D02*
X016591Y013372D01*
X017071Y011564D02*
Y011564D01*
X016588Y01337D02*
X016591Y013372D01*
X016457Y015498D02*
X017047D01*
X016457Y013506D02*
Y015498D01*
X016559Y012076D02*
Y013299D01*
X013617Y011372D02*
X017171D01*
X017591D01*
X017171Y011385D02*
Y011464D01*
X017171Y011372D02*
Y011385D01*
X02465Y021561D02*
X02605D01*
X028161D02*
X02845Y02185D01*
X030144Y0324D02*
X030447D01*
X030429Y031817D02*
Y031937D01*
X03065Y031811D02*
X030679Y03184D01*
X028424Y022906D02*
X03055D01*
X02845Y02185D02*
Y02288D01*
X028424Y022906D02*
X02845Y02288D01*
X0425Y019528D02*
X042638Y019665D01*
X044134Y032795D02*
X044823D01*
X041866Y033588D02*
X041988D01*
X041663Y033565D02*
X041739Y033641D01*
X041813D01*
X041496Y033565D02*
X041663D01*
X041813Y033641D02*
X041866Y033588D01*
X041775Y03334D02*
X041807Y033308D01*
X041962D02*
X041963Y033307D01*
X041502Y03334D02*
X041775D01*
X041807Y033308D02*
X041962D01*
X041496Y033346D02*
X041502Y03334D01*
X041735Y033937D02*
X042126D01*
X041665Y033867D02*
X041735Y033937D01*
X041623Y033867D02*
X041665D01*
X042152Y033806D02*
X042339Y03362D01*
Y033614D02*
Y03362D01*
X042152Y033806D02*
Y033911D01*
X042126Y033937D02*
X042152Y033911D01*
X041496Y033787D02*
Y034134D01*
Y03374D02*
X041555D01*
X041623Y033808D01*
Y033867D01*
X041496Y03374D02*
Y033787D01*
X042321Y033305D02*
X042344Y033328D01*
X043071Y032795D02*
X044134D01*
X03065Y032126D02*
X030679Y032097D01*
X03065Y032126D02*
Y032341D01*
X030591Y0324D02*
X03065Y032341D01*
X029777Y0324D02*
X030144D01*
X02965Y032273D02*
X029777Y0324D01*
X023865Y03465D02*
X02465D01*
X02525D01*
X030441Y031937D02*
X03063Y032126D01*
X030415Y031804D02*
X030422Y031811D01*
X030709D02*
Y03187D01*
Y029582D02*
Y031811D01*
X041496Y033346D02*
Y033565D01*
Y03374D01*
X044961Y032677D02*
X045315Y033031D01*
X047717D01*
X044961Y032657D02*
Y032677D01*
X042934Y033328D02*
X043071Y033465D01*
X042344Y033328D02*
X042934D01*
X030422Y031811D02*
X030429Y031817D01*
X030441Y03183D01*
X030429Y03211D02*
X030442Y032123D01*
X030441Y03183D02*
Y031937D01*
X030709Y03187D02*
Y032126D01*
X030422Y031811D02*
X03065D01*
X030709Y029582D02*
X030741Y02955D01*
X02266Y014086D02*
X022677Y014069D01*
X021899Y014086D02*
X02266D01*
X018452Y016168D02*
Y016385D01*
X018021Y015737D02*
X018452Y016168D01*
X018021Y015737D02*
Y015737D01*
X017929Y015646D02*
X018021Y015737D01*
X018452Y016385D02*
X018563Y016496D01*
X022132Y015757D02*
X022556Y016181D01*
X022806D01*
X022874Y016249D01*
X021969Y01561D02*
X022115Y015757D01*
X022132D01*
X021969Y015591D02*
Y01561D01*
X022874Y016249D02*
Y01685D01*
X016457Y015498D02*
X016457Y015498D01*
X016667Y015998D02*
X017047D01*
X016457Y015498D02*
Y015787D01*
X043071Y032795D02*
Y033465D01*
X044134Y033622D02*
X044961D01*
X044134Y033611D02*
Y033622D01*
X043071Y033465D02*
X043987D01*
X044134Y033611D01*
X044823Y032795D02*
X044961Y032657D01*
X039731Y013652D02*
X04774D01*
X038078Y011526D02*
X038236Y011685D01*
Y012157D01*
X039731Y013652D01*
X035952Y013888D02*
X037093Y01503D01*
X041978D02*
X042526Y015578D01*
X048214Y013178D02*
X048326D01*
X04774Y013652D02*
X048214Y013178D01*
X035952Y011526D02*
Y013888D01*
X037093Y01503D02*
X041978D01*
X014921Y016498D02*
Y016795D01*
X021969Y016324D02*
Y016654D01*
X015191Y017065D02*
X021102Y017065D01*
X021969Y016654D02*
X021969Y016654D01*
X02185Y011008D02*
Y01311D01*
X02227Y01353D02*
X022675D01*
X021142Y014843D02*
Y015532D01*
X021102Y015571D02*
X021142Y015532D01*
X014726Y015498D02*
Y015498D01*
X014409Y015813D02*
Y016786D01*
X014726Y015498D02*
X014921D01*
X014947Y017323D02*
X022402D01*
X021102Y017065D02*
X021556D01*
X021102Y016378D02*
Y017065D01*
X019404Y016482D02*
X019429Y016457D01*
X019011Y016482D02*
X019404D01*
X018712Y016484D02*
X019011D01*
X019453Y014927D02*
X019528Y014852D01*
X022688Y01304D02*
X024281D01*
X024291Y013051D01*
X017874Y014972D02*
X01874D01*
X019375D01*
X017073D02*
X017874D01*
X017047Y014998D02*
X017073Y014972D01*
X02755Y023185D02*
X028145D01*
X0275D02*
X02755D01*
X027141Y0362D02*
X0272Y036259D01*
X030741Y026827D02*
Y02955D01*
X030607Y0267D02*
X030613D01*
X030741Y026827D01*
X030406Y0267D02*
X030607D01*
X030735Y026573D01*
X027711Y031826D02*
X02775Y031865D01*
X029615D02*
X02965Y0319D01*
X02685Y032153D02*
Y0332D01*
X02685Y031826D02*
X027711D01*
X02965Y0319D02*
Y032273D01*
X02775Y031865D02*
X029615D01*
X02665Y0334D02*
X02685Y0332D01*
X02565Y0334D02*
X02665D01*
X02385Y034635D02*
X023865Y03465D01*
X02525D02*
X02535Y03455D01*
X02465Y036141D02*
X024709Y0362D01*
X02465Y03465D02*
Y036141D01*
X02535Y0342D02*
Y03455D01*
X02465Y034635D02*
Y03465D01*
X024709Y0362D02*
X027141D01*
X026738Y039912D02*
X0272Y03945D01*
X02615Y039912D02*
X026738D01*
X0272Y036259D02*
Y03945D01*
X02535Y0337D02*
X02565Y0334D01*
X02535Y0337D02*
Y0342D01*
X026Y021611D02*
X02605Y021561D01*
X027415Y02265D02*
X02755Y022515D01*
X026Y021611D02*
Y02235D01*
X026733Y02265D02*
X027415D01*
X028145Y023185D02*
X028424Y022906D01*
X03055Y023811D02*
X030629D01*
X030735Y023916D01*
X02605Y021561D02*
X028161D01*
X030735Y023916D02*
Y02475D01*
Y026573D01*
D12*
X043888Y017941D02*
X045492D01*
X045945Y018393D01*
X043819Y017598D02*
Y017872D01*
X043888Y017941D01*
X043166Y01748D02*
X043701D01*
X043008Y017638D02*
X043166Y01748D01*
X042441Y017638D02*
Y01767D01*
X042402Y017709D02*
Y018032D01*
Y017709D02*
X042441Y01767D01*
Y017638D02*
X043008D01*
X045945Y018393D02*
Y018425D01*
X014174Y015039D02*
X014215Y014998D01*
X014921D01*
X03896Y018566D02*
Y018684D01*
X039724Y019449D01*
X038937Y018543D02*
X03896Y018566D01*
X039724Y019449D02*
X039862D01*
X047874Y018032D02*
Y018413D01*
X047937Y018476D01*
X025226Y04008D02*
X02523D01*
X025226D02*
X02523Y040076D01*
X02549D01*
X025494Y040072D01*
X0249Y039754D02*
X025226Y04008D01*
X0249Y039735D02*
Y039754D01*
X027047Y029409D02*
Y029626D01*
X027126Y029705D01*
X026929Y029291D02*
X027047Y029409D01*
X027568Y0295D02*
X028059D01*
X027521Y029547D02*
X027568Y0295D01*
X027126Y029685D02*
Y029705D01*
X027264Y029547D02*
X027521D01*
X027126Y029685D02*
X027264Y029547D01*
X02619Y029014D02*
X026925D01*
X02545Y02905D02*
X026154D01*
X02619Y029014D01*
X043701Y01748D02*
X043819Y017598D01*
X040591Y019547D02*
X040728Y019409D01*
X026929Y014841D02*
X02693Y014842D01*
X027873D01*
X027874Y014843D01*
D14*
X044839Y03094D02*
G03*
X044862Y030995I-000056J000055D01*
G01*
X044132Y030265D02*
G03*
X044187Y030288I0J000079D01*
G01*
X038088Y017087D02*
G03*
X038143Y01711I0J000079D01*
G01*
X032165Y017062D02*
G03*
X032159Y017062I000003J-000079D01*
G01*
X032093Y017084D02*
G03*
X032159Y017062I000055J000056D01*
G01*
X013574Y017594D02*
G03*
X01363Y017618I-0J000079D01*
G01*
X011162D02*
G03*
X011218Y017594I000056J000056D01*
G01*
X038942Y017926D02*
G03*
X038943Y017942I-000077J000016D01*
G01*
X029852Y015264D02*
G03*
X029875Y015214I000079J000005D01*
G01*
X012302Y01681D02*
G03*
X012305Y016808I000058J000053D01*
G01*
X011286Y018699D02*
G03*
X011309Y018644I000079J0D01*
G01*
Y026309D02*
G03*
X011286Y026254I000056J-000056D01*
G01*
X012103Y018724D02*
G03*
X012158Y018701I000055J000056D01*
G01*
X011457Y019069D02*
G03*
X011478Y019016I000079J000001D01*
G01*
X011825Y018622D02*
G03*
X011801Y018676I-000079J-000002D01*
G01*
X011911Y0186D02*
G03*
X011846Y018625I-000065J-00007D01*
G01*
X011911Y0186D02*
G03*
X012058Y018543I000147J000163D01*
G01*
X037595Y019982D02*
G03*
X037618Y020038I-000056J000056D01*
G01*
X011614Y019245D02*
G03*
X011637Y01919I000079J0D01*
G01*
X030657Y013852D02*
G03*
X03068Y013907I-000056J000056D01*
G01*
X029843Y013071D02*
G03*
X029899Y013094I0J000079D01*
G01*
X030703Y016886D02*
G03*
X03068Y01683I000056J-000056D01*
G01*
X037966Y017402D02*
G03*
X038022Y017425I0J000079D01*
G01*
X037913Y017402D02*
G03*
X037919Y017402I0J000118D01*
G01*
X031251Y017402D02*
G03*
X031196Y017379I0J-000079D01*
G01*
X037922Y017402D02*
G03*
X037919Y017402I0J-000079D01*
G01*
X038579Y017982D02*
G03*
X038602Y018038I-000056J000056D01*
G01*
X037989Y019931D02*
G03*
X038012Y019986I-000056J000055D01*
G01*
X036412Y018386D02*
G03*
X036467Y018409I-0J000079D01*
G01*
X037792Y019956D02*
G03*
X037815Y020012I-000056J000056D01*
G01*
Y020127D02*
G03*
X037815Y020128I-000079J0D01*
G01*
X036314Y018543D02*
G03*
X036425Y01859I0J000157D01*
G01*
X038182Y018369D02*
G03*
X038205Y018424I-000056J000056D01*
G01*
X037655Y017874D02*
G03*
X037711Y017897I-0J000079D01*
G01*
X011519Y018409D02*
G03*
X011575Y018386I000056J000056D01*
G01*
X025925Y017579D02*
G03*
X02563Y017874I-000295J0D01*
G01*
X012087Y019454D02*
G03*
X01211Y019399I000079J0D01*
G01*
X012283Y019481D02*
G03*
X012306Y019426I000079J0D01*
G01*
X011772Y019324D02*
G03*
X011795Y019268I000079J0D01*
G01*
X011929Y019389D02*
G03*
X011952Y019334I000079J0D01*
G01*
X012306Y021306D02*
G03*
X012283Y021251I000056J-000055D01*
G01*
X011795Y023763D02*
G03*
X011772Y023708I000056J-000056D01*
G01*
X027126Y017874D02*
G03*
X02689Y017638I0J-000236D01*
G01*
X010906Y018379D02*
G03*
X010928Y018324I000079J0D01*
G01*
X012807Y016985D02*
G03*
X012808Y016983I000057J000054D01*
G01*
X036811Y019918D02*
G03*
X036732Y01984I0J-000079D01*
G01*
X036935Y019918D02*
G03*
X037004Y019987I0J000069D01*
G01*
Y019987D02*
G03*
X036935Y020056I-000069J0D01*
G01*
X036693Y020125D02*
G03*
X036762Y020056I000069J0D01*
G01*
Y020194D02*
G03*
X036693Y020125I0J-000069D01*
G01*
X036935Y020194D02*
G03*
X037004Y020263I0J000069D01*
G01*
Y020263D02*
G03*
X036935Y020332I-000069J0D01*
G01*
X036693Y020401D02*
G03*
X036762Y020332I000069J0D01*
G01*
Y02047D02*
G03*
X036693Y020401I0J-000069D01*
G01*
X036935Y02047D02*
G03*
X037004Y020539I0J000069D01*
G01*
Y020539D02*
G03*
X036935Y020607I-000069J0D01*
G01*
X036693Y020676D02*
G03*
X036762Y020607I000069J0D01*
G01*
Y020745D02*
G03*
X036693Y020676I0J-000069D01*
G01*
X036935Y020745D02*
G03*
X037004Y020814I0J000069D01*
G01*
Y020814D02*
G03*
X036935Y020883I-000069J0D01*
G01*
X036693Y020952D02*
G03*
X036762Y020883I000069J0D01*
G01*
Y021021D02*
G03*
X036693Y020952I0J-000069D01*
G01*
X036935Y021021D02*
G03*
X037004Y02109I0J000069D01*
G01*
Y02109D02*
G03*
X036935Y021159I-000069J0D01*
G01*
X036693Y021228D02*
G03*
X036762Y021159I000069J0D01*
G01*
Y021296D02*
G03*
X036693Y021228I0J-000069D01*
G01*
X036935Y021296D02*
G03*
X037004Y021365I0J000069D01*
G01*
Y021365D02*
G03*
X036935Y021434I-000069J0D01*
G01*
X036732Y021513D02*
G03*
X036811Y021434I000079J0D01*
G01*
X045831Y041352D02*
G03*
X045887Y041375I-0J000079D01*
G01*
X034331Y02311D02*
G03*
X034469Y022972I000138J0D01*
G01*
X035723Y023248D02*
G03*
X035802Y023169I000079J0D01*
G01*
X034331Y024082D02*
G03*
X034308Y024137I-000079J0D01*
G01*
X034016Y022795D02*
G03*
X03378Y022559I0J-000236D01*
G01*
X032441Y021614D02*
G03*
X03252Y021535I000079J0D01*
G01*
X032464Y023726D02*
G03*
X032441Y023671I000056J-000056D01*
G01*
X038366Y01813D02*
G03*
X038389Y018185I-000056J000056D01*
G01*
X027992Y017189D02*
G03*
X027969Y017244I-000079J0D01*
G01*
X027913Y015841D02*
G03*
X027992Y015919I0J000079D01*
G01*
X015551Y013444D02*
G03*
X015574Y013388I000079J0D01*
G01*
X015551Y015749D02*
G03*
X0153Y015998I-000251J-000001D01*
G01*
X048568Y02718D02*
X048622Y027126D01*
X048568Y02718D02*
Y02781D01*
X048307Y028071D02*
X048568Y02781D01*
X047362Y028071D02*
X048307D01*
X047323Y02811D02*
X047362Y028071D01*
X048305Y031693D02*
X048317Y031681D01*
X047323Y031693D02*
X048305D01*
X046942Y030416D02*
X046978Y030453D01*
X047177D01*
X046701Y030416D02*
X046942D01*
X047177Y030411D02*
X047621D01*
X046693Y023622D02*
X047283D01*
X046654Y023583D02*
X047244D01*
X047621Y030411D02*
X047795Y030236D01*
X018691Y025435D02*
X018728Y025472D01*
X018691Y0249D02*
Y025435D01*
X018233Y028971D02*
X0184D01*
X017608Y027205D02*
Y028111D01*
X017462Y028971D02*
X018465Y027968D01*
X017001Y028971D02*
X017328D01*
X017462D01*
X0184D02*
X018482Y028889D01*
X017462Y028971D02*
X018233D01*
X019921Y020573D02*
X02Y020494D01*
X019921Y020573D02*
Y020827D01*
X047795Y028937D02*
Y030236D01*
X047559Y028701D02*
X047795Y028937D01*
X047437Y042171D02*
X047438D01*
X047638Y043106D02*
Y043543D01*
X04748Y043701D02*
X047638Y043543D01*
X044724Y043701D02*
X04748D01*
X044488Y042888D02*
X044489Y042889D01*
X044488Y041914D02*
Y042888D01*
X044489Y043105D02*
X044927Y043543D01*
X044489Y042889D02*
Y043105D01*
X044488Y041914D02*
X044534Y041868D01*
X044934D01*
X044927Y043543D02*
X045571D01*
X044479Y044291D02*
X048453D01*
X043755Y043998D02*
X043799Y044042D01*
X048799Y043689D02*
Y043945D01*
X043799Y044042D02*
X044229D01*
X048453Y044291D02*
X048799Y043945D01*
X043755Y043763D02*
Y043998D01*
X044229Y044042D02*
X044479Y044291D01*
X045698Y018672D02*
X045945Y018425D01*
X040912Y01748D02*
X042264D01*
X042422Y017638D01*
X040528Y019484D02*
X040571Y019528D01*
X042422Y017638D02*
X042441D01*
X048874Y043745D02*
Y04847D01*
X043727Y039134D02*
X048221D01*
X043755Y043763D02*
Y04847D01*
X043681Y03815D02*
Y039088D01*
X042972Y03622D02*
X043681D01*
X044882Y031083D02*
X044961Y031161D01*
X044187Y030288D02*
X044839Y03094D01*
X042362Y030265D02*
X044132D01*
X047283Y023622D02*
X047606Y023945D01*
X040232Y026433D02*
X041181D01*
X039961Y026398D02*
X040079Y02628D01*
X040571Y019528D02*
X040591D01*
X039803D02*
X040532D01*
X036145Y026322D02*
X037731D01*
X035364Y022579D02*
X035571D01*
X035317Y022533D02*
X035364Y022579D01*
X035317Y022103D02*
Y022533D01*
X034597Y022579D02*
X035364D01*
X032992Y022218D02*
Y022871D01*
X034882Y017087D02*
X038088D01*
X032159Y017062D02*
X032159Y017062D01*
X032093Y017084D02*
X032093Y017084D01*
X030391Y01425D02*
Y016893D01*
X017608Y028111D02*
X018514Y027205D01*
X016563Y02802D02*
X017001Y028457D01*
X010591Y028575D02*
Y029443D01*
Y028151D02*
Y028575D01*
X010571Y027522D02*
Y027575D01*
X010492Y027654D02*
X010571Y027575D01*
X015709Y027205D02*
X016543Y02804D01*
X010492Y027443D02*
X010571Y027522D01*
X010551Y023575D02*
Y024575D01*
Y026575D02*
Y026594D01*
X010492Y026654D02*
X010551Y026594D01*
Y025575D02*
Y026575D01*
Y024575D02*
Y025575D01*
X024425Y01752D02*
X024503Y017442D01*
X024291Y015472D02*
X024646Y015827D01*
X023334Y01751D02*
X023516D01*
X021811Y017598D02*
X023246D01*
X020591D02*
X021811D01*
X01937D02*
X020591D01*
X018346D02*
X01937D01*
X017087D02*
X018346D01*
X015984D02*
X017087D01*
X014843D02*
X015984D01*
X013688D02*
X014843D01*
X027806Y013429D02*
X027835Y013457D01*
X025092Y013334D02*
X026371D01*
X024654Y012488D02*
X024669D01*
X02456Y012395D02*
X024654Y012488D01*
X023673Y011929D02*
X024199D01*
X022906D02*
X023673D01*
X013649Y017637D02*
X013688Y017598D01*
X013574Y017594D02*
X013574D01*
X010551Y020575D02*
Y021575D01*
Y019575D02*
Y020575D01*
Y019555D02*
Y019575D01*
X010492Y019496D02*
X010551Y019555D01*
Y022575D02*
Y023575D01*
Y021575D02*
Y022575D01*
X011218Y017594D02*
X013574D01*
X010551Y018228D02*
X011162Y017618D01*
X010551Y018228D02*
Y018595D01*
X019492Y015571D02*
X020366D01*
X01874Y015646D02*
X018819Y015567D01*
X01204Y011403D02*
X012192Y011556D01*
X011512Y010554D02*
Y011244D01*
X011528Y010544D02*
Y011228D01*
X038943Y017942D02*
Y018537D01*
X038937Y017903D02*
X038942Y017926D01*
X038143Y01711D02*
X038937Y017903D01*
X034818Y017126D02*
X034843D01*
X034882Y017087D01*
X032794Y017089D02*
X034818Y017126D01*
X032165Y017062D02*
X032794Y017089D01*
X032052Y017126D02*
X032093Y017084D01*
X029764Y016575D02*
X029944Y016296D01*
X029795Y016113D02*
X029852Y015264D01*
X029764Y016575D02*
X029772Y016458D01*
X029795Y016113D01*
X029875Y015214D02*
X029926Y015163D01*
X029875Y015214D02*
X029875Y015214D01*
X01248Y016594D02*
X012638Y016437D01*
X01248Y016594D02*
Y016632D01*
X012305Y016807D02*
X01248Y016632D01*
X011981Y01717D02*
X012302Y01681D01*
X012305Y016808D02*
X012305Y016807D01*
X046693Y02937D02*
X047165D01*
X044862Y030995D02*
Y031102D01*
X011286Y018699D02*
Y026254D01*
X011309Y026309D02*
X01285Y02785D01*
X011309Y018644D02*
X011378Y018575D01*
X011949Y018878D02*
X011949Y018878D01*
X011637Y01919D02*
X011949Y018878D01*
X011949Y018877D02*
X012103Y018724D01*
X011949Y018878D02*
X011949Y018877D01*
X012158Y018701D02*
X036314D01*
X011457Y019069D02*
Y019894D01*
X011825Y018622D02*
X011825Y018622D01*
X011741Y018737D02*
X011801Y018676D01*
X011723Y018756D02*
X01174Y018738D01*
X011478Y019016D02*
X011723Y018756D01*
X011741Y018737D02*
X011741Y018737D01*
X01174Y018738D02*
X011741Y018737D01*
X011911Y0186D02*
X011911Y0186D01*
X012097Y018543D02*
X036314D01*
X012058Y018543D02*
X012097Y018543D01*
X037595Y019982D02*
X037595Y019982D01*
X036314Y018701D02*
X037595Y019982D01*
X011614Y019245D02*
Y024614D01*
Y019245D02*
Y019245D01*
X012205Y018858D02*
X036249D01*
X011795Y019268D02*
X012205Y018858D01*
X01227Y019016D02*
X036142D01*
X012255Y019031D02*
X01227Y019016D01*
X012335Y019173D02*
X036024D01*
X01211Y019399D02*
X012335Y019173D01*
X029899Y013094D02*
X030657Y013852D01*
X03068Y013907D02*
Y01683D01*
X030703Y016886D02*
X031196Y017379D01*
X024444Y013071D02*
X029843D01*
X037922Y017402D02*
X037966D01*
X038022Y017425D02*
X038579Y017982D01*
X031251Y017402D02*
X037913D01*
X038602Y018038D02*
Y021201D01*
X038012Y019986D02*
Y021201D01*
X036467Y018409D02*
X037989Y019931D01*
X011575Y018386D02*
X036412D01*
X037815Y020012D02*
X037815Y020127D01*
X036425Y01859D02*
X037792Y019956D01*
X037815Y020128D02*
Y021201D01*
X037618Y020038D02*
Y021083D01*
X038205Y018424D02*
Y021004D01*
X037711Y017897D02*
X038182Y018369D01*
X027126Y017874D02*
X037655D01*
X038205Y021004D02*
X038209Y021201D01*
X011396Y018532D02*
X011519Y018409D01*
Y018409D02*
Y018409D01*
X036142Y019016D02*
X036732Y019606D01*
X036249Y018858D02*
X037421Y020031D01*
X011142Y017874D02*
X02563D01*
X010748Y018268D02*
X011142Y017874D01*
X036575Y018071D02*
X03752Y019016D01*
X010928Y018324D02*
X011181Y018071D01*
X036575D01*
X011063Y018425D02*
X01126Y018228D01*
X03651D01*
X037598Y019317D01*
X011952Y019334D02*
X012255Y019031D01*
X012255D01*
X036024Y019173D02*
X03626Y019409D01*
X012306Y019426D02*
X012402Y019331D01*
X035945D02*
X036102Y019488D01*
X012402Y019331D02*
X035945D01*
X03626Y019409D02*
Y021785D01*
X036102Y019488D02*
Y02185D01*
X012087Y019454D02*
Y022087D01*
X036102Y02185D02*
X036417Y022165D01*
X036588D01*
X036443Y021969D02*
X036811D01*
X03626Y021785D02*
X036443Y021969D01*
X036811D02*
X036831Y021988D01*
X012283Y019481D02*
Y021251D01*
X011772Y019324D02*
Y023708D01*
X011929Y019389D02*
Y022929D01*
X012306Y021306D02*
X01285Y02185D01*
X011795Y023763D02*
X01285Y024818D01*
X011614Y024614D02*
X01285Y02585D01*
X011457Y025457D02*
X01285Y02685D01*
X011457Y019894D02*
Y025457D01*
X011368Y018532D02*
X011396D01*
X011929Y022929D02*
X01285Y02385D01*
X025925Y015354D02*
Y017579D01*
X02689Y017244D02*
Y017638D01*
X037835Y017598D02*
X038366Y01813D01*
X037815Y017598D02*
X037835D01*
X034921Y017618D02*
X034941Y017638D01*
X031024Y016674D02*
X031476Y017126D01*
X03046Y017008D02*
X03109Y017638D01*
X010669Y029575D02*
Y029803D01*
Y029522D02*
Y029575D01*
X013649Y017579D02*
Y017598D01*
X01363Y017618D02*
X013649Y017637D01*
X012087Y022087D02*
X01285Y02285D01*
Y024818D02*
Y02485D01*
X010906Y018379D02*
Y028031D01*
X012618Y017183D02*
X012807Y016985D01*
X012808Y016983D02*
X01315Y016642D01*
Y016594D02*
X013307Y016437D01*
X01315Y016594D02*
Y016642D01*
X023246Y017598D02*
X023334Y01751D01*
X010906Y028031D02*
X012724Y02985D01*
X010591Y029443D02*
X010669Y029522D01*
X010492Y028052D02*
X010591Y028151D01*
X010492Y028575D02*
X010591D01*
X010492Y027575D02*
X010571D01*
X010748Y018268D02*
Y028748D01*
X010492Y027654D02*
Y028052D01*
X010748Y028748D02*
X01285Y03085D01*
X010492Y026654D02*
Y027443D01*
X011063Y018425D02*
Y027063D01*
X01285Y02885D01*
X010453Y024575D02*
X010551D01*
X010453Y023575D02*
X010551D01*
X010476Y018595D02*
X010551D01*
X010453Y025575D02*
X010551D01*
X010453Y021575D02*
X010551D01*
X010453Y018572D02*
X010476Y018595D01*
X010551D02*
Y019049D01*
X010453Y026575D02*
X010551D01*
X010453Y020575D02*
X010551D01*
X010492Y019108D02*
X010551Y019049D01*
X010453Y022575D02*
X010551D01*
X010453Y019575D02*
X010551D01*
X010492Y019108D02*
Y019496D01*
X011378Y018532D02*
Y018575D01*
X036732Y01962D02*
Y01984D01*
X036811Y019918D02*
X036935D01*
X037004Y019987D02*
Y019987D01*
X036762Y020056D02*
X036935D01*
X036693Y020125D02*
Y020125D01*
X036762Y020194D02*
X036935D01*
X037004Y020263D02*
Y020263D01*
X036762Y020332D02*
X036935D01*
X036693Y020401D02*
Y020401D01*
X036762Y02047D02*
X036935D01*
X037004Y020539D02*
Y020539D01*
X036762Y020607D02*
X036935D01*
X036693Y020676D02*
Y020676D01*
X036762Y020745D02*
X036935D01*
X037004Y020814D02*
Y020814D01*
X036762Y020883D02*
X036935D01*
X036693Y020952D02*
Y020952D01*
X036762Y021021D02*
X036935D01*
X037004Y02109D02*
Y02109D01*
X036762Y021159D02*
X036935D01*
X036693Y021228D02*
Y021228D01*
X036762Y021296D02*
X036935D01*
X037004Y021365D02*
Y021365D01*
X036811Y021434D02*
X036935D01*
X036732Y021513D02*
Y021552D01*
Y021772D01*
Y019606D02*
Y01962D01*
X036752Y021791D02*
X036831D01*
X036732Y021772D02*
X036752Y021791D01*
X03752Y019016D02*
X037913D01*
X024646Y015827D02*
Y017396D01*
X024281Y01752D02*
X02429Y01751D01*
X024416D02*
X024425Y01752D01*
X024503Y017442D02*
X0246D01*
X023526Y01752D02*
X024281D01*
X02429Y01751D02*
X024416D01*
X023516D02*
X023526Y01752D01*
X0246Y017442D02*
X024646Y017396D01*
X010669Y029803D02*
X012169Y031303D01*
X013405Y015286D02*
X013447D01*
X013307Y015354D02*
X013336D01*
X013405Y015286D01*
X01315Y015157D02*
Y015197D01*
X013307Y015354D01*
Y015768D01*
X013307Y015768D02*
X013307Y015768D01*
X012638Y015768D02*
X013307D01*
X041496Y03689D02*
X041575Y036811D01*
X041899D02*
X041952Y036758D01*
X041575Y036811D02*
X041899D01*
X041952Y036758D02*
X041994D01*
X035984Y027047D02*
X036181Y027244D01*
X032895Y027047D02*
X035984D01*
X036181Y027244D02*
Y027707D01*
X036203Y027729D02*
Y027746D01*
X036181Y027707D02*
X036203Y027729D01*
X032697Y027874D02*
X032717Y027854D01*
Y027226D02*
X032895Y027047D01*
X032717Y027226D02*
Y027854D01*
X037756Y032953D02*
X039252Y034449D01*
X032047Y032953D02*
X037756D01*
X042559Y044882D02*
X043566D01*
X042404D02*
X042559D01*
X017811Y029772D02*
X01815D01*
X017801D02*
X017811D01*
X023425Y015472D02*
X024291D01*
X022992D02*
X023425D01*
X027876Y012761D02*
X027882Y012754D01*
X027873Y012763D02*
X027876Y012761D01*
X023673Y011929D02*
Y012005D01*
Y011917D02*
Y011929D01*
X017608Y028111D02*
Y028364D01*
X017001Y029835D02*
X01752Y030354D01*
X017001Y02945D02*
Y029835D01*
X017559Y028413D02*
X017608Y028364D01*
X017001Y028355D02*
Y028457D01*
Y027543D02*
Y028355D01*
X016575Y029397D02*
X016903Y029069D01*
X015709Y027165D02*
X015728Y027185D01*
X016575Y029496D02*
Y030354D01*
X016981Y028477D02*
X017001Y028497D01*
X017559Y027968D02*
Y028413D01*
X016575Y029496D02*
X016903Y029168D01*
X016614Y02874D02*
X01677D01*
X017328Y028971D02*
X017559Y02874D01*
X017001Y028971D02*
X017559Y028413D01*
X016575Y029397D02*
Y029496D01*
X016903Y029069D02*
Y029168D01*
X017001Y028497D02*
Y028971D01*
X018233D02*
X018465Y02874D01*
X016663Y027205D02*
X017001Y027543D01*
X016614Y027968D02*
X017001Y028355D01*
X01815Y029772D02*
X018425Y029496D01*
X01677Y02874D02*
X017001Y028971D01*
X022874Y015591D02*
X022992Y015472D01*
X023898Y013425D02*
X024331Y013858D01*
X022874Y014841D02*
Y015591D01*
X031036Y013787D02*
X031048Y013775D01*
X031024Y015463D02*
X031036Y015451D01*
X031024Y015463D02*
Y016674D01*
X031036Y013787D02*
Y015451D01*
X030511Y013238D02*
X031048Y013775D01*
X027835Y013457D02*
X029662D01*
X029691Y013486D01*
Y013518D02*
X030391Y014218D01*
Y01425D01*
X029691Y013486D02*
Y013518D01*
X030452Y013238D02*
X030511D01*
X029711Y012754D02*
X029717Y012748D01*
X029747Y012778D01*
X029993D01*
X030452Y013238D01*
X027882Y012754D02*
X029711D01*
X024947Y012766D02*
X025204D01*
X025207Y012763D01*
X027873D01*
X024669Y012488D02*
X024947Y012766D01*
X023673Y012005D02*
X023673Y012005D01*
X022827Y012008D02*
X022906Y011929D01*
X011449Y011307D02*
X011512Y011244D01*
X011504Y010504D02*
Y010538D01*
X011449Y010506D02*
Y010524D01*
X011439Y010496D02*
X011449Y010506D01*
X011545Y011403D02*
X01204D01*
X011449Y011307D02*
X011545Y011403D01*
X045906Y042141D02*
Y042362D01*
X046083Y04254D02*
Y04295D01*
X046142Y043009D01*
X046055Y042969D02*
Y043229D01*
X045906Y042362D02*
X046083Y04254D01*
X048172Y043137D02*
Y04356D01*
X044606Y043858D02*
X047874D01*
X048172Y04356D01*
X04815Y043114D02*
X048172Y043137D01*
X047438Y042171D02*
X04759Y042323D01*
Y043055D02*
X047642Y043106D01*
X04759Y042323D02*
Y043055D01*
X046818Y042379D02*
X046818D01*
X046908Y042469D01*
X046716Y041972D02*
X046716Y041972D01*
X046716Y041972D02*
Y042277D01*
X046818Y042379D01*
X046908Y042469D02*
X046908D01*
X047126Y042687D01*
Y043213D01*
X047418Y041071D02*
X04745Y041039D01*
Y040245D02*
Y041039D01*
X047402Y041071D02*
X047418D01*
X047402Y040197D02*
X04745Y040245D01*
X04595Y041832D02*
X046693D01*
X04595Y041832D02*
X04595Y041832D01*
X046614Y040315D02*
Y04126D01*
X046496Y040197D02*
X046614Y040315D01*
X046496Y040197D02*
Y040394D01*
X04815Y042146D02*
Y043114D01*
X045571Y043543D02*
X045671Y043444D01*
Y043135D02*
Y043444D01*
X045642Y043106D02*
X045671Y043135D01*
X044264Y04324D02*
X044724Y043701D01*
X044106Y043358D02*
X044606Y043858D01*
X030772Y022684D02*
X030857Y022598D01*
X030657Y022906D02*
X030772Y02279D01*
Y022684D02*
Y02279D01*
X03055Y022906D02*
X030657D01*
X040945Y030748D02*
X040974Y030777D01*
X040945Y02935D02*
Y030748D01*
X039001Y03934D02*
X039011Y039331D01*
X039281D01*
X038759Y039596D02*
Y040021D01*
X038573Y039409D02*
X038759Y039596D01*
X038031Y039409D02*
X038573D01*
X039764Y039823D02*
X039921Y03998D01*
X039281Y039331D02*
X039764Y039813D01*
Y039823D01*
X039921Y03998D02*
Y040039D01*
X03874D02*
X038759Y040021D01*
X045718Y027559D02*
X048032D01*
X045672Y026936D02*
Y027513D01*
Y026936D02*
X045817Y026791D01*
X045672Y027513D02*
X045718Y027559D01*
X043281Y022283D02*
X043307D01*
X040177Y022382D02*
X043182D01*
X043281Y022283D01*
X040177Y022185D02*
X042972D01*
X04315Y022008D01*
X041325Y021969D02*
X041325Y021969D01*
X042953Y021732D02*
Y021752D01*
X042736Y021969D02*
X042953Y021752D01*
X041325Y021969D02*
X042736D01*
X040197Y021969D02*
X041325D01*
X040669Y030866D02*
Y032598D01*
X032126Y033661D02*
X038019D01*
X032047Y03374D02*
X032126Y033661D01*
X038019D02*
X038937Y034579D01*
X043819Y039882D02*
X044705D01*
X044803Y03998D01*
Y04D02*
X045803D01*
X042087Y040394D02*
X046496D01*
X039436Y034397D02*
Y037743D01*
X042087Y040394D01*
X042126Y040748D02*
X045748D01*
X039252Y037874D02*
X042126Y040748D01*
X039252Y034449D02*
Y037874D01*
X042218Y041063D02*
X045486D01*
X039094Y037939D02*
X042218Y041063D01*
X039094Y034514D02*
Y037939D01*
X038937Y034579D02*
Y038031D01*
X042205Y041299D02*
X043816D01*
X038937Y038031D02*
X042205Y041299D01*
X035197Y029665D02*
Y030591D01*
X039528Y041017D02*
X040243Y041732D01*
X041732D01*
X036378Y039409D02*
Y040039D01*
X036378Y040039D02*
X036378Y040039D01*
X037421Y020031D02*
Y020787D01*
Y021201D01*
X044264Y041765D02*
Y04324D01*
X044106Y041465D02*
Y043358D01*
Y041465D02*
X044219Y041352D01*
X044264Y041765D02*
X044416Y041612D01*
X044934Y041868D02*
X044973Y041829D01*
X044416Y041612D02*
X044934D01*
X044219Y041352D02*
X045831D01*
X047452Y041112D02*
Y041408D01*
X048202Y040752D02*
Y041375D01*
Y040217D02*
Y040752D01*
X046496Y040394D02*
X046496Y040394D01*
X045887Y041375D02*
X04591Y041398D01*
X04587Y041573D02*
X04591Y041534D01*
X0458Y041573D02*
X04587D01*
X04591Y041398D02*
Y041534D01*
X044934Y041612D02*
X044973Y041573D01*
X048202Y040217D02*
X048233Y040185D01*
X048189Y041388D02*
X048202Y041375D01*
X047398Y041462D02*
X047452Y041408D01*
X043681Y043689D02*
X043755Y043763D01*
X046142Y04302D02*
Y043106D01*
X043681Y039088D02*
X043727Y039134D01*
X043566Y044882D02*
X043606Y044921D01*
X048866Y043753D02*
X048874Y043745D01*
X039882Y021606D02*
X04125D01*
X041516Y021791D02*
X041654Y021654D01*
X040177Y021791D02*
X041516D01*
X039252Y021811D02*
X03939Y021673D01*
Y021201D02*
Y021673D01*
X03874Y023819D02*
X03878D01*
X038602Y023957D02*
X03874Y023819D01*
X038902Y024051D02*
X039141D01*
X038819Y024134D02*
X038902Y024051D01*
X038602Y023957D02*
Y024547D01*
X038819Y024134D02*
Y024528D01*
X038406Y023645D02*
Y024547D01*
X038465Y023543D02*
Y023586D01*
X038406Y023645D02*
X038465Y023586D01*
X038209Y023084D02*
X038223Y023071D01*
X038209Y023084D02*
Y024547D01*
X038012Y023881D02*
Y024547D01*
X037808Y023694D02*
X037824D01*
X038012Y023881D01*
X035607Y029528D02*
X035612Y029532D01*
X036198D01*
X036203Y029537D01*
X037629Y023989D02*
X037815Y024175D01*
Y024547D01*
X037612Y023989D02*
X037629D01*
X038602Y024547D02*
X038602Y024547D01*
X040315Y020197D02*
X040807D01*
X03685Y022362D02*
X037205D01*
X041378Y024016D02*
Y024048D01*
X037283Y02263D02*
X039587D01*
X041693Y02377D02*
X041751Y023828D01*
X041024Y024016D02*
X041378D01*
X039646Y022689D02*
Y023853D01*
X040711Y024034D02*
X04072Y024025D01*
X040176Y023956D02*
X040194Y023974D01*
X037244Y022591D02*
Y024327D01*
X04072Y024025D02*
X041015D01*
X039587Y02263D02*
X039646Y022689D01*
X039587Y021028D02*
X039606Y021009D01*
X040194Y023974D02*
X040608D01*
X039587Y02263D02*
X039587Y02263D01*
X039568Y021219D02*
Y02263D01*
X040187Y02377D02*
X041693D01*
X037205Y022362D02*
X037244Y022402D01*
X040668Y024034D02*
X040711D01*
X039568Y021219D02*
X039587Y021201D01*
X037402Y024409D02*
X037421Y024429D01*
X040177Y02376D02*
X040187Y02377D01*
X038071Y025118D02*
Y026271D01*
X041015Y024025D02*
X041024Y024016D01*
X039748Y023956D02*
X040176D01*
X036831Y022382D02*
X03685Y022362D01*
X039193Y020207D02*
Y021201D01*
X037326Y024409D02*
X037402D01*
X040869Y024252D02*
X041174D01*
X038809Y022313D02*
X038819Y022323D01*
X03939Y021201D02*
X03939Y021201D01*
X037421Y024429D02*
Y024547D01*
X041938Y023828D02*
X041968Y023858D01*
X039646Y023853D02*
X039748Y023956D01*
X037244Y022402D02*
Y022591D01*
X041751Y023828D02*
X041938D01*
X041174Y024252D02*
X041378Y024048D01*
X037244Y022591D02*
X037283Y02263D01*
X037244Y024327D02*
X037326Y024409D01*
X040608Y023974D02*
X040668Y024034D01*
X039587Y02263D02*
X039587D01*
X038031Y025079D02*
X038071Y025118D01*
X039146Y020161D02*
X039193Y020207D01*
X038799Y024547D02*
X038819Y024528D01*
X038799Y021201D02*
X038809Y021211D01*
X040177Y021988D02*
X040197Y021969D01*
X038809Y021211D02*
Y022313D01*
X038949Y020394D02*
Y020436D01*
X038996Y020483D01*
Y021161D01*
X039146Y020118D02*
Y020161D01*
X03939Y019783D02*
Y021201D01*
Y019783D02*
X039488Y019685D01*
X039606Y021009D02*
X040392D01*
X037618Y024547D02*
Y02502D01*
X037677Y025079D01*
X038031D01*
X039213D01*
X038209Y024547D02*
X038209Y024547D01*
X036208Y030044D02*
X036727D01*
X036732Y030039D01*
X036203Y030049D02*
X036208Y030044D01*
X036732Y039423D02*
Y04D01*
X036772Y040039D01*
X037684Y029267D02*
X038314D01*
X03752Y029488D02*
X038086D01*
X038096Y029498D01*
X03829D02*
X038329Y029537D01*
X038096Y029498D02*
X03829D01*
X037402Y02937D02*
X03752Y029488D01*
X037087Y02874D02*
Y029882D01*
X037254Y030049D01*
X037087Y02874D02*
X037559Y028268D01*
Y028228D02*
Y028268D01*
X045299Y02994D02*
X045345Y029894D01*
X044843Y029839D02*
X044862D01*
X045503Y029646D02*
X045512D01*
X045345Y029803D02*
X045503Y029646D01*
X045345Y029803D02*
Y029894D01*
X045342Y030143D02*
Y030244D01*
X045492Y030394D01*
X044862Y029839D02*
X044963Y02994D01*
X045299D01*
X044942Y030097D02*
X045296D01*
X045342Y030143D01*
X044885Y030154D02*
X044942Y030097D01*
X037598Y019317D02*
X037821D01*
X037835Y019331D01*
X038937Y018543D02*
X038943Y018537D01*
X037402Y028776D02*
Y02937D01*
X037638Y028976D02*
Y029221D01*
X037684Y029267D01*
X037402Y028776D02*
X037556Y028622D01*
X037598D01*
X038314Y029267D02*
X038329Y029281D01*
X042505Y029385D02*
X042677Y029213D01*
X042244Y028543D02*
X042677Y028976D01*
X042362Y029626D02*
X042505Y029484D01*
Y029385D02*
Y029484D01*
X042677Y028976D02*
Y029213D01*
X043307Y026654D02*
X043327Y026674D01*
Y028758D02*
X043348Y028778D01*
X043327Y026674D02*
Y028758D01*
X043583Y026024D02*
X045778D01*
X046024Y027298D02*
X046568D01*
X046614Y026791D02*
Y027252D01*
X046568Y027298D02*
X046614Y027252D01*
X045669Y021535D02*
X045698Y021507D01*
Y02127D02*
Y021507D01*
X048032Y027559D02*
X04811Y02748D01*
X045698Y018672D02*
Y02127D01*
X046643D01*
X047622Y022929D02*
Y022933D01*
X046669Y022929D02*
X047622D01*
X042133Y031102D02*
X0425D01*
X042087Y031148D02*
Y032119D01*
X041496Y032165D02*
X04204D01*
X042087Y032119D01*
Y031148D02*
X042133Y031102D01*
X041726Y027047D02*
X041772Y027093D01*
Y027854D01*
X038329Y027093D02*
X038375Y027047D01*
X038329Y027093D02*
Y027746D01*
X038375Y027047D02*
X041726D01*
X036174Y029823D02*
X036203Y029793D01*
X035598Y029852D02*
X035627Y029823D01*
X036174D01*
X035607Y029213D02*
X035638Y029243D01*
X036164D01*
X036203Y029281D01*
X034315Y028346D02*
X035519D01*
X035671Y028499D02*
X0357D01*
X035519Y028346D02*
X035671Y028499D01*
X034997Y028002D02*
X036203D01*
X034978Y028021D02*
X034997Y028002D01*
X034978Y028021D02*
X034988Y028031D01*
X040092Y029534D02*
Y029969D01*
Y029534D02*
X040118Y029508D01*
X047147Y029052D02*
Y029351D01*
X047165Y02937D01*
X03252Y029193D02*
Y029843D01*
Y029193D02*
X032559Y029154D01*
X04811Y026172D02*
Y02748D01*
X040846Y029252D02*
X040945Y02935D01*
X040787Y029252D02*
X040846D01*
X047244Y023583D02*
X047283Y023622D01*
X047315D01*
X040384Y024488D02*
X041747D01*
X039843Y024488D02*
X040384D01*
X040384Y024488D01*
X03997Y024646D02*
X042835D01*
X03997Y024646D02*
X03997Y024646D01*
X039606Y024646D02*
X03997D01*
X040177Y023563D02*
X042894D01*
X044488Y021969D02*
X046614D01*
X042894Y023563D02*
X044488Y021969D01*
X042835Y024646D02*
X044567Y022913D01*
X046654D01*
X045315Y016614D02*
X045433D01*
X045315Y016614D02*
X045315Y016614D01*
X045433D02*
X045591D01*
X045669Y016339D02*
Y016378D01*
X045433Y016614D02*
X045669Y016378D01*
X045477Y016727D02*
X045591Y016614D01*
X045669D01*
X045342Y017087D02*
X045477Y016951D01*
Y016727D02*
Y016951D01*
X045118Y017087D02*
X045342D01*
X034291Y029508D02*
Y029961D01*
X034409Y040039D02*
X034449Y04D01*
Y039409D02*
Y04D01*
X034035Y03943D02*
Y04002D01*
X040906Y035663D02*
X040952Y035709D01*
X040906Y035079D02*
Y035663D01*
X040952Y035709D02*
X041496D01*
X041063Y034921D02*
X041496D01*
X040906Y035079D02*
X041063Y034921D01*
X039528Y040039D02*
Y041017D01*
X023898Y013425D02*
X02394D01*
X024019Y013346D02*
X024685D01*
X02394Y013425D02*
X024019Y013346D01*
X024331Y013858D02*
Y014672D01*
X044252Y023701D02*
Y025132D01*
X042179D02*
X044252D01*
X045866D01*
X042126Y025079D02*
X042179Y025132D01*
X044245Y023629D02*
X044646Y023228D01*
X044245Y023629D02*
Y023694D01*
X044252Y023701D01*
X046476Y023406D02*
X046496D01*
X046299Y023228D02*
X046476Y023406D01*
X044646Y023228D02*
X046299D01*
X046654Y023563D02*
Y023583D01*
X046496Y023406D02*
X046654Y023563D01*
X044843Y030154D02*
X044885D01*
X04628Y028701D02*
X047559D01*
X046161Y028819D02*
X04628Y028701D01*
X044961Y034291D02*
X044961Y034291D01*
X045591D01*
X047606Y023945D02*
X047622D01*
X047315Y023622D02*
X047622Y023929D01*
X046643Y02127D02*
X046654Y02126D01*
Y023583D02*
X046693Y023622D01*
X04535Y02411D02*
X045728Y024488D01*
X04535Y024069D02*
Y02411D01*
X045728Y024488D02*
X046594D01*
X034016Y040039D02*
X034035Y04002D01*
X032047Y036102D02*
X03815D01*
X037598Y032559D02*
X039436Y034397D01*
X032047Y032559D02*
X037598D01*
X037927Y033346D02*
X039094Y034514D01*
X032047Y033346D02*
X037927D01*
X037482Y034143D02*
X03749Y034134D01*
X040669Y032598D02*
X041024Y032953D01*
X037138Y034646D02*
X037482Y034302D01*
X032047Y038465D02*
Y038963D01*
Y034921D02*
X032106D01*
X032047Y039882D02*
X032244Y040079D01*
X032047Y038963D02*
Y039882D01*
X041024Y032953D02*
X041496D01*
X032106Y034921D02*
X032224Y034803D01*
X037482Y034143D02*
Y034302D01*
X032244Y040079D02*
X033583D01*
X032224Y034646D02*
X037138D01*
X041496Y036496D02*
Y03689D01*
X032106Y034528D02*
X032224Y034646D01*
X031102Y034134D02*
X032047D01*
Y034528D02*
X032106D01*
X032224Y034803D02*
X037203D01*
X037627Y034379D01*
X035197Y030591D02*
Y030859D01*
X037627Y034379D02*
X037787D01*
X037795Y03437D01*
X031063Y034094D02*
X031102Y034134D01*
X033583Y040079D02*
X033622Y040039D01*
X041496Y034528D02*
Y034921D01*
Y035709D02*
Y036102D01*
Y036496D01*
Y03689D02*
Y037283D01*
X04063Y030906D02*
X040669Y030866D01*
X035197Y030859D02*
X035243Y030906D01*
X037999D01*
X037559Y030591D02*
X037953D01*
Y030859D01*
X037999Y030906D01*
X04063D01*
X045492Y029626D02*
X045512Y029646D01*
X045492Y028819D02*
Y029626D01*
X042362Y029626D02*
Y030265D01*
X046161Y029646D02*
X046181D01*
X039587Y024626D02*
X039606Y024646D01*
X039587Y024547D02*
Y024626D01*
X046725Y024476D02*
X047232D01*
X047538Y024783D01*
X046654Y024547D02*
X046725Y024476D01*
X046594Y024488D02*
X046654Y024547D01*
X04811Y026172D02*
X048156Y026126D01*
X048622D01*
X038638Y025361D02*
X038684Y025315D01*
X038638Y025361D02*
Y02553D01*
X038684Y025315D02*
X039344D01*
X038516Y025653D02*
X038638Y02553D01*
X039344Y025315D02*
X03939Y025269D01*
X046201Y029646D02*
X046427Y029872D01*
X047167D01*
X046181Y029646D02*
X046201D01*
X046181Y030394D02*
X046447Y030128D01*
X047167D01*
X046161Y030394D02*
X046181D01*
X041654Y019508D02*
Y021654D01*
X046614Y021969D02*
X046654Y021929D01*
X047622Y021929D02*
X047674D01*
X046654Y022913D02*
X046669Y022929D01*
X046654Y021929D02*
X047622D01*
X046535Y021142D02*
X046654Y02126D01*
X047538Y025042D02*
X047622Y025126D01*
X047538Y024783D02*
Y025042D01*
X031969Y02685D02*
X032165Y026654D01*
X032015Y030236D02*
X033268D01*
X031969Y02685D02*
Y03019D01*
X032015Y030236D01*
X029802Y017244D02*
X030101Y017544D01*
X030536D02*
X030551Y017559D01*
X029232Y017244D02*
X029802D01*
X030101Y017544D02*
X030536D01*
X029257Y017219D02*
X02939Y017087D01*
X029528D01*
X029606Y017008D02*
X030276D01*
X029528Y017087D02*
X029606Y017008D01*
X041634Y027992D02*
X041772Y027854D01*
X030276Y017008D02*
X030391Y016893D01*
X040392Y021009D02*
X040393Y021008D01*
Y020709D02*
X040394Y020709D01*
X040393Y020709D02*
Y021008D01*
X040394Y020709D02*
X040396Y020707D01*
X040063Y020713D02*
X040066Y020716D01*
X039693Y020713D02*
X040063D01*
X040396Y020707D02*
X040696D01*
X04039Y020712D02*
X040394Y020709D01*
Y020471D02*
Y020709D01*
X040696Y020707D02*
X040698Y020705D01*
X040066Y020716D02*
X04007Y020712D01*
X03969Y020711D02*
X039693Y020713D01*
X04007Y020712D02*
X04039D01*
X040315Y020392D02*
X040394Y020471D01*
X040315Y020197D02*
Y020392D01*
X034941Y017638D02*
X037815D01*
X028504Y021339D02*
X028819D01*
X028228D02*
X028504D01*
X028819Y021299D02*
Y021339D01*
X040177Y025709D02*
X041107D01*
X040079Y02561D02*
X040177Y025709D01*
X037851Y029773D02*
X037854Y029769D01*
X037518Y029781D02*
X037526Y029773D01*
X037851D01*
X038341Y029782D02*
X038764D01*
X038775Y02977D01*
X038329Y029793D02*
X038341Y029782D01*
X037854Y029769D02*
X037866Y029781D01*
X038317D01*
X038329Y029793D01*
X037254Y030049D02*
X038329D01*
X040906Y02752D02*
Y027933D01*
X040965Y027992D01*
X035039Y029508D02*
X035197Y029665D01*
X035193Y030236D02*
X035194Y030235D01*
X033583Y030236D02*
X035193D01*
X034469Y022972D02*
X036831D01*
X034331Y02311D02*
Y024082D01*
X035802Y023169D02*
X036634Y023169D01*
X035723Y023248D02*
Y024173D01*
X036634Y023169D02*
X036831D01*
X034272Y024173D02*
X034308Y024137D01*
X034016Y022795D02*
X036779D01*
X03378Y022205D02*
Y022559D01*
X036779Y022795D02*
X036831Y022776D01*
X036779Y022795D02*
Y022795D01*
X03252Y021535D02*
X032953D01*
X032464Y023726D02*
X032517Y02378D01*
X032441Y021614D02*
Y023671D01*
X031476Y017126D02*
X032052D01*
X029926Y014501D02*
Y015163D01*
X01732Y016496D02*
X017854D01*
X025975Y014518D02*
X025985Y014509D01*
X026102Y014391D01*
X025039Y014356D02*
X025381D01*
X029816Y014391D02*
X029926Y014501D01*
X030276Y017008D02*
X03046D01*
X029055Y016341D02*
X029063Y016348D01*
X029323D01*
X03109Y017638D02*
X032776D01*
X020364Y012687D02*
Y012996D01*
X020354Y012677D02*
X020364Y012687D01*
Y012996D02*
X020437Y013069D01*
X020551D01*
X020669Y01303D02*
X0207Y012999D01*
X020669Y01303D02*
X020669D01*
X025381Y014356D02*
X025441Y014416D01*
X025873D02*
X025975Y014518D01*
X025441Y014416D02*
X025873D01*
X025024Y014371D02*
X025039Y014356D01*
X016393Y016418D02*
X016967D01*
X017047Y016498D02*
X017277D01*
X016393Y016418D02*
X016393Y016418D01*
X016967D02*
X017047Y016498D01*
X040669Y030276D02*
Y030866D01*
X039488Y030276D02*
X040669D01*
X039291Y030079D02*
X039488Y030276D01*
X046618Y026126D02*
X047622D01*
X046614Y026122D02*
X046618Y026126D01*
X045886Y025217D02*
X046654D01*
X045866Y025197D02*
X045886Y025217D01*
X047622Y025126D02*
X048622D01*
X046778Y019378D02*
X047838D01*
X046732Y019332D02*
X046778Y019378D01*
X046732Y017045D02*
Y019332D01*
X040866Y017526D02*
Y019252D01*
X040718Y0194D02*
X040866Y019252D01*
Y017526D02*
X040912Y01748D01*
X040591Y019528D02*
Y019547D01*
X041693Y01878D02*
X042402D01*
X041614Y018858D02*
X041693Y01878D01*
X04315Y019567D02*
X044256D01*
X044425Y019398D01*
X043425Y018406D02*
X043433Y018398D01*
X044425D01*
X046794Y015723D02*
Y017064D01*
X046772Y017087D02*
X046794Y017064D01*
Y015723D02*
X046811Y015706D01*
X038389Y018185D02*
X038389Y020823D01*
X027969Y017245D02*
X027969Y017244D01*
X028386Y017245D02*
X028563Y017244D01*
X027969Y017245D02*
X028386D01*
X027992Y015919D02*
Y017189D01*
X027559Y017244D02*
X027736Y017245D01*
X027969D01*
X026929Y015841D02*
X027913D01*
X032815Y017638D02*
X034902D01*
X026102Y014391D02*
X029816D01*
X024291Y012382D02*
X024304Y012395D01*
X02456D01*
X026465Y013429D02*
X027806D01*
X026371Y013334D02*
X026465Y013429D01*
X024685Y013346D02*
X024731Y013393D01*
X024931D01*
X024961Y013423D01*
X025004D01*
X025092Y013334D01*
X020394Y016437D02*
X020413Y016457D01*
X020394Y015588D02*
Y016437D01*
X020371Y015566D02*
X020394Y015588D01*
X020366Y015571D02*
X020371Y015566D01*
X019472Y015591D02*
X019492Y015571D01*
X040098Y020197D02*
X040315D01*
X040059Y020157D02*
X040098Y020197D01*
X015574Y013388D02*
X015591Y013372D01*
X015551Y013444D02*
Y015748D01*
X015551Y015749D02*
X015551Y015748D01*
X014921Y015998D02*
X0153D01*
X012169Y031303D02*
X013804D01*
X040532Y019528D02*
X040571D01*
X024162Y014841D02*
X024331Y014672D01*
X022874Y014841D02*
X024162D01*
X022874Y014642D02*
Y014841D01*
X024291Y013051D02*
X024444Y013071D01*
X022801Y014569D02*
X022874Y014642D01*
X022677Y014569D02*
X022801D01*
X034567Y020984D02*
X035669D01*
X035317Y021026D02*
Y021394D01*
X035315Y021024D02*
X035317Y021026D01*
X032087Y020984D02*
X034567D01*
X03455Y021001D02*
X034567Y020984D01*
X03455Y021001D02*
Y021509D01*
X03185Y02122D02*
Y022953D01*
X031753Y02305D02*
X03185Y022953D01*
X031Y02305D02*
X031753D01*
X03185Y02122D02*
X032087Y020984D01*
X035669D02*
X035827Y021142D01*
X01385Y03085D02*
Y031257D01*
X013804Y031303D02*
X01385Y031257D01*
X019449Y015567D02*
X019472Y015591D01*
X039921Y020157D02*
X040059D01*
X025978Y015341D02*
X026929D01*
X026929Y016341D02*
Y017205D01*
X026929Y016341D02*
X026929Y016341D01*
X02689Y017244D02*
X026929Y017205D01*
X024291Y012021D02*
Y012382D01*
X024199Y011929D02*
X024291Y012021D01*
X033583Y030236D02*
Y030236D01*
Y029528D02*
Y030236D01*
X018819Y015567D02*
X019449D01*
X018681Y01563D02*
X01874Y015571D01*
X012724Y02985D02*
X01285D01*
X037815Y021201D02*
X037815Y021201D01*
X036588Y022165D02*
X036588Y022165D01*
X036811D01*
X036831Y022185D01*
X017854Y016535D02*
X017894Y016496D01*
X033248Y02813D02*
X033386Y027992D01*
X033268Y030236D02*
X033583D01*
X033248Y02813D02*
Y030217D01*
X033268Y030236D01*
X033386Y027992D02*
X034309D01*
X042549Y034567D02*
X042707Y034409D01*
X041575Y034567D02*
X042549D01*
X042707Y034409D02*
X043071D01*
X043189Y034291D01*
X040039Y027992D02*
X040591Y028543D01*
X042244D01*
X042362Y029626D02*
X042362Y029626D01*
X041811Y029626D02*
X042362D01*
X039291Y029508D02*
Y030079D01*
X04002Y027992D02*
X040039D01*
X038329Y028002D02*
X039391D01*
X039388Y029529D02*
Y029688D01*
X039291Y028917D02*
X040118D01*
Y028839D02*
X040157Y028878D01*
X041811D01*
X035255Y021457D02*
X035317Y021394D01*
X033583Y02878D02*
X03498D01*
X035039Y028839D01*
X043326Y031102D02*
X044232D01*
X03939Y024547D02*
Y025269D01*
X043189Y034291D02*
X044134D01*
X044961D01*
X044154Y031988D02*
X044961D01*
Y031161D02*
Y031988D01*
X030666Y039321D02*
X031535D01*
X031628Y039961D02*
X031758D01*
X031535Y039868D02*
X031628Y039961D01*
X03189Y03912D02*
Y039829D01*
X031758Y039961D02*
X03189Y039829D01*
X031535Y039321D02*
Y039868D01*
X030519Y039173D02*
X030666Y039321D01*
X02965Y039173D02*
X030519D01*
X03189Y03912D02*
X032047Y038963D01*
X032402Y026415D02*
X032517Y026299D01*
X041496Y036102D02*
X041516Y036083D01*
X042835D01*
X042972Y03622D01*
X043976Y03185D02*
X044134Y032008D01*
X043071Y03185D02*
X043976D01*
X044134Y032008D02*
X044154Y031988D01*
X044232Y031102D02*
X044232Y031102D01*
X035827Y022165D02*
X036043Y022382D01*
X036831D01*
X035827Y021142D02*
Y022165D01*
X035503Y02251D02*
X035571Y022579D01*
X036831D01*
X035394Y02248D02*
X035424Y02251D01*
X035503D01*
X039606Y026398D02*
Y026804D01*
X037777Y02685D02*
X03956D01*
X039606Y026804D01*
X037731Y026322D02*
Y026804D01*
X037777Y02685D01*
X033071Y022992D02*
Y026181D01*
Y02295D02*
Y022992D01*
X032953Y022178D02*
X032992Y022218D01*
Y022871D02*
X033071Y02295D01*
X032913Y026339D02*
X033071Y026181D01*
X039606Y025787D02*
Y026024D01*
Y025236D02*
Y025787D01*
X039291D02*
X039606D01*
Y026024D02*
Y026398D01*
Y025236D02*
X039855Y024988D01*
X04063D01*
X04126Y026339D02*
X042102D01*
X041181Y026417D02*
X04126Y026339D01*
X042102D02*
X042283Y026157D01*
X032913Y026339D02*
X033728D01*
X032616D02*
X032913D01*
X03381Y025587D02*
X03461D01*
X034685Y025513D01*
X034267Y024487D02*
X034685Y024906D01*
X033745Y026322D02*
X036145D01*
X034685Y024906D02*
Y025513D01*
X035236Y025544D02*
X03528Y025587D01*
X035345Y025653D01*
X035709Y024487D02*
X035723D01*
X035236Y024961D02*
X035709Y024487D01*
X03544Y024646D02*
X035598Y024487D01*
X035723Y024474D02*
Y024487D01*
X035236Y024961D02*
Y025544D01*
X035728Y024173D02*
Y024469D01*
X035723Y024474D02*
X035728Y024469D01*
X035598Y024487D02*
X035709D01*
X035345Y025653D02*
X036145D01*
X038516Y026322D02*
X038572Y026378D01*
X039606Y026398D02*
X039961D01*
X038572Y026378D02*
X039291D01*
X040079Y02628D02*
X040232Y026433D01*
X033728Y026339D02*
X033745Y026322D01*
X034213Y024433D02*
X034267Y024487D01*
X033745Y025653D02*
X03381Y025587D01*
X036937Y024803D02*
X037193Y024547D01*
X037421D01*
X036937Y025687D02*
X037697D01*
X037731Y025653D01*
X036937Y024803D02*
Y025687D01*
X032992Y021457D02*
X03378D01*
X03455Y022178D02*
Y022533D01*
X034597Y022579D01*
X032281Y023622D02*
X032478Y023819D01*
D29*
X047177Y030411D02*
D03*
Y030155D02*
D03*
Y029899D02*
D03*
Y029643D02*
D03*
Y029387D02*
D03*
D30*
X048307Y028071D02*
D03*
X048317Y031681D02*
D03*
D31*
X012638Y015768D02*
D03*
Y016437D02*
D03*
X013307Y015768D02*
D03*
Y016437D02*
D03*
X046654Y022913D02*
D03*
Y023583D02*
D03*
X046732Y041988D02*
D03*
Y041319D02*
D03*
X044803Y039311D02*
D03*
Y03998D02*
D03*
X045236Y035413D02*
D03*
Y036083D02*
D03*
X045669Y039311D02*
D03*
Y03998D02*
D03*
X027795Y032382D02*
D03*
Y033051D02*
D03*
X0249Y039735D02*
D03*
Y039065D02*
D03*
X039291Y028839D02*
D03*
Y029508D02*
D03*
X040118Y028839D02*
D03*
Y029508D02*
D03*
X048228Y041476D02*
D03*
Y042146D02*
D03*
X04748Y041476D02*
D03*
Y042146D02*
D03*
X047402Y040197D02*
D03*
Y039528D02*
D03*
X048167Y04019D02*
D03*
Y03952D02*
D03*
X046575Y040335D02*
D03*
Y039665D02*
D03*
X042835Y035413D02*
D03*
Y036083D02*
D03*
X046654Y025217D02*
D03*
Y024547D02*
D03*
X046614Y026791D02*
D03*
Y026122D02*
D03*
X045817Y026791D02*
D03*
Y026122D02*
D03*
X041693Y019508D02*
D03*
Y018839D02*
D03*
X026024Y014547D02*
D03*
Y015217D02*
D03*
X022874Y01626D02*
D03*
Y015591D02*
D03*
X021969Y01626D02*
D03*
Y015591D02*
D03*
X021102Y01624D02*
D03*
Y015571D02*
D03*
X01874Y014902D02*
D03*
Y015571D02*
D03*
X017874Y014902D02*
D03*
Y015571D02*
D03*
X027129Y030378D02*
D03*
Y029708D02*
D03*
X034291Y029508D02*
D03*
Y028839D02*
D03*
X035039Y029508D02*
D03*
Y028839D02*
D03*
X044134Y033622D02*
D03*
Y034291D02*
D03*
X044961Y033622D02*
D03*
Y034291D02*
D03*
X044134Y032677D02*
D03*
Y032008D02*
D03*
X044961Y032657D02*
D03*
Y031988D02*
D03*
X033745Y026322D02*
D03*
Y025653D02*
D03*
X03378Y021509D02*
D03*
Y022178D02*
D03*
X032953D02*
D03*
Y021509D02*
D03*
X037731Y026322D02*
D03*
Y025653D02*
D03*
X038504Y026319D02*
D03*
Y02565D02*
D03*
X040591Y019547D02*
D03*
Y020217D02*
D03*
X040039Y02628D02*
D03*
Y02561D02*
D03*
X046654Y02126D02*
D03*
Y021929D02*
D03*
X036145Y026322D02*
D03*
Y025653D02*
D03*
X03455Y022178D02*
D03*
Y021509D02*
D03*
X025064Y029718D02*
D03*
Y030387D02*
D03*
X02385Y033965D02*
D03*
Y034635D02*
D03*
X02465Y033965D02*
D03*
Y034635D02*
D03*
X0277Y033992D02*
D03*
Y034661D02*
D03*
X02755Y023185D02*
D03*
Y022515D02*
D03*
X02605D02*
D03*
Y023185D02*
D03*
X020702Y032954D02*
D03*
Y032285D02*
D03*
X0227Y030385D02*
D03*
Y029715D02*
D03*
X0199Y032954D02*
D03*
Y032285D02*
D03*
X01635Y038815D02*
D03*
Y039485D02*
D03*
X0176Y03215D02*
D03*
Y032819D02*
D03*
X0168Y032819D02*
D03*
Y03215D02*
D03*
X020367Y039062D02*
D03*
Y039731D02*
D03*
X0196Y039735D02*
D03*
Y039065D02*
D03*
X0212D02*
D03*
Y039735D02*
D03*
X02405Y039065D02*
D03*
Y039735D02*
D03*
D32*
X028089Y030039D02*
D03*
X03077D02*
D03*
X018691Y0249D02*
D03*
X016009D02*
D03*
D33*
X029941Y028307D02*
D03*
X029272D02*
D03*
X045492Y030394D02*
D03*
X046161D02*
D03*
X045492Y029646D02*
D03*
X046161D02*
D03*
Y028819D02*
D03*
X045492D02*
D03*
X032697Y027874D02*
D03*
X033366D02*
D03*
X03502D02*
D03*
X03435D02*
D03*
X04435Y036102D02*
D03*
X043681D02*
D03*
X043169Y019528D02*
D03*
X0425D02*
D03*
X02689Y017244D02*
D03*
X027559D02*
D03*
X028563D02*
D03*
X029232D02*
D03*
X017894Y016496D02*
D03*
X018563D02*
D03*
X040965Y027992D02*
D03*
X041634D02*
D03*
X04002D02*
D03*
X03935D02*
D03*
X042736Y031102D02*
D03*
X043405D02*
D03*
X044862Y031102D02*
D03*
X044193D02*
D03*
X03461Y025587D02*
D03*
X03528D02*
D03*
X02352Y030397D02*
D03*
X024189D02*
D03*
X017035Y0379D02*
D03*
X016365D02*
D03*
X020465Y0267D02*
D03*
X021135D02*
D03*
X020465Y0259D02*
D03*
X021135D02*
D03*
X021136Y023643D02*
D03*
X020466D02*
D03*
X021135Y02515D02*
D03*
X020465D02*
D03*
D34*
X02Y022306D02*
D03*
Y020494D02*
D03*
X02965Y034332D02*
D03*
Y032521D02*
D03*
D35*
X024606Y021713D02*
D03*
Y023091D02*
D03*
X0222Y032538D02*
D03*
Y033916D02*
D03*
X0227Y039589D02*
D03*
Y038211D02*
D03*
D36*
X028424Y022906D02*
D03*
D37*
X03055D02*
D03*
Y023811D02*
D03*
Y022D02*
D03*
D38*
X047142Y043106D02*
D03*
X046142D02*
D03*
X047642D02*
D03*
X046642D02*
D03*
X045642D02*
D03*
X048142D02*
D03*
D39*
X048799Y043689D02*
D03*
X043681Y048413D02*
D03*
X048799D02*
D03*
X043681Y043689D02*
D03*
D40*
X045268Y043106D02*
D03*
D41*
X0458Y042085D02*
D03*
Y041829D02*
D03*
Y041573D02*
D03*
X044973D02*
D03*
Y041829D02*
D03*
Y042085D02*
D03*
D42*
X039587Y024547D02*
D03*
X03939D02*
D03*
X039193D02*
D03*
X038996D02*
D03*
X038799D02*
D03*
X038602D02*
D03*
X038406D02*
D03*
X038209D02*
D03*
X038012D02*
D03*
X037815D02*
D03*
X037618D02*
D03*
X039587Y021201D02*
D03*
X03939D02*
D03*
X039193D02*
D03*
X038996D02*
D03*
X038799D02*
D03*
X038602D02*
D03*
X038406D02*
D03*
X038209D02*
D03*
X038012D02*
D03*
X037815D02*
D03*
X037618D02*
D03*
X037421Y024547D02*
D03*
Y021201D02*
D03*
D43*
X040177Y021791D02*
D03*
Y021988D02*
D03*
Y022185D02*
D03*
Y022382D02*
D03*
Y022579D02*
D03*
Y022776D02*
D03*
Y022972D02*
D03*
Y023169D02*
D03*
Y023366D02*
D03*
Y023563D02*
D03*
Y02376D02*
D03*
Y023957D02*
D03*
X036831Y021791D02*
D03*
Y021988D02*
D03*
Y022185D02*
D03*
Y022382D02*
D03*
Y022579D02*
D03*
Y022776D02*
D03*
Y022972D02*
D03*
Y023169D02*
D03*
Y023366D02*
D03*
Y023563D02*
D03*
Y02376D02*
D03*
Y023953D02*
D03*
D44*
X038329Y027746D02*
D03*
Y030049D02*
D03*
Y029793D02*
D03*
Y029537D02*
D03*
Y029281D02*
D03*
Y029026D02*
D03*
Y02877D02*
D03*
Y028514D02*
D03*
Y028258D02*
D03*
Y028002D02*
D03*
X036203Y027746D02*
D03*
Y028002D02*
D03*
Y028258D02*
D03*
Y028514D02*
D03*
Y02877D02*
D03*
Y029026D02*
D03*
Y029281D02*
D03*
Y029537D02*
D03*
Y029793D02*
D03*
Y030049D02*
D03*
D45*
X03874Y040039D02*
D03*
X039134D02*
D03*
X039528D02*
D03*
X039921D02*
D03*
X038346Y030591D02*
D03*
X037953D02*
D03*
X039921D02*
D03*
X039528D02*
D03*
X039134D02*
D03*
X03874D02*
D03*
X037559D02*
D03*
X035591D02*
D03*
X035984D02*
D03*
X036378D02*
D03*
X036772D02*
D03*
X037165D02*
D03*
X034016D02*
D03*
X035197D02*
D03*
X034803D02*
D03*
X034409D02*
D03*
X033622D02*
D03*
X038346Y040039D02*
D03*
X037165D02*
D03*
X034016D02*
D03*
X036772D02*
D03*
X036378D02*
D03*
X035984D02*
D03*
X035591D02*
D03*
X035197D02*
D03*
X034803D02*
D03*
X034409D02*
D03*
X037559D02*
D03*
X037953D02*
D03*
X033622D02*
D03*
D46*
X041496Y038465D02*
D03*
Y038071D02*
D03*
Y037677D02*
D03*
Y037283D02*
D03*
Y03689D02*
D03*
Y036496D02*
D03*
X032047Y032165D02*
D03*
Y032953D02*
D03*
Y033346D02*
D03*
Y032559D02*
D03*
Y03374D02*
D03*
X041496Y036102D02*
D03*
Y035709D02*
D03*
Y034134D02*
D03*
Y035315D02*
D03*
Y034921D02*
D03*
Y032165D02*
D03*
Y032559D02*
D03*
Y032953D02*
D03*
Y033346D02*
D03*
Y03374D02*
D03*
Y034528D02*
D03*
X032047Y034134D02*
D03*
Y038465D02*
D03*
Y036496D02*
D03*
Y038071D02*
D03*
Y037677D02*
D03*
Y037283D02*
D03*
Y03689D02*
D03*
Y036102D02*
D03*
Y035709D02*
D03*
Y035315D02*
D03*
Y034921D02*
D03*
Y034528D02*
D03*
D47*
X044425Y018476D02*
D03*
X047937Y019476D02*
D03*
Y018476D02*
D03*
D48*
X044425Y019476D02*
D03*
D49*
X017047Y014998D02*
D03*
Y015498D02*
D03*
Y015998D02*
D03*
Y016498D02*
D03*
X014921Y014998D02*
D03*
Y015498D02*
D03*
Y015998D02*
D03*
Y016498D02*
D03*
D50*
X040787Y029252D02*
D03*
X041811Y029626D02*
D03*
Y028878D02*
D03*
X042402Y01878D02*
D03*
Y018032D02*
D03*
X043425Y018406D02*
D03*
X033583Y02878D02*
D03*
Y029528D02*
D03*
X032559Y029154D02*
D03*
D51*
X047126Y017126D02*
D03*
X045472D02*
D03*
D52*
X045866Y024423D02*
D03*
Y025132D02*
D03*
X039862Y019449D02*
D03*
Y020157D02*
D03*
X036924Y026433D02*
D03*
Y025724D02*
D03*
X041181Y026417D02*
D03*
Y025709D02*
D03*
X035317Y022103D02*
D03*
Y021394D02*
D03*
X01605Y032754D02*
D03*
Y032046D02*
D03*
D53*
X024291Y012382D02*
D03*
Y013051D02*
D03*
X019528Y015D02*
D03*
Y015669D02*
D03*
D54*
X026929Y015841D02*
D03*
Y014841D02*
D03*
Y015341D02*
D03*
Y016341D02*
D03*
X029055Y014841D02*
D03*
Y015341D02*
D03*
Y015841D02*
D03*
Y016341D02*
D03*
X020551Y013069D02*
D03*
Y013569D02*
D03*
Y014069D02*
D03*
Y014569D02*
D03*
X022677Y013069D02*
D03*
Y014069D02*
D03*
Y014569D02*
D03*
Y013569D02*
D03*
D55*
X020413Y016457D02*
D03*
X019429D02*
D03*
D56*
X043071Y034409D02*
D03*
Y033465D02*
D03*
Y03185D02*
D03*
Y032795D02*
D03*
D57*
X032517Y026299D02*
D03*
Y02378D02*
D03*
D58*
X039291Y025787D02*
D03*
Y026339D02*
D03*
X02465Y033176D02*
D03*
Y032624D02*
D03*
X023805Y033173D02*
D03*
Y032621D02*
D03*
X0268Y022674D02*
D03*
Y023226D02*
D03*
D59*
X034272Y024173D02*
D03*
X035728D02*
D03*
D60*
X026375Y03042D02*
D03*
X025824D02*
D03*
X020424Y0244D02*
D03*
X020976D02*
D03*
D61*
X02545Y0279D02*
D03*
D03*
Y024711D02*
D03*
D62*
X030433Y026417D02*
D03*
X028622D02*
D03*
D63*
X02585Y0342D02*
D03*
X02685D02*
D03*
X02635D02*
D03*
X02535D02*
D03*
X02685D02*
D03*
Y032153D02*
D03*
X02635D02*
D03*
X02585D02*
D03*
X02535D02*
D03*
D64*
X017001Y028971D02*
D03*
D65*
X02085Y027711D02*
D03*
Y028381D02*
D03*
Y02905D02*
D03*
Y029719D02*
D03*
Y030389D02*
D03*
D66*
X018212Y03935D02*
D03*
Y039724D02*
D03*
X017188Y038976D02*
D03*
Y03935D02*
D03*
Y039724D02*
D03*
X018212Y038976D02*
D03*
D67*
X0145Y039692D02*
D03*
Y037408D02*
D03*
D68*
X019132Y033038D02*
D03*
Y032664D02*
D03*
Y03229D02*
D03*
D69*
X018266Y033038D02*
D03*
Y032664D02*
D03*
Y03229D02*
D03*
D70*
X019133Y033826D02*
D03*
Y034574D02*
D03*
Y0342D02*
D03*
X018267Y033826D02*
D03*
Y0342D02*
D03*
Y034574D02*
D03*
D71*
X01845Y03775D02*
D03*
X02005D02*
D03*
D72*
X016871Y020202D02*
D03*
Y022883D02*
D03*
D73*
X02615Y039912D02*
D03*
X026524Y038888D02*
D03*
X025776D02*
D03*
D134*
X011741Y018737D02*
D03*
X01285Y02185D02*
D03*
X011457Y019894D02*
D03*
X036779Y022795D02*
D03*
D135*
X023938Y032622D02*
G03*
X024072Y032675I-0J000197D01*
G01*
X025962Y032815D02*
G03*
X026033Y032801I000072J000183D01*
G01*
X02633Y032604D02*
G03*
X026133Y032801I-000197J0D01*
G01*
X025838Y032441D02*
G03*
X025641Y032638I-000197J0D01*
G01*
X026546Y0347D02*
G03*
X02635Y034503I0J-000197D01*
G01*
X022006Y020494D02*
X024193Y022682D01*
X024338D01*
X02455Y022894D01*
X017001Y028971D02*
Y029267D01*
X01535Y02135D02*
X018479D01*
X019335Y020494D02*
X02D01*
X02905Y026779D02*
Y031035D01*
X0227Y039735D02*
X02405D01*
X021826D02*
X0227D01*
X021102Y039725D02*
X021765D01*
X027601Y034096D02*
X027705Y033992D01*
X018267Y03505D02*
X020587D01*
X02855Y024711D02*
Y026621D01*
X01995Y031035D02*
X025084D01*
X017532Y029483D02*
X017811Y029762D01*
X017001Y028971D02*
X017523Y029493D01*
X026015Y0231D02*
X02614Y023225D01*
X02455Y023039D02*
X024611Y0231D01*
X02Y020494D02*
X022006D01*
X017811Y029772D02*
Y030041D01*
Y029762D02*
Y029772D01*
X028858Y02475D02*
X029016D01*
X028819Y024711D02*
X028858Y02475D01*
X02855Y024711D02*
X028819D01*
X017811Y030041D02*
X01877Y031D01*
X019915D01*
X01995Y031035D01*
X01723Y029496D02*
X01752D01*
X017073D02*
X01723D01*
X017001Y029267D02*
X01723Y029496D01*
X017001Y029424D02*
X017073Y029496D01*
X017001Y029267D02*
Y029424D01*
X02965Y034332D02*
Y039173D01*
X014254Y039692D02*
X0145D01*
X01385D02*
X014254D01*
X013661D02*
X01385D01*
X02384Y032622D02*
X023938D01*
X024072Y032675D02*
X02422Y032814D01*
X023838Y03262D02*
X02384Y032622D01*
X026033Y032801D02*
X026133D01*
X025962Y032815D02*
X025962Y032815D01*
X02633Y032173D02*
Y032604D01*
Y032173D02*
X02635Y032153D01*
X024689Y032638D02*
X025641D01*
X025838Y032291D02*
Y032441D01*
Y032291D02*
X02585Y032153D01*
X02465Y032624D02*
X024689Y032638D01*
X02635Y0342D02*
Y034503D01*
X026546Y0347D02*
X027661D01*
X013065Y0396D02*
X013661D01*
Y039692D02*
Y044841D01*
Y039692D02*
X013661Y039692D01*
X01385Y0396D02*
X014254D01*
X013959Y039895D02*
X014254Y0396D01*
X013661Y044841D02*
X013703Y044882D01*
X02965Y039173D02*
Y04045D01*
X0163Y038543D02*
X017222D01*
X017229Y038536D01*
X0163Y038543D02*
Y0388D01*
Y037965D02*
Y038543D01*
X017237Y039724D02*
Y04007D01*
X017245Y040077D01*
X017194Y039724D02*
X017237D01*
X017194D02*
X017344D01*
X026774Y023263D02*
Y023263D01*
X022148Y032445D02*
X0222Y032497D01*
X01635Y03935D02*
X017188D01*
X01295Y036015D02*
X013065Y0359D01*
X0145Y0396D02*
X01475Y03935D01*
X01295Y036015D02*
Y039485D01*
X013065Y0396D01*
X0145Y037317D02*
X018185D01*
X01475Y03935D02*
X01635D01*
X0233Y0412D02*
X0289D01*
X02965Y04045D01*
X0227Y0406D02*
X0233Y0412D01*
X0227Y039735D02*
Y0406D01*
X020445Y02442D02*
Y02513D01*
X020465Y02515D01*
X020424Y0244D02*
X020445Y02442D01*
X027725Y033122D02*
Y033967D01*
X02685Y034116D02*
Y0342D01*
X0277Y033992D02*
X027725Y033967D01*
X026869Y034096D02*
X027601D01*
X02685Y034116D02*
X026869Y034096D01*
X027725Y033122D02*
X027795Y033051D01*
X028594Y0267D02*
X028971D01*
X028594Y026666D02*
Y0267D01*
X028971D02*
X02905Y026779D01*
X02855Y026621D02*
X028594Y026666D01*
X02965Y034071D02*
Y034332D01*
X029571Y033992D02*
X02965Y034071D01*
X027705Y033992D02*
X029571D01*
X029495Y0352D02*
X02961Y035085D01*
X027661Y0347D02*
X0277Y034661D01*
X028935Y03115D02*
X02905Y031035D01*
X022439Y032153D02*
X02295D01*
X021988Y032285D02*
X022148Y032445D01*
X0222Y032497D02*
Y032538D01*
X020702Y032285D02*
X021988D01*
X0222Y032393D02*
X022439Y032153D01*
X020817Y033916D02*
X0222D01*
X020702Y0338D02*
X020817Y033916D01*
X020702Y032954D02*
Y0338D01*
X02585Y0342D02*
Y035085D01*
X025965Y0352D01*
X022912Y0379D02*
X026435D01*
X024998Y03895D02*
X025737D01*
X025776Y038911D01*
X025199Y03115D02*
X028935D01*
X018267Y034574D02*
Y03505D01*
X0199Y031085D02*
Y032285D01*
Y031085D02*
X01995Y031035D01*
X02655Y038015D02*
Y038928D01*
X025776Y038888D02*
Y038911D01*
X025965Y0352D02*
X029495D01*
X026435Y0379D02*
X02655Y038015D01*
X020587Y03505D02*
X020702Y034935D01*
X02295Y032153D02*
X02535D01*
X022835Y0359D02*
X02295Y035785D01*
Y032153D02*
Y035785D01*
X020702Y0338D02*
Y034935D01*
X013065Y0359D02*
X022835D01*
X01605Y032754D02*
Y035035D01*
X01305Y03505D02*
X016065D01*
X012832Y034832D02*
X01305Y03505D01*
X01605Y035035D02*
X016065Y03505D01*
X018267D01*
X018185Y037317D02*
X0183Y037432D01*
X02508Y030404D02*
X025084Y030408D01*
X025808Y030404D02*
X025824Y03042D01*
X02508Y030404D02*
X025808D01*
X023802Y033175D02*
Y033917D01*
Y033175D02*
X023805Y033173D01*
X023802Y033917D02*
X02385Y033965D01*
X02465Y033176D02*
Y033965D01*
X024248Y030417D02*
X025034D01*
X025064Y030387D01*
X02508Y030404D01*
X025084Y030408D02*
Y031035D01*
X025199Y03115D01*
X0163Y037965D02*
X016365Y0379D01*
X017038D02*
X017645D01*
X0227Y039589D02*
Y039735D01*
X02405Y039056D02*
Y039065D01*
X024802Y038958D02*
X0249Y039056D01*
Y039048D02*
Y039065D01*
X024148Y038958D02*
X024802D01*
X02405Y039056D02*
X024148Y038958D01*
X0249Y039056D02*
Y039065D01*
Y039048D02*
X024998Y03895D01*
X018362Y03935D02*
X01885D01*
X018362Y039724D02*
X019593D01*
X019602Y039733D02*
X020366D01*
X019593Y039724D02*
X0196Y039731D01*
Y039065D02*
X019678Y038987D01*
X020366Y039733D02*
X020367Y039731D01*
X0196Y039735D02*
X019602Y039733D01*
X020363Y03854D02*
Y039058D01*
X02115Y037986D02*
Y039015D01*
X020363Y039058D02*
X020367Y039062D01*
X020359Y038535D02*
X020363Y03854D01*
X020118Y037917D02*
X02115D01*
X01995Y03775D02*
X020118Y037917D01*
X0183Y037432D02*
Y038976D01*
X018362D01*
X019678Y037986D02*
X019914Y03775D01*
X01995D01*
X019678Y037986D02*
Y038987D01*
X02115Y037917D02*
X022488D01*
X0227Y038112D02*
Y038198D01*
X022488Y037917D02*
X0227Y03813D01*
Y038112D02*
X022912Y0379D01*
X0227Y03813D02*
Y038198D01*
X021811Y03975D02*
X021826Y039735D01*
X021765Y039725D02*
X021789Y03975D01*
X0218D02*
X021811D01*
X021789D02*
X0218D01*
X018479Y02135D02*
X019335Y020494D01*
X01385Y02285D02*
X01535Y02135D01*
X02855Y024711D02*
X02855Y024711D01*
X02675Y024711D02*
X02855D01*
X026161Y023225D02*
X026198Y023263D01*
X02614Y023225D02*
X026161D01*
X02675Y023263D02*
Y0244D01*
X02455Y022894D02*
Y023039D01*
X02675Y0244D02*
Y024711D01*
X026198Y023263D02*
X026774D01*
X02545Y024711D02*
X02675D01*
X024611Y0231D02*
X026015D01*
D136*
X019153Y032665D02*
G03*
X019134Y032664I000001J-000157D01*
G01*
X019743Y032665D02*
G03*
X0199Y032823I-000001J000157D01*
G01*
X019333Y033038D02*
G03*
X01949Y033195I0J000157D01*
G01*
Y034414D02*
G03*
X019333Y034572I-000157J0D01*
G01*
X018238Y031912D02*
Y03227D01*
X019103Y031918D02*
Y03229D01*
X018223Y031897D02*
X018238Y031912D01*
X019103Y03229D02*
X019132D01*
X019088Y031903D02*
X019103Y031918D01*
X018238Y03227D02*
X018255Y032287D01*
X018263D01*
X019134Y032664D02*
Y032664D01*
X0199Y032823D02*
Y032954D01*
X019132Y032664D02*
X019134D01*
X019153Y032665D02*
X019743D01*
X019132Y033038D02*
X019333D01*
X01949Y033195D02*
Y034414D01*
X019333Y034572D02*
Y034572D01*
X019085D02*
X019333D01*
X01822Y033423D02*
X018222Y03342D01*
X018187Y032683D02*
X018246D01*
X018186Y032684D02*
X018187Y032683D01*
X017715Y032684D02*
X018186D01*
X0168Y0328D02*
X01681Y03281D01*
X0176Y03215D02*
Y032169D01*
Y0328D02*
Y032819D01*
X01681Y03281D02*
X01759D01*
X0176Y0328D02*
X017715Y032684D01*
X017718Y032287D02*
X018263D01*
X0176Y032169D02*
X017718Y032287D01*
X018246Y032683D02*
X018266Y032664D01*
X0182Y033852D02*
X018204D01*
X01822Y033837D01*
Y033423D02*
Y033837D01*
X015942Y032071D02*
X016741D01*
X0168Y032131D01*
X019069Y03346D02*
Y033787D01*
Y03346D02*
X019087Y033441D01*
X019069Y033787D02*
X019108Y033826D01*
X019133D01*
X019087Y03342D02*
Y033441D01*
D137*
X045236Y036083D02*
X04524Y036079D01*
X045234Y036085D02*
X045236Y036083D01*
X044367Y036085D02*
X045234D01*
X042939Y035309D02*
X045132D01*
X042835Y035413D02*
X042939Y035309D01*
X045132D02*
X045236Y035413D01*
X042736Y035315D02*
X042835Y035413D01*
X041496Y035315D02*
X042736D01*
X04524Y036079D02*
X047425D01*
D138*
X02656Y0297D02*
X026929Y029331D01*
Y029291D02*
Y029331D01*
X02545Y0297D02*
X02656D01*
X021276Y025894D02*
X02265D01*
X021276Y025156D02*
X02265D01*
X021135Y02515D02*
X02127D01*
X021276Y025156D01*
X021135Y0259D02*
X02127D01*
X02265Y025156D02*
Y025894D01*
Y02475D02*
Y025156D01*
X02127Y0259D02*
X021276Y025894D01*
X02085Y029719D02*
X02265D01*
X0227Y029715D02*
Y029724D01*
X02265Y023645D02*
Y02475D01*
X021185Y02365D02*
X02132D01*
X021325Y023645D01*
X02085Y028381D02*
X022419D01*
X02265Y02815D01*
X02085Y028381D02*
X02085Y028381D01*
X020465Y027707D02*
X020469Y027711D01*
X02085D01*
X021325Y023645D02*
X02265D01*
X020465Y02595D02*
Y02655D01*
Y02665D01*
X02265Y025894D02*
Y02815D01*
X021135Y0267D02*
X02185D01*
X020465Y02665D02*
Y027707D01*
X025407Y029698D02*
X02545Y029655D01*
X025064Y029698D02*
Y029718D01*
Y029724D01*
Y029698D02*
X025407D01*
X0227Y029724D02*
X025064D01*
X02545Y02905D02*
Y029655D01*
Y0279D02*
Y02905D01*
X02265Y022836D02*
Y023645D01*
X022119Y022306D02*
X02265Y022836D01*
X02Y022306D02*
X022119D01*
X01695Y022859D02*
X017294D01*
X017847Y022306D01*
X01385Y02055D02*
X0142Y0202D01*
X016933D01*
X016941Y0201D02*
X01695Y020109D01*
X017847Y022306D02*
X02D01*
X016933Y0202D02*
X01695Y020183D01*
X016606Y022859D02*
X01695D01*
X01385Y02055D02*
Y02185D01*
X016059Y023406D02*
Y02475D01*
Y023406D02*
X016606Y022859D01*
D139*
X022698Y030387D02*
X0227Y030385D01*
X022731Y030416D01*
X02085Y030389D02*
X020852Y030387D01*
X022698D01*
X027111Y030411D02*
X027144Y030378D01*
X022731Y030416D02*
X023518D01*
X026383Y030411D02*
X027111D01*
X026375Y03042D02*
X026383Y030411D01*
X023518Y030416D02*
X023549Y030447D01*
D140*
X035952Y011526D02*
D03*
X033952D02*
D03*
X038078D02*
D03*
X040078D02*
D03*
D141*
X017591Y011372D02*
D03*
X013591D02*
D03*
D142*
X016591Y013372D02*
D03*
X015591D02*
D03*
D143*
X030197Y011378D02*
D03*
X011449Y011307D02*
D03*
X011457Y047795D02*
D03*
D144*
X039098Y044882D02*
D03*
X017203D02*
D03*
D145*
X042559D02*
D03*
X013858D02*
D03*
D146*
X04729Y015657D02*
D03*
X04249Y010857D02*
D03*
X04829Y013257D02*
D03*
X04249Y015657D02*
D03*
X04729Y010857D02*
D03*
D147*
X047622Y027126D02*
D03*
Y026126D02*
D03*
Y025126D02*
D03*
X048622Y027126D02*
D03*
Y026126D02*
D03*
Y021929D02*
D03*
Y022929D02*
D03*
Y023929D02*
D03*
X047622Y020929D02*
D03*
Y021929D02*
D03*
Y022929D02*
D03*
Y023929D02*
D03*
D148*
X048622Y025126D02*
D03*
Y020929D02*
D03*
D149*
X046425Y037079D02*
D03*
Y035079D02*
D03*
X048425D02*
D03*
Y037079D02*
D03*
X047425Y036079D02*
D03*
D150*
X01385Y02185D02*
D03*
D151*
X01285D02*
D03*
X01385Y02285D02*
D03*
X01285D02*
D03*
X01385Y02385D02*
D03*
X01285D02*
D03*
X01385Y02485D02*
D03*
X01285D02*
D03*
X01385Y02585D02*
D03*
X01285D02*
D03*
X01385Y02685D02*
D03*
X01285D02*
D03*
X01385Y02785D02*
D03*
X01285D02*
D03*
X01385Y02885D02*
D03*
X01285D02*
D03*
X01385Y02985D02*
D03*
X01285D02*
D03*
X01385Y03085D02*
D03*
X01285D02*
D03*
D152*
X020827Y012008D02*
D03*
X022827D02*
D03*
X021827Y011008D02*
D03*
D153*
X042402Y027874D02*
D03*
X042987Y027881D02*
D03*
X042672D02*
D03*
X042087Y027874D02*
D03*
X045868Y027918D02*
D03*
X045283Y027911D02*
D03*
X043721Y027905D02*
D03*
X044968Y027911D02*
D03*
X044306Y027911D02*
D03*
X045553Y027918D02*
D03*
X044968Y027911D02*
D03*
X046215Y027917D02*
D03*
X044621Y027911D02*
D03*
X044036Y027905D02*
D03*
X044094Y020433D02*
D03*
X04378D02*
D03*
X044365Y02044D02*
D03*
X045027Y020439D02*
D03*
X04468Y02044D02*
D03*
X045342Y020439D02*
D03*
X045027D02*
D03*
X045612Y020446D02*
D03*
X046274Y020446D02*
D03*
X045927Y020446D02*
D03*
Y020643D02*
D03*
X046274Y020643D02*
D03*
X045612Y020643D02*
D03*
X045027Y020636D02*
D03*
X045342D02*
D03*
X04468Y020637D02*
D03*
X045027Y020636D02*
D03*
X044365Y020637D02*
D03*
X04378Y02063D02*
D03*
X044094D02*
D03*
X045108Y022245D02*
D03*
X044793D02*
D03*
Y022513D02*
D03*
X045108D02*
D03*
X045693Y02252D02*
D03*
X04604Y022519D02*
D03*
X045378Y02252D02*
D03*
Y022251D02*
D03*
X04604Y022251D02*
D03*
X045693Y022251D02*
D03*
X033831Y0265D02*
D03*
X03448Y026504D02*
D03*
X034827Y026503D02*
D03*
X034165Y026504D02*
D03*
X032835Y026496D02*
D03*
X033484Y0265D02*
D03*
X033831Y0265D02*
D03*
X033169Y0265D02*
D03*
X036154Y0265D02*
D03*
X035157Y026496D02*
D03*
X035807Y0265D02*
D03*
X036154Y0265D02*
D03*
X035492Y0265D02*
D03*
X035468Y026768D02*
D03*
X03613Y026768D02*
D03*
X035783Y026768D02*
D03*
X035133Y026764D02*
D03*
X03613Y026768D02*
D03*
X033145Y026768D02*
D03*
X033807Y026768D02*
D03*
X03346Y026768D02*
D03*
X032811Y026764D02*
D03*
X034141Y026772D02*
D03*
X034803Y026772D02*
D03*
X034456Y026772D02*
D03*
X033807Y026768D02*
D03*
X03179Y02644D02*
D03*
X03179Y025778D02*
D03*
X03179Y026125D02*
D03*
X031786Y026774D02*
D03*
X031794Y025443D02*
D03*
X031794Y024781D02*
D03*
X031794Y025128D02*
D03*
X03179Y025778D02*
D03*
X031775Y028138D02*
D03*
X031779Y027488D02*
D03*
X031779Y027141D02*
D03*
X031779Y027803D02*
D03*
X031772Y029134D02*
D03*
X031776Y028485D02*
D03*
X031775Y028138D02*
D03*
X031776Y0288D02*
D03*
X031775Y029838D02*
D03*
X031775Y0305D02*
D03*
X031775Y030153D02*
D03*
X031779Y029504D02*
D03*
X031771Y030834D02*
D03*
X031772Y031496D02*
D03*
X031771Y031149D02*
D03*
X031775Y0305D02*
D03*
X048538Y032616D02*
D03*
Y032931D02*
D03*
X048542Y032282D02*
D03*
X048535Y033612D02*
D03*
X048535Y034274D02*
D03*
X048535Y033927D02*
D03*
X048539Y033278D02*
D03*
X048346Y028386D02*
D03*
X048346Y028039D02*
D03*
X04863Y02773D02*
D03*
X048631Y028392D02*
D03*
X04863Y028045D02*
D03*
X048857Y033657D02*
D03*
X048856Y032995D02*
D03*
Y03331D02*
D03*
X04886Y032661D02*
D03*
X048629Y028723D02*
D03*
X048629Y029385D02*
D03*
X048629Y029038D02*
D03*
X048625Y02972D02*
D03*
X048626Y030382D02*
D03*
X048625Y030035D02*
D03*
X048622Y030716D02*
D03*
X048622Y031378D02*
D03*
X048622Y031031D02*
D03*
X048897Y027724D02*
D03*
X048898Y028386D02*
D03*
X048897Y028039D02*
D03*
X048901Y02739D02*
D03*
X048862Y031996D02*
D03*
Y032311D02*
D03*
X048866Y031662D02*
D03*
X048934Y017074D02*
D03*
X048941Y019067D02*
D03*
X048934Y018074D02*
D03*
Y019074D02*
D03*
X044797Y029297D02*
D03*
X044482D02*
D03*
X043923Y029286D02*
D03*
X043576Y029286D02*
D03*
X044238Y029286D02*
D03*
X043313Y02929D02*
D03*
X044488Y029488D02*
D03*
X044141Y029489D02*
D03*
X044803Y029488D02*
D03*
X043878Y029492D02*
D03*
X043307Y029488D02*
D03*
X04296Y029489D02*
D03*
X043622Y029488D02*
D03*
X042696Y029492D02*
D03*
X042047Y029291D02*
D03*
X0417Y029292D02*
D03*
X042362Y029291D02*
D03*
X041437Y029295D02*
D03*
X048862Y033918D02*
D03*
X041754Y029499D02*
D03*
X042101Y029499D02*
D03*
X041439Y029499D02*
D03*
X042365Y029495D02*
D03*
X043228Y031732D02*
D03*
X043575Y031732D02*
D03*
X042913Y031732D02*
D03*
X043839Y031728D02*
D03*
X043228Y032008D02*
D03*
X043575Y032007D02*
D03*
X042913Y032008D02*
D03*
X043839Y032004D02*
D03*
X040984Y031476D02*
D03*
X041331Y031476D02*
D03*
X040669Y031476D02*
D03*
X041595Y031472D02*
D03*
X040984Y031732D02*
D03*
X041331Y031732D02*
D03*
X040669Y031732D02*
D03*
X041595Y031728D02*
D03*
X040354Y03252D02*
D03*
X040701Y032519D02*
D03*
X040039Y03252D02*
D03*
X040965Y032516D02*
D03*
X040354Y031969D02*
D03*
X040701Y031968D02*
D03*
X040965Y031964D02*
D03*
Y03224D02*
D03*
X040039Y032244D02*
D03*
X040701Y032244D02*
D03*
X040354Y032244D02*
D03*
X031571Y034114D02*
D03*
Y033681D02*
D03*
X031575Y035039D02*
D03*
X031574Y034377D02*
D03*
X031575Y034724D02*
D03*
X031571Y035689D02*
D03*
Y035255D02*
D03*
X031575Y036614D02*
D03*
X031574Y035952D02*
D03*
X031575Y036299D02*
D03*
X031571Y037381D02*
D03*
Y036948D02*
D03*
X031575Y038307D02*
D03*
X031574Y037645D02*
D03*
X031575Y037992D02*
D03*
X03161Y039114D02*
D03*
Y038681D02*
D03*
X031614Y040039D02*
D03*
X031614Y039377D02*
D03*
X031614Y039724D02*
D03*
X031886Y039507D02*
D03*
Y039074D02*
D03*
X03189Y040433D02*
D03*
X031889Y039771D02*
D03*
X03189Y040118D02*
D03*
X032201Y039665D02*
D03*
Y039232D02*
D03*
X032205Y040591D02*
D03*
X032204Y039929D02*
D03*
X032205Y040276D02*
D03*
X032572Y04027D02*
D03*
X032572Y039923D02*
D03*
X032572Y040585D02*
D03*
X032568Y039227D02*
D03*
X03312Y03966D02*
D03*
X032568D02*
D03*
X032874Y040591D02*
D03*
X032874Y039929D02*
D03*
X033425D02*
D03*
X032874Y040276D02*
D03*
X033425D02*
D03*
X033465Y040591D02*
D03*
X034465D02*
D03*
X035465D02*
D03*
X036465D02*
D03*
X037465D02*
D03*
X038465D02*
D03*
X038661Y031339D02*
D03*
X039046D02*
D03*
X038048Y030984D02*
D03*
X039259Y030971D02*
D03*
X037566D02*
D03*
X038875Y030984D02*
D03*
X037182D02*
D03*
X038432Y030971D02*
D03*
X033954Y031023D02*
D03*
X035165Y03101D02*
D03*
X033472D02*
D03*
X034781Y031023D02*
D03*
X033088D02*
D03*
X034338Y03101D02*
D03*
X034352Y031349D02*
D03*
X033102Y031362D02*
D03*
X034795D02*
D03*
X033486Y031349D02*
D03*
X035179D02*
D03*
X033968Y031362D02*
D03*
X037192Y031346D02*
D03*
X038327D02*
D03*
X037942D02*
D03*
X037576D02*
D03*
X037202Y031786D02*
D03*
X037586D02*
D03*
X037202Y032219D02*
D03*
X037586D02*
D03*
X038337D02*
D03*
X037953D02*
D03*
X038337Y031786D02*
D03*
X037953D02*
D03*
X035187Y032231D02*
D03*
X034803Y032244D02*
D03*
X035187Y031798D02*
D03*
X034803Y031811D02*
D03*
X03436Y032231D02*
D03*
X033976Y032244D02*
D03*
X03436Y031798D02*
D03*
X033976Y031811D02*
D03*
X033494Y032231D02*
D03*
X03311Y032244D02*
D03*
X033494Y031798D02*
D03*
X03311Y031811D02*
D03*
X035109Y035735D02*
D03*
X034724Y035748D02*
D03*
X035109Y035302D02*
D03*
X034724Y035315D02*
D03*
X035109Y034987D02*
D03*
X034724Y035D02*
D03*
X033966Y035015D02*
D03*
X033529D02*
D03*
X032953Y035D02*
D03*
X03435Y035002D02*
D03*
X037205Y035709D02*
D03*
X038218Y035724D02*
D03*
X037781D02*
D03*
X038602Y035711D02*
D03*
X038221Y035053D02*
D03*
X037208Y035038D02*
D03*
X038605Y03504D02*
D03*
X037784Y035053D02*
D03*
X038218Y035369D02*
D03*
X037781D02*
D03*
X037205Y035354D02*
D03*
X038602Y035356D02*
D03*
X033966Y03533D02*
D03*
X033529D02*
D03*
X032953Y035315D02*
D03*
X03435Y035317D02*
D03*
X033966Y035763D02*
D03*
X033529D02*
D03*
X032953Y035748D02*
D03*
X03435Y03575D02*
D03*
X038178Y036669D02*
D03*
X037742D02*
D03*
X037165Y036654D02*
D03*
X038563Y036656D02*
D03*
X038563Y037325D02*
D03*
X038563Y036978D02*
D03*
X037165Y036976D02*
D03*
Y037323D02*
D03*
X037742Y037338D02*
D03*
X037742Y036991D02*
D03*
X038179Y037338D02*
D03*
X038178Y036991D02*
D03*
X038159Y037737D02*
D03*
X038159Y038084D02*
D03*
X037722Y037737D02*
D03*
X037723Y038084D02*
D03*
X037146Y038069D02*
D03*
Y037722D02*
D03*
X038543Y037724D02*
D03*
X038543Y038071D02*
D03*
X038552Y038777D02*
D03*
X038552Y038429D02*
D03*
X038938Y038423D02*
D03*
X038938Y03877D02*
D03*
X037165Y038432D02*
D03*
X037716D02*
D03*
X038149D02*
D03*
X037165Y03878D02*
D03*
X037717D02*
D03*
X03815D02*
D03*
X032952Y036582D02*
D03*
X033504D02*
D03*
X033937D02*
D03*
X032953Y036929D02*
D03*
X033504D02*
D03*
X033937D02*
D03*
X034212Y036582D02*
D03*
X034763D02*
D03*
X035196D02*
D03*
X034213Y036929D02*
D03*
X034764D02*
D03*
X035197D02*
D03*
X032952Y037291D02*
D03*
X033504D02*
D03*
X033937D02*
D03*
X032953Y037638D02*
D03*
X033504D02*
D03*
X033937D02*
D03*
X034212Y037291D02*
D03*
X034763D02*
D03*
X035196D02*
D03*
X034213Y037638D02*
D03*
X034764D02*
D03*
X035197D02*
D03*
Y038425D02*
D03*
X034764D02*
D03*
X034213D02*
D03*
X035196Y038078D02*
D03*
X034763D02*
D03*
X034212D02*
D03*
X033937Y038425D02*
D03*
X033504D02*
D03*
X032953D02*
D03*
X033937Y038078D02*
D03*
X033504D02*
D03*
X032952D02*
D03*
X042717Y024409D02*
D03*
X04237Y024415D02*
D03*
X041819D02*
D03*
X042803Y024068D02*
D03*
X04237D02*
D03*
X041818D02*
D03*
X043858Y024574D02*
D03*
X044409D02*
D03*
X043858Y024921D02*
D03*
X044409D02*
D03*
X043858Y025322D02*
D03*
X044409D02*
D03*
X043858Y025669D02*
D03*
X044409D02*
D03*
X043818Y026503D02*
D03*
X04437D02*
D03*
X043819Y02685D02*
D03*
X04437D02*
D03*
X04185Y025047D02*
D03*
X042401D02*
D03*
X042834D02*
D03*
X04185Y025394D02*
D03*
X042402D02*
D03*
X042835D02*
D03*
X042401Y025755D02*
D03*
X042834D02*
D03*
X04185Y026102D02*
D03*
X042402D02*
D03*
X042835D02*
D03*
X042402Y02685D02*
D03*
X04185Y026503D02*
D03*
X04185Y02685D02*
D03*
X042835D02*
D03*
X042401Y026503D02*
D03*
X042834D02*
D03*
X042135Y038738D02*
D03*
X043119D02*
D03*
X042686D02*
D03*
X04311Y037874D02*
D03*
X042677D02*
D03*
X042126D02*
D03*
X04311Y037441D02*
D03*
X042677D02*
D03*
X042126D02*
D03*
X04311Y037094D02*
D03*
X042677D02*
D03*
X042126D02*
D03*
X04311Y039252D02*
D03*
X042677D02*
D03*
X042126D02*
D03*
X04311Y038386D02*
D03*
X042677D02*
D03*
X042126D02*
D03*
X04311Y038117D02*
D03*
X042677D02*
D03*
X042126D02*
D03*
X045841Y032043D02*
D03*
X045408D02*
D03*
X044857D02*
D03*
X045841Y031696D02*
D03*
X045408D02*
D03*
X044857D02*
D03*
X045841Y031302D02*
D03*
X045408D02*
D03*
X044857D02*
D03*
X045841Y030908D02*
D03*
X045408D02*
D03*
X044857D02*
D03*
X046339Y030906D02*
D03*
X04689D02*
D03*
X047323D02*
D03*
X046339Y031299D02*
D03*
X04689D02*
D03*
X047323D02*
D03*
X046339Y031693D02*
D03*
X04689D02*
D03*
X047323D02*
D03*
X046339Y03204D02*
D03*
X04689D02*
D03*
X047323D02*
D03*
X04185Y034567D02*
D03*
X042402D02*
D03*
X042835D02*
D03*
X043386D02*
D03*
X043819D02*
D03*
X04437D02*
D03*
X044803D02*
D03*
X042835Y034291D02*
D03*
X043386D02*
D03*
X043819D02*
D03*
X043815Y034291D02*
D03*
X044366D02*
D03*
X044799D02*
D03*
X043189Y042795D02*
D03*
Y042244D02*
D03*
Y041811D02*
D03*
X042535D02*
D03*
X041535D02*
D03*
X042535Y042244D02*
D03*
X041535D02*
D03*
Y042795D02*
D03*
X042535D02*
D03*
X047165Y034252D02*
D03*
X048055D02*
D03*
X046165D02*
D03*
X04885D02*
D03*
X044528Y037441D02*
D03*
X043528D02*
D03*
X045417D02*
D03*
X048976Y040827D02*
D03*
Y039827D02*
D03*
Y041717D02*
D03*
Y042512D02*
D03*
Y043235D02*
D03*
Y043693D02*
D03*
X046118Y037874D02*
D03*
X045118D02*
D03*
X047008D02*
D03*
X047803D02*
D03*
X048526D02*
D03*
X048984D02*
D03*
X04611Y038386D02*
D03*
X04511D02*
D03*
X047D02*
D03*
X047795D02*
D03*
X048518D02*
D03*
X048976D02*
D03*
Y039252D02*
D03*
X048984Y03874D02*
D03*
X048526D02*
D03*
X048518Y039252D02*
D03*
X047803Y03874D02*
D03*
X047795Y039252D02*
D03*
X047008Y03874D02*
D03*
X047Y039252D02*
D03*
X045118Y03874D02*
D03*
X04611Y039252D02*
D03*
X04511D02*
D03*
X046118Y03874D02*
D03*
X043543Y037874D02*
D03*
X044535Y038386D02*
D03*
X043535D02*
D03*
X044543Y037874D02*
D03*
X043543Y03874D02*
D03*
X044535Y039252D02*
D03*
X043535D02*
D03*
X044543Y03874D02*
D03*
X028386Y033976D02*
D03*
X029378Y034488D02*
D03*
X028378D02*
D03*
X029386Y033976D02*
D03*
X028386Y035157D02*
D03*
X029378Y035669D02*
D03*
X028378D02*
D03*
X029386Y035157D02*
D03*
X028386Y036378D02*
D03*
X029378Y03689D02*
D03*
X028378D02*
D03*
X029386Y036378D02*
D03*
X028386Y037913D02*
D03*
X028394Y037402D02*
D03*
X029394D02*
D03*
X029386Y037913D02*
D03*
X028386Y038661D02*
D03*
X029378Y039173D02*
D03*
X028378D02*
D03*
X029386Y038661D02*
D03*
X029394Y039685D02*
D03*
X028386Y040197D02*
D03*
X029386D02*
D03*
X028394Y039685D02*
D03*
X029291Y029174D02*
D03*
Y029961D02*
D03*
Y030709D02*
D03*
X029134Y03122D02*
D03*
X02852Y030906D02*
D03*
X02652D02*
D03*
X028228Y03122D02*
D03*
X028882Y030709D02*
D03*
Y029961D02*
D03*
Y029174D02*
D03*
X028717Y028189D02*
D03*
X027717D02*
D03*
X026717D02*
D03*
X028717Y027638D02*
D03*
X027717D02*
D03*
X026717D02*
D03*
X028677Y027087D02*
D03*
X027677D02*
D03*
X026677D02*
D03*
X026457Y023228D02*
D03*
X025457D02*
D03*
X028496Y024213D02*
D03*
X027496D02*
D03*
X026496D02*
D03*
X025496D02*
D03*
X028535Y025276D02*
D03*
X027535D02*
D03*
X026535D02*
D03*
X025535D02*
D03*
X028535Y02626D02*
D03*
X027535D02*
D03*
X026535D02*
D03*
X025535D02*
D03*
X026496Y03122D02*
D03*
X025496D02*
D03*
X024496D02*
D03*
X023496D02*
D03*
X022496D02*
D03*
X021496D02*
D03*
X020496D02*
D03*
X024803Y023228D02*
D03*
X024843Y024213D02*
D03*
X024877Y02527D02*
D03*
X024843Y02626D02*
D03*
Y020787D02*
D03*
X024213Y028898D02*
D03*
Y023244D02*
D03*
Y024244D02*
D03*
Y025244D02*
D03*
Y026244D02*
D03*
Y027244D02*
D03*
Y028244D02*
D03*
X023701Y023228D02*
D03*
Y024228D02*
D03*
Y025228D02*
D03*
Y026228D02*
D03*
Y027228D02*
D03*
Y028228D02*
D03*
X019488Y030906D02*
D03*
X020488D02*
D03*
X021488D02*
D03*
X022488D02*
D03*
X023488D02*
D03*
X024488D02*
D03*
X025488D02*
D03*
X018728Y023701D02*
D03*
X017835D02*
D03*
X019707D02*
D03*
Y024213D02*
D03*
X018728D02*
D03*
X017835D02*
D03*
X018728Y025472D02*
D03*
X019707D02*
D03*
X017835D02*
D03*
X018482Y028889D02*
D03*
X019071Y028898D02*
D03*
X020071D02*
D03*
X022071D02*
D03*
X023071D02*
D03*
X019071Y029252D02*
D03*
X020071D02*
D03*
X021071D02*
D03*
X022071D02*
D03*
X023071D02*
D03*
X024071D02*
D03*
X018228Y020827D02*
D03*
X01874D02*
D03*
X021969Y021299D02*
D03*
Y020827D02*
D03*
X021457Y021299D02*
D03*
Y020827D02*
D03*
X020945D02*
D03*
X020933Y02129D02*
D03*
X019899Y021314D02*
D03*
X019921Y020827D02*
D03*
X020419D02*
D03*
X019252D02*
D03*
X023701D02*
D03*
X022953D02*
D03*
X022441D02*
D03*
Y021299D02*
D03*
X022953D02*
D03*
X023701D02*
D03*
X019252D02*
D03*
X01874D02*
D03*
X020419D02*
D03*
X016181D02*
D03*
X015433D02*
D03*
X014921D02*
D03*
X018228D02*
D03*
X01748D02*
D03*
X016968D02*
D03*
X0166D02*
D03*
X014843Y024331D02*
D03*
Y025079D02*
D03*
Y025591D02*
D03*
Y022283D02*
D03*
Y023031D02*
D03*
Y023543D02*
D03*
Y023911D02*
D03*
X019715Y024789D02*
D03*
X018736D02*
D03*
X017843D02*
D03*
X018495Y028569D02*
D03*
Y028057D02*
D03*
Y027309D02*
D03*
Y030984D02*
D03*
Y030616D02*
D03*
Y030104D02*
D03*
Y029356D02*
D03*
X019715Y026084D02*
D03*
X018736D02*
D03*
X019736Y026675D02*
D03*
X018736D02*
D03*
X014843Y026084D02*
D03*
X017843D02*
D03*
X015843D02*
D03*
X016843D02*
D03*
X014843Y026693D02*
D03*
X017843D02*
D03*
X015843D02*
D03*
X016843D02*
D03*
X014528Y030906D02*
D03*
X017528D02*
D03*
X015528D02*
D03*
X016528D02*
D03*
X01852Y031496D02*
D03*
X01752D02*
D03*
X01952D02*
D03*
X01652D02*
D03*
X01252Y031654D02*
D03*
X01352D02*
D03*
X01452D02*
D03*
X01552D02*
D03*
Y032638D02*
D03*
X01452D02*
D03*
X01352D02*
D03*
X01252D02*
D03*
X02048Y033622D02*
D03*
X02148D02*
D03*
X02248D02*
D03*
X01748D02*
D03*
X01648D02*
D03*
X01548D02*
D03*
X01448D02*
D03*
X01348D02*
D03*
X01248D02*
D03*
X02048Y03437D02*
D03*
X02148D02*
D03*
X02248D02*
D03*
X01748D02*
D03*
X01648D02*
D03*
X01548D02*
D03*
X01448D02*
D03*
X01348D02*
D03*
X01248D02*
D03*
X020441Y034882D02*
D03*
X021441D02*
D03*
X022441D02*
D03*
X019441D02*
D03*
X018441D02*
D03*
X017441D02*
D03*
X016441D02*
D03*
X015441D02*
D03*
X014441D02*
D03*
X013441D02*
D03*
X012441D02*
D03*
X02145Y03525D02*
D03*
X02245D02*
D03*
X01945D02*
D03*
X01845D02*
D03*
X01745D02*
D03*
X01645D02*
D03*
X01545D02*
D03*
X01445D02*
D03*
X01345D02*
D03*
X01245D02*
D03*
X025559Y040906D02*
D03*
X026559D02*
D03*
X027559D02*
D03*
X028559D02*
D03*
X024559D02*
D03*
X023559D02*
D03*
X022559D02*
D03*
X021559D02*
D03*
X020559D02*
D03*
X019559D02*
D03*
X018559D02*
D03*
X017559D02*
D03*
X029378D02*
D03*
X02937Y041417D02*
D03*
Y042047D02*
D03*
X016551Y041417D02*
D03*
X017551D02*
D03*
X018551D02*
D03*
X019551D02*
D03*
X020551D02*
D03*
X021551D02*
D03*
X022551D02*
D03*
X023551D02*
D03*
X024551D02*
D03*
X028551D02*
D03*
X027551D02*
D03*
X026551D02*
D03*
X025551D02*
D03*
Y042047D02*
D03*
X026551D02*
D03*
X027551D02*
D03*
X028551D02*
D03*
X024551D02*
D03*
X023551D02*
D03*
X022551D02*
D03*
X021551D02*
D03*
X020551D02*
D03*
X019551D02*
D03*
X018551D02*
D03*
X017551D02*
D03*
X016551D02*
D03*
X015551D02*
D03*
X029551Y042677D02*
D03*
X028551D02*
D03*
X027551D02*
D03*
X026551D02*
D03*
X025551D02*
D03*
X024551D02*
D03*
X023551D02*
D03*
X022551D02*
D03*
X021551D02*
D03*
X020551D02*
D03*
X019551D02*
D03*
X018551D02*
D03*
X017551D02*
D03*
X016551D02*
D03*
X042008Y043898D02*
D03*
X041102D02*
D03*
X04D02*
D03*
X039016D02*
D03*
X037976Y043976D02*
D03*
X043551Y043268D02*
D03*
X042551D02*
D03*
X041551D02*
D03*
X040551D02*
D03*
X039551D02*
D03*
X038551D02*
D03*
X037551D02*
D03*
X036551D02*
D03*
X035551D02*
D03*
X034551D02*
D03*
X033551D02*
D03*
X032551D02*
D03*
X031551D02*
D03*
X030551D02*
D03*
X029551D02*
D03*
X028551D02*
D03*
X027551D02*
D03*
X026551D02*
D03*
X025551D02*
D03*
X024551D02*
D03*
X023551D02*
D03*
X022551D02*
D03*
X021551D02*
D03*
X020551D02*
D03*
X019551D02*
D03*
X018551D02*
D03*
X017551D02*
D03*
X016551D02*
D03*
X015551D02*
D03*
X043976Y043976D02*
D03*
X042976D02*
D03*
X036976D02*
D03*
X035976D02*
D03*
X034976D02*
D03*
X033976D02*
D03*
X032976D02*
D03*
X031976D02*
D03*
X030976D02*
D03*
X029976D02*
D03*
X028976D02*
D03*
X027976D02*
D03*
X026976D02*
D03*
X025976D02*
D03*
X024976D02*
D03*
X023976D02*
D03*
X022976D02*
D03*
X021976D02*
D03*
X020976D02*
D03*
X019976D02*
D03*
X018976D02*
D03*
X015551Y041417D02*
D03*
Y042677D02*
D03*
Y043976D02*
D03*
X01553Y044528D02*
D03*
X018976Y045079D02*
D03*
X01553D02*
D03*
X015512Y045669D02*
D03*
X048971Y044495D02*
D03*
X047976Y044528D02*
D03*
X046976D02*
D03*
X044976D02*
D03*
X043976D02*
D03*
X041976D02*
D03*
X036976D02*
D03*
X035976D02*
D03*
X034976D02*
D03*
X033976D02*
D03*
X032976D02*
D03*
X031976D02*
D03*
X030976D02*
D03*
X029976D02*
D03*
X028976D02*
D03*
X027976D02*
D03*
X026976D02*
D03*
X025976D02*
D03*
X024976D02*
D03*
X023976D02*
D03*
X022976D02*
D03*
X021976D02*
D03*
X020976D02*
D03*
X019976D02*
D03*
X048976Y045039D02*
D03*
X044976Y045079D02*
D03*
X043976D02*
D03*
X041976D02*
D03*
X036976D02*
D03*
X035976D02*
D03*
X034976D02*
D03*
X033976D02*
D03*
X032976D02*
D03*
X031976D02*
D03*
X030976D02*
D03*
X029976D02*
D03*
X028976D02*
D03*
X027976D02*
D03*
X026976D02*
D03*
X025976D02*
D03*
X024976D02*
D03*
X023976D02*
D03*
X022976D02*
D03*
X021976D02*
D03*
X020976D02*
D03*
X019976D02*
D03*
X018976Y044528D02*
D03*
X015512Y04622D02*
D03*
X048976Y04563D02*
D03*
X044976Y045669D02*
D03*
X043976D02*
D03*
X042976D02*
D03*
X041976D02*
D03*
X036976D02*
D03*
X035976D02*
D03*
X034976D02*
D03*
X033976D02*
D03*
X032976D02*
D03*
X031976D02*
D03*
X030976D02*
D03*
X029976D02*
D03*
X028976D02*
D03*
X027976D02*
D03*
X026976D02*
D03*
X025976D02*
D03*
X024976D02*
D03*
X023976D02*
D03*
X022976D02*
D03*
X021976D02*
D03*
X020976D02*
D03*
X019976D02*
D03*
X048976Y046181D02*
D03*
X043976Y04622D02*
D03*
X042976D02*
D03*
X041976D02*
D03*
X040976D02*
D03*
X039976D02*
D03*
X038976D02*
D03*
X037976D02*
D03*
X036976D02*
D03*
X035976D02*
D03*
X034976D02*
D03*
X033976D02*
D03*
X032976D02*
D03*
X031976D02*
D03*
X030976D02*
D03*
X029976D02*
D03*
X028976D02*
D03*
X027976D02*
D03*
X026976D02*
D03*
X025976D02*
D03*
X024976D02*
D03*
X023976D02*
D03*
X022976D02*
D03*
X021976D02*
D03*
X020976D02*
D03*
X019976D02*
D03*
X018976Y045669D02*
D03*
Y04622D02*
D03*
X012008Y030945D02*
D03*
Y031614D02*
D03*
Y032614D02*
D03*
Y033614D02*
D03*
Y034614D02*
D03*
Y035614D02*
D03*
Y036614D02*
D03*
Y037614D02*
D03*
Y038614D02*
D03*
Y039614D02*
D03*
Y040614D02*
D03*
Y041614D02*
D03*
Y042614D02*
D03*
Y043614D02*
D03*
Y044614D02*
D03*
Y045614D02*
D03*
X011378Y030614D02*
D03*
Y031614D02*
D03*
Y032614D02*
D03*
Y033614D02*
D03*
Y034614D02*
D03*
Y035614D02*
D03*
Y036614D02*
D03*
Y037614D02*
D03*
Y038614D02*
D03*
Y039614D02*
D03*
Y040614D02*
D03*
Y041614D02*
D03*
Y042614D02*
D03*
Y043614D02*
D03*
Y044614D02*
D03*
Y045614D02*
D03*
Y046614D02*
D03*
X012008D02*
D03*
X048992Y046693D02*
D03*
X047992D02*
D03*
X046992D02*
D03*
X045992D02*
D03*
X044992D02*
D03*
X043992D02*
D03*
X042992D02*
D03*
X041992D02*
D03*
X040992D02*
D03*
X039992D02*
D03*
X038992D02*
D03*
X037992D02*
D03*
X036992D02*
D03*
X035992D02*
D03*
X034992D02*
D03*
X033992D02*
D03*
X032992D02*
D03*
X031992D02*
D03*
X030992D02*
D03*
X029992D02*
D03*
X028992D02*
D03*
X027992D02*
D03*
X026992D02*
D03*
X025992D02*
D03*
X024992D02*
D03*
X023992D02*
D03*
X022992D02*
D03*
X021992D02*
D03*
X020992D02*
D03*
X019992D02*
D03*
X018992D02*
D03*
X017992D02*
D03*
X016992D02*
D03*
X015992D02*
D03*
X016Y047205D02*
D03*
X048992Y047244D02*
D03*
X044992D02*
D03*
X043992D02*
D03*
X042992D02*
D03*
X041992D02*
D03*
X040992D02*
D03*
X039992D02*
D03*
X038992D02*
D03*
X037992D02*
D03*
X036992D02*
D03*
X035992D02*
D03*
X034992D02*
D03*
X033992D02*
D03*
X032992D02*
D03*
X031992D02*
D03*
X030992D02*
D03*
X029992D02*
D03*
X028992D02*
D03*
X027992D02*
D03*
X026992D02*
D03*
X025992D02*
D03*
X024992D02*
D03*
X023992D02*
D03*
X022992D02*
D03*
X021992D02*
D03*
X020992D02*
D03*
X019992D02*
D03*
X018992D02*
D03*
X017992D02*
D03*
X016992D02*
D03*
X015992D02*
D03*
X014992D02*
D03*
X013992D02*
D03*
X012992D02*
D03*
X049008Y047797D02*
D03*
X045008D02*
D03*
X044008D02*
D03*
X043008D02*
D03*
X042008D02*
D03*
X041008D02*
D03*
X040008D02*
D03*
X039008D02*
D03*
X038008D02*
D03*
X037008D02*
D03*
X036008D02*
D03*
X035008D02*
D03*
X034008D02*
D03*
X033008D02*
D03*
X032008D02*
D03*
X031008D02*
D03*
X030008D02*
D03*
X029008D02*
D03*
X028008D02*
D03*
X027008D02*
D03*
X026008D02*
D03*
X025008D02*
D03*
X024008D02*
D03*
X023008D02*
D03*
X022008D02*
D03*
X021008D02*
D03*
X020008D02*
D03*
X019008D02*
D03*
X018008D02*
D03*
X017008D02*
D03*
X016008D02*
D03*
X015008D02*
D03*
X014008D02*
D03*
X013008D02*
D03*
X049008Y048346D02*
D03*
X045008D02*
D03*
X044008D02*
D03*
X043008D02*
D03*
X042008D02*
D03*
X041008D02*
D03*
X040008D02*
D03*
X039008D02*
D03*
X038008D02*
D03*
X037008D02*
D03*
X036008D02*
D03*
X035008D02*
D03*
X034008D02*
D03*
X033008D02*
D03*
X032008D02*
D03*
X031008D02*
D03*
X030008D02*
D03*
X029008D02*
D03*
X028008D02*
D03*
X027008D02*
D03*
X026008D02*
D03*
X025008D02*
D03*
X024008D02*
D03*
X023008D02*
D03*
X022008D02*
D03*
X021008D02*
D03*
X020008D02*
D03*
X019008D02*
D03*
X018008D02*
D03*
X017008D02*
D03*
X016008D02*
D03*
X015008D02*
D03*
X014008D02*
D03*
X013008D02*
D03*
X047902Y032783D02*
D03*
X047884Y033277D02*
D03*
X047872Y03348D02*
D03*
X047691Y033481D02*
D03*
X047707Y033277D02*
D03*
X04771Y032789D02*
D03*
X042705Y021166D02*
D03*
X042711Y020942D02*
D03*
X049001Y04897D02*
D03*
X048001D02*
D03*
X047001D02*
D03*
X046001D02*
D03*
X045001D02*
D03*
X044001D02*
D03*
X043001D02*
D03*
X042001D02*
D03*
X041001D02*
D03*
X040001D02*
D03*
X040008Y048976D02*
D03*
X039008D02*
D03*
X038008D02*
D03*
X037008D02*
D03*
X036008D02*
D03*
X035008D02*
D03*
X034008D02*
D03*
X033008D02*
D03*
X032008D02*
D03*
X031008D02*
D03*
X030008D02*
D03*
X029008D02*
D03*
X028008D02*
D03*
X027008D02*
D03*
X026008D02*
D03*
X025008D02*
D03*
X024008D02*
D03*
X023008D02*
D03*
X022008D02*
D03*
X021008D02*
D03*
X020008D02*
D03*
X019008D02*
D03*
X018008D02*
D03*
X017008D02*
D03*
X016008D02*
D03*
X015008D02*
D03*
X014008D02*
D03*
X013008D02*
D03*
X010709D02*
D03*
X012008D02*
D03*
X013169Y019805D02*
D03*
X012992Y019606D02*
D03*
X012913Y020315D02*
D03*
Y021024D02*
D03*
X017047Y019567D02*
D03*
X016102D02*
D03*
X015118D02*
D03*
X014055D02*
D03*
X014843Y017598D02*
D03*
X015984D02*
D03*
X017087D02*
D03*
X018346D02*
D03*
X01937D02*
D03*
X020591D02*
D03*
X021811D02*
D03*
X037518Y029781D02*
D03*
X038775D02*
D03*
X037854D02*
D03*
D154*
X046701Y030416D02*
D03*
X018223Y031897D02*
D03*
X019088Y031903D02*
D03*
X044509Y043125D02*
D03*
X045669Y044291D02*
D03*
X042441Y017638D02*
D03*
X045945Y018425D02*
D03*
X029764Y016575D02*
D03*
X011981Y01717D02*
D03*
X046693Y02937D02*
D03*
X011825Y018622D02*
D03*
X012618Y017183D02*
D03*
X012756Y015157D02*
D03*
X011378Y018532D02*
D03*
X013447Y015286D02*
D03*
X01315Y015157D02*
D03*
X041994Y036758D02*
D03*
X031024Y015463D02*
D03*
X030391Y01425D02*
D03*
X030394Y015472D02*
D03*
X031048Y013775D02*
D03*
X029717Y012748D02*
D03*
X027876Y012761D02*
D03*
X025204Y012766D02*
D03*
X046083Y04254D02*
D03*
X028228Y021654D02*
D03*
X040974Y030777D02*
D03*
X039001Y03934D02*
D03*
X038031Y039409D02*
D03*
X043307Y022283D02*
D03*
X04315Y022008D02*
D03*
X042953Y021732D02*
D03*
X04298Y021051D02*
D03*
X043819Y039882D02*
D03*
X041732Y041732D02*
D03*
X043816Y041299D02*
D03*
X036378Y039409D02*
D03*
X045748Y040748D02*
D03*
X047452Y041112D02*
D03*
X045486Y041063D02*
D03*
X048202Y040752D02*
D03*
X04374Y03815D02*
D03*
X03878Y023819D02*
D03*
X039141Y024051D02*
D03*
X038465Y023543D02*
D03*
X035607Y029528D02*
D03*
X037808Y023694D02*
D03*
X037612Y023989D02*
D03*
X038223Y023071D02*
D03*
X041968Y023858D02*
D03*
X038819Y022323D02*
D03*
X038949Y020394D02*
D03*
X040711Y024034D02*
D03*
X040065Y021016D02*
D03*
X041378Y024034D02*
D03*
X041178Y024252D02*
D03*
X041024Y024034D02*
D03*
X040869Y024252D02*
D03*
X039146Y020118D02*
D03*
X036732Y030039D02*
D03*
X036732Y039423D02*
D03*
X044843Y030154D02*
D03*
Y029839D02*
D03*
X037835Y019331D02*
D03*
X037598Y028622D02*
D03*
X037559Y028228D02*
D03*
X037638Y028976D02*
D03*
X042677Y029213D02*
D03*
X043348Y028778D02*
D03*
X043307Y026654D02*
D03*
X043583Y026024D02*
D03*
X046024Y027298D02*
D03*
X045669Y021535D02*
D03*
X037402Y021969D02*
D03*
X035598Y029852D02*
D03*
X035607Y029213D02*
D03*
X0357Y028499D02*
D03*
Y027441D02*
D03*
X040092Y029969D02*
D03*
X047147Y029052D02*
D03*
X03252Y029843D02*
D03*
X045315Y016614D02*
D03*
Y016339D02*
D03*
X045669D02*
D03*
X045983Y016341D02*
D03*
X045669Y016614D02*
D03*
X045984D02*
D03*
X047874Y018032D02*
D03*
X034291Y029961D02*
D03*
X034449Y039409D02*
D03*
X034035Y03943D02*
D03*
X041776Y033641D02*
D03*
X04213D02*
D03*
X042135Y033332D02*
D03*
X041781Y033334D02*
D03*
X041772Y033937D02*
D03*
X042126D02*
D03*
X047717Y033031D02*
D03*
X023898Y013425D02*
D03*
X045591Y034291D02*
D03*
X041968Y025827D02*
D03*
X04535Y024069D02*
D03*
X04495Y024054D02*
D03*
X045354Y02378D02*
D03*
X044961D02*
D03*
X03815Y036102D02*
D03*
X037795Y03437D02*
D03*
X03749Y034134D02*
D03*
X028819Y021654D02*
D03*
X028504D02*
D03*
X040392Y021009D02*
D03*
X040696Y021005D02*
D03*
X040066Y020716D02*
D03*
X040394Y020709D02*
D03*
X040698Y020705D02*
D03*
X037913Y019016D02*
D03*
X028228Y021339D02*
D03*
X028504D02*
D03*
X028819D02*
D03*
X040714Y025431D02*
D03*
X040709Y025709D02*
D03*
X040644Y027512D02*
D03*
X04118Y027516D02*
D03*
X040906Y02752D02*
D03*
X030714Y03241D02*
D03*
X030447D02*
D03*
X030144D02*
D03*
X029862Y032414D02*
D03*
X02422Y032814D02*
D03*
X025962Y032815D02*
D03*
X029857Y03213D02*
D03*
X03014Y032126D02*
D03*
X029843Y031811D02*
D03*
X030118D02*
D03*
X030442Y032126D02*
D03*
X030415Y031811D02*
D03*
X030709Y032126D02*
D03*
Y031811D02*
D03*
X033071Y022638D02*
D03*
X035079Y022165D02*
D03*
X035394D02*
D03*
X035079Y02248D02*
D03*
X025521Y040072D02*
D03*
X02523D02*
D03*
Y039685D02*
D03*
X025521D02*
D03*
X026929Y029291D02*
D03*
X027244D02*
D03*
X026925Y029014D02*
D03*
X027244Y029016D02*
D03*
X029944Y016296D02*
D03*
X029651Y016298D02*
D03*
X020354Y012677D02*
D03*
X02036Y012362D02*
D03*
X02103Y012677D02*
D03*
X020703Y01268D02*
D03*
X025039Y014685D02*
D03*
X025369Y014681D02*
D03*
X025024Y014371D02*
D03*
X025353D02*
D03*
X017441Y016694D02*
D03*
Y016418D02*
D03*
X016393D02*
D03*
X044961Y016339D02*
D03*
Y016614D02*
D03*
X027874Y014843D02*
D03*
X025197Y013425D02*
D03*
X029691Y013423D02*
D03*
X027835D02*
D03*
X020371Y015566D02*
D03*
X016393Y016694D02*
D03*
X035394Y02248D02*
D03*
X017229Y038536D02*
D03*
X017245Y040077D02*
D03*
X033071Y022992D02*
D03*
X018222Y03342D02*
D03*
X0211Y02905D02*
D03*
X02675Y0244D02*
D03*
X02185Y0267D02*
D03*
Y0244D02*
D03*
X01885Y03935D02*
D03*
X017645Y0379D02*
D03*
X0218Y03975D02*
D03*
X02035Y0352D02*
D03*
X019087Y03342D02*
D03*
X0211Y03115D02*
D03*
X020359Y038535D02*
D03*
D155*
X013649Y017579D02*
D03*
X010492Y027575D02*
D03*
Y028575D02*
D03*
X010453Y018572D02*
D03*
Y021575D02*
D03*
Y020575D02*
D03*
Y023575D02*
D03*
Y022575D02*
D03*
Y025575D02*
D03*
Y024575D02*
D03*
Y019575D02*
D03*
Y026575D02*
D03*
X042559Y036772D02*
D03*
X043071D02*
D03*
X043661D02*
D03*
X04534Y03488D02*
D03*
X045433Y036772D02*
D03*
X044724D02*
D03*
X044213D02*
D03*
X042047Y034882D02*
D03*
X044685D02*
D03*
X044094D02*
D03*
X043504D02*
D03*
X023769Y011448D02*
D03*
X016614Y027968D02*
D03*
X01566Y02874D02*
D03*
X01752Y030354D02*
D03*
X016575Y029496D02*
D03*
X01562D02*
D03*
X01752D02*
D03*
X017559Y027205D02*
D03*
Y027968D02*
D03*
X01562Y030354D02*
D03*
X016614Y027205D02*
D03*
X01566Y027968D02*
D03*
Y027205D02*
D03*
X017559Y02874D02*
D03*
X016575Y030354D02*
D03*
X016614Y02874D02*
D03*
X030552Y021677D02*
D03*
X035472Y020276D02*
D03*
Y019606D02*
D03*
X034512Y020276D02*
D03*
X033512D02*
D03*
X032512D02*
D03*
X031512D02*
D03*
X034512Y019606D02*
D03*
X033512D02*
D03*
X032512D02*
D03*
X031512D02*
D03*
X029134Y020276D02*
D03*
X028228D02*
D03*
X027228D02*
D03*
X026228D02*
D03*
X025228D02*
D03*
X024228D02*
D03*
X023228D02*
D03*
X022228D02*
D03*
X021228D02*
D03*
X020228D02*
D03*
X019228D02*
D03*
X018228D02*
D03*
X018224Y019615D02*
D03*
X029134Y019606D02*
D03*
X028224Y019615D02*
D03*
X027224D02*
D03*
X026224D02*
D03*
X025224D02*
D03*
X024224D02*
D03*
X023224D02*
D03*
X022224D02*
D03*
X021224D02*
D03*
X020224D02*
D03*
X019224D02*
D03*
X031011Y013092D02*
D03*
Y01248D02*
D03*
X025425Y017472D02*
D03*
Y016472D02*
D03*
Y015472D02*
D03*
X024425Y017472D02*
D03*
Y016472D02*
D03*
Y015472D02*
D03*
X023425D02*
D03*
Y017472D02*
D03*
Y016472D02*
D03*
X020945Y010787D02*
D03*
X020276D02*
D03*
X019606Y013787D02*
D03*
Y012787D02*
D03*
Y011787D02*
D03*
Y010787D02*
D03*
X018937Y015787D02*
D03*
Y013787D02*
D03*
Y012787D02*
D03*
Y011787D02*
D03*
Y010787D02*
D03*
X028661Y01248D02*
D03*
X027661D02*
D03*
X026661D02*
D03*
X025661D02*
D03*
X024661D02*
D03*
X023661D02*
D03*
X028673Y011927D02*
D03*
X027673D02*
D03*
X026673D02*
D03*
X025673D02*
D03*
X024673D02*
D03*
X029724Y011929D02*
D03*
X023673Y011917D02*
D03*
X028677Y011378D02*
D03*
X027677D02*
D03*
X026677D02*
D03*
X025677D02*
D03*
X024677D02*
D03*
X022677D02*
D03*
X030677Y010866D02*
D03*
X028677D02*
D03*
X027677D02*
D03*
X026677D02*
D03*
X025677D02*
D03*
X024677D02*
D03*
X023677D02*
D03*
X022677D02*
D03*
X011929Y048346D02*
D03*
X010984D02*
D03*
X011457Y048504D02*
D03*
X0122Y048032D02*
D03*
X010709D02*
D03*
X012205Y047559D02*
D03*
X010713D02*
D03*
X011457Y047087D02*
D03*
X011929Y047244D02*
D03*
X010984D02*
D03*
X030669Y011929D02*
D03*
X030197Y012087D02*
D03*
X03094Y011614D02*
D03*
X029449D02*
D03*
X030945Y011142D02*
D03*
X029453D02*
D03*
X030197Y010669D02*
D03*
X030669Y010827D02*
D03*
X029724D02*
D03*
X010977Y010756D02*
D03*
X011921D02*
D03*
X011449Y010598D02*
D03*
X010706Y011071D02*
D03*
X012197D02*
D03*
X031102Y010354D02*
D03*
X029283D02*
D03*
X028283D02*
D03*
X027283D02*
D03*
X026283D02*
D03*
X025283D02*
D03*
X024283D02*
D03*
X023283D02*
D03*
X022283D02*
D03*
X021283D02*
D03*
X020283D02*
D03*
X019283D02*
D03*
X018283D02*
D03*
X017283D02*
D03*
X016283D02*
D03*
X015283D02*
D03*
X014283D02*
D03*
X013283D02*
D03*
X010701Y011543D02*
D03*
X012283Y010354D02*
D03*
X01063D02*
D03*
X013665Y012598D02*
D03*
Y013528D02*
D03*
Y014528D02*
D03*
X012669Y012598D02*
D03*
Y013527D02*
D03*
Y014528D02*
D03*
X011666Y012598D02*
D03*
X012192Y011543D02*
D03*
X011666Y013527D02*
D03*
Y014528D02*
D03*
X010669Y017502D02*
D03*
X011449Y012016D02*
D03*
X010977Y011858D02*
D03*
X011921D02*
D03*
X010669Y012598D02*
D03*
Y013527D02*
D03*
Y014528D02*
D03*
Y015528D02*
D03*
Y016528D02*
D03*
Y029575D02*
D03*
Y030575D02*
D03*
Y031575D02*
D03*
Y032575D02*
D03*
Y033575D02*
D03*
Y034575D02*
D03*
Y035575D02*
D03*
Y036575D02*
D03*
Y037575D02*
D03*
Y038575D02*
D03*
Y039575D02*
D03*
Y040575D02*
D03*
Y041575D02*
D03*
Y042575D02*
D03*
Y043575D02*
D03*
Y044575D02*
D03*
Y045575D02*
D03*
Y046575D02*
D03*
M02*
