M48
;Layer_Color=9474304
;FILE_FORMAT=2:4
INCH,LZ
;TYPE=PLATED
T1F00S00C0.0079
T2F00S00C0.0118
T3F00S00C0.0350
T4F00S00C0.0354
T5F00S00C0.0394
T6F00S00C0.0450
T7F00S00C0.0500
T9F00S00C0.0591
T10F00S00C0.0787
T11F00S00C0.0827
;TYPE=NON_PLATED
T12F00S00C0.1260
%
T01
X020371Y015566
X023898Y013425
X025197
X025204Y012766
X027876Y012761
X027835Y013423
X027874Y014843
X030391Y01425
X031048Y013775
X029691Y013423
X029717Y012748
X030394Y015472
X031024Y015463
X047874Y018032
X047147Y029052
X04668Y03039
X044843Y030154
Y029839
X043348Y028778
X042677Y029213
X043307Y026654
X043583Y026024
X041968Y025827
Y023858
X043307Y022283
X04315Y022008
X042953Y021732
X04298Y021051
X040696Y021005
X040698Y020705
X040394Y020709
X040392Y021009
X040065Y021016
X040066Y020716
X038949Y020394
X039146Y020118
X038937Y018543
X03895Y018108
X037815Y017638
X038012Y017047
X037913Y019016
X037835Y019331
X037402Y021969
X038819Y022323
X038223Y023071
X038465Y023543
X03878Y023819
X039141Y024051
X037612Y023989
X037808Y023694
X035394Y02248
Y022165
X035079
Y02248
X033071Y022638
Y022992
X032776Y017638
X03274Y017047
X034843
X034902Y017638
X042402Y01748
X046071Y017984
X045669Y021535
X045354Y02378
X04535Y024069
X04495Y024054
X044961Y02378
X046024Y027298
X040974Y030777
X040092Y029969
X036732Y030039
X035598Y029852
X035607Y029528
Y029213
X0357Y028499
Y027441
X037559Y028228
X037598Y028622
X037638Y028976
X034291Y029961
X03252Y029843
X027244Y029291
Y029016
X026925Y029014
X026929Y029291
X02675Y0244
X028228Y021654
X028504
Y021339
X028228
X028819
Y021654
X030472Y017165
X031102Y016772
X02185Y0244
Y0267
X0211Y02905
Y03115
X019088Y031903
X018223Y031897
X018222Y03342
X019087
X02035Y0352
X020359Y038535
X01885Y03935
X017245Y040077
X017229Y038536
X017645Y0379
X0218Y03975
X02523Y039685
X025521
Y040072
X02523
X025962Y032815
X02422Y032814
X029862Y032414
X030144Y03241
X03014Y032126
X029857Y03213
X029843Y031811
X030118
X030415
X030709
Y032126
X030442
X030447Y03241
X030714
X03749Y034134
X037795Y03437
X03815Y036102
X038031Y039409
X039001Y03934
X036732Y039423
X036378Y039409
X034449
X034035Y03943
X041732Y041732
X043816Y041299
X043819Y039882
X04374Y03815
X041994Y036758
X042126Y033937
X04213Y033641
X042135Y033332
X041781Y033334
X041776Y033641
X041772Y033937
X045591Y034291
X045748Y040748
X045486Y041063
X046083Y04254
X0445Y042992
X045661Y044209
X047452Y041112
X048202Y040752
X047717Y033031
T02
X01063Y010354
X010945Y010787
X010674Y011102
X010669Y011575
X010945Y01189
X011417Y012047
X01189Y01189
X012161Y011575
X012165Y011102
X01189Y010787
X011417Y01063
X012283Y010354
X013283
X014283
X015283
X013665Y012598
Y013528
X012669Y013527
Y012598
X011666
Y013527
X010669
Y012598
Y014528
X011666
Y015528
X010669
X012669
X013665
Y014528
X012669
X018937Y013787
X019606
Y012787
X018937
Y011787
X019606
Y010787
X018937
X019283Y010354
X020283
X020276Y010787
X020945
X021283Y010354
X022283
X022677Y010866
Y011378
X023769Y011448
X023673Y011917
X023661Y01248
X024661
X024673Y011927
X024677Y011378
Y010866
X024283Y010354
X025283
X025677Y010866
Y011378
X025673Y011927
X025661Y01248
X026661
X026673Y011927
X026677Y011378
Y010866
X026283Y010354
X027283
X027677Y010866
Y011378
X027673Y011927
X027661Y01248
X028661
X028673Y011927
X028677Y011378
Y010866
X028283Y010354
X029283
X029724Y010827
X029453Y011142
X029449Y011614
X029724Y011929
X030197Y012087
X030669Y011929
X03094Y011614
X030945Y011142
X030677Y010866
X030669Y010827
X030197Y010669
X031102Y010354
X031011Y01248
Y013092
X025353Y014371
X025369Y014681
X025039Y014685
X025024Y014371
X025425Y015472
X024425
X023425
X023677Y010866
X023283Y010354
X02103Y012677
X020703Y01268
X020354Y012677
X02036Y012362
X018283Y010354
X017283
X016283
X031512Y019606
Y020276
X032512
Y019606
X033512
Y020276
X034512
Y019606
X035472
Y020276
X040711Y024034
X041024
X041378
X041178Y024252
X040869
X040714Y025431
X040709Y025709
X040644Y027512
X040906Y02752
X04118Y027516
X038775Y029781
X037854
X037518
X044961Y016614
Y016339
X045315
Y016614
X045669
Y016339
X045983Y016341
X045984Y016614
X029944Y016296
X029651Y016298
X029944Y015939
X030512Y019606
Y020276
Y021024
X030552Y021677
X029134Y020276
Y019606
X028224Y019615
X028228Y020276
X027228
X027224Y019615
X026224
X026228Y020276
X025228
X025224Y019615
X024224
X024228Y020276
X023228
X023224Y019615
X022224
X022228Y020276
X021228
X021224Y019615
X020224
X020228Y020276
X019228
X019224Y019615
X018224
X018228Y020276
X017441Y016694
Y016418
X016393
Y016694
X018937Y015787
X023425Y016472
X024425
X025425
Y017472
X024425
X023425
X017559Y027205
Y027968
Y02874
X01752Y029496
Y030354
X016575
Y029496
X016614Y02874
Y027968
Y027205
X01566
Y027968
Y02874
X01562Y029496
Y030354
X010669Y030575
Y029575
Y028575
Y027575
Y026575
Y025575
Y024575
Y023575
Y022575
Y021575
Y020575
Y019575
Y018575
Y017502
Y016528
X011666
Y017502
X011669
X012669
Y016528
X013665
X013669Y017502
X013665Y017528
X010669Y031575
Y032575
Y033575
Y034575
Y035575
Y036575
Y037575
Y038575
Y039575
Y040575
Y041575
Y042575
Y043575
Y044575
Y045575
Y046575
X042559Y036772
X043071
X043661
X044213
X044724
X045433
X04534Y03488
X044685Y034882
X044094
X043504
X042047
X041995Y035755
X011929Y047244
X012205Y047559
X0122Y048032
X011929Y048346
X011457Y048504
X010984Y048346
X010709Y048032
X010713Y047559
X010984Y047244
X011457Y047087
T03
X020827Y012008
X022827
X021827Y011008
T04
X047622Y020929
X048622
Y021929
Y022929
Y023929
X047622
Y022929
Y021929
Y025126
Y026126
Y027126
X048622
Y026126
Y025126
T05
X015591Y013372
X016591
X01385Y02185
X01285
Y02285
X01385
Y02385
X01285
Y02485
X01385
Y02585
X01285
Y02685
X01385
Y02785
X01285
Y02885
X01385
Y02985
X01285
Y03085
X01385
T06
X04249Y010857
X04729
X04829Y013257
X04729Y015657
X04249
T07
X033952Y011526
X035952
X038078
X040078
T09
X046425Y035079
Y037079
X048425
Y035079
X047425Y036079
T10
X011417Y011339
X030197Y011378
X011457Y047795
T11
X013591Y011372
X017591
T12
X017203Y044882
X039098
M30
