G04*
G04 #@! TF.GenerationSoftware,Altium Limited,Altium Designer,21.0.8 (223)*
G04*
G04 Layer_Color=2752767*
%FSTAX24Y24*%
%MOIN*%
G70*
G04*
G04 #@! TF.SameCoordinates,736B94AB-3AD6-4132-BD99-26C8E2632B86*
G04*
G04*
G04 #@! TF.FilePolarity,Positive*
G04*
G01*
G75*
%ADD22C,0.0020*%
%ADD159C,0.0027*%
%ADD160C,0.0013*%
D22*
X035872Y011446D02*
Y011606D01*
X036032D01*
Y011446D01*
X035872D01*
X033872D02*
Y011606D01*
X034032D01*
Y011446D01*
X033872D01*
X016591Y013292D02*
X016511Y013452D01*
X016671D01*
X016591Y013292D01*
X015591D02*
X015511Y013452D01*
X015671D01*
X015591Y013292D01*
X030197Y011298D02*
X030237Y011338D01*
X030277D01*
X030237Y011378D01*
X030277Y011418D01*
X030237D01*
X030197Y011458D01*
X030157Y011418D01*
X030117D01*
X030157Y011378D01*
X030117Y011338D01*
X030157D01*
X030197Y011298D01*
X039018Y044802D02*
X039058Y044882D01*
X039018Y044962D01*
X039098Y044922D01*
X039178Y044962D01*
X039138Y044882D01*
X039178Y044802D01*
X039098Y044842D01*
X039018Y044802D01*
X017123D02*
X017163Y044882D01*
X017123Y044962D01*
X017203Y044922D01*
X017283Y044962D01*
X017243Y044882D01*
X017283Y044802D01*
X017203Y044842D01*
X017123Y044802D01*
X042519Y044842D02*
Y044802D01*
X042599D01*
Y044842D01*
X042639D01*
Y044922D01*
X042599D01*
Y044962D01*
X042519D01*
Y044922D01*
X042479D01*
Y044842D01*
X042519D01*
X013818D02*
Y044802D01*
X013898D01*
Y044842D01*
X013938D01*
Y044922D01*
X013898D01*
Y044962D01*
X013818D01*
Y044922D01*
X013778D01*
Y044842D01*
X013818D01*
X011417Y011259D02*
X011457Y011299D01*
X011497D01*
X011457Y011339D01*
X011497Y011379D01*
X011457D01*
X011417Y011419D01*
X011377Y011379D01*
X011337D01*
X011377Y011339D01*
X011337Y011299D01*
X011377D01*
X011417Y011259D01*
X011457Y047715D02*
X011497Y047755D01*
X011537D01*
X011497Y047795D01*
X011537Y047835D01*
X011497D01*
X011457Y047875D01*
X011417Y047835D01*
X011377D01*
X011417Y047795D01*
X011377Y047755D01*
X011417D01*
X011457Y047715D01*
X04721Y015577D02*
X04725D01*
X04729Y015617D01*
X04733Y015577D01*
X04737D01*
Y015617D01*
X04733Y015657D01*
X04737Y015697D01*
Y015737D01*
X04733D01*
X04729Y015697D01*
X04725Y015737D01*
X04721D01*
Y015697D01*
X04725Y015657D01*
X04721Y015617D01*
Y015577D01*
X04241Y010777D02*
X04245D01*
X04249Y010817D01*
X04253Y010777D01*
X04257D01*
Y010817D01*
X04253Y010857D01*
X04257Y010897D01*
Y010937D01*
X04253D01*
X04249Y010897D01*
X04245Y010937D01*
X04241D01*
Y010897D01*
X04245Y010857D01*
X04241Y010817D01*
Y010777D01*
X04821Y013177D02*
X04825D01*
X04829Y013217D01*
X04833Y013177D01*
X04837D01*
Y013217D01*
X04833Y013257D01*
X04837Y013297D01*
Y013337D01*
X04833D01*
X04829Y013297D01*
X04825Y013337D01*
X04821D01*
Y013297D01*
X04825Y013257D01*
X04821Y013217D01*
Y013177D01*
X04241Y015577D02*
X04245D01*
X04249Y015617D01*
X04253Y015577D01*
X04257D01*
Y015617D01*
X04253Y015657D01*
X04257Y015697D01*
Y015737D01*
X04253D01*
X04249Y015697D01*
X04245Y015737D01*
X04241D01*
Y015697D01*
X04245Y015657D01*
X04241Y015617D01*
Y015577D01*
X04721Y010777D02*
X04725D01*
X04729Y010817D01*
X04733Y010777D01*
X04737D01*
Y010817D01*
X04733Y010857D01*
X04737Y010897D01*
Y010937D01*
X04733D01*
X04729Y010897D01*
X04725Y010937D01*
X04721D01*
Y010897D01*
X04725Y010857D01*
X04721Y010817D01*
Y010777D01*
X047542Y027126D02*
X047622Y027206D01*
X047702Y027126D01*
X047622Y027046D01*
X047542Y027126D01*
Y026126D02*
X047622Y026206D01*
X047702Y026126D01*
X047622Y026046D01*
X047542Y026126D01*
Y025126D02*
X047622Y025206D01*
X047702Y025126D01*
X047622Y025046D01*
X047542Y025126D01*
X048542Y027126D02*
X048622Y027206D01*
X048702Y027126D01*
X048622Y027046D01*
X048542Y027126D01*
Y026126D02*
X048622Y026206D01*
X048702Y026126D01*
X048622Y026046D01*
X048542Y026126D01*
Y025126D02*
X048622Y025206D01*
X048702Y025126D01*
X048622Y025046D01*
X048542Y025126D01*
Y020929D02*
X048622Y021009D01*
X048702Y020929D01*
X048622Y020849D01*
X048542Y020929D01*
Y021929D02*
X048622Y022009D01*
X048702Y021929D01*
X048622Y021849D01*
X048542Y021929D01*
Y022929D02*
X048622Y023009D01*
X048702Y022929D01*
X048622Y022849D01*
X048542Y022929D01*
Y023929D02*
X048622Y024009D01*
X048702Y023929D01*
X048622Y023849D01*
X048542Y023929D01*
X047542Y020929D02*
X047622Y021009D01*
X047702Y020929D01*
X047622Y020849D01*
X047542Y020929D01*
Y021929D02*
X047622Y022009D01*
X047702Y021929D01*
X047622Y021849D01*
X047542Y021929D01*
Y022929D02*
X047622Y023009D01*
X047702Y022929D01*
X047622Y022849D01*
X047542Y022929D01*
Y023929D02*
X047622Y024009D01*
X047702Y023929D01*
X047622Y023849D01*
X047542Y023929D01*
X037998Y011446D02*
Y011606D01*
X038158D01*
Y011446D01*
X037998D01*
X039998D02*
Y011606D01*
X040158D01*
Y011446D01*
X039998D01*
X046345Y036999D02*
Y037159D01*
X046505D01*
Y036999D01*
X046345D01*
X046385Y037039D02*
Y037119D01*
X046465D01*
Y037039D01*
X046385D01*
X046345Y034999D02*
Y035159D01*
X046505D01*
Y034999D01*
X046345D01*
X046385Y035039D02*
Y035119D01*
X046465D01*
Y035039D01*
X046385D01*
X048345Y034999D02*
Y035159D01*
X048505D01*
Y034999D01*
X048345D01*
X048385Y035039D02*
Y035119D01*
X048465D01*
Y035039D01*
X048385D01*
X048345Y036999D02*
Y037159D01*
X048505D01*
Y036999D01*
X048345D01*
X048385Y037039D02*
Y037119D01*
X048465D01*
Y037039D01*
X048385D01*
X047345Y035999D02*
Y036159D01*
X047505D01*
Y035999D01*
X047345D01*
X047385Y036039D02*
Y036119D01*
X047465D01*
Y036039D01*
X047385D01*
X01385Y02177D02*
X01377Y02193D01*
X01393D01*
X01385Y02177D01*
X01285D02*
X01277Y02193D01*
X01293D01*
X01285Y02177D01*
X01385Y02277D02*
X01377Y02293D01*
X01393D01*
X01385Y02277D01*
X01285D02*
X01277Y02293D01*
X01293D01*
X01285Y02277D01*
X01385Y02377D02*
X01377Y02393D01*
X01393D01*
X01385Y02377D01*
X01285D02*
X01277Y02393D01*
X01293D01*
X01285Y02377D01*
X01385Y02477D02*
X01377Y02493D01*
X01393D01*
X01385Y02477D01*
X01285D02*
X01277Y02493D01*
X01293D01*
X01285Y02477D01*
X01385Y02577D02*
X01377Y02593D01*
X01393D01*
X01385Y02577D01*
X01285D02*
X01277Y02593D01*
X01293D01*
X01285Y02577D01*
X01385Y02677D02*
X01377Y02693D01*
X01393D01*
X01385Y02677D01*
X01285D02*
X01277Y02693D01*
X01293D01*
X01285Y02677D01*
X01385Y02777D02*
X01377Y02793D01*
X01393D01*
X01385Y02777D01*
X01285D02*
X01277Y02793D01*
X01293D01*
X01285Y02777D01*
X01385Y02877D02*
X01377Y02893D01*
X01393D01*
X01385Y02877D01*
X01285D02*
X01277Y02893D01*
X01293D01*
X01285Y02877D01*
X01385Y02977D02*
X01377Y02993D01*
X01393D01*
X01385Y02977D01*
X01285D02*
X01277Y02993D01*
X01293D01*
X01285Y02977D01*
X01385Y03077D02*
X01377Y03093D01*
X01393D01*
X01385Y03077D01*
X01285D02*
X01277Y03093D01*
X01293D01*
X01285Y03077D01*
X041994Y036678D02*
X041914Y036838D01*
X042074D01*
X041994Y036678D01*
Y036718D02*
X041954Y036798D01*
X042034D01*
X041994Y036718D01*
X042559Y036692D02*
X042599Y036732D01*
X042639D01*
X042599Y036772D01*
X042639Y036812D01*
X042599D01*
X042559Y036852D01*
X042519Y036812D01*
X042479D01*
X042519Y036772D01*
X042479Y036732D01*
X042519D01*
X042559Y036692D01*
Y036732D02*
X042579Y036752D01*
X042599D01*
X042579Y036772D01*
X042599Y036792D01*
X042579D01*
X042559Y036812D01*
X042539Y036792D01*
X042519D01*
X042539Y036772D01*
X042519Y036752D01*
X042539D01*
X042559Y036732D01*
X043071Y036692D02*
X043111Y036732D01*
X043151D01*
X043111Y036772D01*
X043151Y036812D01*
X043111D01*
X043071Y036852D01*
X043031Y036812D01*
X042991D01*
X043031Y036772D01*
X042991Y036732D01*
X043031D01*
X043071Y036692D01*
Y036732D02*
X043091Y036752D01*
X043111D01*
X043091Y036772D01*
X043111Y036792D01*
X043091D01*
X043071Y036812D01*
X043051Y036792D01*
X043031D01*
X043051Y036772D01*
X043031Y036752D01*
X043051D01*
X043071Y036732D01*
X043661Y036692D02*
X043701Y036732D01*
X043741D01*
X043701Y036772D01*
X043741Y036812D01*
X043701D01*
X043661Y036852D01*
X043621Y036812D01*
X043581D01*
X043621Y036772D01*
X043581Y036732D01*
X043621D01*
X043661Y036692D01*
Y036732D02*
X043681Y036752D01*
X043701D01*
X043681Y036772D01*
X043701Y036792D01*
X043681D01*
X043661Y036812D01*
X043641Y036792D01*
X043621D01*
X043641Y036772D01*
X043621Y036752D01*
X043641D01*
X043661Y036732D01*
X04534Y0348D02*
X04538Y03484D01*
X04542D01*
X04538Y03488D01*
X04542Y03492D01*
X04538D01*
X04534Y03496D01*
X0453Y03492D01*
X04526D01*
X0453Y03488D01*
X04526Y03484D01*
X0453D01*
X04534Y0348D01*
Y03484D02*
X04536Y03486D01*
X04538D01*
X04536Y03488D01*
X04538Y0349D01*
X04536D01*
X04534Y03492D01*
X04532Y0349D01*
X0453D01*
X04532Y03488D01*
X0453Y03486D01*
X04532D01*
X04534Y03484D01*
X041995Y035675D02*
X042035Y035715D01*
X042075D01*
X042035Y035755D01*
X042075Y035795D01*
X042035D01*
X041995Y035835D01*
X041955Y035795D01*
X041915D01*
X041955Y035755D01*
X041915Y035715D01*
X041955D01*
X041995Y035675D01*
Y035715D02*
X042015Y035735D01*
X042035D01*
X042015Y035755D01*
X042035Y035775D01*
X042015D01*
X041995Y035795D01*
X041975Y035775D01*
X041955D01*
X041975Y035755D01*
X041955Y035735D01*
X041975D01*
X041995Y035715D01*
X045433Y036692D02*
X045473Y036732D01*
X045513D01*
X045473Y036772D01*
X045513Y036812D01*
X045473D01*
X045433Y036852D01*
X045393Y036812D01*
X045353D01*
X045393Y036772D01*
X045353Y036732D01*
X045393D01*
X045433Y036692D01*
Y036732D02*
X045453Y036752D01*
X045473D01*
X045453Y036772D01*
X045473Y036792D01*
X045453D01*
X045433Y036812D01*
X045413Y036792D01*
X045393D01*
X045413Y036772D01*
X045393Y036752D01*
X045413D01*
X045433Y036732D01*
X044724Y036692D02*
X044764Y036732D01*
X044804D01*
X044764Y036772D01*
X044804Y036812D01*
X044764D01*
X044724Y036852D01*
X044684Y036812D01*
X044644D01*
X044684Y036772D01*
X044644Y036732D01*
X044684D01*
X044724Y036692D01*
Y036732D02*
X044744Y036752D01*
X044764D01*
X044744Y036772D01*
X044764Y036792D01*
X044744D01*
X044724Y036812D01*
X044704Y036792D01*
X044684D01*
X044704Y036772D01*
X044684Y036752D01*
X044704D01*
X044724Y036732D01*
X044213Y036692D02*
X044253Y036732D01*
X044293D01*
X044253Y036772D01*
X044293Y036812D01*
X044253D01*
X044213Y036852D01*
X044173Y036812D01*
X044133D01*
X044173Y036772D01*
X044133Y036732D01*
X044173D01*
X044213Y036692D01*
Y036732D02*
X044233Y036752D01*
X044253D01*
X044233Y036772D01*
X044253Y036792D01*
X044233D01*
X044213Y036812D01*
X044193Y036792D01*
X044173D01*
X044193Y036772D01*
X044173Y036752D01*
X044193D01*
X044213Y036732D01*
X042047Y034802D02*
X042087Y034842D01*
X042127D01*
X042087Y034882D01*
X042127Y034922D01*
X042087D01*
X042047Y034962D01*
X042007Y034922D01*
X041967D01*
X042007Y034882D01*
X041967Y034842D01*
X042007D01*
X042047Y034802D01*
Y034842D02*
X042067Y034862D01*
X042087D01*
X042067Y034882D01*
X042087Y034902D01*
X042067D01*
X042047Y034922D01*
X042027Y034902D01*
X042007D01*
X042027Y034882D01*
X042007Y034862D01*
X042027D01*
X042047Y034842D01*
X044685Y034802D02*
X044725Y034842D01*
X044765D01*
X044725Y034882D01*
X044765Y034922D01*
X044725D01*
X044685Y034962D01*
X044645Y034922D01*
X044605D01*
X044645Y034882D01*
X044605Y034842D01*
X044645D01*
X044685Y034802D01*
Y034842D02*
X044705Y034862D01*
X044725D01*
X044705Y034882D01*
X044725Y034902D01*
X044705D01*
X044685Y034922D01*
X044665Y034902D01*
X044645D01*
X044665Y034882D01*
X044645Y034862D01*
X044665D01*
X044685Y034842D01*
X044094Y034802D02*
X044134Y034842D01*
X044174D01*
X044134Y034882D01*
X044174Y034922D01*
X044134D01*
X044094Y034962D01*
X044054Y034922D01*
X044014D01*
X044054Y034882D01*
X044014Y034842D01*
X044054D01*
X044094Y034802D01*
Y034842D02*
X044114Y034862D01*
X044134D01*
X044114Y034882D01*
X044134Y034902D01*
X044114D01*
X044094Y034922D01*
X044074Y034902D01*
X044054D01*
X044074Y034882D01*
X044054Y034862D01*
X044074D01*
X044094Y034842D01*
X043504Y034802D02*
X043544Y034842D01*
X043584D01*
X043544Y034882D01*
X043584Y034922D01*
X043544D01*
X043504Y034962D01*
X043464Y034922D01*
X043424D01*
X043464Y034882D01*
X043424Y034842D01*
X043464D01*
X043504Y034802D01*
Y034842D02*
X043524Y034862D01*
X043544D01*
X043524Y034882D01*
X043544Y034902D01*
X043524D01*
X043504Y034922D01*
X043484Y034902D01*
X043464D01*
X043484Y034882D01*
X043464Y034862D01*
X043484D01*
X043504Y034842D01*
X023769Y011368D02*
X023809Y011408D01*
X023849D01*
X023809Y011448D01*
X023849Y011488D01*
X023809D01*
X023769Y011528D01*
X023729Y011488D01*
X023689D01*
X023729Y011448D01*
X023689Y011408D01*
X023729D01*
X023769Y011368D01*
Y011408D02*
X023789Y011428D01*
X023809D01*
X023789Y011448D01*
X023809Y011468D01*
X023789D01*
X023769Y011488D01*
X023749Y011468D01*
X023729D01*
X023749Y011448D01*
X023729Y011428D01*
X023749D01*
X023769Y011408D01*
X016614Y027889D02*
X016654Y027929D01*
X016694D01*
X016654Y027968D01*
X016694Y028008D01*
X016654D01*
X016614Y028049D01*
X016574Y028008D01*
X016534D01*
X016574Y027968D01*
X016534Y027929D01*
X016574D01*
X016614Y027889D01*
Y027929D02*
X016634Y027949D01*
X016654D01*
X016634Y027968D01*
X016654Y027989D01*
X016634D01*
X016614Y028008D01*
X016594Y027989D01*
X016574D01*
X016594Y027968D01*
X016574Y027949D01*
X016594D01*
X016614Y027929D01*
X01566Y02866D02*
X0157Y0287D01*
X01574D01*
X0157Y02874D01*
X01574Y02878D01*
X0157D01*
X01566Y02882D01*
X01562Y02878D01*
X01558D01*
X01562Y02874D01*
X01558Y0287D01*
X01562D01*
X01566Y02866D01*
Y0287D02*
X01568Y02872D01*
X0157D01*
X01568Y02874D01*
X0157Y02876D01*
X01568D01*
X01566Y02878D01*
X01564Y02876D01*
X01562D01*
X01564Y02874D01*
X01562Y02872D01*
X01564D01*
X01566Y0287D01*
X01752Y030274D02*
X01756Y030314D01*
X0176D01*
X01756Y030354D01*
X0176Y030394D01*
X01756D01*
X01752Y030434D01*
X01748Y030394D01*
X01744D01*
X01748Y030354D01*
X01744Y030314D01*
X01748D01*
X01752Y030274D01*
Y030314D02*
X01754Y030334D01*
X01756D01*
X01754Y030354D01*
X01756Y030374D01*
X01754D01*
X01752Y030394D01*
X0175Y030374D01*
X01748D01*
X0175Y030354D01*
X01748Y030334D01*
X0175D01*
X01752Y030314D01*
X016575Y029416D02*
X016615Y029456D01*
X016655D01*
X016615Y029496D01*
X016655Y029536D01*
X016615D01*
X016575Y029576D01*
X016535Y029536D01*
X016495D01*
X016535Y029496D01*
X016495Y029456D01*
X016535D01*
X016575Y029416D01*
Y029456D02*
X016595Y029476D01*
X016615D01*
X016595Y029496D01*
X016615Y029516D01*
X016595D01*
X016575Y029536D01*
X016555Y029516D01*
X016535D01*
X016555Y029496D01*
X016535Y029476D01*
X016555D01*
X016575Y029456D01*
X01562Y029416D02*
X01566Y029456D01*
X0157D01*
X01566Y029496D01*
X0157Y029536D01*
X01566D01*
X01562Y029576D01*
X01558Y029536D01*
X01554D01*
X01558Y029496D01*
X01554Y029456D01*
X01558D01*
X01562Y029416D01*
Y029456D02*
X01564Y029476D01*
X01566D01*
X01564Y029496D01*
X01566Y029516D01*
X01564D01*
X01562Y029536D01*
X0156Y029516D01*
X01558D01*
X0156Y029496D01*
X01558Y029476D01*
X0156D01*
X01562Y029456D01*
X01752Y029416D02*
X01756Y029456D01*
X0176D01*
X01756Y029496D01*
X0176Y029536D01*
X01756D01*
X01752Y029576D01*
X01748Y029536D01*
X01744D01*
X01748Y029496D01*
X01744Y029456D01*
X01748D01*
X01752Y029416D01*
Y029456D02*
X01754Y029476D01*
X01756D01*
X01754Y029496D01*
X01756Y029516D01*
X01754D01*
X01752Y029536D01*
X0175Y029516D01*
X01748D01*
X0175Y029496D01*
X01748Y029476D01*
X0175D01*
X01752Y029456D01*
X017559Y027125D02*
X017599Y027165D01*
X017639D01*
X017599Y027205D01*
X017639Y027245D01*
X017599D01*
X017559Y027285D01*
X017519Y027245D01*
X017479D01*
X017519Y027205D01*
X017479Y027165D01*
X017519D01*
X017559Y027125D01*
Y027165D02*
X017579Y027185D01*
X017599D01*
X017579Y027205D01*
X017599Y027225D01*
X017579D01*
X017559Y027245D01*
X017539Y027225D01*
X017519D01*
X017539Y027205D01*
X017519Y027185D01*
X017539D01*
X017559Y027165D01*
Y027889D02*
X017599Y027929D01*
X017639D01*
X017599Y027968D01*
X017639Y028008D01*
X017599D01*
X017559Y028049D01*
X017519Y028008D01*
X017479D01*
X017519Y027968D01*
X017479Y027929D01*
X017519D01*
X017559Y027889D01*
Y027929D02*
X017579Y027949D01*
X017599D01*
X017579Y027968D01*
X017599Y027989D01*
X017579D01*
X017559Y028008D01*
X017539Y027989D01*
X017519D01*
X017539Y027968D01*
X017519Y027949D01*
X017539D01*
X017559Y027929D01*
X01562Y030274D02*
X01566Y030314D01*
X0157D01*
X01566Y030354D01*
X0157Y030394D01*
X01566D01*
X01562Y030434D01*
X01558Y030394D01*
X01554D01*
X01558Y030354D01*
X01554Y030314D01*
X01558D01*
X01562Y030274D01*
Y030314D02*
X01564Y030334D01*
X01566D01*
X01564Y030354D01*
X01566Y030374D01*
X01564D01*
X01562Y030394D01*
X0156Y030374D01*
X01558D01*
X0156Y030354D01*
X01558Y030334D01*
X0156D01*
X01562Y030314D01*
X016614Y027125D02*
X016654Y027165D01*
X016694D01*
X016654Y027205D01*
X016694Y027245D01*
X016654D01*
X016614Y027285D01*
X016574Y027245D01*
X016534D01*
X016574Y027205D01*
X016534Y027165D01*
X016574D01*
X016614Y027125D01*
Y027165D02*
X016634Y027185D01*
X016654D01*
X016634Y027205D01*
X016654Y027225D01*
X016634D01*
X016614Y027245D01*
X016594Y027225D01*
X016574D01*
X016594Y027205D01*
X016574Y027185D01*
X016594D01*
X016614Y027165D01*
X01566Y027889D02*
X0157Y027929D01*
X01574D01*
X0157Y027968D01*
X01574Y028008D01*
X0157D01*
X01566Y028049D01*
X01562Y028008D01*
X01558D01*
X01562Y027968D01*
X01558Y027929D01*
X01562D01*
X01566Y027889D01*
Y027929D02*
X01568Y027949D01*
X0157D01*
X01568Y027968D01*
X0157Y027989D01*
X01568D01*
X01566Y028008D01*
X01564Y027989D01*
X01562D01*
X01564Y027968D01*
X01562Y027949D01*
X01564D01*
X01566Y027929D01*
Y027125D02*
X0157Y027165D01*
X01574D01*
X0157Y027205D01*
X01574Y027245D01*
X0157D01*
X01566Y027285D01*
X01562Y027245D01*
X01558D01*
X01562Y027205D01*
X01558Y027165D01*
X01562D01*
X01566Y027125D01*
Y027165D02*
X01568Y027185D01*
X0157D01*
X01568Y027205D01*
X0157Y027225D01*
X01568D01*
X01566Y027245D01*
X01564Y027225D01*
X01562D01*
X01564Y027205D01*
X01562Y027185D01*
X01564D01*
X01566Y027165D01*
X017559Y02866D02*
X017599Y0287D01*
X017639D01*
X017599Y02874D01*
X017639Y02878D01*
X017599D01*
X017559Y02882D01*
X017519Y02878D01*
X017479D01*
X017519Y02874D01*
X017479Y0287D01*
X017519D01*
X017559Y02866D01*
Y0287D02*
X017579Y02872D01*
X017599D01*
X017579Y02874D01*
X017599Y02876D01*
X017579D01*
X017559Y02878D01*
X017539Y02876D01*
X017519D01*
X017539Y02874D01*
X017519Y02872D01*
X017539D01*
X017559Y0287D01*
X016575Y030274D02*
X016615Y030314D01*
X016655D01*
X016615Y030354D01*
X016655Y030394D01*
X016615D01*
X016575Y030434D01*
X016535Y030394D01*
X016495D01*
X016535Y030354D01*
X016495Y030314D01*
X016535D01*
X016575Y030274D01*
Y030314D02*
X016595Y030334D01*
X016615D01*
X016595Y030354D01*
X016615Y030374D01*
X016595D01*
X016575Y030394D01*
X016555Y030374D01*
X016535D01*
X016555Y030354D01*
X016535Y030334D01*
X016555D01*
X016575Y030314D01*
X016614Y02866D02*
X016654Y0287D01*
X016694D01*
X016654Y02874D01*
X016694Y02878D01*
X016654D01*
X016614Y02882D01*
X016574Y02878D01*
X016534D01*
X016574Y02874D01*
X016534Y0287D01*
X016574D01*
X016614Y02866D01*
Y0287D02*
X016634Y02872D01*
X016654D01*
X016634Y02874D01*
X016654Y02876D01*
X016634D01*
X016614Y02878D01*
X016594Y02876D01*
X016574D01*
X016594Y02874D01*
X016574Y02872D01*
X016594D01*
X016614Y0287D01*
X030552Y021597D02*
X030592Y021637D01*
X030632D01*
X030592Y021677D01*
X030632Y021717D01*
X030592D01*
X030552Y021757D01*
X030512Y021717D01*
X030472D01*
X030512Y021677D01*
X030472Y021637D01*
X030512D01*
X030552Y021597D01*
Y021637D02*
X030572Y021657D01*
X030592D01*
X030572Y021677D01*
X030592Y021697D01*
X030572D01*
X030552Y021717D01*
X030532Y021697D01*
X030512D01*
X030532Y021677D01*
X030512Y021657D01*
X030532D01*
X030552Y021637D01*
X030512Y020944D02*
X030552Y020984D01*
X030592D01*
X030552Y021024D01*
X030592Y021064D01*
X030552D01*
X030512Y021104D01*
X030472Y021064D01*
X030432D01*
X030472Y021024D01*
X030432Y020984D01*
X030472D01*
X030512Y020944D01*
Y020984D02*
X030532Y021004D01*
X030552D01*
X030532Y021024D01*
X030552Y021044D01*
X030532D01*
X030512Y021064D01*
X030492Y021044D01*
X030472D01*
X030492Y021024D01*
X030472Y021004D01*
X030492D01*
X030512Y020984D01*
X035472Y020196D02*
X035512Y020236D01*
X035552D01*
X035512Y020276D01*
X035552Y020316D01*
X035512D01*
X035472Y020356D01*
X035432Y020316D01*
X035392D01*
X035432Y020276D01*
X035392Y020236D01*
X035432D01*
X035472Y020196D01*
Y020236D02*
X035492Y020256D01*
X035512D01*
X035492Y020276D01*
X035512Y020296D01*
X035492D01*
X035472Y020316D01*
X035452Y020296D01*
X035432D01*
X035452Y020276D01*
X035432Y020256D01*
X035452D01*
X035472Y020236D01*
Y019526D02*
X035512Y019566D01*
X035552D01*
X035512Y019606D01*
X035552Y019646D01*
X035512D01*
X035472Y019686D01*
X035432Y019646D01*
X035392D01*
X035432Y019606D01*
X035392Y019566D01*
X035432D01*
X035472Y019526D01*
Y019566D02*
X035492Y019586D01*
X035512D01*
X035492Y019606D01*
X035512Y019626D01*
X035492D01*
X035472Y019646D01*
X035452Y019626D01*
X035432D01*
X035452Y019606D01*
X035432Y019586D01*
X035452D01*
X035472Y019566D01*
X034512Y020196D02*
X034552Y020236D01*
X034592D01*
X034552Y020276D01*
X034592Y020316D01*
X034552D01*
X034512Y020356D01*
X034472Y020316D01*
X034432D01*
X034472Y020276D01*
X034432Y020236D01*
X034472D01*
X034512Y020196D01*
Y020236D02*
X034532Y020256D01*
X034552D01*
X034532Y020276D01*
X034552Y020296D01*
X034532D01*
X034512Y020316D01*
X034492Y020296D01*
X034472D01*
X034492Y020276D01*
X034472Y020256D01*
X034492D01*
X034512Y020236D01*
X033512Y020196D02*
X033552Y020236D01*
X033592D01*
X033552Y020276D01*
X033592Y020316D01*
X033552D01*
X033512Y020356D01*
X033472Y020316D01*
X033432D01*
X033472Y020276D01*
X033432Y020236D01*
X033472D01*
X033512Y020196D01*
Y020236D02*
X033532Y020256D01*
X033552D01*
X033532Y020276D01*
X033552Y020296D01*
X033532D01*
X033512Y020316D01*
X033492Y020296D01*
X033472D01*
X033492Y020276D01*
X033472Y020256D01*
X033492D01*
X033512Y020236D01*
X032512Y020196D02*
X032552Y020236D01*
X032592D01*
X032552Y020276D01*
X032592Y020316D01*
X032552D01*
X032512Y020356D01*
X032472Y020316D01*
X032432D01*
X032472Y020276D01*
X032432Y020236D01*
X032472D01*
X032512Y020196D01*
Y020236D02*
X032532Y020256D01*
X032552D01*
X032532Y020276D01*
X032552Y020296D01*
X032532D01*
X032512Y020316D01*
X032492Y020296D01*
X032472D01*
X032492Y020276D01*
X032472Y020256D01*
X032492D01*
X032512Y020236D01*
X031512Y020196D02*
X031552Y020236D01*
X031592D01*
X031552Y020276D01*
X031592Y020316D01*
X031552D01*
X031512Y020356D01*
X031472Y020316D01*
X031432D01*
X031472Y020276D01*
X031432Y020236D01*
X031472D01*
X031512Y020196D01*
Y020236D02*
X031532Y020256D01*
X031552D01*
X031532Y020276D01*
X031552Y020296D01*
X031532D01*
X031512Y020316D01*
X031492Y020296D01*
X031472D01*
X031492Y020276D01*
X031472Y020256D01*
X031492D01*
X031512Y020236D01*
X030512Y020196D02*
X030552Y020236D01*
X030592D01*
X030552Y020276D01*
X030592Y020316D01*
X030552D01*
X030512Y020356D01*
X030472Y020316D01*
X030432D01*
X030472Y020276D01*
X030432Y020236D01*
X030472D01*
X030512Y020196D01*
Y020236D02*
X030532Y020256D01*
X030552D01*
X030532Y020276D01*
X030552Y020296D01*
X030532D01*
X030512Y020316D01*
X030492Y020296D01*
X030472D01*
X030492Y020276D01*
X030472Y020256D01*
X030492D01*
X030512Y020236D01*
X034512Y019526D02*
X034552Y019566D01*
X034592D01*
X034552Y019606D01*
X034592Y019646D01*
X034552D01*
X034512Y019686D01*
X034472Y019646D01*
X034432D01*
X034472Y019606D01*
X034432Y019566D01*
X034472D01*
X034512Y019526D01*
Y019566D02*
X034532Y019586D01*
X034552D01*
X034532Y019606D01*
X034552Y019626D01*
X034532D01*
X034512Y019646D01*
X034492Y019626D01*
X034472D01*
X034492Y019606D01*
X034472Y019586D01*
X034492D01*
X034512Y019566D01*
X033512Y019526D02*
X033552Y019566D01*
X033592D01*
X033552Y019606D01*
X033592Y019646D01*
X033552D01*
X033512Y019686D01*
X033472Y019646D01*
X033432D01*
X033472Y019606D01*
X033432Y019566D01*
X033472D01*
X033512Y019526D01*
Y019566D02*
X033532Y019586D01*
X033552D01*
X033532Y019606D01*
X033552Y019626D01*
X033532D01*
X033512Y019646D01*
X033492Y019626D01*
X033472D01*
X033492Y019606D01*
X033472Y019586D01*
X033492D01*
X033512Y019566D01*
X032512Y019526D02*
X032552Y019566D01*
X032592D01*
X032552Y019606D01*
X032592Y019646D01*
X032552D01*
X032512Y019686D01*
X032472Y019646D01*
X032432D01*
X032472Y019606D01*
X032432Y019566D01*
X032472D01*
X032512Y019526D01*
Y019566D02*
X032532Y019586D01*
X032552D01*
X032532Y019606D01*
X032552Y019626D01*
X032532D01*
X032512Y019646D01*
X032492Y019626D01*
X032472D01*
X032492Y019606D01*
X032472Y019586D01*
X032492D01*
X032512Y019566D01*
X031512Y019526D02*
X031552Y019566D01*
X031592D01*
X031552Y019606D01*
X031592Y019646D01*
X031552D01*
X031512Y019686D01*
X031472Y019646D01*
X031432D01*
X031472Y019606D01*
X031432Y019566D01*
X031472D01*
X031512Y019526D01*
Y019566D02*
X031532Y019586D01*
X031552D01*
X031532Y019606D01*
X031552Y019626D01*
X031532D01*
X031512Y019646D01*
X031492Y019626D01*
X031472D01*
X031492Y019606D01*
X031472Y019586D01*
X031492D01*
X031512Y019566D01*
X030512Y019526D02*
X030552Y019566D01*
X030592D01*
X030552Y019606D01*
X030592Y019646D01*
X030552D01*
X030512Y019686D01*
X030472Y019646D01*
X030432D01*
X030472Y019606D01*
X030432Y019566D01*
X030472D01*
X030512Y019526D01*
Y019566D02*
X030532Y019586D01*
X030552D01*
X030532Y019606D01*
X030552Y019626D01*
X030532D01*
X030512Y019646D01*
X030492Y019626D01*
X030472D01*
X030492Y019606D01*
X030472Y019586D01*
X030492D01*
X030512Y019566D01*
X029134Y020196D02*
X029174Y020236D01*
X029214D01*
X029174Y020276D01*
X029214Y020316D01*
X029174D01*
X029134Y020356D01*
X029094Y020316D01*
X029054D01*
X029094Y020276D01*
X029054Y020236D01*
X029094D01*
X029134Y020196D01*
Y020236D02*
X029154Y020256D01*
X029174D01*
X029154Y020276D01*
X029174Y020296D01*
X029154D01*
X029134Y020316D01*
X029114Y020296D01*
X029094D01*
X029114Y020276D01*
X029094Y020256D01*
X029114D01*
X029134Y020236D01*
X028228Y020196D02*
X028268Y020236D01*
X028308D01*
X028268Y020276D01*
X028308Y020316D01*
X028268D01*
X028228Y020356D01*
X028188Y020316D01*
X028148D01*
X028188Y020276D01*
X028148Y020236D01*
X028188D01*
X028228Y020196D01*
Y020236D02*
X028248Y020256D01*
X028268D01*
X028248Y020276D01*
X028268Y020296D01*
X028248D01*
X028228Y020316D01*
X028208Y020296D01*
X028188D01*
X028208Y020276D01*
X028188Y020256D01*
X028208D01*
X028228Y020236D01*
X027228Y020196D02*
X027268Y020236D01*
X027308D01*
X027268Y020276D01*
X027308Y020316D01*
X027268D01*
X027228Y020356D01*
X027188Y020316D01*
X027148D01*
X027188Y020276D01*
X027148Y020236D01*
X027188D01*
X027228Y020196D01*
Y020236D02*
X027248Y020256D01*
X027268D01*
X027248Y020276D01*
X027268Y020296D01*
X027248D01*
X027228Y020316D01*
X027208Y020296D01*
X027188D01*
X027208Y020276D01*
X027188Y020256D01*
X027208D01*
X027228Y020236D01*
X026228Y020196D02*
X026268Y020236D01*
X026308D01*
X026268Y020276D01*
X026308Y020316D01*
X026268D01*
X026228Y020356D01*
X026188Y020316D01*
X026148D01*
X026188Y020276D01*
X026148Y020236D01*
X026188D01*
X026228Y020196D01*
Y020236D02*
X026248Y020256D01*
X026268D01*
X026248Y020276D01*
X026268Y020296D01*
X026248D01*
X026228Y020316D01*
X026208Y020296D01*
X026188D01*
X026208Y020276D01*
X026188Y020256D01*
X026208D01*
X026228Y020236D01*
X025228Y020196D02*
X025268Y020236D01*
X025308D01*
X025268Y020276D01*
X025308Y020316D01*
X025268D01*
X025228Y020356D01*
X025188Y020316D01*
X025148D01*
X025188Y020276D01*
X025148Y020236D01*
X025188D01*
X025228Y020196D01*
Y020236D02*
X025248Y020256D01*
X025268D01*
X025248Y020276D01*
X025268Y020296D01*
X025248D01*
X025228Y020316D01*
X025208Y020296D01*
X025188D01*
X025208Y020276D01*
X025188Y020256D01*
X025208D01*
X025228Y020236D01*
X024228Y020196D02*
X024268Y020236D01*
X024308D01*
X024268Y020276D01*
X024308Y020316D01*
X024268D01*
X024228Y020356D01*
X024188Y020316D01*
X024148D01*
X024188Y020276D01*
X024148Y020236D01*
X024188D01*
X024228Y020196D01*
Y020236D02*
X024248Y020256D01*
X024268D01*
X024248Y020276D01*
X024268Y020296D01*
X024248D01*
X024228Y020316D01*
X024208Y020296D01*
X024188D01*
X024208Y020276D01*
X024188Y020256D01*
X024208D01*
X024228Y020236D01*
X023228Y020196D02*
X023268Y020236D01*
X023308D01*
X023268Y020276D01*
X023308Y020316D01*
X023268D01*
X023228Y020356D01*
X023188Y020316D01*
X023148D01*
X023188Y020276D01*
X023148Y020236D01*
X023188D01*
X023228Y020196D01*
Y020236D02*
X023248Y020256D01*
X023268D01*
X023248Y020276D01*
X023268Y020296D01*
X023248D01*
X023228Y020316D01*
X023208Y020296D01*
X023188D01*
X023208Y020276D01*
X023188Y020256D01*
X023208D01*
X023228Y020236D01*
X022228Y020196D02*
X022268Y020236D01*
X022308D01*
X022268Y020276D01*
X022308Y020316D01*
X022268D01*
X022228Y020356D01*
X022188Y020316D01*
X022148D01*
X022188Y020276D01*
X022148Y020236D01*
X022188D01*
X022228Y020196D01*
Y020236D02*
X022248Y020256D01*
X022268D01*
X022248Y020276D01*
X022268Y020296D01*
X022248D01*
X022228Y020316D01*
X022208Y020296D01*
X022188D01*
X022208Y020276D01*
X022188Y020256D01*
X022208D01*
X022228Y020236D01*
X021228Y020196D02*
X021268Y020236D01*
X021308D01*
X021268Y020276D01*
X021308Y020316D01*
X021268D01*
X021228Y020356D01*
X021188Y020316D01*
X021148D01*
X021188Y020276D01*
X021148Y020236D01*
X021188D01*
X021228Y020196D01*
Y020236D02*
X021248Y020256D01*
X021268D01*
X021248Y020276D01*
X021268Y020296D01*
X021248D01*
X021228Y020316D01*
X021208Y020296D01*
X021188D01*
X021208Y020276D01*
X021188Y020256D01*
X021208D01*
X021228Y020236D01*
X020228Y020196D02*
X020268Y020236D01*
X020308D01*
X020268Y020276D01*
X020308Y020316D01*
X020268D01*
X020228Y020356D01*
X020188Y020316D01*
X020148D01*
X020188Y020276D01*
X020148Y020236D01*
X020188D01*
X020228Y020196D01*
Y020236D02*
X020248Y020256D01*
X020268D01*
X020248Y020276D01*
X020268Y020296D01*
X020248D01*
X020228Y020316D01*
X020208Y020296D01*
X020188D01*
X020208Y020276D01*
X020188Y020256D01*
X020208D01*
X020228Y020236D01*
X019228Y020196D02*
X019268Y020236D01*
X019308D01*
X019268Y020276D01*
X019308Y020316D01*
X019268D01*
X019228Y020356D01*
X019188Y020316D01*
X019148D01*
X019188Y020276D01*
X019148Y020236D01*
X019188D01*
X019228Y020196D01*
Y020236D02*
X019248Y020256D01*
X019268D01*
X019248Y020276D01*
X019268Y020296D01*
X019248D01*
X019228Y020316D01*
X019208Y020296D01*
X019188D01*
X019208Y020276D01*
X019188Y020256D01*
X019208D01*
X019228Y020236D01*
X018228Y020196D02*
X018268Y020236D01*
X018308D01*
X018268Y020276D01*
X018308Y020316D01*
X018268D01*
X018228Y020356D01*
X018188Y020316D01*
X018148D01*
X018188Y020276D01*
X018148Y020236D01*
X018188D01*
X018228Y020196D01*
Y020236D02*
X018248Y020256D01*
X018268D01*
X018248Y020276D01*
X018268Y020296D01*
X018248D01*
X018228Y020316D01*
X018208Y020296D01*
X018188D01*
X018208Y020276D01*
X018188Y020256D01*
X018208D01*
X018228Y020236D01*
X018224Y019535D02*
X018264Y019575D01*
X018304D01*
X018264Y019615D01*
X018304Y019655D01*
X018264D01*
X018224Y019695D01*
X018184Y019655D01*
X018144D01*
X018184Y019615D01*
X018144Y019575D01*
X018184D01*
X018224Y019535D01*
Y019575D02*
X018244Y019595D01*
X018264D01*
X018244Y019615D01*
X018264Y019635D01*
X018244D01*
X018224Y019655D01*
X018204Y019635D01*
X018184D01*
X018204Y019615D01*
X018184Y019595D01*
X018204D01*
X018224Y019575D01*
X029134Y019526D02*
X029174Y019566D01*
X029214D01*
X029174Y019606D01*
X029214Y019646D01*
X029174D01*
X029134Y019686D01*
X029094Y019646D01*
X029054D01*
X029094Y019606D01*
X029054Y019566D01*
X029094D01*
X029134Y019526D01*
Y019566D02*
X029154Y019586D01*
X029174D01*
X029154Y019606D01*
X029174Y019626D01*
X029154D01*
X029134Y019646D01*
X029114Y019626D01*
X029094D01*
X029114Y019606D01*
X029094Y019586D01*
X029114D01*
X029134Y019566D01*
X028224Y019535D02*
X028264Y019575D01*
X028304D01*
X028264Y019615D01*
X028304Y019655D01*
X028264D01*
X028224Y019695D01*
X028184Y019655D01*
X028144D01*
X028184Y019615D01*
X028144Y019575D01*
X028184D01*
X028224Y019535D01*
Y019575D02*
X028244Y019595D01*
X028264D01*
X028244Y019615D01*
X028264Y019635D01*
X028244D01*
X028224Y019655D01*
X028204Y019635D01*
X028184D01*
X028204Y019615D01*
X028184Y019595D01*
X028204D01*
X028224Y019575D01*
X027224Y019535D02*
X027264Y019575D01*
X027304D01*
X027264Y019615D01*
X027304Y019655D01*
X027264D01*
X027224Y019695D01*
X027184Y019655D01*
X027144D01*
X027184Y019615D01*
X027144Y019575D01*
X027184D01*
X027224Y019535D01*
Y019575D02*
X027244Y019595D01*
X027264D01*
X027244Y019615D01*
X027264Y019635D01*
X027244D01*
X027224Y019655D01*
X027204Y019635D01*
X027184D01*
X027204Y019615D01*
X027184Y019595D01*
X027204D01*
X027224Y019575D01*
X026224Y019535D02*
X026264Y019575D01*
X026304D01*
X026264Y019615D01*
X026304Y019655D01*
X026264D01*
X026224Y019695D01*
X026184Y019655D01*
X026144D01*
X026184Y019615D01*
X026144Y019575D01*
X026184D01*
X026224Y019535D01*
Y019575D02*
X026244Y019595D01*
X026264D01*
X026244Y019615D01*
X026264Y019635D01*
X026244D01*
X026224Y019655D01*
X026204Y019635D01*
X026184D01*
X026204Y019615D01*
X026184Y019595D01*
X026204D01*
X026224Y019575D01*
X025224Y019535D02*
X025264Y019575D01*
X025304D01*
X025264Y019615D01*
X025304Y019655D01*
X025264D01*
X025224Y019695D01*
X025184Y019655D01*
X025144D01*
X025184Y019615D01*
X025144Y019575D01*
X025184D01*
X025224Y019535D01*
Y019575D02*
X025244Y019595D01*
X025264D01*
X025244Y019615D01*
X025264Y019635D01*
X025244D01*
X025224Y019655D01*
X025204Y019635D01*
X025184D01*
X025204Y019615D01*
X025184Y019595D01*
X025204D01*
X025224Y019575D01*
X024224Y019535D02*
X024264Y019575D01*
X024304D01*
X024264Y019615D01*
X024304Y019655D01*
X024264D01*
X024224Y019695D01*
X024184Y019655D01*
X024144D01*
X024184Y019615D01*
X024144Y019575D01*
X024184D01*
X024224Y019535D01*
Y019575D02*
X024244Y019595D01*
X024264D01*
X024244Y019615D01*
X024264Y019635D01*
X024244D01*
X024224Y019655D01*
X024204Y019635D01*
X024184D01*
X024204Y019615D01*
X024184Y019595D01*
X024204D01*
X024224Y019575D01*
X023224Y019535D02*
X023264Y019575D01*
X023304D01*
X023264Y019615D01*
X023304Y019655D01*
X023264D01*
X023224Y019695D01*
X023184Y019655D01*
X023144D01*
X023184Y019615D01*
X023144Y019575D01*
X023184D01*
X023224Y019535D01*
Y019575D02*
X023244Y019595D01*
X023264D01*
X023244Y019615D01*
X023264Y019635D01*
X023244D01*
X023224Y019655D01*
X023204Y019635D01*
X023184D01*
X023204Y019615D01*
X023184Y019595D01*
X023204D01*
X023224Y019575D01*
X022224Y019535D02*
X022264Y019575D01*
X022304D01*
X022264Y019615D01*
X022304Y019655D01*
X022264D01*
X022224Y019695D01*
X022184Y019655D01*
X022144D01*
X022184Y019615D01*
X022144Y019575D01*
X022184D01*
X022224Y019535D01*
Y019575D02*
X022244Y019595D01*
X022264D01*
X022244Y019615D01*
X022264Y019635D01*
X022244D01*
X022224Y019655D01*
X022204Y019635D01*
X022184D01*
X022204Y019615D01*
X022184Y019595D01*
X022204D01*
X022224Y019575D01*
X021224Y019535D02*
X021264Y019575D01*
X021304D01*
X021264Y019615D01*
X021304Y019655D01*
X021264D01*
X021224Y019695D01*
X021184Y019655D01*
X021144D01*
X021184Y019615D01*
X021144Y019575D01*
X021184D01*
X021224Y019535D01*
Y019575D02*
X021244Y019595D01*
X021264D01*
X021244Y019615D01*
X021264Y019635D01*
X021244D01*
X021224Y019655D01*
X021204Y019635D01*
X021184D01*
X021204Y019615D01*
X021184Y019595D01*
X021204D01*
X021224Y019575D01*
X020224Y019535D02*
X020264Y019575D01*
X020304D01*
X020264Y019615D01*
X020304Y019655D01*
X020264D01*
X020224Y019695D01*
X020184Y019655D01*
X020144D01*
X020184Y019615D01*
X020144Y019575D01*
X020184D01*
X020224Y019535D01*
Y019575D02*
X020244Y019595D01*
X020264D01*
X020244Y019615D01*
X020264Y019635D01*
X020244D01*
X020224Y019655D01*
X020204Y019635D01*
X020184D01*
X020204Y019615D01*
X020184Y019595D01*
X020204D01*
X020224Y019575D01*
X019224Y019535D02*
X019264Y019575D01*
X019304D01*
X019264Y019615D01*
X019304Y019655D01*
X019264D01*
X019224Y019695D01*
X019184Y019655D01*
X019144D01*
X019184Y019615D01*
X019144Y019575D01*
X019184D01*
X019224Y019535D01*
Y019575D02*
X019244Y019595D01*
X019264D01*
X019244Y019615D01*
X019264Y019635D01*
X019244D01*
X019224Y019655D01*
X019204Y019635D01*
X019184D01*
X019204Y019615D01*
X019184Y019595D01*
X019204D01*
X019224Y019575D01*
X031011Y013012D02*
X031051Y013052D01*
X031091D01*
X031051Y013092D01*
X031091Y013132D01*
X031051D01*
X031011Y013172D01*
X030971Y013132D01*
X030931D01*
X030971Y013092D01*
X030931Y013052D01*
X030971D01*
X031011Y013012D01*
Y013052D02*
X031031Y013072D01*
X031051D01*
X031031Y013092D01*
X031051Y013112D01*
X031031D01*
X031011Y013132D01*
X030991Y013112D01*
X030971D01*
X030991Y013092D01*
X030971Y013072D01*
X030991D01*
X031011Y013052D01*
Y0124D02*
X031051Y01244D01*
X031091D01*
X031051Y01248D01*
X031091Y01252D01*
X031051D01*
X031011Y01256D01*
X030971Y01252D01*
X030931D01*
X030971Y01248D01*
X030931Y01244D01*
X030971D01*
X031011Y0124D01*
Y01244D02*
X031031Y01246D01*
X031051D01*
X031031Y01248D01*
X031051Y0125D01*
X031031D01*
X031011Y01252D01*
X030991Y0125D01*
X030971D01*
X030991Y01248D01*
X030971Y01246D01*
X030991D01*
X031011Y01244D01*
X025425Y017392D02*
X025465Y017432D01*
X025505D01*
X025465Y017472D01*
X025505Y017512D01*
X025465D01*
X025425Y017552D01*
X025385Y017512D01*
X025345D01*
X025385Y017472D01*
X025345Y017432D01*
X025385D01*
X025425Y017392D01*
Y017432D02*
X025445Y017452D01*
X025465D01*
X025445Y017472D01*
X025465Y017492D01*
X025445D01*
X025425Y017512D01*
X025405Y017492D01*
X025385D01*
X025405Y017472D01*
X025385Y017452D01*
X025405D01*
X025425Y017432D01*
Y016392D02*
X025465Y016432D01*
X025505D01*
X025465Y016472D01*
X025505Y016512D01*
X025465D01*
X025425Y016552D01*
X025385Y016512D01*
X025345D01*
X025385Y016472D01*
X025345Y016432D01*
X025385D01*
X025425Y016392D01*
Y016432D02*
X025445Y016452D01*
X025465D01*
X025445Y016472D01*
X025465Y016492D01*
X025445D01*
X025425Y016512D01*
X025405Y016492D01*
X025385D01*
X025405Y016472D01*
X025385Y016452D01*
X025405D01*
X025425Y016432D01*
Y015392D02*
X025465Y015432D01*
X025505D01*
X025465Y015472D01*
X025505Y015512D01*
X025465D01*
X025425Y015552D01*
X025385Y015512D01*
X025345D01*
X025385Y015472D01*
X025345Y015432D01*
X025385D01*
X025425Y015392D01*
Y015432D02*
X025445Y015452D01*
X025465D01*
X025445Y015472D01*
X025465Y015492D01*
X025445D01*
X025425Y015512D01*
X025405Y015492D01*
X025385D01*
X025405Y015472D01*
X025385Y015452D01*
X025405D01*
X025425Y015432D01*
X024425Y017392D02*
X024465Y017432D01*
X024505D01*
X024465Y017472D01*
X024505Y017512D01*
X024465D01*
X024425Y017552D01*
X024385Y017512D01*
X024345D01*
X024385Y017472D01*
X024345Y017432D01*
X024385D01*
X024425Y017392D01*
Y017432D02*
X024445Y017452D01*
X024465D01*
X024445Y017472D01*
X024465Y017492D01*
X024445D01*
X024425Y017512D01*
X024405Y017492D01*
X024385D01*
X024405Y017472D01*
X024385Y017452D01*
X024405D01*
X024425Y017432D01*
Y016392D02*
X024465Y016432D01*
X024505D01*
X024465Y016472D01*
X024505Y016512D01*
X024465D01*
X024425Y016552D01*
X024385Y016512D01*
X024345D01*
X024385Y016472D01*
X024345Y016432D01*
X024385D01*
X024425Y016392D01*
Y016432D02*
X024445Y016452D01*
X024465D01*
X024445Y016472D01*
X024465Y016492D01*
X024445D01*
X024425Y016512D01*
X024405Y016492D01*
X024385D01*
X024405Y016472D01*
X024385Y016452D01*
X024405D01*
X024425Y016432D01*
Y015392D02*
X024465Y015432D01*
X024505D01*
X024465Y015472D01*
X024505Y015512D01*
X024465D01*
X024425Y015552D01*
X024385Y015512D01*
X024345D01*
X024385Y015472D01*
X024345Y015432D01*
X024385D01*
X024425Y015392D01*
Y015432D02*
X024445Y015452D01*
X024465D01*
X024445Y015472D01*
X024465Y015492D01*
X024445D01*
X024425Y015512D01*
X024405Y015492D01*
X024385D01*
X024405Y015472D01*
X024385Y015452D01*
X024405D01*
X024425Y015432D01*
X023425Y015392D02*
X023465Y015432D01*
X023505D01*
X023465Y015472D01*
X023505Y015512D01*
X023465D01*
X023425Y015552D01*
X023385Y015512D01*
X023345D01*
X023385Y015472D01*
X023345Y015432D01*
X023385D01*
X023425Y015392D01*
Y015432D02*
X023445Y015452D01*
X023465D01*
X023445Y015472D01*
X023465Y015492D01*
X023445D01*
X023425Y015512D01*
X023405Y015492D01*
X023385D01*
X023405Y015472D01*
X023385Y015452D01*
X023405D01*
X023425Y015432D01*
Y017392D02*
X023465Y017432D01*
X023505D01*
X023465Y017472D01*
X023505Y017512D01*
X023465D01*
X023425Y017552D01*
X023385Y017512D01*
X023345D01*
X023385Y017472D01*
X023345Y017432D01*
X023385D01*
X023425Y017392D01*
Y017432D02*
X023445Y017452D01*
X023465D01*
X023445Y017472D01*
X023465Y017492D01*
X023445D01*
X023425Y017512D01*
X023405Y017492D01*
X023385D01*
X023405Y017472D01*
X023385Y017452D01*
X023405D01*
X023425Y017432D01*
Y016392D02*
X023465Y016432D01*
X023505D01*
X023465Y016472D01*
X023505Y016512D01*
X023465D01*
X023425Y016552D01*
X023385Y016512D01*
X023345D01*
X023385Y016472D01*
X023345Y016432D01*
X023385D01*
X023425Y016392D01*
Y016432D02*
X023445Y016452D01*
X023465D01*
X023445Y016472D01*
X023465Y016492D01*
X023445D01*
X023425Y016512D01*
X023405Y016492D01*
X023385D01*
X023405Y016472D01*
X023385Y016452D01*
X023405D01*
X023425Y016432D01*
X020945Y010707D02*
X020985Y010747D01*
X021025D01*
X020985Y010787D01*
X021025Y010827D01*
X020985D01*
X020945Y010867D01*
X020905Y010827D01*
X020865D01*
X020905Y010787D01*
X020865Y010747D01*
X020905D01*
X020945Y010707D01*
Y010747D02*
X020965Y010767D01*
X020985D01*
X020965Y010787D01*
X020985Y010807D01*
X020965D01*
X020945Y010827D01*
X020925Y010807D01*
X020905D01*
X020925Y010787D01*
X020905Y010767D01*
X020925D01*
X020945Y010747D01*
X020276Y010707D02*
X020316Y010747D01*
X020356D01*
X020316Y010787D01*
X020356Y010827D01*
X020316D01*
X020276Y010867D01*
X020236Y010827D01*
X020196D01*
X020236Y010787D01*
X020196Y010747D01*
X020236D01*
X020276Y010707D01*
Y010747D02*
X020296Y010767D01*
X020316D01*
X020296Y010787D01*
X020316Y010807D01*
X020296D01*
X020276Y010827D01*
X020256Y010807D01*
X020236D01*
X020256Y010787D01*
X020236Y010767D01*
X020256D01*
X020276Y010747D01*
X019606Y013707D02*
X019646Y013747D01*
X019686D01*
X019646Y013787D01*
X019686Y013827D01*
X019646D01*
X019606Y013867D01*
X019566Y013827D01*
X019526D01*
X019566Y013787D01*
X019526Y013747D01*
X019566D01*
X019606Y013707D01*
Y013747D02*
X019626Y013767D01*
X019646D01*
X019626Y013787D01*
X019646Y013807D01*
X019626D01*
X019606Y013827D01*
X019586Y013807D01*
X019566D01*
X019586Y013787D01*
X019566Y013767D01*
X019586D01*
X019606Y013747D01*
Y012707D02*
X019646Y012747D01*
X019686D01*
X019646Y012787D01*
X019686Y012827D01*
X019646D01*
X019606Y012867D01*
X019566Y012827D01*
X019526D01*
X019566Y012787D01*
X019526Y012747D01*
X019566D01*
X019606Y012707D01*
Y012747D02*
X019626Y012767D01*
X019646D01*
X019626Y012787D01*
X019646Y012807D01*
X019626D01*
X019606Y012827D01*
X019586Y012807D01*
X019566D01*
X019586Y012787D01*
X019566Y012767D01*
X019586D01*
X019606Y012747D01*
Y011707D02*
X019646Y011747D01*
X019686D01*
X019646Y011787D01*
X019686Y011827D01*
X019646D01*
X019606Y011867D01*
X019566Y011827D01*
X019526D01*
X019566Y011787D01*
X019526Y011747D01*
X019566D01*
X019606Y011707D01*
Y011747D02*
X019626Y011767D01*
X019646D01*
X019626Y011787D01*
X019646Y011807D01*
X019626D01*
X019606Y011827D01*
X019586Y011807D01*
X019566D01*
X019586Y011787D01*
X019566Y011767D01*
X019586D01*
X019606Y011747D01*
Y010707D02*
X019646Y010747D01*
X019686D01*
X019646Y010787D01*
X019686Y010827D01*
X019646D01*
X019606Y010867D01*
X019566Y010827D01*
X019526D01*
X019566Y010787D01*
X019526Y010747D01*
X019566D01*
X019606Y010707D01*
Y010747D02*
X019626Y010767D01*
X019646D01*
X019626Y010787D01*
X019646Y010807D01*
X019626D01*
X019606Y010827D01*
X019586Y010807D01*
X019566D01*
X019586Y010787D01*
X019566Y010767D01*
X019586D01*
X019606Y010747D01*
X018937Y015707D02*
X018977Y015747D01*
X019017D01*
X018977Y015787D01*
X019017Y015827D01*
X018977D01*
X018937Y015867D01*
X018897Y015827D01*
X018857D01*
X018897Y015787D01*
X018857Y015747D01*
X018897D01*
X018937Y015707D01*
Y015747D02*
X018957Y015767D01*
X018977D01*
X018957Y015787D01*
X018977Y015807D01*
X018957D01*
X018937Y015827D01*
X018917Y015807D01*
X018897D01*
X018917Y015787D01*
X018897Y015767D01*
X018917D01*
X018937Y015747D01*
Y013707D02*
X018977Y013747D01*
X019017D01*
X018977Y013787D01*
X019017Y013827D01*
X018977D01*
X018937Y013867D01*
X018897Y013827D01*
X018857D01*
X018897Y013787D01*
X018857Y013747D01*
X018897D01*
X018937Y013707D01*
Y013747D02*
X018957Y013767D01*
X018977D01*
X018957Y013787D01*
X018977Y013807D01*
X018957D01*
X018937Y013827D01*
X018917Y013807D01*
X018897D01*
X018917Y013787D01*
X018897Y013767D01*
X018917D01*
X018937Y013747D01*
Y012707D02*
X018977Y012747D01*
X019017D01*
X018977Y012787D01*
X019017Y012827D01*
X018977D01*
X018937Y012867D01*
X018897Y012827D01*
X018857D01*
X018897Y012787D01*
X018857Y012747D01*
X018897D01*
X018937Y012707D01*
Y012747D02*
X018957Y012767D01*
X018977D01*
X018957Y012787D01*
X018977Y012807D01*
X018957D01*
X018937Y012827D01*
X018917Y012807D01*
X018897D01*
X018917Y012787D01*
X018897Y012767D01*
X018917D01*
X018937Y012747D01*
Y011707D02*
X018977Y011747D01*
X019017D01*
X018977Y011787D01*
X019017Y011827D01*
X018977D01*
X018937Y011867D01*
X018897Y011827D01*
X018857D01*
X018897Y011787D01*
X018857Y011747D01*
X018897D01*
X018937Y011707D01*
Y011747D02*
X018957Y011767D01*
X018977D01*
X018957Y011787D01*
X018977Y011807D01*
X018957D01*
X018937Y011827D01*
X018917Y011807D01*
X018897D01*
X018917Y011787D01*
X018897Y011767D01*
X018917D01*
X018937Y011747D01*
Y010707D02*
X018977Y010747D01*
X019017D01*
X018977Y010787D01*
X019017Y010827D01*
X018977D01*
X018937Y010867D01*
X018897Y010827D01*
X018857D01*
X018897Y010787D01*
X018857Y010747D01*
X018897D01*
X018937Y010707D01*
Y010747D02*
X018957Y010767D01*
X018977D01*
X018957Y010787D01*
X018977Y010807D01*
X018957D01*
X018937Y010827D01*
X018917Y010807D01*
X018897D01*
X018917Y010787D01*
X018897Y010767D01*
X018917D01*
X018937Y010747D01*
X030472Y017085D02*
X030392Y017245D01*
X030552D01*
X030472Y017085D01*
Y017125D02*
X030432Y017205D01*
X030512D01*
X030472Y017125D01*
X031102Y016692D02*
X031022Y016852D01*
X031182D01*
X031102Y016692D01*
Y016732D02*
X031062Y016812D01*
X031142D01*
X031102Y016732D01*
X031024Y015383D02*
X030944Y015543D01*
X031104D01*
X031024Y015383D01*
Y015423D02*
X030984Y015503D01*
X031064D01*
X031024Y015423D01*
X030391Y01417D02*
X030311Y01433D01*
X030471D01*
X030391Y01417D01*
Y01421D02*
X030351Y01429D01*
X030431D01*
X030391Y01421D01*
X030394Y015392D02*
X030314Y015552D01*
X030474D01*
X030394Y015392D01*
Y015432D02*
X030354Y015512D01*
X030434D01*
X030394Y015432D01*
X031048Y013695D02*
X030968Y013855D01*
X031128D01*
X031048Y013695D01*
Y013735D02*
X031008Y013815D01*
X031088D01*
X031048Y013735D01*
X029717Y012668D02*
X029637Y012828D01*
X029797D01*
X029717Y012668D01*
Y012708D02*
X029677Y012788D01*
X029757D01*
X029717Y012708D01*
X027876Y012681D02*
X027796Y012841D01*
X027956D01*
X027876Y012681D01*
Y012721D02*
X027836Y012801D01*
X027916D01*
X027876Y012721D01*
X025204Y012686D02*
X025124Y012846D01*
X025284D01*
X025204Y012686D01*
Y012726D02*
X025164Y012806D01*
X025244D01*
X025204Y012726D01*
X028661Y0124D02*
X028701Y01244D01*
X028741D01*
X028701Y01248D01*
X028741Y01252D01*
X028701D01*
X028661Y01256D01*
X028621Y01252D01*
X028581D01*
X028621Y01248D01*
X028581Y01244D01*
X028621D01*
X028661Y0124D01*
Y01244D02*
X028681Y01246D01*
X028701D01*
X028681Y01248D01*
X028701Y0125D01*
X028681D01*
X028661Y01252D01*
X028641Y0125D01*
X028621D01*
X028641Y01248D01*
X028621Y01246D01*
X028641D01*
X028661Y01244D01*
X027661Y0124D02*
X027701Y01244D01*
X027741D01*
X027701Y01248D01*
X027741Y01252D01*
X027701D01*
X027661Y01256D01*
X027621Y01252D01*
X027581D01*
X027621Y01248D01*
X027581Y01244D01*
X027621D01*
X027661Y0124D01*
Y01244D02*
X027681Y01246D01*
X027701D01*
X027681Y01248D01*
X027701Y0125D01*
X027681D01*
X027661Y01252D01*
X027641Y0125D01*
X027621D01*
X027641Y01248D01*
X027621Y01246D01*
X027641D01*
X027661Y01244D01*
X026661Y0124D02*
X026701Y01244D01*
X026741D01*
X026701Y01248D01*
X026741Y01252D01*
X026701D01*
X026661Y01256D01*
X026621Y01252D01*
X026581D01*
X026621Y01248D01*
X026581Y01244D01*
X026621D01*
X026661Y0124D01*
Y01244D02*
X026681Y01246D01*
X026701D01*
X026681Y01248D01*
X026701Y0125D01*
X026681D01*
X026661Y01252D01*
X026641Y0125D01*
X026621D01*
X026641Y01248D01*
X026621Y01246D01*
X026641D01*
X026661Y01244D01*
X025661Y0124D02*
X025701Y01244D01*
X025741D01*
X025701Y01248D01*
X025741Y01252D01*
X025701D01*
X025661Y01256D01*
X025621Y01252D01*
X025581D01*
X025621Y01248D01*
X025581Y01244D01*
X025621D01*
X025661Y0124D01*
Y01244D02*
X025681Y01246D01*
X025701D01*
X025681Y01248D01*
X025701Y0125D01*
X025681D01*
X025661Y01252D01*
X025641Y0125D01*
X025621D01*
X025641Y01248D01*
X025621Y01246D01*
X025641D01*
X025661Y01244D01*
X024661Y0124D02*
X024701Y01244D01*
X024741D01*
X024701Y01248D01*
X024741Y01252D01*
X024701D01*
X024661Y01256D01*
X024621Y01252D01*
X024581D01*
X024621Y01248D01*
X024581Y01244D01*
X024621D01*
X024661Y0124D01*
Y01244D02*
X024681Y01246D01*
X024701D01*
X024681Y01248D01*
X024701Y0125D01*
X024681D01*
X024661Y01252D01*
X024641Y0125D01*
X024621D01*
X024641Y01248D01*
X024621Y01246D01*
X024641D01*
X024661Y01244D01*
X023661Y0124D02*
X023701Y01244D01*
X023741D01*
X023701Y01248D01*
X023741Y01252D01*
X023701D01*
X023661Y01256D01*
X023621Y01252D01*
X023581D01*
X023621Y01248D01*
X023581Y01244D01*
X023621D01*
X023661Y0124D01*
Y01244D02*
X023681Y01246D01*
X023701D01*
X023681Y01248D01*
X023701Y0125D01*
X023681D01*
X023661Y01252D01*
X023641Y0125D01*
X023621D01*
X023641Y01248D01*
X023621Y01246D01*
X023641D01*
X023661Y01244D01*
X028673Y011847D02*
X028713Y011887D01*
X028753D01*
X028713Y011927D01*
X028753Y011967D01*
X028713D01*
X028673Y012007D01*
X028633Y011967D01*
X028593D01*
X028633Y011927D01*
X028593Y011887D01*
X028633D01*
X028673Y011847D01*
Y011887D02*
X028693Y011907D01*
X028713D01*
X028693Y011927D01*
X028713Y011947D01*
X028693D01*
X028673Y011967D01*
X028653Y011947D01*
X028633D01*
X028653Y011927D01*
X028633Y011907D01*
X028653D01*
X028673Y011887D01*
X027673Y011847D02*
X027713Y011887D01*
X027753D01*
X027713Y011927D01*
X027753Y011967D01*
X027713D01*
X027673Y012007D01*
X027633Y011967D01*
X027593D01*
X027633Y011927D01*
X027593Y011887D01*
X027633D01*
X027673Y011847D01*
Y011887D02*
X027693Y011907D01*
X027713D01*
X027693Y011927D01*
X027713Y011947D01*
X027693D01*
X027673Y011967D01*
X027653Y011947D01*
X027633D01*
X027653Y011927D01*
X027633Y011907D01*
X027653D01*
X027673Y011887D01*
X026673Y011847D02*
X026713Y011887D01*
X026753D01*
X026713Y011927D01*
X026753Y011967D01*
X026713D01*
X026673Y012007D01*
X026633Y011967D01*
X026593D01*
X026633Y011927D01*
X026593Y011887D01*
X026633D01*
X026673Y011847D01*
Y011887D02*
X026693Y011907D01*
X026713D01*
X026693Y011927D01*
X026713Y011947D01*
X026693D01*
X026673Y011967D01*
X026653Y011947D01*
X026633D01*
X026653Y011927D01*
X026633Y011907D01*
X026653D01*
X026673Y011887D01*
X025673Y011847D02*
X025713Y011887D01*
X025753D01*
X025713Y011927D01*
X025753Y011967D01*
X025713D01*
X025673Y012007D01*
X025633Y011967D01*
X025593D01*
X025633Y011927D01*
X025593Y011887D01*
X025633D01*
X025673Y011847D01*
Y011887D02*
X025693Y011907D01*
X025713D01*
X025693Y011927D01*
X025713Y011947D01*
X025693D01*
X025673Y011967D01*
X025653Y011947D01*
X025633D01*
X025653Y011927D01*
X025633Y011907D01*
X025653D01*
X025673Y011887D01*
X024673Y011847D02*
X024713Y011887D01*
X024753D01*
X024713Y011927D01*
X024753Y011967D01*
X024713D01*
X024673Y012007D01*
X024633Y011967D01*
X024593D01*
X024633Y011927D01*
X024593Y011887D01*
X024633D01*
X024673Y011847D01*
Y011887D02*
X024693Y011907D01*
X024713D01*
X024693Y011927D01*
X024713Y011947D01*
X024693D01*
X024673Y011967D01*
X024653Y011947D01*
X024633D01*
X024653Y011927D01*
X024633Y011907D01*
X024653D01*
X024673Y011887D01*
X029724Y011849D02*
X029764Y011889D01*
X029804D01*
X029764Y011929D01*
X029804Y011969D01*
X029764D01*
X029724Y012009D01*
X029684Y011969D01*
X029644D01*
X029684Y011929D01*
X029644Y011889D01*
X029684D01*
X029724Y011849D01*
Y011889D02*
X029744Y011909D01*
X029764D01*
X029744Y011929D01*
X029764Y011949D01*
X029744D01*
X029724Y011969D01*
X029704Y011949D01*
X029684D01*
X029704Y011929D01*
X029684Y011909D01*
X029704D01*
X029724Y011889D01*
X023673Y011837D02*
X023713Y011877D01*
X023753D01*
X023713Y011917D01*
X023753Y011957D01*
X023713D01*
X023673Y011997D01*
X023633Y011957D01*
X023593D01*
X023633Y011917D01*
X023593Y011877D01*
X023633D01*
X023673Y011837D01*
Y011877D02*
X023693Y011897D01*
X023713D01*
X023693Y011917D01*
X023713Y011937D01*
X023693D01*
X023673Y011957D01*
X023653Y011937D01*
X023633D01*
X023653Y011917D01*
X023633Y011897D01*
X023653D01*
X023673Y011877D01*
X028677Y011298D02*
X028717Y011338D01*
X028757D01*
X028717Y011378D01*
X028757Y011418D01*
X028717D01*
X028677Y011458D01*
X028637Y011418D01*
X028597D01*
X028637Y011378D01*
X028597Y011338D01*
X028637D01*
X028677Y011298D01*
Y011338D02*
X028697Y011358D01*
X028717D01*
X028697Y011378D01*
X028717Y011398D01*
X028697D01*
X028677Y011418D01*
X028657Y011398D01*
X028637D01*
X028657Y011378D01*
X028637Y011358D01*
X028657D01*
X028677Y011338D01*
X027677Y011298D02*
X027717Y011338D01*
X027757D01*
X027717Y011378D01*
X027757Y011418D01*
X027717D01*
X027677Y011458D01*
X027637Y011418D01*
X027597D01*
X027637Y011378D01*
X027597Y011338D01*
X027637D01*
X027677Y011298D01*
Y011338D02*
X027697Y011358D01*
X027717D01*
X027697Y011378D01*
X027717Y011398D01*
X027697D01*
X027677Y011418D01*
X027657Y011398D01*
X027637D01*
X027657Y011378D01*
X027637Y011358D01*
X027657D01*
X027677Y011338D01*
X026677Y011298D02*
X026717Y011338D01*
X026757D01*
X026717Y011378D01*
X026757Y011418D01*
X026717D01*
X026677Y011458D01*
X026637Y011418D01*
X026597D01*
X026637Y011378D01*
X026597Y011338D01*
X026637D01*
X026677Y011298D01*
Y011338D02*
X026697Y011358D01*
X026717D01*
X026697Y011378D01*
X026717Y011398D01*
X026697D01*
X026677Y011418D01*
X026657Y011398D01*
X026637D01*
X026657Y011378D01*
X026637Y011358D01*
X026657D01*
X026677Y011338D01*
X025677Y011298D02*
X025717Y011338D01*
X025757D01*
X025717Y011378D01*
X025757Y011418D01*
X025717D01*
X025677Y011458D01*
X025637Y011418D01*
X025597D01*
X025637Y011378D01*
X025597Y011338D01*
X025637D01*
X025677Y011298D01*
Y011338D02*
X025697Y011358D01*
X025717D01*
X025697Y011378D01*
X025717Y011398D01*
X025697D01*
X025677Y011418D01*
X025657Y011398D01*
X025637D01*
X025657Y011378D01*
X025637Y011358D01*
X025657D01*
X025677Y011338D01*
X024677Y011298D02*
X024717Y011338D01*
X024757D01*
X024717Y011378D01*
X024757Y011418D01*
X024717D01*
X024677Y011458D01*
X024637Y011418D01*
X024597D01*
X024637Y011378D01*
X024597Y011338D01*
X024637D01*
X024677Y011298D01*
Y011338D02*
X024697Y011358D01*
X024717D01*
X024697Y011378D01*
X024717Y011398D01*
X024697D01*
X024677Y011418D01*
X024657Y011398D01*
X024637D01*
X024657Y011378D01*
X024637Y011358D01*
X024657D01*
X024677Y011338D01*
X022677Y011298D02*
X022717Y011338D01*
X022757D01*
X022717Y011378D01*
X022757Y011418D01*
X022717D01*
X022677Y011458D01*
X022637Y011418D01*
X022597D01*
X022637Y011378D01*
X022597Y011338D01*
X022637D01*
X022677Y011298D01*
Y011338D02*
X022697Y011358D01*
X022717D01*
X022697Y011378D01*
X022717Y011398D01*
X022697D01*
X022677Y011418D01*
X022657Y011398D01*
X022637D01*
X022657Y011378D01*
X022637Y011358D01*
X022657D01*
X022677Y011338D01*
X030677Y010786D02*
X030717Y010826D01*
X030757D01*
X030717Y010866D01*
X030757Y010906D01*
X030717D01*
X030677Y010946D01*
X030637Y010906D01*
X030597D01*
X030637Y010866D01*
X030597Y010826D01*
X030637D01*
X030677Y010786D01*
Y010826D02*
X030697Y010846D01*
X030717D01*
X030697Y010866D01*
X030717Y010886D01*
X030697D01*
X030677Y010906D01*
X030657Y010886D01*
X030637D01*
X030657Y010866D01*
X030637Y010846D01*
X030657D01*
X030677Y010826D01*
X028677Y010786D02*
X028717Y010826D01*
X028757D01*
X028717Y010866D01*
X028757Y010906D01*
X028717D01*
X028677Y010946D01*
X028637Y010906D01*
X028597D01*
X028637Y010866D01*
X028597Y010826D01*
X028637D01*
X028677Y010786D01*
Y010826D02*
X028697Y010846D01*
X028717D01*
X028697Y010866D01*
X028717Y010886D01*
X028697D01*
X028677Y010906D01*
X028657Y010886D01*
X028637D01*
X028657Y010866D01*
X028637Y010846D01*
X028657D01*
X028677Y010826D01*
X027677Y010786D02*
X027717Y010826D01*
X027757D01*
X027717Y010866D01*
X027757Y010906D01*
X027717D01*
X027677Y010946D01*
X027637Y010906D01*
X027597D01*
X027637Y010866D01*
X027597Y010826D01*
X027637D01*
X027677Y010786D01*
Y010826D02*
X027697Y010846D01*
X027717D01*
X027697Y010866D01*
X027717Y010886D01*
X027697D01*
X027677Y010906D01*
X027657Y010886D01*
X027637D01*
X027657Y010866D01*
X027637Y010846D01*
X027657D01*
X027677Y010826D01*
X026677Y010786D02*
X026717Y010826D01*
X026757D01*
X026717Y010866D01*
X026757Y010906D01*
X026717D01*
X026677Y010946D01*
X026637Y010906D01*
X026597D01*
X026637Y010866D01*
X026597Y010826D01*
X026637D01*
X026677Y010786D01*
Y010826D02*
X026697Y010846D01*
X026717D01*
X026697Y010866D01*
X026717Y010886D01*
X026697D01*
X026677Y010906D01*
X026657Y010886D01*
X026637D01*
X026657Y010866D01*
X026637Y010846D01*
X026657D01*
X026677Y010826D01*
X025677Y010786D02*
X025717Y010826D01*
X025757D01*
X025717Y010866D01*
X025757Y010906D01*
X025717D01*
X025677Y010946D01*
X025637Y010906D01*
X025597D01*
X025637Y010866D01*
X025597Y010826D01*
X025637D01*
X025677Y010786D01*
Y010826D02*
X025697Y010846D01*
X025717D01*
X025697Y010866D01*
X025717Y010886D01*
X025697D01*
X025677Y010906D01*
X025657Y010886D01*
X025637D01*
X025657Y010866D01*
X025637Y010846D01*
X025657D01*
X025677Y010826D01*
X024677Y010786D02*
X024717Y010826D01*
X024757D01*
X024717Y010866D01*
X024757Y010906D01*
X024717D01*
X024677Y010946D01*
X024637Y010906D01*
X024597D01*
X024637Y010866D01*
X024597Y010826D01*
X024637D01*
X024677Y010786D01*
Y010826D02*
X024697Y010846D01*
X024717D01*
X024697Y010866D01*
X024717Y010886D01*
X024697D01*
X024677Y010906D01*
X024657Y010886D01*
X024637D01*
X024657Y010866D01*
X024637Y010846D01*
X024657D01*
X024677Y010826D01*
X023677Y010786D02*
X023717Y010826D01*
X023757D01*
X023717Y010866D01*
X023757Y010906D01*
X023717D01*
X023677Y010946D01*
X023637Y010906D01*
X023597D01*
X023637Y010866D01*
X023597Y010826D01*
X023637D01*
X023677Y010786D01*
Y010826D02*
X023697Y010846D01*
X023717D01*
X023697Y010866D01*
X023717Y010886D01*
X023697D01*
X023677Y010906D01*
X023657Y010886D01*
X023637D01*
X023657Y010866D01*
X023637Y010846D01*
X023657D01*
X023677Y010826D01*
X022677Y010786D02*
X022717Y010826D01*
X022757D01*
X022717Y010866D01*
X022757Y010906D01*
X022717D01*
X022677Y010946D01*
X022637Y010906D01*
X022597D01*
X022637Y010866D01*
X022597Y010826D01*
X022637D01*
X022677Y010786D01*
Y010826D02*
X022697Y010846D01*
X022717D01*
X022697Y010866D01*
X022717Y010886D01*
X022697D01*
X022677Y010906D01*
X022657Y010886D01*
X022637D01*
X022657Y010866D01*
X022637Y010846D01*
X022657D01*
X022677Y010826D01*
X011929Y048266D02*
X011969Y048306D01*
X012009D01*
X011969Y048346D01*
X012009Y048386D01*
X011969D01*
X011929Y048426D01*
X011889Y048386D01*
X011849D01*
X011889Y048346D01*
X011849Y048306D01*
X011889D01*
X011929Y048266D01*
Y048306D02*
X011949Y048326D01*
X011969D01*
X011949Y048346D01*
X011969Y048366D01*
X011949D01*
X011929Y048386D01*
X011909Y048366D01*
X011889D01*
X011909Y048346D01*
X011889Y048326D01*
X011909D01*
X011929Y048306D01*
X010984Y048266D02*
X011024Y048306D01*
X011064D01*
X011024Y048346D01*
X011064Y048386D01*
X011024D01*
X010984Y048426D01*
X010944Y048386D01*
X010904D01*
X010944Y048346D01*
X010904Y048306D01*
X010944D01*
X010984Y048266D01*
Y048306D02*
X011004Y048326D01*
X011024D01*
X011004Y048346D01*
X011024Y048366D01*
X011004D01*
X010984Y048386D01*
X010964Y048366D01*
X010944D01*
X010964Y048346D01*
X010944Y048326D01*
X010964D01*
X010984Y048306D01*
X011457Y048424D02*
X011497Y048464D01*
X011537D01*
X011497Y048504D01*
X011537Y048544D01*
X011497D01*
X011457Y048584D01*
X011417Y048544D01*
X011377D01*
X011417Y048504D01*
X011377Y048464D01*
X011417D01*
X011457Y048424D01*
Y048464D02*
X011477Y048484D01*
X011497D01*
X011477Y048504D01*
X011497Y048524D01*
X011477D01*
X011457Y048544D01*
X011437Y048524D01*
X011417D01*
X011437Y048504D01*
X011417Y048484D01*
X011437D01*
X011457Y048464D01*
X0122Y047951D02*
X01224Y047991D01*
X01228D01*
X01224Y048032D01*
X01228Y048071D01*
X01224D01*
X0122Y048112D01*
X01216Y048071D01*
X01212D01*
X01216Y048032D01*
X01212Y047991D01*
X01216D01*
X0122Y047951D01*
Y047991D02*
X01222Y048011D01*
X01224D01*
X01222Y048032D01*
X01224Y048052D01*
X01222D01*
X0122Y048071D01*
X01218Y048052D01*
X01216D01*
X01218Y048032D01*
X01216Y048011D01*
X01218D01*
X0122Y047991D01*
X010709Y047951D02*
X010749Y047991D01*
X010789D01*
X010749Y048032D01*
X010789Y048071D01*
X010749D01*
X010709Y048112D01*
X010669Y048071D01*
X010629D01*
X010669Y048032D01*
X010629Y047991D01*
X010669D01*
X010709Y047951D01*
Y047991D02*
X010729Y048011D01*
X010749D01*
X010729Y048032D01*
X010749Y048052D01*
X010729D01*
X010709Y048071D01*
X010689Y048052D01*
X010669D01*
X010689Y048032D01*
X010669Y048011D01*
X010689D01*
X010709Y047991D01*
X012205Y047479D02*
X012245Y047519D01*
X012285D01*
X012245Y047559D01*
X012285Y047599D01*
X012245D01*
X012205Y047639D01*
X012165Y047599D01*
X012125D01*
X012165Y047559D01*
X012125Y047519D01*
X012165D01*
X012205Y047479D01*
Y047519D02*
X012225Y047539D01*
X012245D01*
X012225Y047559D01*
X012245Y047579D01*
X012225D01*
X012205Y047599D01*
X012185Y047579D01*
X012165D01*
X012185Y047559D01*
X012165Y047539D01*
X012185D01*
X012205Y047519D01*
X010713Y047479D02*
X010753Y047519D01*
X010793D01*
X010753Y047559D01*
X010793Y047599D01*
X010753D01*
X010713Y047639D01*
X010673Y047599D01*
X010633D01*
X010673Y047559D01*
X010633Y047519D01*
X010673D01*
X010713Y047479D01*
Y047519D02*
X010733Y047539D01*
X010753D01*
X010733Y047559D01*
X010753Y047579D01*
X010733D01*
X010713Y047599D01*
X010693Y047579D01*
X010673D01*
X010693Y047559D01*
X010673Y047539D01*
X010693D01*
X010713Y047519D01*
X011457Y047007D02*
X011497Y047047D01*
X011537D01*
X011497Y047087D01*
X011537Y047127D01*
X011497D01*
X011457Y047167D01*
X011417Y047127D01*
X011377D01*
X011417Y047087D01*
X011377Y047047D01*
X011417D01*
X011457Y047007D01*
Y047047D02*
X011477Y047067D01*
X011497D01*
X011477Y047087D01*
X011497Y047107D01*
X011477D01*
X011457Y047127D01*
X011437Y047107D01*
X011417D01*
X011437Y047087D01*
X011417Y047067D01*
X011437D01*
X011457Y047047D01*
X011929Y047164D02*
X011969Y047204D01*
X012009D01*
X011969Y047244D01*
X012009Y047284D01*
X011969D01*
X011929Y047324D01*
X011889Y047284D01*
X011849D01*
X011889Y047244D01*
X011849Y047204D01*
X011889D01*
X011929Y047164D01*
Y047204D02*
X011949Y047224D01*
X011969D01*
X011949Y047244D01*
X011969Y047264D01*
X011949D01*
X011929Y047284D01*
X011909Y047264D01*
X011889D01*
X011909Y047244D01*
X011889Y047224D01*
X011909D01*
X011929Y047204D01*
X010984Y047164D02*
X011024Y047204D01*
X011064D01*
X011024Y047244D01*
X011064Y047284D01*
X011024D01*
X010984Y047324D01*
X010944Y047284D01*
X010904D01*
X010944Y047244D01*
X010904Y047204D01*
X010944D01*
X010984Y047164D01*
Y047204D02*
X011004Y047224D01*
X011024D01*
X011004Y047244D01*
X011024Y047264D01*
X011004D01*
X010984Y047284D01*
X010964Y047264D01*
X010944D01*
X010964Y047244D01*
X010944Y047224D01*
X010964D01*
X010984Y047204D01*
X030669Y011849D02*
X030709Y011889D01*
X030749D01*
X030709Y011929D01*
X030749Y011969D01*
X030709D01*
X030669Y012009D01*
X030629Y011969D01*
X030589D01*
X030629Y011929D01*
X030589Y011889D01*
X030629D01*
X030669Y011849D01*
Y011889D02*
X030689Y011909D01*
X030709D01*
X030689Y011929D01*
X030709Y011949D01*
X030689D01*
X030669Y011969D01*
X030649Y011949D01*
X030629D01*
X030649Y011929D01*
X030629Y011909D01*
X030649D01*
X030669Y011889D01*
X030197Y012007D02*
X030237Y012047D01*
X030277D01*
X030237Y012087D01*
X030277Y012127D01*
X030237D01*
X030197Y012167D01*
X030157Y012127D01*
X030117D01*
X030157Y012087D01*
X030117Y012047D01*
X030157D01*
X030197Y012007D01*
Y012047D02*
X030217Y012067D01*
X030237D01*
X030217Y012087D01*
X030237Y012107D01*
X030217D01*
X030197Y012127D01*
X030177Y012107D01*
X030157D01*
X030177Y012087D01*
X030157Y012067D01*
X030177D01*
X030197Y012047D01*
X03094Y011534D02*
X03098Y011574D01*
X03102D01*
X03098Y011614D01*
X03102Y011654D01*
X03098D01*
X03094Y011694D01*
X0309Y011654D01*
X03086D01*
X0309Y011614D01*
X03086Y011574D01*
X0309D01*
X03094Y011534D01*
Y011574D02*
X03096Y011594D01*
X03098D01*
X03096Y011614D01*
X03098Y011634D01*
X03096D01*
X03094Y011654D01*
X03092Y011634D01*
X0309D01*
X03092Y011614D01*
X0309Y011594D01*
X03092D01*
X03094Y011574D01*
X029449Y011534D02*
X029489Y011574D01*
X029529D01*
X029489Y011614D01*
X029529Y011654D01*
X029489D01*
X029449Y011694D01*
X029409Y011654D01*
X029369D01*
X029409Y011614D01*
X029369Y011574D01*
X029409D01*
X029449Y011534D01*
Y011574D02*
X029469Y011594D01*
X029489D01*
X029469Y011614D01*
X029489Y011634D01*
X029469D01*
X029449Y011654D01*
X029429Y011634D01*
X029409D01*
X029429Y011614D01*
X029409Y011594D01*
X029429D01*
X029449Y011574D01*
X030945Y011062D02*
X030985Y011102D01*
X031025D01*
X030985Y011142D01*
X031025Y011182D01*
X030985D01*
X030945Y011222D01*
X030905Y011182D01*
X030865D01*
X030905Y011142D01*
X030865Y011102D01*
X030905D01*
X030945Y011062D01*
Y011102D02*
X030965Y011122D01*
X030985D01*
X030965Y011142D01*
X030985Y011162D01*
X030965D01*
X030945Y011182D01*
X030925Y011162D01*
X030905D01*
X030925Y011142D01*
X030905Y011122D01*
X030925D01*
X030945Y011102D01*
X029453Y011062D02*
X029493Y011102D01*
X029533D01*
X029493Y011142D01*
X029533Y011182D01*
X029493D01*
X029453Y011222D01*
X029413Y011182D01*
X029373D01*
X029413Y011142D01*
X029373Y011102D01*
X029413D01*
X029453Y011062D01*
Y011102D02*
X029473Y011122D01*
X029493D01*
X029473Y011142D01*
X029493Y011162D01*
X029473D01*
X029453Y011182D01*
X029433Y011162D01*
X029413D01*
X029433Y011142D01*
X029413Y011122D01*
X029433D01*
X029453Y011102D01*
X030197Y010589D02*
X030237Y010629D01*
X030277D01*
X030237Y010669D01*
X030277Y010709D01*
X030237D01*
X030197Y010749D01*
X030157Y010709D01*
X030117D01*
X030157Y010669D01*
X030117Y010629D01*
X030157D01*
X030197Y010589D01*
Y010629D02*
X030217Y010649D01*
X030237D01*
X030217Y010669D01*
X030237Y010689D01*
X030217D01*
X030197Y010709D01*
X030177Y010689D01*
X030157D01*
X030177Y010669D01*
X030157Y010649D01*
X030177D01*
X030197Y010629D01*
X030669Y010747D02*
X030709Y010787D01*
X030749D01*
X030709Y010827D01*
X030749Y010867D01*
X030709D01*
X030669Y010907D01*
X030629Y010867D01*
X030589D01*
X030629Y010827D01*
X030589Y010787D01*
X030629D01*
X030669Y010747D01*
Y010787D02*
X030689Y010807D01*
X030709D01*
X030689Y010827D01*
X030709Y010847D01*
X030689D01*
X030669Y010867D01*
X030649Y010847D01*
X030629D01*
X030649Y010827D01*
X030629Y010807D01*
X030649D01*
X030669Y010787D01*
X029724Y010747D02*
X029764Y010787D01*
X029804D01*
X029764Y010827D01*
X029804Y010867D01*
X029764D01*
X029724Y010907D01*
X029684Y010867D01*
X029644D01*
X029684Y010827D01*
X029644Y010787D01*
X029684D01*
X029724Y010747D01*
Y010787D02*
X029744Y010807D01*
X029764D01*
X029744Y010827D01*
X029764Y010847D01*
X029744D01*
X029724Y010867D01*
X029704Y010847D01*
X029684D01*
X029704Y010827D01*
X029684Y010807D01*
X029704D01*
X029724Y010787D01*
X010945Y010707D02*
X010985Y010747D01*
X011025D01*
X010985Y010787D01*
X011025Y010827D01*
X010985D01*
X010945Y010867D01*
X010905Y010827D01*
X010865D01*
X010905Y010787D01*
X010865Y010747D01*
X010905D01*
X010945Y010707D01*
Y010747D02*
X010965Y010767D01*
X010985D01*
X010965Y010787D01*
X010985Y010807D01*
X010965D01*
X010945Y010827D01*
X010925Y010807D01*
X010905D01*
X010925Y010787D01*
X010905Y010767D01*
X010925D01*
X010945Y010747D01*
X01189Y010707D02*
X01193Y010747D01*
X01197D01*
X01193Y010787D01*
X01197Y010827D01*
X01193D01*
X01189Y010867D01*
X01185Y010827D01*
X01181D01*
X01185Y010787D01*
X01181Y010747D01*
X01185D01*
X01189Y010707D01*
Y010747D02*
X01191Y010767D01*
X01193D01*
X01191Y010787D01*
X01193Y010807D01*
X01191D01*
X01189Y010827D01*
X01187Y010807D01*
X01185D01*
X01187Y010787D01*
X01185Y010767D01*
X01187D01*
X01189Y010747D01*
X011417Y01055D02*
X011457Y01059D01*
X011497D01*
X011457Y01063D01*
X011497Y01067D01*
X011457D01*
X011417Y01071D01*
X011377Y01067D01*
X011337D01*
X011377Y01063D01*
X011337Y01059D01*
X011377D01*
X011417Y01055D01*
Y01059D02*
X011437Y01061D01*
X011457D01*
X011437Y01063D01*
X011457Y01065D01*
X011437D01*
X011417Y01067D01*
X011397Y01065D01*
X011377D01*
X011397Y01063D01*
X011377Y01061D01*
X011397D01*
X011417Y01059D01*
X010674Y011022D02*
X010714Y011062D01*
X010754D01*
X010714Y011102D01*
X010754Y011142D01*
X010714D01*
X010674Y011182D01*
X010634Y011142D01*
X010594D01*
X010634Y011102D01*
X010594Y011062D01*
X010634D01*
X010674Y011022D01*
Y011062D02*
X010694Y011082D01*
X010714D01*
X010694Y011102D01*
X010714Y011122D01*
X010694D01*
X010674Y011142D01*
X010654Y011122D01*
X010634D01*
X010654Y011102D01*
X010634Y011082D01*
X010654D01*
X010674Y011062D01*
X012165Y011022D02*
X012205Y011062D01*
X012245D01*
X012205Y011102D01*
X012245Y011142D01*
X012205D01*
X012165Y011182D01*
X012125Y011142D01*
X012085D01*
X012125Y011102D01*
X012085Y011062D01*
X012125D01*
X012165Y011022D01*
Y011062D02*
X012185Y011082D01*
X012205D01*
X012185Y011102D01*
X012205Y011122D01*
X012185D01*
X012165Y011142D01*
X012145Y011122D01*
X012125D01*
X012145Y011102D01*
X012125Y011082D01*
X012145D01*
X012165Y011062D01*
X031102Y010274D02*
X031142Y010314D01*
X031182D01*
X031142Y010354D01*
X031182Y010394D01*
X031142D01*
X031102Y010434D01*
X031062Y010394D01*
X031022D01*
X031062Y010354D01*
X031022Y010314D01*
X031062D01*
X031102Y010274D01*
Y010314D02*
X031122Y010334D01*
X031142D01*
X031122Y010354D01*
X031142Y010374D01*
X031122D01*
X031102Y010394D01*
X031082Y010374D01*
X031062D01*
X031082Y010354D01*
X031062Y010334D01*
X031082D01*
X031102Y010314D01*
X029283Y010274D02*
X029323Y010314D01*
X029363D01*
X029323Y010354D01*
X029363Y010394D01*
X029323D01*
X029283Y010434D01*
X029243Y010394D01*
X029203D01*
X029243Y010354D01*
X029203Y010314D01*
X029243D01*
X029283Y010274D01*
Y010314D02*
X029303Y010334D01*
X029323D01*
X029303Y010354D01*
X029323Y010374D01*
X029303D01*
X029283Y010394D01*
X029263Y010374D01*
X029243D01*
X029263Y010354D01*
X029243Y010334D01*
X029263D01*
X029283Y010314D01*
X028283Y010274D02*
X028323Y010314D01*
X028363D01*
X028323Y010354D01*
X028363Y010394D01*
X028323D01*
X028283Y010434D01*
X028243Y010394D01*
X028203D01*
X028243Y010354D01*
X028203Y010314D01*
X028243D01*
X028283Y010274D01*
Y010314D02*
X028303Y010334D01*
X028323D01*
X028303Y010354D01*
X028323Y010374D01*
X028303D01*
X028283Y010394D01*
X028263Y010374D01*
X028243D01*
X028263Y010354D01*
X028243Y010334D01*
X028263D01*
X028283Y010314D01*
X027283Y010274D02*
X027323Y010314D01*
X027363D01*
X027323Y010354D01*
X027363Y010394D01*
X027323D01*
X027283Y010434D01*
X027243Y010394D01*
X027203D01*
X027243Y010354D01*
X027203Y010314D01*
X027243D01*
X027283Y010274D01*
Y010314D02*
X027303Y010334D01*
X027323D01*
X027303Y010354D01*
X027323Y010374D01*
X027303D01*
X027283Y010394D01*
X027263Y010374D01*
X027243D01*
X027263Y010354D01*
X027243Y010334D01*
X027263D01*
X027283Y010314D01*
X026283Y010274D02*
X026323Y010314D01*
X026363D01*
X026323Y010354D01*
X026363Y010394D01*
X026323D01*
X026283Y010434D01*
X026243Y010394D01*
X026203D01*
X026243Y010354D01*
X026203Y010314D01*
X026243D01*
X026283Y010274D01*
Y010314D02*
X026303Y010334D01*
X026323D01*
X026303Y010354D01*
X026323Y010374D01*
X026303D01*
X026283Y010394D01*
X026263Y010374D01*
X026243D01*
X026263Y010354D01*
X026243Y010334D01*
X026263D01*
X026283Y010314D01*
X025283Y010274D02*
X025323Y010314D01*
X025363D01*
X025323Y010354D01*
X025363Y010394D01*
X025323D01*
X025283Y010434D01*
X025243Y010394D01*
X025203D01*
X025243Y010354D01*
X025203Y010314D01*
X025243D01*
X025283Y010274D01*
Y010314D02*
X025303Y010334D01*
X025323D01*
X025303Y010354D01*
X025323Y010374D01*
X025303D01*
X025283Y010394D01*
X025263Y010374D01*
X025243D01*
X025263Y010354D01*
X025243Y010334D01*
X025263D01*
X025283Y010314D01*
X024283Y010274D02*
X024323Y010314D01*
X024363D01*
X024323Y010354D01*
X024363Y010394D01*
X024323D01*
X024283Y010434D01*
X024243Y010394D01*
X024203D01*
X024243Y010354D01*
X024203Y010314D01*
X024243D01*
X024283Y010274D01*
Y010314D02*
X024303Y010334D01*
X024323D01*
X024303Y010354D01*
X024323Y010374D01*
X024303D01*
X024283Y010394D01*
X024263Y010374D01*
X024243D01*
X024263Y010354D01*
X024243Y010334D01*
X024263D01*
X024283Y010314D01*
X023283Y010274D02*
X023323Y010314D01*
X023363D01*
X023323Y010354D01*
X023363Y010394D01*
X023323D01*
X023283Y010434D01*
X023243Y010394D01*
X023203D01*
X023243Y010354D01*
X023203Y010314D01*
X023243D01*
X023283Y010274D01*
Y010314D02*
X023303Y010334D01*
X023323D01*
X023303Y010354D01*
X023323Y010374D01*
X023303D01*
X023283Y010394D01*
X023263Y010374D01*
X023243D01*
X023263Y010354D01*
X023243Y010334D01*
X023263D01*
X023283Y010314D01*
X022283Y010274D02*
X022323Y010314D01*
X022363D01*
X022323Y010354D01*
X022363Y010394D01*
X022323D01*
X022283Y010434D01*
X022243Y010394D01*
X022203D01*
X022243Y010354D01*
X022203Y010314D01*
X022243D01*
X022283Y010274D01*
Y010314D02*
X022303Y010334D01*
X022323D01*
X022303Y010354D01*
X022323Y010374D01*
X022303D01*
X022283Y010394D01*
X022263Y010374D01*
X022243D01*
X022263Y010354D01*
X022243Y010334D01*
X022263D01*
X022283Y010314D01*
X021283Y010274D02*
X021323Y010314D01*
X021363D01*
X021323Y010354D01*
X021363Y010394D01*
X021323D01*
X021283Y010434D01*
X021243Y010394D01*
X021203D01*
X021243Y010354D01*
X021203Y010314D01*
X021243D01*
X021283Y010274D01*
Y010314D02*
X021303Y010334D01*
X021323D01*
X021303Y010354D01*
X021323Y010374D01*
X021303D01*
X021283Y010394D01*
X021263Y010374D01*
X021243D01*
X021263Y010354D01*
X021243Y010334D01*
X021263D01*
X021283Y010314D01*
X020283Y010274D02*
X020323Y010314D01*
X020363D01*
X020323Y010354D01*
X020363Y010394D01*
X020323D01*
X020283Y010434D01*
X020243Y010394D01*
X020203D01*
X020243Y010354D01*
X020203Y010314D01*
X020243D01*
X020283Y010274D01*
Y010314D02*
X020303Y010334D01*
X020323D01*
X020303Y010354D01*
X020323Y010374D01*
X020303D01*
X020283Y010394D01*
X020263Y010374D01*
X020243D01*
X020263Y010354D01*
X020243Y010334D01*
X020263D01*
X020283Y010314D01*
X019283Y010274D02*
X019323Y010314D01*
X019363D01*
X019323Y010354D01*
X019363Y010394D01*
X019323D01*
X019283Y010434D01*
X019243Y010394D01*
X019203D01*
X019243Y010354D01*
X019203Y010314D01*
X019243D01*
X019283Y010274D01*
Y010314D02*
X019303Y010334D01*
X019323D01*
X019303Y010354D01*
X019323Y010374D01*
X019303D01*
X019283Y010394D01*
X019263Y010374D01*
X019243D01*
X019263Y010354D01*
X019243Y010334D01*
X019263D01*
X019283Y010314D01*
X018283Y010274D02*
X018323Y010314D01*
X018363D01*
X018323Y010354D01*
X018363Y010394D01*
X018323D01*
X018283Y010434D01*
X018243Y010394D01*
X018203D01*
X018243Y010354D01*
X018203Y010314D01*
X018243D01*
X018283Y010274D01*
Y010314D02*
X018303Y010334D01*
X018323D01*
X018303Y010354D01*
X018323Y010374D01*
X018303D01*
X018283Y010394D01*
X018263Y010374D01*
X018243D01*
X018263Y010354D01*
X018243Y010334D01*
X018263D01*
X018283Y010314D01*
X017283Y010274D02*
X017323Y010314D01*
X017363D01*
X017323Y010354D01*
X017363Y010394D01*
X017323D01*
X017283Y010434D01*
X017243Y010394D01*
X017203D01*
X017243Y010354D01*
X017203Y010314D01*
X017243D01*
X017283Y010274D01*
Y010314D02*
X017303Y010334D01*
X017323D01*
X017303Y010354D01*
X017323Y010374D01*
X017303D01*
X017283Y010394D01*
X017263Y010374D01*
X017243D01*
X017263Y010354D01*
X017243Y010334D01*
X017263D01*
X017283Y010314D01*
X016283Y010274D02*
X016323Y010314D01*
X016363D01*
X016323Y010354D01*
X016363Y010394D01*
X016323D01*
X016283Y010434D01*
X016243Y010394D01*
X016203D01*
X016243Y010354D01*
X016203Y010314D01*
X016243D01*
X016283Y010274D01*
Y010314D02*
X016303Y010334D01*
X016323D01*
X016303Y010354D01*
X016323Y010374D01*
X016303D01*
X016283Y010394D01*
X016263Y010374D01*
X016243D01*
X016263Y010354D01*
X016243Y010334D01*
X016263D01*
X016283Y010314D01*
X015283Y010274D02*
X015323Y010314D01*
X015363D01*
X015323Y010354D01*
X015363Y010394D01*
X015323D01*
X015283Y010434D01*
X015243Y010394D01*
X015203D01*
X015243Y010354D01*
X015203Y010314D01*
X015243D01*
X015283Y010274D01*
Y010314D02*
X015303Y010334D01*
X015323D01*
X015303Y010354D01*
X015323Y010374D01*
X015303D01*
X015283Y010394D01*
X015263Y010374D01*
X015243D01*
X015263Y010354D01*
X015243Y010334D01*
X015263D01*
X015283Y010314D01*
X014283Y010274D02*
X014323Y010314D01*
X014363D01*
X014323Y010354D01*
X014363Y010394D01*
X014323D01*
X014283Y010434D01*
X014243Y010394D01*
X014203D01*
X014243Y010354D01*
X014203Y010314D01*
X014243D01*
X014283Y010274D01*
Y010314D02*
X014303Y010334D01*
X014323D01*
X014303Y010354D01*
X014323Y010374D01*
X014303D01*
X014283Y010394D01*
X014263Y010374D01*
X014243D01*
X014263Y010354D01*
X014243Y010334D01*
X014263D01*
X014283Y010314D01*
X013283Y010274D02*
X013323Y010314D01*
X013363D01*
X013323Y010354D01*
X013363Y010394D01*
X013323D01*
X013283Y010434D01*
X013243Y010394D01*
X013203D01*
X013243Y010354D01*
X013203Y010314D01*
X013243D01*
X013283Y010274D01*
Y010314D02*
X013303Y010334D01*
X013323D01*
X013303Y010354D01*
X013323Y010374D01*
X013303D01*
X013283Y010394D01*
X013263Y010374D01*
X013243D01*
X013263Y010354D01*
X013243Y010334D01*
X013263D01*
X013283Y010314D01*
X010669Y011495D02*
X010709Y011535D01*
X010749D01*
X010709Y011575D01*
X010749Y011615D01*
X010709D01*
X010669Y011655D01*
X010629Y011615D01*
X010589D01*
X010629Y011575D01*
X010589Y011535D01*
X010629D01*
X010669Y011495D01*
Y011535D02*
X010689Y011555D01*
X010709D01*
X010689Y011575D01*
X010709Y011595D01*
X010689D01*
X010669Y011615D01*
X010649Y011595D01*
X010629D01*
X010649Y011575D01*
X010629Y011555D01*
X010649D01*
X010669Y011535D01*
X012283Y010274D02*
X012323Y010314D01*
X012363D01*
X012323Y010354D01*
X012363Y010394D01*
X012323D01*
X012283Y010434D01*
X012243Y010394D01*
X012203D01*
X012243Y010354D01*
X012203Y010314D01*
X012243D01*
X012283Y010274D01*
Y010314D02*
X012303Y010334D01*
X012323D01*
X012303Y010354D01*
X012323Y010374D01*
X012303D01*
X012283Y010394D01*
X012263Y010374D01*
X012243D01*
X012263Y010354D01*
X012243Y010334D01*
X012263D01*
X012283Y010314D01*
X01063Y010274D02*
X01067Y010314D01*
X01071D01*
X01067Y010354D01*
X01071Y010394D01*
X01067D01*
X01063Y010434D01*
X01059Y010394D01*
X01055D01*
X01059Y010354D01*
X01055Y010314D01*
X01059D01*
X01063Y010274D01*
Y010314D02*
X01065Y010334D01*
X01067D01*
X01065Y010354D01*
X01067Y010374D01*
X01065D01*
X01063Y010394D01*
X01061Y010374D01*
X01059D01*
X01061Y010354D01*
X01059Y010334D01*
X01061D01*
X01063Y010314D01*
X013665Y012518D02*
X013705Y012558D01*
X013745D01*
X013705Y012598D01*
X013745Y012638D01*
X013705D01*
X013665Y012678D01*
X013625Y012638D01*
X013585D01*
X013625Y012598D01*
X013585Y012558D01*
X013625D01*
X013665Y012518D01*
Y012558D02*
X013685Y012578D01*
X013705D01*
X013685Y012598D01*
X013705Y012618D01*
X013685D01*
X013665Y012638D01*
X013645Y012618D01*
X013625D01*
X013645Y012598D01*
X013625Y012578D01*
X013645D01*
X013665Y012558D01*
Y013448D02*
X013705Y013488D01*
X013745D01*
X013705Y013528D01*
X013745Y013568D01*
X013705D01*
X013665Y013608D01*
X013625Y013568D01*
X013585D01*
X013625Y013528D01*
X013585Y013488D01*
X013625D01*
X013665Y013448D01*
Y013488D02*
X013685Y013508D01*
X013705D01*
X013685Y013528D01*
X013705Y013548D01*
X013685D01*
X013665Y013568D01*
X013645Y013548D01*
X013625D01*
X013645Y013528D01*
X013625Y013508D01*
X013645D01*
X013665Y013488D01*
Y014448D02*
X013705Y014488D01*
X013745D01*
X013705Y014528D01*
X013745Y014568D01*
X013705D01*
X013665Y014608D01*
X013625Y014568D01*
X013585D01*
X013625Y014528D01*
X013585Y014488D01*
X013625D01*
X013665Y014448D01*
Y014488D02*
X013685Y014508D01*
X013705D01*
X013685Y014528D01*
X013705Y014548D01*
X013685D01*
X013665Y014568D01*
X013645Y014548D01*
X013625D01*
X013645Y014528D01*
X013625Y014508D01*
X013645D01*
X013665Y014488D01*
Y015448D02*
X013705Y015488D01*
X013745D01*
X013705Y015528D01*
X013745Y015568D01*
X013705D01*
X013665Y015608D01*
X013625Y015568D01*
X013585D01*
X013625Y015528D01*
X013585Y015488D01*
X013625D01*
X013665Y015448D01*
Y015488D02*
X013685Y015508D01*
X013705D01*
X013685Y015528D01*
X013705Y015548D01*
X013685D01*
X013665Y015568D01*
X013645Y015548D01*
X013625D01*
X013645Y015528D01*
X013625Y015508D01*
X013645D01*
X013665Y015488D01*
Y016448D02*
X013705Y016488D01*
X013745D01*
X013705Y016528D01*
X013745Y016568D01*
X013705D01*
X013665Y016608D01*
X013625Y016568D01*
X013585D01*
X013625Y016528D01*
X013585Y016488D01*
X013625D01*
X013665Y016448D01*
Y016488D02*
X013685Y016508D01*
X013705D01*
X013685Y016528D01*
X013705Y016548D01*
X013685D01*
X013665Y016568D01*
X013645Y016548D01*
X013625D01*
X013645Y016528D01*
X013625Y016508D01*
X013645D01*
X013665Y016488D01*
Y017448D02*
X013705Y017488D01*
X013745D01*
X013705Y017528D01*
X013745Y017568D01*
X013705D01*
X013665Y017608D01*
X013625Y017568D01*
X013585D01*
X013625Y017528D01*
X013585Y017488D01*
X013625D01*
X013665Y017448D01*
Y017488D02*
X013685Y017508D01*
X013705D01*
X013685Y017528D01*
X013705Y017548D01*
X013685D01*
X013665Y017568D01*
X013645Y017548D01*
X013625D01*
X013645Y017528D01*
X013625Y017508D01*
X013645D01*
X013665Y017488D01*
X012669Y012518D02*
X012709Y012558D01*
X012749D01*
X012709Y012598D01*
X012749Y012638D01*
X012709D01*
X012669Y012678D01*
X012629Y012638D01*
X012589D01*
X012629Y012598D01*
X012589Y012558D01*
X012629D01*
X012669Y012518D01*
Y012558D02*
X012689Y012578D01*
X012709D01*
X012689Y012598D01*
X012709Y012618D01*
X012689D01*
X012669Y012638D01*
X012649Y012618D01*
X012629D01*
X012649Y012598D01*
X012629Y012578D01*
X012649D01*
X012669Y012558D01*
Y013447D02*
X012709Y013487D01*
X012749D01*
X012709Y013527D01*
X012749Y013567D01*
X012709D01*
X012669Y013607D01*
X012629Y013567D01*
X012589D01*
X012629Y013527D01*
X012589Y013487D01*
X012629D01*
X012669Y013447D01*
Y013487D02*
X012689Y013507D01*
X012709D01*
X012689Y013527D01*
X012709Y013547D01*
X012689D01*
X012669Y013567D01*
X012649Y013547D01*
X012629D01*
X012649Y013527D01*
X012629Y013507D01*
X012649D01*
X012669Y013487D01*
Y014448D02*
X012709Y014488D01*
X012749D01*
X012709Y014528D01*
X012749Y014568D01*
X012709D01*
X012669Y014608D01*
X012629Y014568D01*
X012589D01*
X012629Y014528D01*
X012589Y014488D01*
X012629D01*
X012669Y014448D01*
Y014488D02*
X012689Y014508D01*
X012709D01*
X012689Y014528D01*
X012709Y014548D01*
X012689D01*
X012669Y014568D01*
X012649Y014548D01*
X012629D01*
X012649Y014528D01*
X012629Y014508D01*
X012649D01*
X012669Y014488D01*
Y015448D02*
X012709Y015488D01*
X012749D01*
X012709Y015528D01*
X012749Y015568D01*
X012709D01*
X012669Y015608D01*
X012629Y015568D01*
X012589D01*
X012629Y015528D01*
X012589Y015488D01*
X012629D01*
X012669Y015448D01*
Y015488D02*
X012689Y015508D01*
X012709D01*
X012689Y015528D01*
X012709Y015548D01*
X012689D01*
X012669Y015568D01*
X012649Y015548D01*
X012629D01*
X012649Y015528D01*
X012629Y015508D01*
X012649D01*
X012669Y015488D01*
Y016448D02*
X012709Y016488D01*
X012749D01*
X012709Y016528D01*
X012749Y016568D01*
X012709D01*
X012669Y016608D01*
X012629Y016568D01*
X012589D01*
X012629Y016528D01*
X012589Y016488D01*
X012629D01*
X012669Y016448D01*
Y016488D02*
X012689Y016508D01*
X012709D01*
X012689Y016528D01*
X012709Y016548D01*
X012689D01*
X012669Y016568D01*
X012649Y016548D01*
X012629D01*
X012649Y016528D01*
X012629Y016508D01*
X012649D01*
X012669Y016488D01*
X011666Y012518D02*
X011706Y012558D01*
X011746D01*
X011706Y012598D01*
X011746Y012638D01*
X011706D01*
X011666Y012678D01*
X011626Y012638D01*
X011586D01*
X011626Y012598D01*
X011586Y012558D01*
X011626D01*
X011666Y012518D01*
Y012558D02*
X011686Y012578D01*
X011706D01*
X011686Y012598D01*
X011706Y012618D01*
X011686D01*
X011666Y012638D01*
X011646Y012618D01*
X011626D01*
X011646Y012598D01*
X011626Y012578D01*
X011646D01*
X011666Y012558D01*
X012161Y011495D02*
X012201Y011535D01*
X012241D01*
X012201Y011575D01*
X012241Y011615D01*
X012201D01*
X012161Y011655D01*
X012121Y011615D01*
X012081D01*
X012121Y011575D01*
X012081Y011535D01*
X012121D01*
X012161Y011495D01*
Y011535D02*
X012181Y011555D01*
X012201D01*
X012181Y011575D01*
X012201Y011595D01*
X012181D01*
X012161Y011615D01*
X012141Y011595D01*
X012121D01*
X012141Y011575D01*
X012121Y011555D01*
X012141D01*
X012161Y011535D01*
X011666Y013447D02*
X011706Y013487D01*
X011746D01*
X011706Y013527D01*
X011746Y013567D01*
X011706D01*
X011666Y013607D01*
X011626Y013567D01*
X011586D01*
X011626Y013527D01*
X011586Y013487D01*
X011626D01*
X011666Y013447D01*
Y013487D02*
X011686Y013507D01*
X011706D01*
X011686Y013527D01*
X011706Y013547D01*
X011686D01*
X011666Y013567D01*
X011646Y013547D01*
X011626D01*
X011646Y013527D01*
X011626Y013507D01*
X011646D01*
X011666Y013487D01*
Y014448D02*
X011706Y014488D01*
X011746D01*
X011706Y014528D01*
X011746Y014568D01*
X011706D01*
X011666Y014608D01*
X011626Y014568D01*
X011586D01*
X011626Y014528D01*
X011586Y014488D01*
X011626D01*
X011666Y014448D01*
Y014488D02*
X011686Y014508D01*
X011706D01*
X011686Y014528D01*
X011706Y014548D01*
X011686D01*
X011666Y014568D01*
X011646Y014548D01*
X011626D01*
X011646Y014528D01*
X011626Y014508D01*
X011646D01*
X011666Y014488D01*
Y015448D02*
X011706Y015488D01*
X011746D01*
X011706Y015528D01*
X011746Y015568D01*
X011706D01*
X011666Y015608D01*
X011626Y015568D01*
X011586D01*
X011626Y015528D01*
X011586Y015488D01*
X011626D01*
X011666Y015448D01*
Y015488D02*
X011686Y015508D01*
X011706D01*
X011686Y015528D01*
X011706Y015548D01*
X011686D01*
X011666Y015568D01*
X011646Y015548D01*
X011626D01*
X011646Y015528D01*
X011626Y015508D01*
X011646D01*
X011666Y015488D01*
Y016448D02*
X011706Y016488D01*
X011746D01*
X011706Y016528D01*
X011746Y016568D01*
X011706D01*
X011666Y016608D01*
X011626Y016568D01*
X011586D01*
X011626Y016528D01*
X011586Y016488D01*
X011626D01*
X011666Y016448D01*
Y016488D02*
X011686Y016508D01*
X011706D01*
X011686Y016528D01*
X011706Y016548D01*
X011686D01*
X011666Y016568D01*
X011646Y016548D01*
X011626D01*
X011646Y016528D01*
X011626Y016508D01*
X011646D01*
X011666Y016488D01*
Y017422D02*
X011706Y017462D01*
X011746D01*
X011706Y017502D01*
X011746Y017542D01*
X011706D01*
X011666Y017582D01*
X011626Y017542D01*
X011586D01*
X011626Y017502D01*
X011586Y017462D01*
X011626D01*
X011666Y017422D01*
Y017462D02*
X011686Y017482D01*
X011706D01*
X011686Y017502D01*
X011706Y017522D01*
X011686D01*
X011666Y017542D01*
X011646Y017522D01*
X011626D01*
X011646Y017502D01*
X011626Y017482D01*
X011646D01*
X011666Y017462D01*
X013669Y017422D02*
X013709Y017462D01*
X013749D01*
X013709Y017502D01*
X013749Y017542D01*
X013709D01*
X013669Y017582D01*
X013629Y017542D01*
X013589D01*
X013629Y017502D01*
X013589Y017462D01*
X013629D01*
X013669Y017422D01*
Y017462D02*
X013689Y017482D01*
X013709D01*
X013689Y017502D01*
X013709Y017522D01*
X013689D01*
X013669Y017542D01*
X013649Y017522D01*
X013629D01*
X013649Y017502D01*
X013629Y017482D01*
X013649D01*
X013669Y017462D01*
X012669Y017422D02*
X012709Y017462D01*
X012749D01*
X012709Y017502D01*
X012749Y017542D01*
X012709D01*
X012669Y017582D01*
X012629Y017542D01*
X012589D01*
X012629Y017502D01*
X012589Y017462D01*
X012629D01*
X012669Y017422D01*
Y017462D02*
X012689Y017482D01*
X012709D01*
X012689Y017502D01*
X012709Y017522D01*
X012689D01*
X012669Y017542D01*
X012649Y017522D01*
X012629D01*
X012649Y017502D01*
X012629Y017482D01*
X012649D01*
X012669Y017462D01*
X011669Y017422D02*
X011709Y017462D01*
X011749D01*
X011709Y017502D01*
X011749Y017542D01*
X011709D01*
X011669Y017582D01*
X011629Y017542D01*
X011589D01*
X011629Y017502D01*
X011589Y017462D01*
X011629D01*
X011669Y017422D01*
Y017462D02*
X011689Y017482D01*
X011709D01*
X011689Y017502D01*
X011709Y017522D01*
X011689D01*
X011669Y017542D01*
X011649Y017522D01*
X011629D01*
X011649Y017502D01*
X011629Y017482D01*
X011649D01*
X011669Y017462D01*
X010669Y017422D02*
X010709Y017462D01*
X010749D01*
X010709Y017502D01*
X010749Y017542D01*
X010709D01*
X010669Y017582D01*
X010629Y017542D01*
X010589D01*
X010629Y017502D01*
X010589Y017462D01*
X010629D01*
X010669Y017422D01*
Y017462D02*
X010689Y017482D01*
X010709D01*
X010689Y017502D01*
X010709Y017522D01*
X010689D01*
X010669Y017542D01*
X010649Y017522D01*
X010629D01*
X010649Y017502D01*
X010629Y017482D01*
X010649D01*
X010669Y017462D01*
X011417Y011967D02*
X011457Y012007D01*
X011497D01*
X011457Y012047D01*
X011497Y012087D01*
X011457D01*
X011417Y012127D01*
X011377Y012087D01*
X011337D01*
X011377Y012047D01*
X011337Y012007D01*
X011377D01*
X011417Y011967D01*
Y012007D02*
X011437Y012027D01*
X011457D01*
X011437Y012047D01*
X011457Y012067D01*
X011437D01*
X011417Y012087D01*
X011397Y012067D01*
X011377D01*
X011397Y012047D01*
X011377Y012027D01*
X011397D01*
X011417Y012007D01*
X010945Y01181D02*
X010985Y01185D01*
X011025D01*
X010985Y01189D01*
X011025Y01193D01*
X010985D01*
X010945Y01197D01*
X010905Y01193D01*
X010865D01*
X010905Y01189D01*
X010865Y01185D01*
X010905D01*
X010945Y01181D01*
Y01185D02*
X010965Y01187D01*
X010985D01*
X010965Y01189D01*
X010985Y01191D01*
X010965D01*
X010945Y01193D01*
X010925Y01191D01*
X010905D01*
X010925Y01189D01*
X010905Y01187D01*
X010925D01*
X010945Y01185D01*
X01189Y01181D02*
X01193Y01185D01*
X01197D01*
X01193Y01189D01*
X01197Y01193D01*
X01193D01*
X01189Y01197D01*
X01185Y01193D01*
X01181D01*
X01185Y01189D01*
X01181Y01185D01*
X01185D01*
X01189Y01181D01*
Y01185D02*
X01191Y01187D01*
X01193D01*
X01191Y01189D01*
X01193Y01191D01*
X01191D01*
X01189Y01193D01*
X01187Y01191D01*
X01185D01*
X01187Y01189D01*
X01185Y01187D01*
X01187D01*
X01189Y01185D01*
X010669Y012518D02*
X010709Y012558D01*
X010749D01*
X010709Y012598D01*
X010749Y012638D01*
X010709D01*
X010669Y012678D01*
X010629Y012638D01*
X010589D01*
X010629Y012598D01*
X010589Y012558D01*
X010629D01*
X010669Y012518D01*
Y012558D02*
X010689Y012578D01*
X010709D01*
X010689Y012598D01*
X010709Y012618D01*
X010689D01*
X010669Y012638D01*
X010649Y012618D01*
X010629D01*
X010649Y012598D01*
X010629Y012578D01*
X010649D01*
X010669Y012558D01*
Y013447D02*
X010709Y013487D01*
X010749D01*
X010709Y013527D01*
X010749Y013567D01*
X010709D01*
X010669Y013607D01*
X010629Y013567D01*
X010589D01*
X010629Y013527D01*
X010589Y013487D01*
X010629D01*
X010669Y013447D01*
Y013487D02*
X010689Y013507D01*
X010709D01*
X010689Y013527D01*
X010709Y013547D01*
X010689D01*
X010669Y013567D01*
X010649Y013547D01*
X010629D01*
X010649Y013527D01*
X010629Y013507D01*
X010649D01*
X010669Y013487D01*
Y014448D02*
X010709Y014488D01*
X010749D01*
X010709Y014528D01*
X010749Y014568D01*
X010709D01*
X010669Y014608D01*
X010629Y014568D01*
X010589D01*
X010629Y014528D01*
X010589Y014488D01*
X010629D01*
X010669Y014448D01*
Y014488D02*
X010689Y014508D01*
X010709D01*
X010689Y014528D01*
X010709Y014548D01*
X010689D01*
X010669Y014568D01*
X010649Y014548D01*
X010629D01*
X010649Y014528D01*
X010629Y014508D01*
X010649D01*
X010669Y014488D01*
Y015448D02*
X010709Y015488D01*
X010749D01*
X010709Y015528D01*
X010749Y015568D01*
X010709D01*
X010669Y015608D01*
X010629Y015568D01*
X010589D01*
X010629Y015528D01*
X010589Y015488D01*
X010629D01*
X010669Y015448D01*
Y015488D02*
X010689Y015508D01*
X010709D01*
X010689Y015528D01*
X010709Y015548D01*
X010689D01*
X010669Y015568D01*
X010649Y015548D01*
X010629D01*
X010649Y015528D01*
X010629Y015508D01*
X010649D01*
X010669Y015488D01*
Y016448D02*
X010709Y016488D01*
X010749D01*
X010709Y016528D01*
X010749Y016568D01*
X010709D01*
X010669Y016608D01*
X010629Y016568D01*
X010589D01*
X010629Y016528D01*
X010589Y016488D01*
X010629D01*
X010669Y016448D01*
Y016488D02*
X010689Y016508D01*
X010709D01*
X010689Y016528D01*
X010709Y016548D01*
X010689D01*
X010669Y016568D01*
X010649Y016548D01*
X010629D01*
X010649Y016528D01*
X010629Y016508D01*
X010649D01*
X010669Y016488D01*
Y018495D02*
X010709Y018535D01*
X010749D01*
X010709Y018575D01*
X010749Y018615D01*
X010709D01*
X010669Y018655D01*
X010629Y018615D01*
X010589D01*
X010629Y018575D01*
X010589Y018535D01*
X010629D01*
X010669Y018495D01*
Y018535D02*
X010689Y018555D01*
X010709D01*
X010689Y018575D01*
X010709Y018595D01*
X010689D01*
X010669Y018615D01*
X010649Y018595D01*
X010629D01*
X010649Y018575D01*
X010629Y018555D01*
X010649D01*
X010669Y018535D01*
Y019495D02*
X010709Y019535D01*
X010749D01*
X010709Y019575D01*
X010749Y019615D01*
X010709D01*
X010669Y019655D01*
X010629Y019615D01*
X010589D01*
X010629Y019575D01*
X010589Y019535D01*
X010629D01*
X010669Y019495D01*
Y019535D02*
X010689Y019555D01*
X010709D01*
X010689Y019575D01*
X010709Y019595D01*
X010689D01*
X010669Y019615D01*
X010649Y019595D01*
X010629D01*
X010649Y019575D01*
X010629Y019555D01*
X010649D01*
X010669Y019535D01*
Y020495D02*
X010709Y020535D01*
X010749D01*
X010709Y020575D01*
X010749Y020615D01*
X010709D01*
X010669Y020655D01*
X010629Y020615D01*
X010589D01*
X010629Y020575D01*
X010589Y020535D01*
X010629D01*
X010669Y020495D01*
Y020535D02*
X010689Y020555D01*
X010709D01*
X010689Y020575D01*
X010709Y020595D01*
X010689D01*
X010669Y020615D01*
X010649Y020595D01*
X010629D01*
X010649Y020575D01*
X010629Y020555D01*
X010649D01*
X010669Y020535D01*
Y021495D02*
X010709Y021535D01*
X010749D01*
X010709Y021575D01*
X010749Y021615D01*
X010709D01*
X010669Y021655D01*
X010629Y021615D01*
X010589D01*
X010629Y021575D01*
X010589Y021535D01*
X010629D01*
X010669Y021495D01*
Y021535D02*
X010689Y021555D01*
X010709D01*
X010689Y021575D01*
X010709Y021595D01*
X010689D01*
X010669Y021615D01*
X010649Y021595D01*
X010629D01*
X010649Y021575D01*
X010629Y021555D01*
X010649D01*
X010669Y021535D01*
Y022495D02*
X010709Y022535D01*
X010749D01*
X010709Y022575D01*
X010749Y022615D01*
X010709D01*
X010669Y022655D01*
X010629Y022615D01*
X010589D01*
X010629Y022575D01*
X010589Y022535D01*
X010629D01*
X010669Y022495D01*
Y022535D02*
X010689Y022555D01*
X010709D01*
X010689Y022575D01*
X010709Y022595D01*
X010689D01*
X010669Y022615D01*
X010649Y022595D01*
X010629D01*
X010649Y022575D01*
X010629Y022555D01*
X010649D01*
X010669Y022535D01*
Y023495D02*
X010709Y023535D01*
X010749D01*
X010709Y023575D01*
X010749Y023615D01*
X010709D01*
X010669Y023655D01*
X010629Y023615D01*
X010589D01*
X010629Y023575D01*
X010589Y023535D01*
X010629D01*
X010669Y023495D01*
Y023535D02*
X010689Y023555D01*
X010709D01*
X010689Y023575D01*
X010709Y023595D01*
X010689D01*
X010669Y023615D01*
X010649Y023595D01*
X010629D01*
X010649Y023575D01*
X010629Y023555D01*
X010649D01*
X010669Y023535D01*
Y024495D02*
X010709Y024535D01*
X010749D01*
X010709Y024575D01*
X010749Y024615D01*
X010709D01*
X010669Y024655D01*
X010629Y024615D01*
X010589D01*
X010629Y024575D01*
X010589Y024535D01*
X010629D01*
X010669Y024495D01*
Y024535D02*
X010689Y024555D01*
X010709D01*
X010689Y024575D01*
X010709Y024595D01*
X010689D01*
X010669Y024615D01*
X010649Y024595D01*
X010629D01*
X010649Y024575D01*
X010629Y024555D01*
X010649D01*
X010669Y024535D01*
Y025495D02*
X010709Y025535D01*
X010749D01*
X010709Y025575D01*
X010749Y025615D01*
X010709D01*
X010669Y025655D01*
X010629Y025615D01*
X010589D01*
X010629Y025575D01*
X010589Y025535D01*
X010629D01*
X010669Y025495D01*
Y025535D02*
X010689Y025555D01*
X010709D01*
X010689Y025575D01*
X010709Y025595D01*
X010689D01*
X010669Y025615D01*
X010649Y025595D01*
X010629D01*
X010649Y025575D01*
X010629Y025555D01*
X010649D01*
X010669Y025535D01*
Y026495D02*
X010709Y026535D01*
X010749D01*
X010709Y026575D01*
X010749Y026615D01*
X010709D01*
X010669Y026655D01*
X010629Y026615D01*
X010589D01*
X010629Y026575D01*
X010589Y026535D01*
X010629D01*
X010669Y026495D01*
Y026535D02*
X010689Y026555D01*
X010709D01*
X010689Y026575D01*
X010709Y026595D01*
X010689D01*
X010669Y026615D01*
X010649Y026595D01*
X010629D01*
X010649Y026575D01*
X010629Y026555D01*
X010649D01*
X010669Y026535D01*
Y027495D02*
X010709Y027535D01*
X010749D01*
X010709Y027575D01*
X010749Y027615D01*
X010709D01*
X010669Y027655D01*
X010629Y027615D01*
X010589D01*
X010629Y027575D01*
X010589Y027535D01*
X010629D01*
X010669Y027495D01*
Y027535D02*
X010689Y027555D01*
X010709D01*
X010689Y027575D01*
X010709Y027595D01*
X010689D01*
X010669Y027615D01*
X010649Y027595D01*
X010629D01*
X010649Y027575D01*
X010629Y027555D01*
X010649D01*
X010669Y027535D01*
Y028495D02*
X010709Y028535D01*
X010749D01*
X010709Y028575D01*
X010749Y028615D01*
X010709D01*
X010669Y028655D01*
X010629Y028615D01*
X010589D01*
X010629Y028575D01*
X010589Y028535D01*
X010629D01*
X010669Y028495D01*
Y028535D02*
X010689Y028555D01*
X010709D01*
X010689Y028575D01*
X010709Y028595D01*
X010689D01*
X010669Y028615D01*
X010649Y028595D01*
X010629D01*
X010649Y028575D01*
X010629Y028555D01*
X010649D01*
X010669Y028535D01*
Y029495D02*
X010709Y029535D01*
X010749D01*
X010709Y029575D01*
X010749Y029615D01*
X010709D01*
X010669Y029655D01*
X010629Y029615D01*
X010589D01*
X010629Y029575D01*
X010589Y029535D01*
X010629D01*
X010669Y029495D01*
Y029535D02*
X010689Y029555D01*
X010709D01*
X010689Y029575D01*
X010709Y029595D01*
X010689D01*
X010669Y029615D01*
X010649Y029595D01*
X010629D01*
X010649Y029575D01*
X010629Y029555D01*
X010649D01*
X010669Y029535D01*
Y030495D02*
X010709Y030535D01*
X010749D01*
X010709Y030575D01*
X010749Y030615D01*
X010709D01*
X010669Y030655D01*
X010629Y030615D01*
X010589D01*
X010629Y030575D01*
X010589Y030535D01*
X010629D01*
X010669Y030495D01*
Y030535D02*
X010689Y030555D01*
X010709D01*
X010689Y030575D01*
X010709Y030595D01*
X010689D01*
X010669Y030615D01*
X010649Y030595D01*
X010629D01*
X010649Y030575D01*
X010629Y030555D01*
X010649D01*
X010669Y030535D01*
Y031495D02*
X010709Y031535D01*
X010749D01*
X010709Y031575D01*
X010749Y031615D01*
X010709D01*
X010669Y031655D01*
X010629Y031615D01*
X010589D01*
X010629Y031575D01*
X010589Y031535D01*
X010629D01*
X010669Y031495D01*
Y031535D02*
X010689Y031555D01*
X010709D01*
X010689Y031575D01*
X010709Y031595D01*
X010689D01*
X010669Y031615D01*
X010649Y031595D01*
X010629D01*
X010649Y031575D01*
X010629Y031555D01*
X010649D01*
X010669Y031535D01*
Y032495D02*
X010709Y032535D01*
X010749D01*
X010709Y032575D01*
X010749Y032615D01*
X010709D01*
X010669Y032655D01*
X010629Y032615D01*
X010589D01*
X010629Y032575D01*
X010589Y032535D01*
X010629D01*
X010669Y032495D01*
Y032535D02*
X010689Y032555D01*
X010709D01*
X010689Y032575D01*
X010709Y032595D01*
X010689D01*
X010669Y032615D01*
X010649Y032595D01*
X010629D01*
X010649Y032575D01*
X010629Y032555D01*
X010649D01*
X010669Y032535D01*
Y033495D02*
X010709Y033535D01*
X010749D01*
X010709Y033575D01*
X010749Y033615D01*
X010709D01*
X010669Y033655D01*
X010629Y033615D01*
X010589D01*
X010629Y033575D01*
X010589Y033535D01*
X010629D01*
X010669Y033495D01*
Y033535D02*
X010689Y033555D01*
X010709D01*
X010689Y033575D01*
X010709Y033595D01*
X010689D01*
X010669Y033615D01*
X010649Y033595D01*
X010629D01*
X010649Y033575D01*
X010629Y033555D01*
X010649D01*
X010669Y033535D01*
Y034495D02*
X010709Y034535D01*
X010749D01*
X010709Y034575D01*
X010749Y034615D01*
X010709D01*
X010669Y034655D01*
X010629Y034615D01*
X010589D01*
X010629Y034575D01*
X010589Y034535D01*
X010629D01*
X010669Y034495D01*
Y034535D02*
X010689Y034555D01*
X010709D01*
X010689Y034575D01*
X010709Y034595D01*
X010689D01*
X010669Y034615D01*
X010649Y034595D01*
X010629D01*
X010649Y034575D01*
X010629Y034555D01*
X010649D01*
X010669Y034535D01*
Y035495D02*
X010709Y035535D01*
X010749D01*
X010709Y035575D01*
X010749Y035615D01*
X010709D01*
X010669Y035655D01*
X010629Y035615D01*
X010589D01*
X010629Y035575D01*
X010589Y035535D01*
X010629D01*
X010669Y035495D01*
Y035535D02*
X010689Y035555D01*
X010709D01*
X010689Y035575D01*
X010709Y035595D01*
X010689D01*
X010669Y035615D01*
X010649Y035595D01*
X010629D01*
X010649Y035575D01*
X010629Y035555D01*
X010649D01*
X010669Y035535D01*
Y036495D02*
X010709Y036535D01*
X010749D01*
X010709Y036575D01*
X010749Y036615D01*
X010709D01*
X010669Y036655D01*
X010629Y036615D01*
X010589D01*
X010629Y036575D01*
X010589Y036535D01*
X010629D01*
X010669Y036495D01*
Y036535D02*
X010689Y036555D01*
X010709D01*
X010689Y036575D01*
X010709Y036595D01*
X010689D01*
X010669Y036615D01*
X010649Y036595D01*
X010629D01*
X010649Y036575D01*
X010629Y036555D01*
X010649D01*
X010669Y036535D01*
Y037495D02*
X010709Y037535D01*
X010749D01*
X010709Y037575D01*
X010749Y037615D01*
X010709D01*
X010669Y037655D01*
X010629Y037615D01*
X010589D01*
X010629Y037575D01*
X010589Y037535D01*
X010629D01*
X010669Y037495D01*
Y037535D02*
X010689Y037555D01*
X010709D01*
X010689Y037575D01*
X010709Y037595D01*
X010689D01*
X010669Y037615D01*
X010649Y037595D01*
X010629D01*
X010649Y037575D01*
X010629Y037555D01*
X010649D01*
X010669Y037535D01*
Y038495D02*
X010709Y038535D01*
X010749D01*
X010709Y038575D01*
X010749Y038615D01*
X010709D01*
X010669Y038655D01*
X010629Y038615D01*
X010589D01*
X010629Y038575D01*
X010589Y038535D01*
X010629D01*
X010669Y038495D01*
Y038535D02*
X010689Y038555D01*
X010709D01*
X010689Y038575D01*
X010709Y038595D01*
X010689D01*
X010669Y038615D01*
X010649Y038595D01*
X010629D01*
X010649Y038575D01*
X010629Y038555D01*
X010649D01*
X010669Y038535D01*
Y039495D02*
X010709Y039535D01*
X010749D01*
X010709Y039575D01*
X010749Y039615D01*
X010709D01*
X010669Y039655D01*
X010629Y039615D01*
X010589D01*
X010629Y039575D01*
X010589Y039535D01*
X010629D01*
X010669Y039495D01*
Y039535D02*
X010689Y039555D01*
X010709D01*
X010689Y039575D01*
X010709Y039595D01*
X010689D01*
X010669Y039615D01*
X010649Y039595D01*
X010629D01*
X010649Y039575D01*
X010629Y039555D01*
X010649D01*
X010669Y039535D01*
Y040495D02*
X010709Y040535D01*
X010749D01*
X010709Y040575D01*
X010749Y040615D01*
X010709D01*
X010669Y040655D01*
X010629Y040615D01*
X010589D01*
X010629Y040575D01*
X010589Y040535D01*
X010629D01*
X010669Y040495D01*
Y040535D02*
X010689Y040555D01*
X010709D01*
X010689Y040575D01*
X010709Y040595D01*
X010689D01*
X010669Y040615D01*
X010649Y040595D01*
X010629D01*
X010649Y040575D01*
X010629Y040555D01*
X010649D01*
X010669Y040535D01*
Y041495D02*
X010709Y041535D01*
X010749D01*
X010709Y041575D01*
X010749Y041615D01*
X010709D01*
X010669Y041655D01*
X010629Y041615D01*
X010589D01*
X010629Y041575D01*
X010589Y041535D01*
X010629D01*
X010669Y041495D01*
Y041535D02*
X010689Y041555D01*
X010709D01*
X010689Y041575D01*
X010709Y041595D01*
X010689D01*
X010669Y041615D01*
X010649Y041595D01*
X010629D01*
X010649Y041575D01*
X010629Y041555D01*
X010649D01*
X010669Y041535D01*
Y042495D02*
X010709Y042535D01*
X010749D01*
X010709Y042575D01*
X010749Y042615D01*
X010709D01*
X010669Y042655D01*
X010629Y042615D01*
X010589D01*
X010629Y042575D01*
X010589Y042535D01*
X010629D01*
X010669Y042495D01*
Y042535D02*
X010689Y042555D01*
X010709D01*
X010689Y042575D01*
X010709Y042595D01*
X010689D01*
X010669Y042615D01*
X010649Y042595D01*
X010629D01*
X010649Y042575D01*
X010629Y042555D01*
X010649D01*
X010669Y042535D01*
Y043495D02*
X010709Y043535D01*
X010749D01*
X010709Y043575D01*
X010749Y043615D01*
X010709D01*
X010669Y043655D01*
X010629Y043615D01*
X010589D01*
X010629Y043575D01*
X010589Y043535D01*
X010629D01*
X010669Y043495D01*
Y043535D02*
X010689Y043555D01*
X010709D01*
X010689Y043575D01*
X010709Y043595D01*
X010689D01*
X010669Y043615D01*
X010649Y043595D01*
X010629D01*
X010649Y043575D01*
X010629Y043555D01*
X010649D01*
X010669Y043535D01*
Y044495D02*
X010709Y044535D01*
X010749D01*
X010709Y044575D01*
X010749Y044615D01*
X010709D01*
X010669Y044655D01*
X010629Y044615D01*
X010589D01*
X010629Y044575D01*
X010589Y044535D01*
X010629D01*
X010669Y044495D01*
Y044535D02*
X010689Y044555D01*
X010709D01*
X010689Y044575D01*
X010709Y044595D01*
X010689D01*
X010669Y044615D01*
X010649Y044595D01*
X010629D01*
X010649Y044575D01*
X010629Y044555D01*
X010649D01*
X010669Y044535D01*
Y045495D02*
X010709Y045535D01*
X010749D01*
X010709Y045575D01*
X010749Y045615D01*
X010709D01*
X010669Y045655D01*
X010629Y045615D01*
X010589D01*
X010629Y045575D01*
X010589Y045535D01*
X010629D01*
X010669Y045495D01*
Y045535D02*
X010689Y045555D01*
X010709D01*
X010689Y045575D01*
X010709Y045595D01*
X010689D01*
X010669Y045615D01*
X010649Y045595D01*
X010629D01*
X010649Y045575D01*
X010629Y045555D01*
X010649D01*
X010669Y045535D01*
Y046495D02*
X010709Y046535D01*
X010749D01*
X010709Y046575D01*
X010749Y046615D01*
X010709D01*
X010669Y046655D01*
X010629Y046615D01*
X010589D01*
X010629Y046575D01*
X010589Y046535D01*
X010629D01*
X010669Y046495D01*
Y046535D02*
X010689Y046555D01*
X010709D01*
X010689Y046575D01*
X010709Y046595D01*
X010689D01*
X010669Y046615D01*
X010649Y046595D01*
X010629D01*
X010649Y046575D01*
X010629Y046555D01*
X010649D01*
X010669Y046535D01*
X046083Y04246D02*
X046003Y04262D01*
X046163D01*
X046083Y04246D01*
Y0425D02*
X046043Y04258D01*
X046123D01*
X046083Y0425D01*
X028228Y021574D02*
X028148Y021734D01*
X028308D01*
X028228Y021574D01*
Y021614D02*
X028188Y021694D01*
X028268D01*
X028228Y021614D01*
X040974Y030697D02*
X040894Y030857D01*
X041054D01*
X040974Y030697D01*
Y030737D02*
X040934Y030817D01*
X041014D01*
X040974Y030737D01*
X039001Y03926D02*
X038921Y03942D01*
X039081D01*
X039001Y03926D01*
Y0393D02*
X038961Y03938D01*
X039041D01*
X039001Y0393D01*
X038031Y039329D02*
X037952Y039489D01*
X038112D01*
X038031Y039329D01*
Y039369D02*
X037991Y039449D01*
X038071D01*
X038031Y039369D01*
X043307Y022203D02*
X043227Y022363D01*
X043387D01*
X043307Y022203D01*
Y022243D02*
X043267Y022323D01*
X043347D01*
X043307Y022243D01*
X04315Y021928D02*
X04307Y022088D01*
X04323D01*
X04315Y021928D01*
Y021968D02*
X04311Y022048D01*
X04319D01*
X04315Y021968D01*
X042953Y021652D02*
X042873Y021812D01*
X043033D01*
X042953Y021652D01*
Y021692D02*
X042913Y021772D01*
X042993D01*
X042953Y021692D01*
X04298Y020971D02*
X0429Y021131D01*
X04306D01*
X04298Y020971D01*
Y021011D02*
X04294Y021091D01*
X04302D01*
X04298Y021011D01*
X043819Y039802D02*
X043739Y039962D01*
X043899D01*
X043819Y039802D01*
Y039842D02*
X043779Y039922D01*
X043859D01*
X043819Y039842D01*
X041732Y041652D02*
X041652Y041812D01*
X041812D01*
X041732Y041652D01*
Y041692D02*
X041692Y041772D01*
X041772D01*
X041732Y041692D01*
X043816Y041219D02*
X043736Y041379D01*
X043896D01*
X043816Y041219D01*
Y041259D02*
X043776Y041339D01*
X043856D01*
X043816Y041259D01*
X036378Y039329D02*
X036298Y039489D01*
X036458D01*
X036378Y039329D01*
Y039369D02*
X036338Y039449D01*
X036418D01*
X036378Y039369D01*
X0445Y042912D02*
X04442Y043072D01*
X04458D01*
X0445Y042912D01*
Y042952D02*
X04446Y043032D01*
X04454D01*
X0445Y042952D01*
X045748Y040668D02*
X045668Y040828D01*
X045828D01*
X045748Y040668D01*
Y040708D02*
X045708Y040788D01*
X045788D01*
X045748Y040708D01*
X047452Y041032D02*
X047372Y041192D01*
X047532D01*
X047452Y041032D01*
Y041072D02*
X047412Y041152D01*
X047492D01*
X047452Y041072D01*
X045486Y040983D02*
X045406Y041143D01*
X045566D01*
X045486Y040983D01*
Y041023D02*
X045446Y041103D01*
X045526D01*
X045486Y041023D01*
X048202Y040672D02*
X048122Y040832D01*
X048282D01*
X048202Y040672D01*
Y040712D02*
X048162Y040792D01*
X048242D01*
X048202Y040712D01*
X045661Y044129D02*
X045581Y044289D01*
X045741D01*
X045661Y044129D01*
Y044169D02*
X045621Y044249D01*
X045701D01*
X045661Y044169D01*
X04374Y03807D02*
X04366Y03823D01*
X04382D01*
X04374Y03807D01*
Y03811D02*
X0437Y03819D01*
X04378D01*
X04374Y03811D01*
X03878Y023739D02*
X0387Y023899D01*
X03886D01*
X03878Y023739D01*
Y023779D02*
X03874Y023859D01*
X03882D01*
X03878Y023779D01*
X039141Y023971D02*
X039061Y024131D01*
X039221D01*
X039141Y023971D01*
Y024011D02*
X039101Y024091D01*
X039181D01*
X039141Y024011D01*
X038465Y023463D02*
X038385Y023623D01*
X038545D01*
X038465Y023463D01*
Y023503D02*
X038425Y023583D01*
X038505D01*
X038465Y023503D01*
X035607Y029448D02*
X035527Y029608D01*
X035687D01*
X035607Y029448D01*
Y029488D02*
X035567Y029568D01*
X035647D01*
X035607Y029488D01*
X037808Y023614D02*
X037728Y023774D01*
X037888D01*
X037808Y023614D01*
Y023654D02*
X037768Y023734D01*
X037848D01*
X037808Y023654D01*
X037612Y023909D02*
X037532Y024069D01*
X037692D01*
X037612Y023909D01*
Y023949D02*
X037572Y024029D01*
X037652D01*
X037612Y023949D01*
X038223Y022991D02*
X038143Y023151D01*
X038303D01*
X038223Y022991D01*
Y023031D02*
X038183Y023111D01*
X038263D01*
X038223Y023031D01*
X041968Y023778D02*
X041888Y023938D01*
X042049D01*
X041968Y023778D01*
Y023818D02*
X041929Y023898D01*
X042009D01*
X041968Y023818D01*
X038819Y022243D02*
X038739Y022403D01*
X038899D01*
X038819Y022243D01*
Y022283D02*
X038779Y022363D01*
X038859D01*
X038819Y022283D01*
X038949Y020314D02*
X038869Y020474D01*
X039029D01*
X038949Y020314D01*
Y020354D02*
X038909Y020434D01*
X038989D01*
X038949Y020354D01*
X040711Y023954D02*
X040751Y023994D01*
X040791D01*
X040751Y024034D01*
X040791Y024074D01*
X040751D01*
X040711Y024114D01*
X040671Y024074D01*
X040631D01*
X040671Y024034D01*
X040631Y023994D01*
X040671D01*
X040711Y023954D01*
Y023994D02*
X040731Y024014D01*
X040751D01*
X040731Y024034D01*
X040751Y024054D01*
X040731D01*
X040711Y024074D01*
X040691Y024054D01*
X040671D01*
X040691Y024034D01*
X040671Y024014D01*
X040691D01*
X040711Y023994D01*
X040065Y020936D02*
X039985Y021096D01*
X040145D01*
X040065Y020936D01*
Y020976D02*
X040025Y021056D01*
X040105D01*
X040065Y020976D01*
X041378Y023954D02*
X041418Y023994D01*
X041458D01*
X041418Y024034D01*
X041458Y024074D01*
X041418D01*
X041378Y024114D01*
X041338Y024074D01*
X041298D01*
X041338Y024034D01*
X041298Y023994D01*
X041338D01*
X041378Y023954D01*
Y023994D02*
X041398Y024014D01*
X041418D01*
X041398Y024034D01*
X041418Y024054D01*
X041398D01*
X041378Y024074D01*
X041358Y024054D01*
X041338D01*
X041358Y024034D01*
X041338Y024014D01*
X041358D01*
X041378Y023994D01*
X041178Y024172D02*
X041218Y024212D01*
X041258D01*
X041218Y024252D01*
X041258Y024292D01*
X041218D01*
X041178Y024332D01*
X041138Y024292D01*
X041098D01*
X041138Y024252D01*
X041098Y024212D01*
X041138D01*
X041178Y024172D01*
Y024212D02*
X041198Y024232D01*
X041218D01*
X041198Y024252D01*
X041218Y024272D01*
X041198D01*
X041178Y024292D01*
X041158Y024272D01*
X041138D01*
X041158Y024252D01*
X041138Y024232D01*
X041158D01*
X041178Y024212D01*
X041024Y023954D02*
X041064Y023994D01*
X041104D01*
X041064Y024034D01*
X041104Y024074D01*
X041064D01*
X041024Y024114D01*
X040984Y024074D01*
X040944D01*
X040984Y024034D01*
X040944Y023994D01*
X040984D01*
X041024Y023954D01*
Y023994D02*
X041044Y024014D01*
X041064D01*
X041044Y024034D01*
X041064Y024054D01*
X041044D01*
X041024Y024074D01*
X041004Y024054D01*
X040984D01*
X041004Y024034D01*
X040984Y024014D01*
X041004D01*
X041024Y023994D01*
X040869Y024172D02*
X040909Y024212D01*
X040949D01*
X040909Y024252D01*
X040949Y024292D01*
X040909D01*
X040869Y024332D01*
X040829Y024292D01*
X040789D01*
X040829Y024252D01*
X040789Y024212D01*
X040829D01*
X040869Y024172D01*
Y024212D02*
X040889Y024232D01*
X040909D01*
X040889Y024252D01*
X040909Y024272D01*
X040889D01*
X040869Y024292D01*
X040849Y024272D01*
X040829D01*
X040849Y024252D01*
X040829Y024232D01*
X040849D01*
X040869Y024212D01*
X039146Y020038D02*
X039066Y020198D01*
X039226D01*
X039146Y020038D01*
Y020078D02*
X039106Y020158D01*
X039186D01*
X039146Y020078D01*
X036732Y029959D02*
X036652Y030119D01*
X036812D01*
X036732Y029959D01*
Y029999D02*
X036692Y030079D01*
X036772D01*
X036732Y029999D01*
X036732Y039343D02*
X036652Y039503D01*
X036812D01*
X036732Y039343D01*
Y039383D02*
X036692Y039463D01*
X036772D01*
X036732Y039383D01*
X044843Y030074D02*
X044763Y030234D01*
X044923D01*
X044843Y030074D01*
Y030114D02*
X044803Y030194D01*
X044883D01*
X044843Y030114D01*
Y029759D02*
X044763Y029919D01*
X044923D01*
X044843Y029759D01*
Y029799D02*
X044803Y029879D01*
X044883D01*
X044843Y029799D01*
X037835Y019251D02*
X037755Y019411D01*
X037915D01*
X037835Y019251D01*
Y019291D02*
X037795Y019371D01*
X037875D01*
X037835Y019291D01*
X038937Y018463D02*
X038857Y018623D01*
X039017D01*
X038937Y018463D01*
Y018503D02*
X038897Y018583D01*
X038977D01*
X038937Y018503D01*
X037598Y028542D02*
X037518Y028702D01*
X037678D01*
X037598Y028542D01*
Y028582D02*
X037558Y028662D01*
X037638D01*
X037598Y028582D01*
X037559Y028148D02*
X037479Y028308D01*
X037639D01*
X037559Y028148D01*
Y028188D02*
X037519Y028268D01*
X037599D01*
X037559Y028188D01*
X037638Y028896D02*
X037558Y029056D01*
X037718D01*
X037638Y028896D01*
Y028936D02*
X037598Y029016D01*
X037678D01*
X037638Y028936D01*
X042677Y029133D02*
X042597Y029293D01*
X042757D01*
X042677Y029133D01*
Y029173D02*
X042637Y029253D01*
X042717D01*
X042677Y029173D01*
X043348Y028698D02*
X043268Y028858D01*
X043428D01*
X043348Y028698D01*
Y028738D02*
X043308Y028818D01*
X043388D01*
X043348Y028738D01*
X043307Y026574D02*
X043227Y026734D01*
X043387D01*
X043307Y026574D01*
Y026614D02*
X043267Y026694D01*
X043347D01*
X043307Y026614D01*
X043583Y025944D02*
X043503Y026104D01*
X043663D01*
X043583Y025944D01*
Y025984D02*
X043543Y026064D01*
X043623D01*
X043583Y025984D01*
X046024Y027218D02*
X045944Y027378D01*
X046104D01*
X046024Y027218D01*
Y027258D02*
X045984Y027338D01*
X046064D01*
X046024Y027258D01*
X045669Y021455D02*
X045589Y021615D01*
X045749D01*
X045669Y021455D01*
Y021495D02*
X045629Y021575D01*
X045709D01*
X045669Y021495D01*
X037402Y021888D02*
X037322Y022048D01*
X037482D01*
X037402Y021888D01*
Y021929D02*
X037362Y022009D01*
X037442D01*
X037402Y021929D01*
X018223Y031817D02*
X018143Y031977D01*
X018303D01*
X018223Y031817D01*
Y031857D02*
X018183Y031937D01*
X018263D01*
X018223Y031857D01*
X035598Y029772D02*
X035518Y029932D01*
X035678D01*
X035598Y029772D01*
Y029812D02*
X035558Y029892D01*
X035638D01*
X035598Y029812D01*
X035607Y029133D02*
X035527Y029293D01*
X035687D01*
X035607Y029133D01*
Y029173D02*
X035567Y029253D01*
X035647D01*
X035607Y029173D01*
X0357Y028419D02*
X03562Y028579D01*
X03578D01*
X0357Y028419D01*
Y028459D02*
X03566Y028539D01*
X03574D01*
X0357Y028459D01*
Y027361D02*
X03562Y027521D01*
X03578D01*
X0357Y027361D01*
Y027401D02*
X03566Y027481D01*
X03574D01*
X0357Y027401D01*
X040092Y029889D02*
X040012Y030049D01*
X040172D01*
X040092Y029889D01*
Y029929D02*
X040052Y030009D01*
X040132D01*
X040092Y029929D01*
X047147Y028972D02*
X047067Y029132D01*
X047227D01*
X047147Y028972D01*
Y029012D02*
X047107Y029092D01*
X047187D01*
X047147Y029012D01*
X03252Y029763D02*
X03244Y029923D01*
X0326D01*
X03252Y029763D01*
Y029803D02*
X03248Y029883D01*
X03256D01*
X03252Y029803D01*
X045315Y016534D02*
X045355Y016574D01*
X045395D01*
X045355Y016614D01*
X045395Y016654D01*
X045355D01*
X045315Y016694D01*
X045275Y016654D01*
X045235D01*
X045275Y016614D01*
X045235Y016574D01*
X045275D01*
X045315Y016534D01*
Y016574D02*
X045335Y016594D01*
X045355D01*
X045335Y016614D01*
X045355Y016634D01*
X045335D01*
X045315Y016654D01*
X045295Y016634D01*
X045275D01*
X045295Y016614D01*
X045275Y016594D01*
X045295D01*
X045315Y016574D01*
Y016259D02*
X045355Y016299D01*
X045395D01*
X045355Y016339D01*
X045395Y016379D01*
X045355D01*
X045315Y016419D01*
X045275Y016379D01*
X045235D01*
X045275Y016339D01*
X045235Y016299D01*
X045275D01*
X045315Y016259D01*
Y016299D02*
X045335Y016319D01*
X045355D01*
X045335Y016339D01*
X045355Y016359D01*
X045335D01*
X045315Y016379D01*
X045295Y016359D01*
X045275D01*
X045295Y016339D01*
X045275Y016319D01*
X045295D01*
X045315Y016299D01*
X045669Y016259D02*
X045709Y016299D01*
X045749D01*
X045709Y016339D01*
X045749Y016379D01*
X045709D01*
X045669Y016419D01*
X045629Y016379D01*
X045589D01*
X045629Y016339D01*
X045589Y016299D01*
X045629D01*
X045669Y016259D01*
Y016299D02*
X045689Y016319D01*
X045709D01*
X045689Y016339D01*
X045709Y016359D01*
X045689D01*
X045669Y016379D01*
X045649Y016359D01*
X045629D01*
X045649Y016339D01*
X045629Y016319D01*
X045649D01*
X045669Y016299D01*
X045983Y016261D02*
X046023Y016301D01*
X046063D01*
X046023Y016341D01*
X046063Y016381D01*
X046023D01*
X045983Y016421D01*
X045943Y016381D01*
X045903D01*
X045943Y016341D01*
X045903Y016301D01*
X045943D01*
X045983Y016261D01*
Y016301D02*
X046003Y016321D01*
X046023D01*
X046003Y016341D01*
X046023Y016361D01*
X046003D01*
X045983Y016381D01*
X045963Y016361D01*
X045943D01*
X045963Y016341D01*
X045943Y016321D01*
X045963D01*
X045983Y016301D01*
X045669Y016534D02*
X045709Y016574D01*
X045749D01*
X045709Y016614D01*
X045749Y016654D01*
X045709D01*
X045669Y016694D01*
X045629Y016654D01*
X045589D01*
X045629Y016614D01*
X045589Y016574D01*
X045629D01*
X045669Y016534D01*
Y016574D02*
X045689Y016594D01*
X045709D01*
X045689Y016614D01*
X045709Y016634D01*
X045689D01*
X045669Y016654D01*
X045649Y016634D01*
X045629D01*
X045649Y016614D01*
X045629Y016594D01*
X045649D01*
X045669Y016574D01*
X045984Y016534D02*
X046024Y016574D01*
X046064D01*
X046024Y016614D01*
X046064Y016654D01*
X046024D01*
X045984Y016694D01*
X045944Y016654D01*
X045904D01*
X045944Y016614D01*
X045904Y016574D01*
X045944D01*
X045984Y016534D01*
Y016574D02*
X046004Y016594D01*
X046024D01*
X046004Y016614D01*
X046024Y016634D01*
X046004D01*
X045984Y016654D01*
X045964Y016634D01*
X045944D01*
X045964Y016614D01*
X045944Y016594D01*
X045964D01*
X045984Y016574D01*
X047874Y017952D02*
X047794Y018111D01*
X047954D01*
X047874Y017952D01*
Y017991D02*
X047834Y018072D01*
X047914D01*
X047874Y017991D01*
X034291Y029881D02*
X034211Y030041D01*
X034371D01*
X034291Y029881D01*
Y029921D02*
X034251Y030001D01*
X034331D01*
X034291Y029921D01*
X034449Y039329D02*
X034369Y039489D01*
X034529D01*
X034449Y039329D01*
Y039369D02*
X034409Y039449D01*
X034489D01*
X034449Y039369D01*
X034035Y03935D02*
X033955Y03951D01*
X034115D01*
X034035Y03935D01*
Y03939D02*
X033995Y03947D01*
X034075D01*
X034035Y03939D01*
X041776Y033561D02*
X041696Y033721D01*
X041856D01*
X041776Y033561D01*
Y033601D02*
X041736Y033681D01*
X041816D01*
X041776Y033601D01*
X04213Y033561D02*
X04205Y033721D01*
X04221D01*
X04213Y033561D01*
Y033601D02*
X04209Y033681D01*
X04217D01*
X04213Y033601D01*
X042135Y033252D02*
X042055Y033412D01*
X042215D01*
X042135Y033252D01*
Y033292D02*
X042095Y033372D01*
X042175D01*
X042135Y033292D01*
X041781Y033254D02*
X041701Y033414D01*
X041861D01*
X041781Y033254D01*
Y033294D02*
X041741Y033374D01*
X041821D01*
X041781Y033294D01*
X041772Y033857D02*
X041692Y034017D01*
X041852D01*
X041772Y033857D01*
Y033897D02*
X041732Y033977D01*
X041812D01*
X041772Y033897D01*
X042126Y033857D02*
X042046Y034017D01*
X042206D01*
X042126Y033857D01*
Y033897D02*
X042086Y033977D01*
X042166D01*
X042126Y033897D01*
X047717Y032952D02*
X047637Y033112D01*
X047797D01*
X047717Y032952D01*
Y032991D02*
X047677Y033071D01*
X047757D01*
X047717Y032991D01*
X023898Y013345D02*
X023818Y013505D01*
X023978D01*
X023898Y013345D01*
Y013385D02*
X023858Y013465D01*
X023938D01*
X023898Y013385D01*
X04668Y03031D02*
X0466Y03047D01*
X04676D01*
X04668Y03031D01*
Y03035D02*
X04664Y03043D01*
X04672D01*
X04668Y03035D01*
X045591Y034211D02*
X045511Y034371D01*
X045671D01*
X045591Y034211D01*
Y034251D02*
X045551Y034331D01*
X045631D01*
X045591Y034251D01*
X041968Y025747D02*
X041888Y025907D01*
X042049D01*
X041968Y025747D01*
Y025787D02*
X041929Y025867D01*
X042009D01*
X041968Y025787D01*
X04535Y023989D02*
X04527Y024149D01*
X04543D01*
X04535Y023989D01*
Y024029D02*
X04531Y024109D01*
X04539D01*
X04535Y024029D01*
X04495Y023974D02*
X04487Y024134D01*
X04503D01*
X04495Y023974D01*
Y024014D02*
X04491Y024094D01*
X04499D01*
X04495Y024014D01*
X045354Y0237D02*
X045274Y02386D01*
X045434D01*
X045354Y0237D01*
Y02374D02*
X045314Y02382D01*
X045394D01*
X045354Y02374D01*
X044961Y0237D02*
X044881Y02386D01*
X045041D01*
X044961Y0237D01*
Y02374D02*
X044921Y02382D01*
X045001D01*
X044961Y02374D01*
X03815Y036022D02*
X03807Y036182D01*
X03823D01*
X03815Y036022D01*
Y036062D02*
X03811Y036142D01*
X03819D01*
X03815Y036062D01*
X037795Y03429D02*
X037715Y03445D01*
X037875D01*
X037795Y03429D01*
Y03433D02*
X037755Y03441D01*
X037835D01*
X037795Y03433D01*
X03749Y034054D02*
X03741Y034214D01*
X03757D01*
X03749Y034054D01*
Y034094D02*
X03745Y034174D01*
X03753D01*
X03749Y034094D01*
X046071Y017904D02*
X045991Y018064D01*
X046151D01*
X046071Y017904D01*
Y017944D02*
X046031Y018024D01*
X046111D01*
X046071Y017944D01*
X028819Y021574D02*
X028739Y021734D01*
X028899D01*
X028819Y021574D01*
Y021614D02*
X028779Y021694D01*
X028859D01*
X028819Y021614D01*
X028504Y021574D02*
X028424Y021734D01*
X028584D01*
X028504Y021574D01*
Y021614D02*
X028464Y021694D01*
X028544D01*
X028504Y021614D01*
X040392Y020929D02*
X040312Y021089D01*
X040472D01*
X040392Y020929D01*
Y020969D02*
X040352Y021049D01*
X040432D01*
X040392Y020969D01*
X040696Y020925D02*
X040616Y021085D01*
X040776D01*
X040696Y020925D01*
Y020965D02*
X040656Y021045D01*
X040736D01*
X040696Y020965D01*
X040066Y020636D02*
X039986Y020796D01*
X040146D01*
X040066Y020636D01*
Y020676D02*
X040026Y020756D01*
X040106D01*
X040066Y020676D01*
X040394Y020629D02*
X040314Y020789D01*
X040474D01*
X040394Y020629D01*
Y020669D02*
X040354Y020749D01*
X040434D01*
X040394Y020669D01*
X040698Y020625D02*
X040618Y020785D01*
X040778D01*
X040698Y020625D01*
Y020665D02*
X040658Y020745D01*
X040738D01*
X040698Y020665D01*
X037913Y018936D02*
X037833Y019096D01*
X037993D01*
X037913Y018936D01*
Y018976D02*
X037873Y019056D01*
X037953D01*
X037913Y018976D01*
X028228Y021259D02*
X028148Y021419D01*
X028308D01*
X028228Y021259D01*
Y021299D02*
X028188Y021379D01*
X028268D01*
X028228Y021299D01*
X028504Y021259D02*
X028424Y021419D01*
X028584D01*
X028504Y021259D01*
Y021299D02*
X028464Y021379D01*
X028544D01*
X028504Y021299D01*
X028819Y021259D02*
X028739Y021419D01*
X028899D01*
X028819Y021259D01*
Y021299D02*
X028779Y021379D01*
X028859D01*
X028819Y021299D01*
X040714Y025351D02*
X040754Y025391D01*
X040794D01*
X040754Y025431D01*
X040794Y025471D01*
X040754D01*
X040714Y025511D01*
X040674Y025471D01*
X040634D01*
X040674Y025431D01*
X040634Y025391D01*
X040674D01*
X040714Y025351D01*
Y025391D02*
X040734Y025411D01*
X040754D01*
X040734Y025431D01*
X040754Y025451D01*
X040734D01*
X040714Y025471D01*
X040694Y025451D01*
X040674D01*
X040694Y025431D01*
X040674Y025411D01*
X040694D01*
X040714Y025391D01*
X040709Y025629D02*
X040749Y025669D01*
X040789D01*
X040749Y025709D01*
X040789Y025749D01*
X040749D01*
X040709Y025789D01*
X040669Y025749D01*
X040629D01*
X040669Y025709D01*
X040629Y025669D01*
X040669D01*
X040709Y025629D01*
Y025669D02*
X040729Y025689D01*
X040749D01*
X040729Y025709D01*
X040749Y025729D01*
X040729D01*
X040709Y025749D01*
X040689Y025729D01*
X040669D01*
X040689Y025709D01*
X040669Y025689D01*
X040689D01*
X040709Y025669D01*
X040644Y027432D02*
X040684Y027472D01*
X040724D01*
X040684Y027512D01*
X040724Y027552D01*
X040684D01*
X040644Y027592D01*
X040604Y027552D01*
X040564D01*
X040604Y027512D01*
X040564Y027472D01*
X040604D01*
X040644Y027432D01*
Y027472D02*
X040664Y027492D01*
X040684D01*
X040664Y027512D01*
X040684Y027532D01*
X040664D01*
X040644Y027552D01*
X040624Y027532D01*
X040604D01*
X040624Y027512D01*
X040604Y027492D01*
X040624D01*
X040644Y027472D01*
X04118Y027436D02*
X04122Y027476D01*
X04126D01*
X04122Y027516D01*
X04126Y027556D01*
X04122D01*
X04118Y027596D01*
X04114Y027556D01*
X0411D01*
X04114Y027516D01*
X0411Y027476D01*
X04114D01*
X04118Y027436D01*
Y027476D02*
X0412Y027496D01*
X04122D01*
X0412Y027516D01*
X04122Y027536D01*
X0412D01*
X04118Y027556D01*
X04116Y027536D01*
X04114D01*
X04116Y027516D01*
X04114Y027496D01*
X04116D01*
X04118Y027476D01*
X037518Y029701D02*
X037558Y029741D01*
X037598D01*
X037558Y029781D01*
X037598Y029821D01*
X037558D01*
X037518Y029861D01*
X037478Y029821D01*
X037438D01*
X037478Y029781D01*
X037438Y029741D01*
X037478D01*
X037518Y029701D01*
Y029741D02*
X037538Y029761D01*
X037558D01*
X037538Y029781D01*
X037558Y029801D01*
X037538D01*
X037518Y029821D01*
X037498Y029801D01*
X037478D01*
X037498Y029781D01*
X037478Y029761D01*
X037498D01*
X037518Y029741D01*
X038775Y029701D02*
X038815Y029741D01*
X038855D01*
X038815Y029781D01*
X038855Y029821D01*
X038815D01*
X038775Y029861D01*
X038735Y029821D01*
X038695D01*
X038735Y029781D01*
X038695Y029741D01*
X038735D01*
X038775Y029701D01*
Y029741D02*
X038795Y029761D01*
X038815D01*
X038795Y029781D01*
X038815Y029801D01*
X038795D01*
X038775Y029821D01*
X038755Y029801D01*
X038735D01*
X038755Y029781D01*
X038735Y029761D01*
X038755D01*
X038775Y029741D01*
X037854Y029701D02*
X037894Y029741D01*
X037934D01*
X037894Y029781D01*
X037934Y029821D01*
X037894D01*
X037854Y029861D01*
X037814Y029821D01*
X037774D01*
X037814Y029781D01*
X037774Y029741D01*
X037814D01*
X037854Y029701D01*
Y029741D02*
X037874Y029761D01*
X037894D01*
X037874Y029781D01*
X037894Y029801D01*
X037874D01*
X037854Y029821D01*
X037834Y029801D01*
X037814D01*
X037834Y029781D01*
X037814Y029761D01*
X037834D01*
X037854Y029741D01*
X040906Y02744D02*
X040946Y02748D01*
X040986D01*
X040946Y02752D01*
X040986Y02756D01*
X040946D01*
X040906Y0276D01*
X040866Y02756D01*
X040826D01*
X040866Y02752D01*
X040826Y02748D01*
X040866D01*
X040906Y02744D01*
Y02748D02*
X040926Y0275D01*
X040946D01*
X040926Y02752D01*
X040946Y02754D01*
X040926D01*
X040906Y02756D01*
X040886Y02754D01*
X040866D01*
X040886Y02752D01*
X040866Y0275D01*
X040886D01*
X040906Y02748D01*
X030714Y03233D02*
X030633Y03249D01*
X030793D01*
X030714Y03233D01*
Y03237D02*
X030673Y03245D01*
X030754D01*
X030714Y03237D01*
X030447Y03233D02*
X030367Y03249D01*
X030527D01*
X030447Y03233D01*
Y03237D02*
X030407Y03245D01*
X030487D01*
X030447Y03237D01*
X030144Y03233D02*
X030064Y03249D01*
X030224D01*
X030144Y03233D01*
Y03237D02*
X030104Y03245D01*
X030184D01*
X030144Y03237D01*
X029862Y032334D02*
X029782Y032494D01*
X029942D01*
X029862Y032334D01*
Y032374D02*
X029822Y032454D01*
X029902D01*
X029862Y032374D01*
X02422Y032734D02*
X02414Y032894D01*
X0243D01*
X02422Y032734D01*
Y032774D02*
X02418Y032854D01*
X02426D01*
X02422Y032774D01*
X025962Y032735D02*
X025882Y032895D01*
X026042D01*
X025962Y032735D01*
Y032775D02*
X025922Y032855D01*
X026002D01*
X025962Y032775D01*
X029857Y03205D02*
X029777Y03221D01*
X029937D01*
X029857Y03205D01*
Y03209D02*
X029817Y03217D01*
X029897D01*
X029857Y03209D01*
X03014Y032046D02*
X03006Y032206D01*
X03022D01*
X03014Y032046D01*
Y032086D02*
X0301Y032166D01*
X03018D01*
X03014Y032086D01*
X029843Y031731D02*
X029763Y031891D01*
X029923D01*
X029843Y031731D01*
Y031771D02*
X029803Y031851D01*
X029883D01*
X029843Y031771D01*
X030118Y031731D02*
X030038Y031891D01*
X030198D01*
X030118Y031731D01*
Y031771D02*
X030078Y031851D01*
X030158D01*
X030118Y031771D01*
X030442Y032046D02*
X030362Y032206D01*
X030522D01*
X030442Y032046D01*
Y032086D02*
X030402Y032166D01*
X030482D01*
X030442Y032086D01*
X030415Y031731D02*
X030335Y031891D01*
X030495D01*
X030415Y031731D01*
Y031771D02*
X030375Y031851D01*
X030455D01*
X030415Y031771D01*
X030709Y032046D02*
X030629Y032206D01*
X030789D01*
X030709Y032046D01*
Y032086D02*
X030669Y032166D01*
X030749D01*
X030709Y032086D01*
Y031731D02*
X030629Y031891D01*
X030789D01*
X030709Y031731D01*
Y031771D02*
X030669Y031851D01*
X030749D01*
X030709Y031771D01*
X033071Y022558D02*
X032991Y022718D01*
X033151D01*
X033071Y022558D01*
Y022598D02*
X033031Y022678D01*
X033111D01*
X033071Y022598D01*
X035079Y022085D02*
X034999Y022245D01*
X035159D01*
X035079Y022085D01*
Y022125D02*
X035039Y022205D01*
X035119D01*
X035079Y022125D01*
X035394Y022085D02*
X035314Y022245D01*
X035474D01*
X035394Y022085D01*
Y022125D02*
X035354Y022205D01*
X035434D01*
X035394Y022125D01*
X035079Y0224D02*
X034999Y02256D01*
X035159D01*
X035079Y0224D01*
Y02244D02*
X035039Y02252D01*
X035119D01*
X035079Y02244D01*
X025521Y039992D02*
X025441Y040152D01*
X025601D01*
X025521Y039992D01*
Y040032D02*
X025481Y040112D01*
X025561D01*
X025521Y040032D01*
X02523Y039992D02*
X02515Y040152D01*
X02531D01*
X02523Y039992D01*
Y040032D02*
X02519Y040112D01*
X02527D01*
X02523Y040032D01*
Y039605D02*
X02515Y039765D01*
X02531D01*
X02523Y039605D01*
Y039645D02*
X02519Y039725D01*
X02527D01*
X02523Y039645D01*
X025521Y039605D02*
X025441Y039765D01*
X025601D01*
X025521Y039605D01*
Y039645D02*
X025481Y039725D01*
X025561D01*
X025521Y039645D01*
X026929Y029211D02*
X026849Y029371D01*
X027009D01*
X026929Y029211D01*
Y029251D02*
X026889Y029331D01*
X026969D01*
X026929Y029251D01*
X027244Y029211D02*
X027164Y029371D01*
X027324D01*
X027244Y029211D01*
Y029251D02*
X027204Y029331D01*
X027284D01*
X027244Y029251D01*
X026925Y028934D02*
X026845Y029094D01*
X027005D01*
X026925Y028934D01*
Y028974D02*
X026885Y029054D01*
X026965D01*
X026925Y028974D01*
X027244Y028936D02*
X027164Y029096D01*
X027324D01*
X027244Y028936D01*
Y028976D02*
X027204Y029056D01*
X027284D01*
X027244Y028976D01*
X03274Y016967D02*
X03266Y017127D01*
X03282D01*
X03274Y016967D01*
Y017007D02*
X0327Y017087D01*
X03278D01*
X03274Y017007D01*
X029944Y016216D02*
X029984Y016256D01*
X030024D01*
X029984Y016296D01*
X030024Y016336D01*
X029984D01*
X029944Y016376D01*
X029904Y016336D01*
X029864D01*
X029904Y016296D01*
X029864Y016256D01*
X029904D01*
X029944Y016216D01*
Y016256D02*
X029964Y016276D01*
X029984D01*
X029964Y016296D01*
X029984Y016316D01*
X029964D01*
X029944Y016336D01*
X029924Y016316D01*
X029904D01*
X029924Y016296D01*
X029904Y016276D01*
X029924D01*
X029944Y016256D01*
X029651Y016218D02*
X029691Y016258D01*
X029731D01*
X029691Y016298D01*
X029731Y016338D01*
X029691D01*
X029651Y016378D01*
X029611Y016338D01*
X029571D01*
X029611Y016298D01*
X029571Y016258D01*
X029611D01*
X029651Y016218D01*
Y016258D02*
X029671Y016278D01*
X029691D01*
X029671Y016298D01*
X029691Y016318D01*
X029671D01*
X029651Y016338D01*
X029631Y016318D01*
X029611D01*
X029631Y016298D01*
X029611Y016278D01*
X029631D01*
X029651Y016258D01*
X029944Y015859D02*
X029984Y015899D01*
X030024D01*
X029984Y015939D01*
X030024Y015979D01*
X029984D01*
X029944Y016019D01*
X029904Y015979D01*
X029864D01*
X029904Y015939D01*
X029864Y015899D01*
X029904D01*
X029944Y015859D01*
Y015899D02*
X029964Y015919D01*
X029984D01*
X029964Y015939D01*
X029984Y015959D01*
X029964D01*
X029944Y015979D01*
X029924Y015959D01*
X029904D01*
X029924Y015939D01*
X029904Y015919D01*
X029924D01*
X029944Y015899D01*
X034843Y016967D02*
X034763Y017127D01*
X034923D01*
X034843Y016967D01*
Y017007D02*
X034803Y017087D01*
X034883D01*
X034843Y017007D01*
X020354Y012597D02*
X020394Y012637D01*
X020434D01*
X020394Y012677D01*
X020434Y012717D01*
X020394D01*
X020354Y012757D01*
X020314Y012717D01*
X020274D01*
X020314Y012677D01*
X020274Y012637D01*
X020314D01*
X020354Y012597D01*
Y012637D02*
X020374Y012657D01*
X020394D01*
X020374Y012677D01*
X020394Y012697D01*
X020374D01*
X020354Y012717D01*
X020334Y012697D01*
X020314D01*
X020334Y012677D01*
X020314Y012657D01*
X020334D01*
X020354Y012637D01*
X02036Y012282D02*
X0204Y012322D01*
X02044D01*
X0204Y012362D01*
X02044Y012402D01*
X0204D01*
X02036Y012442D01*
X02032Y012402D01*
X02028D01*
X02032Y012362D01*
X02028Y012322D01*
X02032D01*
X02036Y012282D01*
Y012322D02*
X02038Y012342D01*
X0204D01*
X02038Y012362D01*
X0204Y012382D01*
X02038D01*
X02036Y012402D01*
X02034Y012382D01*
X02032D01*
X02034Y012362D01*
X02032Y012342D01*
X02034D01*
X02036Y012322D01*
X02103Y012597D02*
X02107Y012637D01*
X02111D01*
X02107Y012677D01*
X02111Y012717D01*
X02107D01*
X02103Y012757D01*
X02099Y012717D01*
X02095D01*
X02099Y012677D01*
X02095Y012637D01*
X02099D01*
X02103Y012597D01*
Y012637D02*
X02105Y012657D01*
X02107D01*
X02105Y012677D01*
X02107Y012697D01*
X02105D01*
X02103Y012717D01*
X02101Y012697D01*
X02099D01*
X02101Y012677D01*
X02099Y012657D01*
X02101D01*
X02103Y012637D01*
X020703Y0126D02*
X020743Y01264D01*
X020783D01*
X020743Y01268D01*
X020783Y01272D01*
X020743D01*
X020703Y01276D01*
X020663Y01272D01*
X020623D01*
X020663Y01268D01*
X020623Y01264D01*
X020663D01*
X020703Y0126D01*
Y01264D02*
X020723Y01266D01*
X020743D01*
X020723Y01268D01*
X020743Y0127D01*
X020723D01*
X020703Y01272D01*
X020683Y0127D01*
X020663D01*
X020683Y01268D01*
X020663Y01266D01*
X020683D01*
X020703Y01264D01*
X025039Y014605D02*
X025079Y014645D01*
X025119D01*
X025079Y014685D01*
X025119Y014725D01*
X025079D01*
X025039Y014765D01*
X024999Y014725D01*
X024959D01*
X024999Y014685D01*
X024959Y014645D01*
X024999D01*
X025039Y014605D01*
Y014645D02*
X025059Y014665D01*
X025079D01*
X025059Y014685D01*
X025079Y014705D01*
X025059D01*
X025039Y014725D01*
X025019Y014705D01*
X024999D01*
X025019Y014685D01*
X024999Y014665D01*
X025019D01*
X025039Y014645D01*
X025369Y014601D02*
X025409Y014641D01*
X025449D01*
X025409Y014681D01*
X025449Y014721D01*
X025409D01*
X025369Y014761D01*
X025329Y014721D01*
X025289D01*
X025329Y014681D01*
X025289Y014641D01*
X025329D01*
X025369Y014601D01*
Y014641D02*
X025389Y014661D01*
X025409D01*
X025389Y014681D01*
X025409Y014701D01*
X025389D01*
X025369Y014721D01*
X025349Y014701D01*
X025329D01*
X025349Y014681D01*
X025329Y014661D01*
X025349D01*
X025369Y014641D01*
X025024Y014291D02*
X025064Y014331D01*
X025104D01*
X025064Y014371D01*
X025104Y014411D01*
X025064D01*
X025024Y014451D01*
X024984Y014411D01*
X024944D01*
X024984Y014371D01*
X024944Y014331D01*
X024984D01*
X025024Y014291D01*
Y014331D02*
X025044Y014351D01*
X025064D01*
X025044Y014371D01*
X025064Y014391D01*
X025044D01*
X025024Y014411D01*
X025004Y014391D01*
X024984D01*
X025004Y014371D01*
X024984Y014351D01*
X025004D01*
X025024Y014331D01*
X025353Y014291D02*
X025393Y014331D01*
X025433D01*
X025393Y014371D01*
X025433Y014411D01*
X025393D01*
X025353Y014451D01*
X025313Y014411D01*
X025273D01*
X025313Y014371D01*
X025273Y014331D01*
X025313D01*
X025353Y014291D01*
Y014331D02*
X025373Y014351D01*
X025393D01*
X025373Y014371D01*
X025393Y014391D01*
X025373D01*
X025353Y014411D01*
X025333Y014391D01*
X025313D01*
X025333Y014371D01*
X025313Y014351D01*
X025333D01*
X025353Y014331D01*
X017441Y016614D02*
X017481Y016654D01*
X017521D01*
X017481Y016694D01*
X017521Y016734D01*
X017481D01*
X017441Y016774D01*
X017401Y016734D01*
X017361D01*
X017401Y016694D01*
X017361Y016654D01*
X017401D01*
X017441Y016614D01*
Y016654D02*
X017461Y016674D01*
X017481D01*
X017461Y016694D01*
X017481Y016714D01*
X017461D01*
X017441Y016734D01*
X017421Y016714D01*
X017401D01*
X017421Y016694D01*
X017401Y016674D01*
X017421D01*
X017441Y016654D01*
Y016338D02*
X017481Y016378D01*
X017521D01*
X017481Y016418D01*
X017521Y016458D01*
X017481D01*
X017441Y016498D01*
X017401Y016458D01*
X017361D01*
X017401Y016418D01*
X017361Y016378D01*
X017401D01*
X017441Y016338D01*
Y016378D02*
X017461Y016398D01*
X017481D01*
X017461Y016418D01*
X017481Y016438D01*
X017461D01*
X017441Y016458D01*
X017421Y016438D01*
X017401D01*
X017421Y016418D01*
X017401Y016398D01*
X017421D01*
X017441Y016378D01*
X016393Y016338D02*
X016433Y016378D01*
X016473D01*
X016433Y016418D01*
X016473Y016458D01*
X016433D01*
X016393Y016498D01*
X016353Y016458D01*
X016313D01*
X016353Y016418D01*
X016313Y016378D01*
X016353D01*
X016393Y016338D01*
Y016378D02*
X016413Y016398D01*
X016433D01*
X016413Y016418D01*
X016433Y016438D01*
X016413D01*
X016393Y016458D01*
X016373Y016438D01*
X016353D01*
X016373Y016418D01*
X016353Y016398D01*
X016373D01*
X016393Y016378D01*
X042402Y0174D02*
X042322Y01756D01*
X042482D01*
X042402Y0174D01*
Y01744D02*
X042362Y01752D01*
X042442D01*
X042402Y01744D01*
X044961Y016259D02*
X045001Y016299D01*
X045041D01*
X045001Y016339D01*
X045041Y016379D01*
X045001D01*
X044961Y016419D01*
X044921Y016379D01*
X044881D01*
X044921Y016339D01*
X044881Y016299D01*
X044921D01*
X044961Y016259D01*
Y016299D02*
X044981Y016319D01*
X045001D01*
X044981Y016339D01*
X045001Y016359D01*
X044981D01*
X044961Y016379D01*
X044941Y016359D01*
X044921D01*
X044941Y016339D01*
X044921Y016319D01*
X044941D01*
X044961Y016299D01*
Y016534D02*
X045001Y016574D01*
X045041D01*
X045001Y016614D01*
X045041Y016654D01*
X045001D01*
X044961Y016694D01*
X044921Y016654D01*
X044881D01*
X044921Y016614D01*
X044881Y016574D01*
X044921D01*
X044961Y016534D01*
Y016574D02*
X044981Y016594D01*
X045001D01*
X044981Y016614D01*
X045001Y016634D01*
X044981D01*
X044961Y016654D01*
X044941Y016634D01*
X044921D01*
X044941Y016614D01*
X044921Y016594D01*
X044941D01*
X044961Y016574D01*
X03895Y018028D02*
X03887Y018188D01*
X03903D01*
X03895Y018028D01*
Y018068D02*
X03891Y018148D01*
X03899D01*
X03895Y018068D01*
X037815Y017558D02*
X037735Y017718D01*
X037895D01*
X037815Y017558D01*
Y017598D02*
X037775Y017678D01*
X037855D01*
X037815Y017598D01*
X034902Y017558D02*
X034822Y017718D01*
X034982D01*
X034902Y017558D01*
Y017598D02*
X034862Y017678D01*
X034942D01*
X034902Y017598D01*
X032776Y017558D02*
X032696Y017718D01*
X032856D01*
X032776Y017558D01*
Y017598D02*
X032736Y017678D01*
X032816D01*
X032776Y017598D01*
X038012Y016967D02*
X037932Y017127D01*
X038092D01*
X038012Y016967D01*
Y017007D02*
X037972Y017087D01*
X038052D01*
X038012Y017007D01*
X027874Y014763D02*
X027794Y014923D01*
X027954D01*
X027874Y014763D01*
Y014803D02*
X027834Y014883D01*
X027914D01*
X027874Y014803D01*
X025197Y013345D02*
X025117Y013505D01*
X025277D01*
X025197Y013345D01*
Y013385D02*
X025157Y013465D01*
X025237D01*
X025197Y013385D01*
X029691Y013343D02*
X029611Y013503D01*
X029771D01*
X029691Y013343D01*
Y013383D02*
X029651Y013463D01*
X029731D01*
X029691Y013383D01*
X027835Y013343D02*
X027755Y013503D01*
X027915D01*
X027835Y013343D01*
Y013383D02*
X027795Y013463D01*
X027875D01*
X027835Y013383D01*
X020371Y015486D02*
X020291Y015646D01*
X020451D01*
X020371Y015486D01*
Y015526D02*
X020331Y015606D01*
X020411D01*
X020371Y015526D01*
X016393Y016614D02*
X016433Y016654D01*
X016473D01*
X016433Y016694D01*
X016473Y016734D01*
X016433D01*
X016393Y016774D01*
X016353Y016734D01*
X016313D01*
X016353Y016694D01*
X016313Y016654D01*
X016353D01*
X016393Y016614D01*
Y016654D02*
X016413Y016674D01*
X016433D01*
X016413Y016694D01*
X016433Y016714D01*
X016413D01*
X016393Y016734D01*
X016373Y016714D01*
X016353D01*
X016373Y016694D01*
X016353Y016674D01*
X016373D01*
X016393Y016654D01*
X035394Y0224D02*
X035314Y02256D01*
X035474D01*
X035394Y0224D01*
Y02244D02*
X035354Y02252D01*
X035434D01*
X035394Y02244D01*
X017229Y038456D02*
X017149Y038616D01*
X017309D01*
X017229Y038456D01*
Y038496D02*
X017189Y038576D01*
X017269D01*
X017229Y038496D01*
X017245Y039997D02*
X017165Y040157D01*
X017325D01*
X017245Y039997D01*
Y040037D02*
X017205Y040117D01*
X017285D01*
X017245Y040037D01*
X033071Y022912D02*
X032991Y023072D01*
X033151D01*
X033071Y022912D01*
Y022952D02*
X033031Y023032D01*
X033111D01*
X033071Y022952D01*
X018222Y03334D02*
X018142Y0335D01*
X018302D01*
X018222Y03334D01*
Y03338D02*
X018182Y03346D01*
X018262D01*
X018222Y03338D01*
X0211Y02897D02*
X02102Y02913D01*
X02118D01*
X0211Y02897D01*
Y02901D02*
X02106Y02909D01*
X02114D01*
X0211Y02901D01*
X02675Y02432D02*
X02667Y02448D01*
X02683D01*
X02675Y02432D01*
Y02436D02*
X02671Y02444D01*
X02679D01*
X02675Y02436D01*
X02185Y02662D02*
X02177Y02678D01*
X02193D01*
X02185Y02662D01*
Y02666D02*
X02181Y02674D01*
X02189D01*
X02185Y02666D01*
Y02432D02*
X02177Y02448D01*
X02193D01*
X02185Y02432D01*
Y02436D02*
X02181Y02444D01*
X02189D01*
X02185Y02436D01*
X01885Y03927D02*
X01877Y03943D01*
X01893D01*
X01885Y03927D01*
Y03931D02*
X01881Y03939D01*
X01889D01*
X01885Y03931D01*
X017645Y03782D02*
X017565Y03798D01*
X017725D01*
X017645Y03782D01*
Y03786D02*
X017605Y03794D01*
X017685D01*
X017645Y03786D01*
X0218Y03967D02*
X02172Y03983D01*
X02188D01*
X0218Y03967D01*
Y03971D02*
X02176Y03979D01*
X02184D01*
X0218Y03971D01*
X02035Y03512D02*
X02027Y03528D01*
X02043D01*
X02035Y03512D01*
Y03516D02*
X02031Y03524D01*
X02039D01*
X02035Y03516D01*
X019087Y03334D02*
X019007Y0335D01*
X019167D01*
X019087Y03334D01*
Y03338D02*
X019047Y03346D01*
X019127D01*
X019087Y03338D01*
X0211Y03107D02*
X02102Y03123D01*
X02118D01*
X0211Y03107D01*
Y03111D02*
X02106Y03119D01*
X02114D01*
X0211Y03111D01*
X019088Y031823D02*
X019008Y031983D01*
X019168D01*
X019088Y031823D01*
Y031863D02*
X019048Y031943D01*
X019128D01*
X019088Y031863D01*
X020359Y038455D02*
X020279Y038615D01*
X020439D01*
X020359Y038455D01*
Y038495D02*
X020319Y038575D01*
X020399D01*
X020359Y038495D01*
D159*
X017671Y011372D02*
G03*
X017671Y011372I-00008J0D01*
G01*
X013671D02*
G03*
X013671Y011372I-00008J0D01*
G01*
X020907Y012008D02*
G03*
X020907Y012008I-00008J0D01*
G01*
X022907D02*
G03*
X022907Y012008I-00008J0D01*
G01*
X021907Y011008D02*
G03*
X021907Y011008I-00008J0D01*
G01*
D160*
X020867Y012008D02*
G03*
X020867Y012008I-00004J0D01*
G01*
X022867D02*
G03*
X022867Y012008I-00004J0D01*
G01*
X021867Y011008D02*
G03*
X021867Y011008I-00004J0D01*
G01*
M02*
