G04*
G04 #@! TF.GenerationSoftware,Altium Limited,Altium Designer,21.0.8 (223)*
G04*
G04 Layer_Color=16711935*
%FSTAX24Y24*%
%MOIN*%
G70*
G04*
G04 #@! TF.SameCoordinates,6FDD5C99-857A-4E56-A0FC-F6C85F5CD364*
G04*
G04*
G04 #@! TF.FilePolarity,Positive*
G04*
G01*
G75*
%ADD20C,0.0050*%
%ADD23C,0.0020*%
%ADD157C,0.0030*%
D20*
X043752Y044882D02*
X044539D01*
X01176D02*
X012547D01*
X012154Y044488D02*
Y045276D01*
X013Y040752D02*
Y049012D01*
Y040752D02*
X043299D01*
Y049012D01*
X013D02*
X043299D01*
D23*
X024461Y0125D02*
Y012933D01*
X024122Y0125D02*
Y012933D01*
X024114Y012382D02*
Y0125D01*
X024469Y012382D02*
Y0125D01*
X024114Y012382D02*
X024469D01*
X024114Y0125D02*
X024469D01*
X024114Y012933D02*
Y013051D01*
Y012933D02*
X024469D01*
Y013051D01*
X024114D02*
X024469D01*
X01935Y015D02*
X019705D01*
X01935D02*
Y015118D01*
X019705D01*
Y015D02*
Y015118D01*
X01935Y015551D02*
X019705D01*
X01935Y015669D02*
X019705D01*
X01935Y015551D02*
Y015669D01*
X019705Y015551D02*
Y015669D01*
X019697Y015118D02*
Y015551D01*
X019358Y015118D02*
Y015551D01*
X020267Y016378D02*
Y016535D01*
X020276Y016191D02*
Y016378D01*
X020251Y016215D02*
X020276Y016191D01*
X020251Y016215D02*
Y016698D01*
X020276Y016722D01*
Y016535D02*
Y016722D01*
X019803Y016215D02*
X020251Y016215D01*
X019803Y016698D02*
X020251Y016698D01*
X019803Y016215D02*
Y016698D01*
X019591D02*
X019803D01*
X019567Y016722D02*
X019591Y016698D01*
X019567Y016722D02*
X020276D01*
X019567Y016191D02*
X020276D01*
X019567D02*
X019591Y016215D01*
X019803D01*
X019567Y016191D02*
Y016378D01*
X019575D02*
Y016535D01*
X019567D02*
Y016722D01*
X019591Y016215D02*
Y016698D01*
X019563Y016378D02*
Y016535D01*
X019409Y016378D02*
X019575D01*
X019409Y016535D02*
X019575D01*
X019484Y016378D02*
Y016535D01*
X02028Y016378D02*
Y016535D01*
X020358Y016378D02*
Y016535D01*
X020267Y016378D02*
X020433D01*
X020267Y016535D02*
X020433D01*
X020377Y016378D02*
Y016535D01*
X019466Y016378D02*
Y016535D01*
X020433Y016378D02*
Y016535D01*
X019409Y016378D02*
Y016535D01*
D157*
X019913Y01248D02*
X023732D01*
X019913Y010512D02*
Y01248D01*
Y010512D02*
X023732D01*
Y01248D01*
M02*
